<?xml version="1.0" encoding="UTF-8"?>
<svg width="128px" height="35px" viewBox="0 0 128 35" version="1.1" xmlns="http://www.w3.org/2000/svg" xmlns:xlink="http://www.w3.org/1999/xlink">
    <!-- Generator: Sketch 53.2 (72643) - https://sketchapp.com -->
    <title>angular-3</title>
    <desc>Created with Sketch.</desc>
    <g id="web" stroke="none" stroke-width="1" fill="none" fill-rule="evenodd">
        <g id="Technologies---Technologies-tab" transform="translate(-895.000000, -1446.000000)">
            <g id="Front-end" transform="translate(735.000000, 880.000000)">
                <g id="angular-3" transform="translate(160.000000, 566.000000)">
                    <g id="Group" transform="translate(37.000000, 8.000000)" fill="#B52E31" fill-rule="nonzero">
                        <path d="M0.150828729,18.6876712 L0.150828729,2.29041096 L2.18701657,2.29041096 L11.8651934,15.4863014 L11.8651934,2.29041096 L13.8008287,2.29041096 L13.8008287,18.6876712 L11.7646409,18.6876712 L2.08646409,5.36164384 L2.08646409,18.6876712 L0.150828729,18.6876712 Z M29.5624309,18.0369863 C28.2803867,18.5315068 26.8977901,18.7917808 25.439779,18.7917808 C19.7082873,18.7917808 16.8425414,15.9547945 16.8425414,10.2547945 C16.8425414,4.86712329 19.6077348,2.16027397 25.1381215,2.16027397 C26.7218232,2.16027397 28.2049724,2.39452055 29.5624309,2.8369863 L29.5624309,4.65890411 C28.2049724,4.11232877 26.7972376,3.85205479 25.3643646,3.85205479 C21.0406077,3.85205479 18.8787293,5.98630137 18.8787293,10.2027397 C18.8787293,14.7575342 21.0154696,17.0219178 25.2638122,17.0219178 C25.9425414,17.0219178 26.6966851,16.9178082 27.5262431,16.7356164 L27.5262431,11.2438356 L29.5624309,11.2438356 L29.5624309,18.0369863 L29.5624309,18.0369863 Z M32.8303867,12.3630137 L32.8303867,2.29041096 L34.8665746,2.29041096 L34.8665746,12.3630137 C34.8665746,15.5123288 36.3748619,17.1 39.4165746,17.1 C42.4331492,17.1 43.9665746,15.5123288 43.9665746,12.3630137 L43.9665746,2.29041096 L46.0027624,2.29041096 L46.0027624,12.3630137 C46.0027624,16.6575342 43.8157459,18.8178082 39.4165746,18.8178082 C35.0174033,18.8178082 32.8303867,16.6575342 32.8303867,12.3630137 L32.8303867,12.3630137 Z M51.6839779,2.29041096 L51.6839779,16.969863 L59.979558,16.969863 L59.979558,18.6876712 L49.6477901,18.6876712 L49.6477901,2.29041096 L51.6839779,2.29041096 L51.6839779,2.29041096 Z M62.9207182,18.6876712 L60.7839779,18.6876712 L68.6522099,0.130136986 L76.520442,18.6876712 L74.258011,18.6876712 L72.2218232,13.5342466 L66.9930939,13.5342466 L67.5461326,11.8164384 L71.5430939,11.8164384 L68.5767956,4.39863014 L62.9207182,18.6876712 L62.9207182,18.6876712 Z M78.7074586,18.6876712 L78.7074586,2.29041096 L85.4696133,2.29041096 C88.4861878,2.29041096 89.9944751,3.59178082 89.9944751,6.22054795 C89.9944751,8.35479452 88.511326,9.94246575 85.5701657,10.9575342 L91,18.6876712 L88.310221,18.6876712 L83.2825967,11.3219178 L83.2825967,9.94246575 C86.2991713,9.44794521 87.8325967,8.25068493 87.8325967,6.32465753 C87.8325967,4.81506849 87.0030387,4.06027397 85.3187845,4.06027397 L80.7939227,4.06027397 L80.7939227,18.6876712 L78.7074586,18.6876712 L78.7074586,18.6876712 Z" id="Shape"></path>
                    </g>
                    <polygon id="Path" fill="#E23237" points="0 5.80808081 16.2853864 0 33 5.70707071 30.2983933 27.2474747 16.2853864 35 2.49961744 27.3484848"></polygon>
                    <polygon id="Path" fill="#B52E31" points="32 5.70707071 16 0 16 35 29.4138973 27.2474747"></polygon>
                    <path d="M15.7929354,4 L6,26.9486607 L9.65408039,26.8716518 L11.6272838,21.6863839 L20.3727162,21.6863839 L22.5164434,26.9229911 L26,27 L15.7929354,4 Z M15.817296,11.3671875 L19.1303289,18.6573661 L12.9183922,18.6573661 L15.817296,11.3671875 L15.817296,11.3671875 Z" id="Shape" fill="#FFFFFF" fill-rule="nonzero"></path>
                </g>
            </g>
        </g>
    </g>
</svg>