<?xml version="1.0" encoding="UTF-8"?>
<svg width="32px" height="45px" viewBox="0 0 32 45" version="1.1" xmlns="http://www.w3.org/2000/svg" xmlns:xlink="http://www.w3.org/1999/xlink">
    <!-- Generator: Sketch 53.2 (72643) - https://sketchapp.com -->
    <title>css-5</title>
    <desc>Created with Sketch.</desc>
    <g id="web" stroke="none" stroke-width="1" fill="none" fill-rule="evenodd">
        <g id="Technologies---Technologies-tab" transform="translate(-833.000000, -1441.000000)">
            <g id="Front-end" transform="translate(735.000000, 880.000000)">
                <g id="css-5" transform="translate(98.000000, 561.000000)">
                    <path d="M25.0404596,1.67819332 L22.3863202,1.67819332 L25.1470588,4.68805572 L25.1470588,6.11950927 L19.4593592,6.11950927 L19.4593592,4.44313021 L22.2200977,4.44313021 L19.4593592,1.43326781 L19.4593592,0 L25.0422664,0 L25.0404596,1.67819332 Z M18.3301303,1.67819332 L15.6723774,1.67819332 L18.4367295,4.68805572 L18.4367295,6.11950927 L12.7472231,6.11950927 L12.7472231,4.44313021 L15.5079617,4.44313021 L12.7472231,1.43326781 L12.7472231,0 L18.3301303,0 L18.3301303,1.67819332 Z M11.6848447,1.74713532 L8.82112039,1.74713532 L8.82112039,4.37418821 L11.6848447,4.37418821 L11.6848447,6.12132353 L6.78308824,6.12132353 L6.78308824,1.13686838e-13 L11.6848447,1.13686838e-13 L11.6848447,1.74713532 Z" id="Shape" fill="#131313" fill-rule="nonzero"></path>
                    <polygon id="Path" fill="#1572B6" points="2.90634653 41.3793638 0 8.76838235 31.9301471 8.76838235 29.0201946 41.3739518 15.9452411 45"></polygon>
                    <polygon id="Path" fill="#33A9DC" points="15.8823529 42.1875 26.4639139 39.2581154 28.9522059 11.4154412 15.8823529 11.4154412"></polygon>
                    <polygon id="Path" fill="#FFFFFF" points="15.8823529 23.3008784 21.207833 23.3008784 21.5744816 19.2121003 15.8823529 19.2121003 15.8823529 15.2205882 25.9742647 15.2205882 25.8780648 16.2923164 24.8888397 27.2977941 15.8823529 27.2977941"></polygon>
                    <polygon id="Path" fill="#EBEBEB" points="16.0387843 33.6978747 16.0207646 33.6978747 11.5717025 32.4885677 11.2869914 29.2830882 7.27941176 29.2830882 7.8398242 35.5943292 16.0243685 37.8860294 16.0477941 37.8860294 16.0477941 33.6978747"></polygon>
                    <polygon id="Path" fill="#FFFFFF" points="20.9790343 27.1341618 20.4985084 32.5010513 16.0477941 33.7075613 16.0477941 37.8860294 24.2275338 35.606865 24.2869247 34.9285423 24.9816176 27.1323529 20.9790343 27.1323529"></polygon>
                    <path d="M16.0477941,15.2205882 L16.0477941,19.215093 L6.31929293,19.215093 L6.2357085,18.3178159 L6.05218616,16.2926362 L5.95588235,15.2205882 L16.0477941,15.2205882 Z M16.0332577,23.3032894 L16.0332577,27.2977941 L11.5978316,27.2977941 L11.5196983,26.400517 L11.336176,24.3753373 L11.2398722,23.3032894 L16.0314406,23.3032894 L16.0332577,23.3032894 Z" id="Shape" fill="#EBEBEB" fill-rule="nonzero"></path>
                </g>
            </g>
        </g>
    </g>
</svg>