<?xml version="1.0" encoding="UTF-8"?>
<svg width="33px" height="45px" viewBox="0 0 33 45" version="1.1" xmlns="http://www.w3.org/2000/svg" xmlns:xlink="http://www.w3.org/1999/xlink">
    <!-- Generator: Sketch 53.2 (72643) - https://sketchapp.com -->
    <title>html5</title>
    <desc>Created with Sketch.</desc>
    <g id="web" stroke="none" stroke-width="1" fill="none" fill-rule="evenodd">
        <g id="Technologies---Technologies-tab" transform="translate(-771.000000, -1441.000000)">
            <g id="Front-end" transform="translate(735.000000, 880.000000)">
                <g id="html5" transform="translate(36.000000, 561.000000)">
                    <polygon id="Path" fill="#E44D26" points="2.94567344 41.3697165 -1.8189894e-12 8.68421053 32.3684211 8.68421053 29.4195108 41.3645494 16.1643481 45"></polygon>
                    <polygon id="Path" fill="#F16529" points="15.7894737 42.6315789 26.6541282 39.7009663 29.2105263 11.8421053 15.7894737 11.8421053"></polygon>
                    <path d="M16.5789474,23.9725615 L11.1630815,23.9725615 L10.7889612,19.8325018 L16.5789474,19.8325018 L16.5789474,15.7894737 L6.31578947,15.7894737 L6.41387068,16.874142 L7.41979747,28.0154428 L16.5789474,28.0154428 L16.5789474,23.9725615 Z M16.5789474,34.4725149 L16.5609658,34.4773591 L12.0027161,33.2614561 L11.711296,30.0371037 L7.60273378,30.0371037 L8.17621161,36.3851805 L16.5602228,38.6842105 L16.5789474,38.6789993 L16.5789474,34.4725149 Z" id="Shape" fill="#EBEBEB" fill-rule="nonzero"></path>
                    <path d="M3.15789474,-4.54747351e-13 L5.1898403,-4.54747351e-13 L5.1898403,2.08560566 L7.04858559,2.08560566 L7.04858559,-4.54747351e-13 L9.08060375,-4.54747351e-13 L9.08060375,6.31578947 L7.04858559,6.31578947 L7.04858559,4.2009238 L5.1898403,4.2009238 L5.1898403,6.31578947 L3.15803992,6.31578947 L3.15789474,-4.54747351e-13 Z M11.7528677,2.09450432 L9.96409937,2.09450432 L9.96409937,-4.54747351e-13 L15.5748156,-4.54747351e-13 L15.5748156,2.09450432 L13.7851762,2.09450432 L13.7851762,6.31578947 L11.7529403,6.31578947 L11.7529403,2.09450432 L11.7528677,2.09450432 Z M16.4651347,-4.54747351e-13 L18.5840433,-4.54747351e-13 L19.8874008,2.21923645 L21.1895243,-4.54747351e-13 L23.3091588,-4.54747351e-13 L23.3091588,6.31578947 L21.2851982,6.31578947 L21.2851982,3.18526944 L19.8871831,5.43090024 L19.8522672,5.43090024 L18.4533084,3.18526944 L18.4533084,6.31578947 L16.4650621,6.31578947 L16.4650621,-4.54747351e-13 L16.4651347,-4.54747351e-13 Z M24.3202681,-4.54747351e-13 L26.3527944,-4.54747351e-13 L26.3527944,4.2282231 L29.2105263,4.2282231 L29.2105263,6.31578947 L24.3202681,6.31578947 L24.3202681,-4.54747351e-13 Z" id="Shape" fill="#000000" fill-rule="nonzero"></path>
                    <path d="M15.7894737,23.9733223 L15.7894737,28.0165796 L20.8346238,28.0165796 L20.358968,33.2605849 L15.7894737,34.4776286 L15.7894737,38.6842105 L24.1886855,36.3870955 L24.2501228,35.7037746 L25.2130377,25.0591192 L25.3130035,23.9733223 L24.2090654,23.9733223 L15.7894737,23.9733223 Z M15.7894737,15.7894737 L15.7894737,19.8328777 L25.6858671,19.8328777 L25.7679075,18.9239853 L25.9545996,16.8742429 L26.0526316,15.7894737 L15.7894737,15.7894737 Z" id="Shape" fill="#FFFFFF" fill-rule="nonzero"></path>
                </g>
            </g>
        </g>
    </g>
</svg>