<?xml version="1.0" encoding="UTF-8"?>
<svg width="124px" height="35px" viewBox="0 0 124 35" version="1.1" xmlns="http://www.w3.org/2000/svg" xmlns:xlink="http://www.w3.org/1999/xlink">
    <!-- Generator: Sketch 53.2 (72643) - https://sketchapp.com -->
    <title>nodejs</title>
    <desc>Created with Sketch.</desc>
    <g id="web" stroke="none" stroke-width="1" fill="none" fill-rule="evenodd">
        <g id="Technologies---Technologies-tab" transform="translate(-481.000000, -1443.000000)">
            <g id="Back-end" transform="translate(136.000000, 880.000000)">
                <g id="nodejs" transform="translate(345.000000, 563.000000)">
                    <g id="Group" transform="translate(103.793103, 12.310345)" fill="#83CD29">
                        <path d="M9.90862069,0.147482759 C9.60834483,0.147482759 9.31627586,0.209517241 9.05775862,0.355793103 L0.877896552,5.07958621 C0.348551724,5.38468966 0.0267931034,5.96062069 0.0267931034,6.57348276 L0.0267931034,16.003931 C0.0267931034,16.6163103 0.348551724,17.1915172 0.877896552,17.4973448 L3.01410345,18.7305517 C4.05203448,19.2420345 4.43462069,19.234069 4.907,19.234069 C6.44362069,19.234069 7.32103448,18.3016207 7.32103448,16.6812414 L7.32103448,7.3722069 C7.32103448,7.24065517 7.20710345,7.14651724 7.07796552,7.14651724 L6.05331034,7.14651724 C5.922,7.14651724 5.81024138,7.24065517 5.81024138,7.3722069 L5.81024138,16.6812414 C5.81024138,17.3993448 5.06196552,18.1217931 3.84782759,17.5147241 L1.62472414,16.2122414 C1.54603448,16.1695172 1.48568966,16.0939655 1.48568966,16.003931 L1.48568966,6.57324138 C1.48568966,6.48393103 1.54531034,6.39293103 1.62472414,6.34755172 L9.7872069,1.64137931 C9.86229064,1.59750608 9.95519211,1.59750608 10.0302759,1.64137931 L18.193,6.3477931 C18.2707241,6.39462069 18.3320345,6.48127586 18.3320345,6.57372414 L18.3320345,16.0041724 C18.3320345,16.0942069 18.2866552,16.1864138 18.2103793,16.2298621 L10.0302759,20.9362759 C9.96027586,20.9780345 9.86372414,20.9780345 9.7872069,20.9362759 L7.68575862,19.685931 C7.62079273,19.6506922 7.54241417,19.6506922 7.47744828,19.685931 C6.89741379,20.0146897 6.78831034,20.0528276 6.24424138,20.2415862 C6.11027586,20.2884138 5.9067931,20.361069 6.31375862,20.5891724 L9.05775862,22.204 C9.31648153,22.3532666 9.61017096,22.4312284 9.90886207,22.429931 C10.2075175,22.4317933 10.5012541,22.3538802 10.7597241,22.2042414 L18.9398276,17.4975862 C19.4691724,17.1898276 19.7906897,16.6165517 19.7906897,16.0041724 L19.7906897,6.57348276 C19.7906897,5.96086207 19.4691724,5.38589655 18.9398276,5.08006897 L10.7597241,0.356275862 C10.5033793,0.209758621 10.2093793,0.147724138 9.90886207,0.147724138 L9.90862069,0.147482759 Z" id="Path"></path>
                        <path d="M12.0969655,6.88606897 C9.76765517,6.88606897 8.38044828,7.87741379 8.38044828,9.52603448 C8.38044828,11.3141724 9.75727586,11.8056207 11.992931,12.0267241 C14.6674138,12.2886207 14.8757241,12.6813448 14.8757241,13.2077931 C14.8757241,14.120931 14.1477241,14.5102759 12.4271724,14.5102759 C10.2651379,14.5102759 9.79010345,13.9705517 9.63103448,12.8952069 C9.6122069,12.7798276 9.52313793,12.6866552 9.40510345,12.6866552 L8.34568966,12.6866552 C8.21534483,12.6866552 8.10262069,12.7991379 8.10262069,12.9299655 C8.10262069,14.3065517 8.85137931,15.9344138 12.4271724,15.9344138 C15.0154828,15.9344138 16.5084138,14.9184483 16.5084138,13.1382759 C16.5084138,11.3737931 15.3024828,10.8999655 12.7916552,10.568069 C10.2547586,10.2323103 10.0128966,10.067931 10.0128966,9.47389655 C10.0128966,8.98341379 10.218069,8.32734483 12.0969655,8.32734483 C13.7755172,8.32734483 14.3958621,8.68941379 14.6500345,9.82124138 C14.6722414,9.92744828 14.7658966,10.0121724 14.8757241,10.0121724 L15.9353793,10.0121724 C16.0005517,10.0121724 16.0637931,9.97210345 16.108931,9.92527586 C16.1533448,9.87531034 16.1847241,9.81906897 16.1784483,9.75172414 C16.0143103,7.80282759 14.7147241,6.88606897 12.0969655,6.88606897 L12.0969655,6.88606897 Z" id="Path"></path>
                    </g>
                    <path d="M65.6119655,0.0924482759 C65.5205273,0.0925089258 65.4306816,0.116384593 65.3512759,0.161724138 C65.1907463,0.255656461 65.0917282,0.427354985 65.0908276,0.613344828 L65.0908276,13.8993448 C65.0908276,14.0296897 65.0302414,14.1465172 64.9172759,14.211931 C64.8045649,14.2775847 64.6652627,14.2775847 64.5525517,14.211931 L62.3815862,12.9615862 C62.0592733,12.7750954 61.6618647,12.7750954 61.3395517,12.9615862 L52.6733103,17.9632069 C52.3493793,18.1502759 52.1524138,18.5096897 52.1524138,18.8838276 L52.1524138,28.8873103 C52.1524138,29.2609655 52.3496207,29.6032414 52.6733103,29.7903103 L61.3395517,34.7921724 C61.6617299,34.9791645 62.059408,34.9791645 62.3815862,34.7921724 L71.0478276,29.7903103 C71.3707868,29.6044269 71.5695949,29.2599428 71.5689655,28.8873103 L71.5689655,3.948 C71.5684861,3.56656601 71.3628586,3.2148784 71.0306897,3.02737931 L65.8724138,0.144344828 C65.7915517,0.0992068966 65.7017586,0.0912413793 65.6119655,0.0924482759 L65.6119655,0.0924482759 Z M9.863,12.5794828 C9.69789655,12.586 9.54244828,12.6149655 9.39424138,12.7008966 L0.727758621,17.7027586 C0.404598312,17.8884093 0.205781003,18.233069 0.206862069,18.6057586 L0.224241379,32.0310345 C0.224241379,32.2176207 0.320551724,32.3911724 0.484689655,32.4824138 C0.645042822,32.5787613 0.845474419,32.5787613 1.00582759,32.4824138 L6.14648276,29.5301034 C6.47210345,29.3365172 6.68475862,29.0000345 6.68475862,28.6268621 L6.68475862,22.3572759 C6.68475862,21.9831379 6.88148276,21.6398966 7.20589655,21.4540345 L9.394,20.1863103 C9.55220612,20.0943223 9.73213503,20.046319 9.91513793,20.0472759 C10.0937586,20.0472759 10.2772069,20.091931 10.4360345,20.1863103 L12.6243793,21.4540345 C12.9478552,21.6395183 13.1468374,21.9843963 13.1455172,22.3572759 L13.1455172,28.6266207 C13.1455172,28.9997931 13.3603448,29.3386897 13.6837931,29.5298621 L18.8244483,32.4824138 C18.9848014,32.5787613 19.185233,32.5787613 19.3455862,32.4824138 C19.5067847,32.3891163 19.6061103,32.2170439 19.6062759,32.0307931 L19.6231724,18.6057586 C19.6252672,18.2327999 19.4261766,17.8876665 19.1022759,17.7027586 L10.4360345,12.7008966 C10.2895172,12.6149655 10.1335862,12.5862414 9.96727586,12.5794828 L9.863,12.5794828 Z M87.7377586,12.7008966 C87.5567241,12.7008966 87.3793103,12.7467586 87.2168621,12.839931 L78.5506207,17.8417931 C78.2275881,18.0276031 78.028753,18.3721339 78.0294828,18.7447931 L78.0294828,28.7482759 C78.0294828,29.1245862 78.2414138,29.4654138 78.5677586,29.6515172 L87.1647241,34.5491034 C87.4821379,34.7301379 87.8697931,34.7438966 88.1893793,34.566 L93.3995517,31.6658276 C93.5648966,31.5741034 93.6766552,31.4027241 93.6773793,31.2144483 C93.679191,31.0277359 93.5794445,30.8547741 93.416931,30.7628276 L84.6985517,25.7609655 C84.5353793,25.6677931 84.4207241,25.4792759 84.4207241,25.2919655 L84.4207241,22.1661034 C84.4207241,21.9790345 84.5365862,21.8076552 84.6985517,21.7144828 L87.4077931,20.1513103 C87.5689802,20.0580184 87.7677439,20.0580184 87.928931,20.1513103 L90.637931,21.7144828 C90.7994931,21.8072987 90.8989677,21.9795372 90.8986207,22.1658621 L90.8986207,24.6320345 C90.8981235,24.8183362 90.9975264,24.9906099 91.159069,25.0834138 C91.3215172,25.1773103 91.518,25.1775517 91.6799655,25.0834138 L96.873,22.062069 C97.1954132,21.8755216 97.3940055,21.5313194 97.3941379,21.1588276 L97.3941379,18.7450345 C97.3941379,18.3721034 97.1962069,18.0291034 96.873,17.8417931 L88.2588966,12.839931 C88.1005408,12.7483312 87.9206974,12.700434 87.7377586,12.7011379 L87.7377586,12.7008966 Z M61.8256897,20.168931 C61.871069,20.168931 61.9241724,20.1800345 61.9647241,20.2034483 L64.9346552,21.9227931 C65.0152759,21.9693793 65.0736897,22.0555517 65.0736897,22.1484828 L65.0736897,25.5871724 C65.0736897,25.6805862 65.0157586,25.7665172 64.9346552,25.8131034 L61.9647241,27.5324483 C61.8840229,27.5785294 61.7849771,27.5785294 61.7042759,27.5324483 L58.7345862,25.8131034 C58.6537241,25.7662759 58.5955517,25.6805862 58.5955517,25.5871724 L58.5955517,22.1484828 C58.5955517,22.0553103 58.6539655,21.9698621 58.7345862,21.9227931 L61.7042759,20.2036897 C61.7407802,20.1809848 61.782942,20.1690222 61.825931,20.1691724 L61.825931,20.168931 L61.8256897,20.168931 Z" id="Shape" fill="#404137" fill-rule="nonzero"></path>
                    <path d="M35.8964828,12.6487586 C35.715931,12.6487586 35.5373103,12.6946207 35.3755862,12.7877931 L26.7093448,17.7722759 C26.3851724,17.9588621 26.1882069,18.319 26.1882069,18.6926552 L26.1882069,28.6961379 C26.1882069,29.0702759 26.3854138,29.412069 26.7093448,29.5993793 L35.3755862,34.601 C35.6977237,34.7881431 36.0954832,34.7881431 36.4176207,34.601 L45.0838621,29.5993793 C45.4068033,29.4133914 45.6055243,29.0688067 45.6047586,28.6961379 L45.6047586,18.6926552 C45.6047586,18.3185172 45.4077931,17.9588621 45.0838621,17.7722759 L36.4176207,12.7877931 C36.2592085,12.6963021 36.0794167,12.6483354 35.8964828,12.6487586 L35.8964828,12.6487586 Z M87.7203793,21.5756897 C87.6858621,21.5756897 87.6474828,21.5756897 87.6163448,21.593069 L85.9491379,22.5655862 C85.885842,22.6007436 85.846097,22.6669853 85.8448621,22.7393793 L85.8448621,24.6496552 C85.8448621,24.7215862 85.8863793,24.7874828 85.9491379,24.8234483 L87.6163448,25.7785862 C87.6788621,25.8147931 87.7454828,25.8147931 87.8072759,25.7785862 L89.4744828,24.8232069 C89.5374925,24.7878731 89.5771448,24.7218777 89.5787586,24.6496552 L89.5787586,22.7391379 C89.5771448,22.6669154 89.5374925,22.60092 89.4744828,22.5655862 L87.8072759,21.5928276 C87.7763793,21.5747241 87.7551379,21.575931 87.7203793,21.575931 L87.7203793,21.5756897 Z" id="Shape" fill="#83CD29" fill-rule="nonzero"></path>
                </g>
            </g>
        </g>
    </g>
</svg>