<?xml version="1.0" encoding="UTF-8"?>
<svg width="65px" height="33px" viewBox="0 0 65 33" version="1.1" xmlns="http://www.w3.org/2000/svg" xmlns:xlink="http://www.w3.org/1999/xlink">
    <!-- Generator: Sketch 53.2 (72643) - https://sketchapp.com -->
    <title>PHP_Logo,_text_only</title>
    <desc>Created with Sketch.</desc>
    <g id="Symbols" stroke="none" stroke-width="1" fill="none" fill-rule="evenodd">
        <g id="Tech" transform="translate(-37.000000, -567.000000)" fill="#242531">
            <g id="PHP_Logo,_text_only">
                <g transform="translate(37.000000, 567.000000)">
                    <g>
                        <path d="M5.14051709,7.109375 L14.7744932,7.109375 C17.6023541,7.13302775 19.6513714,7.93568446 20.9215451,9.51741196 C22.191651,11.0992063 22.6110857,13.2593571 22.1797136,15.9978644 C22.0119329,17.2491215 21.6404714,18.4767259 21.0653358,19.6807444 C20.5141155,20.8847629 19.7472093,21.9707181 18.7646848,22.9386768 C17.5664064,24.1662812 16.2842954,24.945352 14.9182839,25.2758891 C13.5522723,25.6064062 12.138308,25.7716614 10.6764586,25.7716614 L6.36273794,25.7716614 L4.99672641,32.5 L0,32.5 L5.14051709,7.109375 M9.34639471,11.1463781 L7.1895344,21.7700706 C7.33331152,21.7936565 7.47710221,21.8054829 7.62090646,21.8054829 L8.12417387,21.8054829 C10.4248249,21.8290688 12.3419888,21.6048154 13.8758014,21.1326491 C15.4095461,20.6368834 16.4400234,18.9135 16.9673012,15.9624521 C17.3986529,13.4835905 16.9672808,12.0553386 15.673185,11.6775628 C14.4030113,11.2998471 12.8093086,11.1227855 10.8921446,11.1463781 C10.6045497,11.1699641 10.3289531,11.1817904 10.0653482,11.1817904 C9.8256857,11.1818038 9.574052,11.1818038 9.31044704,11.1817904 L9.34639471,11.1463781" id="path8" fill-rule="nonzero"></path>
                        <path d="M27.6128335,0 L32.6623719,0 L31.2353285,6.75433061 L35.7725949,6.75433061 C38.2607732,6.8015035 40.114687,7.29657865 41.3344053,8.23957608 C42.5784944,9.18263356 42.944403,10.974336 42.432131,13.6147502 L39.9805435,25.390625 L34.8578234,25.390625 L37.1996383,14.145195 C37.4435405,12.9664732 37.3703726,12.1295047 36.9800932,11.6344229 C36.5897723,11.1393544 35.7481549,10.8918001 34.455324,10.8918001 L30.3937387,10.8564372 L27.3932884,25.390625 L22.34375,25.390625 L27.6128335,0" id="path10"></path>
                        <path d="M47.7967671,7.109375 L57.4307432,7.109375 C60.2586041,7.13302775 62.3076214,7.93568446 63.5777951,9.51741196 C64.847901,11.0992063 65.2673357,13.2593571 64.8359636,15.9978644 C64.6681829,17.2491215 64.2967282,18.4767259 63.7215858,19.6807444 C63.1703655,20.8847629 62.4034593,21.9707181 61.4209348,22.9386768 C60.2226564,24.1662812 58.9405454,24.945352 57.5745339,25.2758891 C56.2085223,25.6064062 54.794558,25.7716614 53.3327086,25.7716614 L49.0189879,25.7716614 L47.6529764,32.5 L42.65625,32.5 L47.7967671,7.109375 M52.0026447,11.1463781 L49.8457844,21.7700706 C49.9895683,21.7936565 50.133359,21.8054829 50.2771565,21.8054829 L50.7804239,21.8054829 C53.0810749,21.8290688 54.9982388,21.6048154 56.5320514,21.1326491 C58.0657961,20.6368834 59.0962734,18.9135 59.6235512,15.9624521 C60.0549029,13.4835905 59.6235308,12.0553386 58.329435,11.6775628 C57.0592613,11.2998471 55.4655586,11.1227855 53.5483946,11.1463781 C53.2607997,11.1699641 52.9852031,11.1817904 52.7215982,11.1817904 C52.4819357,11.1818038 52.230302,11.1818038 51.966697,11.1817904 L52.0026447,11.1463781" id="path12" fill-rule="nonzero"></path>
                    </g>
                </g>
            </g>
        </g>
    </g>
</svg>