<?xml version="1.0" encoding="UTF-8"?>
<svg width="37px" height="45px" viewBox="0 0 37 45" version="1.1" xmlns="http://www.w3.org/2000/svg" xmlns:xlink="http://www.w3.org/1999/xlink">
    <!-- Generator: Sketch 53.2 (72643) - https://sketchapp.com -->
    <title>apple</title>
    <desc>Created with Sketch.</desc>
    <g id="web" stroke="none" stroke-width="1" fill="none" fill-rule="evenodd">
        <g id="Technologies---Technologies-tab" transform="translate(-174.000000, -2114.000000)" fill="#999999" fill-rule="nonzero">
            <g id="Mobile-development" transform="translate(135.000000, 1552.000000)">
                <g id="apple" transform="translate(39.000000, 562.000000)">
                    <path d="M20.1768223,3.94532458 C23.1085942,0.0191408532 27.1844578,0 27.1844578,0 C27.1844578,0 27.7907355,3.69128002 24.8781687,7.24715899 C21.7682739,11.0440489 18.2334496,10.4227532 18.2334496,10.4227532 C18.2334496,10.4227532 17.5697034,7.4366311 20.1768223,3.94532458 Z M18.6702123,12.9440481 C20.1923245,12.9440481 23.0172866,10.8552632 26.6943682,10.8552632 C33.0238279,10.8552632 35.5138307,15.3514976 35.5138307,15.3514976 C35.5138307,15.3514976 30.6438262,17.8372286 30.6438262,23.8687392 C30.6438262,30.672799 36.7105263,33.0176972 36.7105263,33.0176972 C36.7105263,33.0176972 32.4696803,44.9339777 26.7414903,44.9339777 C24.110565,44.9339777 22.0651527,43.164005 19.2930828,43.164005 C16.4681207,43.164005 13.6647593,45 11.8389052,45 C6.60819803,45.0001477 4.54747351e-13,33.6963086 4.54747351e-13,24.6099019 C4.54747351e-13,15.6701622 5.59340725,10.9805135 10.8397972,10.9805135 C14.2504204,10.9805135 16.8971025,12.9440481 18.6702123,12.9440481 Z" id="Shape"></path>
                </g>
            </g>
        </g>
    </g>
</svg>