<?xml version="1.0" encoding="UTF-8"?>
<svg width="117px" height="40px" viewBox="0 0 117 40" version="1.1" xmlns="http://www.w3.org/2000/svg" xmlns:xlink="http://www.w3.org/1999/xlink">
    <!-- Generator: Sketch 53.2 (72643) - https://sketchapp.com -->
    <title>ionic</title>
    <desc>Created with Sketch.</desc>
    <g id="web" stroke="none" stroke-width="1" fill="none" fill-rule="evenodd">
        <g id="Technologies---Technologies-tab" transform="translate(-385.000000, -2119.000000)" fill="#4E8EF7">
            <g id="Mobile-development" transform="translate(135.000000, 1552.000000)">
                <g id="ionic" transform="translate(250.000000, 567.000000)">
                    <path d="M52,15.3743622 L52.8443519,15.3743622 L52.8443519,30.6258561 L52,30.6258561 L52,15.3743622 Z M64.8429762,15 C60.0492439,15 56.4323899,18.4535185 56.4323899,23.0002183 C56.4323899,27.5755137 60.0492439,31 64.8429762,31 C69.6371658,31 73.2549346,27.5755137 73.2549346,23 C73.2544772,18.4535185 69.6369371,15 64.8429762,15 Z M64.8429762,30.2517122 C60.5320247,30.2517122 57.2760557,27.1439603 57.2760557,23.0002183 C57.2760557,18.8560397 60.531796,15.7487244 64.8429762,15.7487244 C69.1541563,15.7487244 72.4112688,18.8560397 72.4112688,23.0002183 C72.4108114,27.1439603 69.1546137,30.2517122 64.8429762,30.2517122 Z M89.203168,16.5253895 C87.3941693,15.1152555 85.2238282,15 84.1082409,15 C81.5761,15 78.7715803,16.12265 77.7776601,18.3096674 L77.7163691,18.3096674 L77.7163691,15.3743622 L76.8720173,15.3743622 L76.8720173,30.6258561 L77.7163691,30.6258561 L77.7163691,21.8487544 C77.7163691,18.0215286 80.1892772,15.7485061 84.1985764,15.7485061 C86.610651,15.7485061 87.905766,16.4965756 88.7203872,17.1870174 C89.9263101,18.2230074 90.6800977,19.9206254 90.6800977,22.5675735 L90.6800977,30.6256378 L91.5246782,30.6256378 L91.5246782,22.5677918 C91.5246782,19.8346203 90.7711194,17.7912358 89.203168,16.5253895 Z M96.1976581,15.3743622 L97.0417813,15.3743622 L97.0417813,30.6258561 L96.1976581,30.6258561 L96.1976581,15.3743622 Z M109.040863,30.2517122 C104.970273,30.2517122 101.473256,27.3161887 101.473256,23.0002183 C101.473256,20.9282382 102.377298,18.9138858 103.674243,17.7910175 C105.332301,16.3813201 106.809231,15.7487244 109.070822,15.7487244 C112.20581,15.7487244 114.979685,17.4173102 116.065084,20.3235832 L117,20.3235832 C115.733472,16.7266501 112.296603,15 109.040863,15 C104.186297,15 100.628447,18.5107097 100.628447,23.0290322 C100.628447,27.7772108 104.396928,31 109.040863,31 C112.839532,31 115.854225,28.9282382 116.969355,25.8200497 L116.035353,25.8200497 C115.251606,28.093727 112.658403,30.2517122 109.040863,30.2517122 L109.040863,30.2517122 Z" id="Shape" fill-rule="nonzero"></path>
                    <circle id="Oval" cx="52" cy="10" r="1"></circle>
                    <circle id="Oval" cx="97" cy="10" r="1"></circle>
                    <ellipse id="Oval" cx="20.5" cy="20" rx="8.5" ry="8"></ellipse>
                    <path d="M37.5811326,6.14395412 C37.5811326,4.5929552 36.2919385,3.33611511 34.7026061,3.33611511 C34.0100414,3.33570877 33.3407995,3.58022227 32.8188763,4.02435268 C29.3864603,1.49902264 25.1197652,0 20.4998852,0 C9.19612862,0 0,8.97195634 0,20.000112 C0,31.0278196 9.19635826,40 20.5001148,40 C31.8038714,40 41,31.0278196 41,20.000112 C41,15.4929625 39.4637142,11.3299317 36.8754516,7.98149465 C37.330776,7.47242927 37.5814925,6.81958234 37.5811326,6.14395412 L37.5811326,6.14395412 Z M20.4998852,39.3272209 C9.57641102,39.3272209 0.689147031,30.6568166 0.689147031,19.9996639 C0.689147031,9.3429594 9.57641102,0.672555071 20.5001148,0.672555071 C24.9413356,0.672555071 29.0456758,2.1061593 32.3536275,4.52372818 C32.0088217,4.99691121 31.8237258,5.56315995 31.8240796,6.14373008 C31.8240796,7.69450497 33.1128144,8.95134505 34.7021468,8.95134505 C35.3212539,8.95134505 35.8928257,8.75912245 36.3624378,8.43471881 C38.8404736,11.6617285 40.3099344,15.665918 40.3099344,19.9994399 C40.3103937,30.6568166 31.423589,39.3269969 20.4998852,39.3269969 L20.4998852,39.3272209 Z" id="Shape" fill-rule="nonzero"></path>
                </g>
            </g>
        </g>
    </g>
</svg>