<?xml version="1.0" encoding="UTF-8"?>
<svg width="47px" height="41px" viewBox="0 0 47 41" version="1.1" xmlns="http://www.w3.org/2000/svg" xmlns:xlink="http://www.w3.org/1999/xlink">
    <!-- Generator: Sketch 53.2 (72643) - https://sketchapp.com -->
    <title>react-native-firebase-1</title>
    <desc>Created with Sketch.</desc>
    <g id="web" stroke="none" stroke-width="1" fill="none" fill-rule="evenodd">
        <g id="Technologies---Technologies-tab" transform="translate(-309.000000, -2118.000000)">
            <g id="Mobile-development" transform="translate(135.000000, 1552.000000)">
                <g id="react-native-firebase-1" transform="translate(174.173953, 566.000000)">
                    <polygon id="Path" fill="#F4A93F" points="20.358489 14.5406977 25.2674419 23.122093 19.0697674 22.8983867"></polygon>
                    <polygon id="Path" fill="#F4A83E" points="22.8436604 16.2093023 26.4593023 23.122093 19.0697674 22.8992482"></polygon>
                    <polygon id="Path" fill="#E88634" points="22.0961418 17.4011628 25.2674419 23.122093 19.0697674 23.0600644 22.0961418 17.4011628"></polygon>
                    <polygon id="Path" fill="#F8CA51" points="25.4604993 16.6860465 26.4593023 23.122093 18.8313953 23.0444184 25.4604993 16.6860465"></polygon>
                    <polygon id="Path" fill="#F8CA51" points="22.7230013 25.0290698 26.4593023 22.9568608 18.8313953 22.8837209"></polygon>
                    <path d="M0,20.2616279 C0.161471717,25.5991012 10.3448699,29.7965116 22.8837209,29.7965116 L22.8837209,27.7343997 C12.7908486,27.6833752 2.20389823,24.5505217 2.03428935,20.2616279 L0,20.2616279 Z" id="Path" fill="#E88634"></path>
                    <path d="M34.3255814,0.757458156 C29.6377145,-1.74160728 20.8729391,5.02187402 14.5406977,15.9047612 L16.3204127,16.9244186 C21.4607843,8.1894127 29.5111056,0.54975488 33.2980721,2.52331828 L34.3255814,0.757458156 Z" id="Path" fill="#F9CB52"></path>
                    <path d="M0,20.2616279 C0.161471717,14.9241546 10.3448699,10.7267442 22.8837209,10.7267442 L22.8837209,12.7888561 C12.7908486,12.8398806 2.20389823,15.9729918 2.03428935,20.2616279 L0,20.2616279 Z" id="Path" fill="#E88634"></path>
                    <path d="M11.3993549,0.238372093 C6.92561404,3.04196566 8.42820192,14.0511989 14.6881384,25.0290698 L16.4476744,24.00028 C11.4521664,15.1388575 8.84028373,4.30700178 12.4149601,2.01985966 L11.3993549,0.238372093 Z" id="Path" fill="#F4A73E"></path>
                    <path d="M11.3994016,40.2848837 C6.9257022,37.4812902 8.42802227,26.4717998 14.6881547,15.494186 L16.4476744,16.5227188 C11.4522126,25.3843983 8.84035416,36.216254 12.4149974,38.5036532 L11.3994016,40.2848837 L11.3994016,40.2848837 Z" id="Path" fill="#F9CB52"></path>
                    <path d="M11.2034884,0.519106539 C15.8916121,-1.97999513 24.6563875,4.78332937 30.9883721,15.6666291 L29.2084003,16.6860465 C24.0680286,7.95116883 16.0177074,0.31190996 12.2307409,2.28524712 L11.2034884,0.519106539 Z" id="Path" fill="#F4A73E"></path>
                    <path d="M46.005814,20.2616279 C45.8443422,14.9241546 35.6604354,10.7267442 23.122093,10.7267442 L23.122093,12.7888561 C33.2147111,12.8398806 43.8019157,15.9729918 43.9715246,20.2616279 L46.005814,20.2616279 Z" id="Path" fill="#E88634"></path>
                    <path d="M11.4418605,40.3709679 C11.4690717,40.387517 11.496283,40.4038116 11.5237486,40.4193423 C16.1377123,43.0865579 24.906354,36.3085308 31.2267442,25.3491672 L29.4737788,24.3139535 C24.3433096,33.1181071 16.2752945,40.8142308 12.5618459,38.6676773 C12.5242167,38.6459897 12.4871595,38.6233224 12.450712,38.5996984 L11.4418605,40.3709679 Z" id="Path" fill="#F9CB52"></path>
                    <path d="M34.5639535,40.2405141 C29.8908446,42.7504269 21.1558656,35.9536854 14.84562,25.0176367 L14.7790698,24.9023856 L16.52883,23.8372093 C21.6439862,32.6736392 29.7326598,40.4492467 33.5326802,38.469745 L34.5639535,40.2405141 Z" id="Path" fill="#F4A73E"></path>
                    <path d="M46.0037798,20.0232558 C46.0050512,20.0659495 46.005814,20.1089004 46.005814,20.1518513 C46.005814,25.5400015 35.7602636,29.7965116 23.122093,29.7965116 L23.122093,27.7384697 C33.2956868,27.6875459 43.9717054,24.5094374 43.9717054,20.1762844 C43.9717121,20.1252398 43.9701858,20.0742067 43.9671287,20.0232558 L46.0037798,20.0232558 L46.0037798,20.0232558 Z" id="Path" fill="#E88634"></path>
                    <path d="M34.3361042,40.2848837 C38.8665313,37.5009998 37.3433527,26.5787067 31.0010635,15.6880427 L30.8881116,15.494186 L29.0813953,16.472397 L29.0934882,16.4933131 C34.2270117,25.3081802 36.9463486,36.1886412 33.3259692,38.5057386 L34.3361042,40.2848837 L34.3361042,40.2848837 Z" id="Path" fill="#F4A73E"></path>
                    <path d="M34.3682069,0.476744186 C38.8418001,3.28033775 37.3391765,14.2898281 31.0793452,25.2674419 L29.3197674,24.2389091 C34.315648,15.3772296 36.9270849,4.54537387 33.3525775,2.25797468 L34.3682069,0.476744186 Z" id="Path" fill="#F9CB52"></path>
                </g>
            </g>
        </g>
    </g>
</svg>