<?xml version="1.0" encoding="UTF-8"?>
<svg width="68px" height="56px" viewBox="0 0 68 56" version="1.1" xmlns="http://www.w3.org/2000/svg" xmlns:xlink="http://www.w3.org/1999/xlink">
    <!-- Generator: Sketch 53.2 (72643) - https://sketchapp.com -->
    <title>microsoft-sql-server</title>
    <desc>Created with Sketch.</desc>
    <defs>
        <linearGradient x1="25.8951071%" y1="75.9767723%" x2="38.3411716%" y2="69.3473296%" id="linearGradient-1">
            <stop stop-color="#909CA9" offset="0%"></stop>
            <stop stop-color="#EDEDEE" offset="100%"></stop>
        </linearGradient>
        <linearGradient x1="0.167947727%" y1="49.8457052%" x2="18.5944843%" y2="49.8457052%" id="linearGradient-2">
            <stop stop-color="#939FAB" offset="0%"></stop>
            <stop stop-color="#DCDEE1" offset="100%"></stop>
        </linearGradient>
        <radialGradient cx="44.3461988%" cy="43.8808738%" fx="44.3461988%" fy="43.8808738%" r="12.9136988%" gradientTransform="translate(0.443462,0.438809),scale(0.692694,1.000000),rotate(-171.526180),translate(-0.443462,-0.438809)" id="radialGradient-3">
            <stop stop-color="#EE352C" offset="0%"></stop>
            <stop stop-color="#A91D22" offset="100%"></stop>
        </radialGradient>
    </defs>
    <g id="web" stroke="none" stroke-width="1" fill="none" fill-rule="evenodd">
        <g id="Technologies---Technologies-tab" transform="translate(-175.000000, -2776.000000)" fill-rule="nonzero">
            <g id="Data-storage" transform="translate(136.000000, 2220.000000)">
                <g id="microsoft-sql-server" transform="translate(39.000000, 556.000000)">
                    <g id="Group" transform="translate(24.000000, 0.000000)">
                        <path d="M22.089355,17.7332008 L14.4240878,20.215735 L7.75541221,23.1349247 L5.88975191,23.6234393 C5.41460687,24.0717015 4.91640458,24.5257141 4.37756489,24.985424 C3.78659924,25.4910837 3.23619084,25.9508731 2.81317176,26.2841018 C2.34390458,26.6519121 1.64863359,27.341477 1.29524046,27.7781325 C0.767969466,28.4332218 0.350828244,29.128537 0.171206107,29.6630279 C-0.147480916,30.628477 0.00903053435,31.6053473 0.623160305,32.507622 C1.4111145,33.6568703 2.98127863,34.8291199 4.81207252,35.6278884 C5.74494275,36.0359777 7.31505344,36.5588619 8.49695802,36.8518912 C10.4610191,37.3461297 14.2618321,37.8805676 16.3533626,37.9610725 C16.7762481,37.9782971 17.3441031,37.9782971 17.3672137,37.9610725 C17.4136221,37.9322413 17.7380802,37.317431 18.1147443,36.5531911 C19.4009809,33.9499526 20.3279733,31.5076709 20.832,29.4217252 C21.1332672,28.1575495 21.3707863,26.4737838 21.5271641,24.4798173 C21.5678015,23.922378 21.5851145,22.0547601 21.550355,21.4225927 C21.4981756,20.3882455 21.4054656,19.549304 21.2607366,18.7275342 C21.2375458,18.6068298 21.2316679,18.4976262 21.2433168,18.4919024 C21.2664275,18.4746778 21.3359466,18.4517029 22.2803588,18.1815425 L22.0892481,17.7333863 L22.0892481,17.7332538 L22.089355,17.7332538 L22.089355,17.7332008 Z M20.3396221,18.7504031 C20.4091412,18.7504031 20.5944809,20.5145411 20.6408092,21.6294463 C20.652458,21.8650251 20.6465802,22.0201785 20.6350382,22.0201785 C20.5887366,22.0201785 19.6558664,21.4743194 18.9896908,21.0605858 C18.4102672,20.6985258 17.3094771,19.9744324 17.1356794,19.83653 C17.0776221,19.7963305 17.0833931,19.7906067 17.5585649,19.6296499 C18.3638321,19.359516 20.2759008,18.7504031 20.3396221,18.7504031 L20.3396221,18.7504031 Z M16.4345573,20.026159 C16.4867366,20.026159 16.6198969,20.100781 16.938584,20.2962134 C18.132084,21.0375049 19.7544275,21.9340028 20.4496718,22.2328619 C20.664,22.324788 20.6871107,22.2902594 20.1947328,22.6236206 C19.1402443,23.3361604 17.8249656,24.0371994 16.214271,24.7440418 C15.9304237,24.87047 15.6929046,24.9681199 15.6871336,24.9681199 C15.6755916,24.9681199 15.7102443,24.8245467 15.7565458,24.6521158 C16.1447519,23.2211269 16.364958,21.773046 16.3766069,20.6122441 C16.3823779,20.0375537 16.3823779,20.0375537 16.4345573,20.0204086 C16.4229084,20.026159 16.4286794,20.026159 16.4345573,20.026159 L16.4345573,20.026159 Z M15.6292366,20.330689 C15.6638893,20.3651116 15.6407786,21.6523947 15.5943969,22.002901 C15.4901183,22.8419219 15.3278893,23.6234128 15.0614618,24.5027127 C14.9977137,24.7151841 14.9396832,24.8934449 14.9282214,24.9048926 C14.9049237,24.9335914 14.1111718,24.1635746 13.8504618,23.8647685 C13.3985076,23.3475551 13.0451679,22.8303682 12.7844313,22.3247085 C12.6511641,22.0661018 12.4426336,21.5604686 12.4599733,21.5431911 C12.5526565,21.4799902 15.6060458,20.3077406 15.6292366,20.330689 Z M11.8399924,21.8075216 C11.8457634,21.8075216 11.8515344,21.8075216 11.8574122,21.8132455 C11.8689542,21.8247462 11.9095916,21.9167252 11.9443511,22.0201255 C12.1296908,22.5200879 12.5467786,23.255629 12.9061031,23.7268661 C13.3000802,24.2440795 13.8157824,24.795689 14.2444122,25.1577225 C14.3835305,25.2726499 14.5109198,25.3818006 14.5282595,25.3990781 C14.5630992,25.4335802 14.5746679,25.4277768 13.630229,25.784113 C12.5353168,26.1978466 11.3417099,26.6115802 9.97433206,27.0482887 C9.64769568,27.152736 9.32135723,27.2580977 8.99532061,27.3643724 C8.94308779,27.3816499 8.96050763,27.3528717 9.11114122,27.1173194 C9.78899237,26.0656681 10.8202634,24.0026974 11.399687,22.5430628 C11.4981947,22.2902064 11.5966756,22.0374031 11.6140954,21.9799261 C11.6372863,21.8994212 11.6661947,21.8707225 11.7414847,21.83047 C11.782042,21.8190753 11.8226527,21.8075216 11.8399924,21.8075216 Z M10.6813321,22.2844826 C10.6986718,22.2960363 10.4031756,22.9108466 10.1134771,23.4740098 C9.55144656,24.5600837 8.93731679,25.6290126 8.11460305,26.9276904 C7.97556489,27.1517685 7.84235115,27.3587015 7.8249313,27.3816764 C7.79599618,27.4219289 7.78434733,27.4103752 7.69166412,27.2322734 C7.49467557,26.8472385 7.33239313,26.353 7.24550763,25.8990139 C7.1585687,25.4507517 7.17598855,24.6692873 7.2745229,24.1866025 C7.34975954,23.8303459 7.34404198,23.8360962 7.51783969,23.7498675 C8.25943893,23.3763598 10.6581412,22.2615077 10.6813321,22.2844826 L10.6813321,22.2844826 Z M20.6756489,22.686795 L20.6756489,22.9281241 C20.6756489,24.2096039 20.5366107,25.9680181 20.3337443,27.2495509 C20.2989847,27.473629 20.269916,27.6574547 20.2642252,27.6632845 C20.2642252,27.6632845 20.0962252,27.6173612 19.8992366,27.5598047 C19.0301947,27.2896974 18.0857824,26.8931883 17.2340534,26.4278075 C16.6719695,26.1232245 15.8551069,25.6232092 15.8783244,25.6002078 C15.8840153,25.5945105 16.1274122,25.4680823 16.4112595,25.3186527 C17.5469962,24.7325411 18.6361374,24.1004268 19.5805496,23.4740628 C19.9339962,23.238431 20.4669313,22.8592259 20.5829389,22.7557462 L20.6756489,22.686795 Z M6.30689313,24.3876527 C6.33005725,24.3876527 6.32425954,24.433629 6.2895,24.6405091 C6.26630916,24.7899651 6.23737405,25.0657964 6.22585878,25.2553459 C6.17939695,26.0943668 6.31854198,26.7150335 6.73568321,27.5654756 C6.85155725,27.8011074 6.94432061,27.9964868 6.93844275,28.0021841 C6.89785878,28.0367127 3.06241985,29.1515914 1.85721756,29.4790962 C1.49802672,29.5767462 1.18521756,29.6629749 1.16191985,29.6686457 C1.12144275,29.6801994 1.11561832,29.6744756 1.13298473,29.5766932 C1.26622519,28.7320279 1.91516794,27.6286764 2.81896947,26.6977029 C3.42155725,26.0771158 3.90247328,25.7151088 4.72518702,25.249569 C5.31615267,24.9163403 6.22577863,24.4164575 6.29529771,24.3934031 C6.29535115,24.3876527 6.30112214,24.3876527 6.30689313,24.3876527 L6.30689313,24.3876527 Z M15.3453092,25.99094 C15.3510802,25.9852162 15.4901183,26.0599707 15.6581183,26.1576206 C16.8980267,26.8702134 18.6245687,27.5310795 20.0961183,27.8700851 L20.2294656,27.8988633 L20.0440191,28.0021841 C19.2734847,28.4274714 16.7415687,29.4732929 14.1517824,30.4330181 C13.7751183,30.5708675 13.4043588,30.7088494 13.3347328,30.7375481 C13.2652137,30.7662469 13.2014656,30.7835244 13.2014656,30.7778006 C13.2014656,30.7719707 13.3058244,30.5708675 13.4389847,30.3238145 C14.1632176,28.9791339 14.8933015,27.3413975 15.2640878,26.2035704 C15.3105496,26.0943933 15.3394313,25.9967434 15.3453092,25.99094 L15.3453092,25.99094 Z M14.4240878,26.2897992 C14.4299656,26.2956555 14.3835573,26.4162273 14.3255802,26.5541297 C13.8215534,27.7666318 13.1609618,29.088417 12.3151107,30.5709735 C12.1007824,30.9502845 11.9211336,31.2548675 11.9152557,31.2548675 C11.9095649,31.2548675 11.735687,31.1513612 11.5271298,31.0249596 C10.2987634,30.2778912 9.2095687,29.3584714 8.49698473,28.4677503 L8.39265267,28.3413222 L8.91984351,28.197643 C10.8086679,27.6862594 12.4134847,27.1345969 14.0068664,26.4565328 C14.2328702,26.3645537 14.4183168,26.2897992 14.4240878,26.2897992 L14.4240878,26.2897992 Z M20.1484046,28.2723445 C20.1484046,28.2723445 20.1542023,28.2780948 20.1484046,28.2723445 C20.1541756,28.404523 19.8586794,29.5883264 19.6153092,30.4444658 C19.4125496,31.1627824 19.238645,31.7259986 18.9200649,32.7200669 C18.7810267,33.1569079 18.6594351,33.5188354 18.6535573,33.5188354 C18.6477863,33.5188354 18.6130267,33.5131116 18.5782672,33.5016904 C16.8575229,33.1912775 15.3163473,32.7603194 13.8678817,32.1857085 C13.4622557,32.0247517 12.8829122,31.766145 12.8481527,31.7374463 C12.8366107,31.7258396 13.1842595,31.5650418 13.6245649,31.3753863 C16.2607595,30.2318354 18.9954351,28.9331046 19.9339962,28.3757713 C20.0440458,28.3067936 20.1309847,28.2723445 20.1484046,28.2723445 L20.1484046,28.2723445 Z M6.93267176,28.7206067 C6.94426718,28.7320544 6.20843893,29.7837057 5.17708779,31.2145621 C4.81789695,31.7145244 4.40075573,32.300636 4.24435115,32.5189902 C4.08789313,32.737371 3.85037405,33.0821799 3.71710687,33.28906 L3.47365649,33.6625941 L3.21291985,33.4442399 C2.90582824,33.1913305 2.37286641,32.6511953 2.13532061,32.3523626 C1.63701145,31.7375523 1.30103817,31.0881869 1.16777099,30.4963515 C1.1040229,30.2204672 1.1040229,30.0824854 1.16189313,30.0653403 C1.24877863,30.0423654 2.79575191,29.6803054 4.24429771,29.3469442 C5.04964504,29.1631185 5.98238168,28.9447643 6.31843511,28.8643124 C6.65451527,28.783728 6.92690076,28.7206067 6.93267176,28.7206067 L6.93267176,28.7206067 Z M7.67424427,29.0021883 L7.85958397,29.2090418 C8.694,30.1342385 9.54567557,30.8181855 10.5769733,31.4156918 C10.7624198,31.519198 10.9014313,31.6110711 10.8897824,31.6169275 C10.8493321,31.6456262 7.30920229,32.8924979 5.66957252,33.4556876 C4.74840458,33.7774686 3.98935878,34.0360488 3.98364122,34.0360488 C3.97787023,34.0360488 3.92569084,34.0016262 3.86766031,33.9613738 L3.76343511,33.8866457 L3.93143511,33.6453431 C4.47601908,32.8637992 5.15980153,32.0076067 6.64879771,30.2261911 L7.67424427,29.0021883 Z M12.2977977,32.2833849 C12.3034885,32.2776876 12.5584275,32.3695607 12.8712634,32.4846206 C13.6245649,32.7661492 14.2212214,32.944251 15.0208511,33.1454073 C16.0058206,33.3925397 17.4310687,33.6338954 18.271229,33.7028201 C18.3986985,33.7142678 18.4682176,33.7258215 18.4450267,33.7430725 C18.4043893,33.7660739 17.5527939,34.0476555 16.927042,34.2430349 C15.9304237,34.5532887 12.8887099,35.4439833 10.4089733,36.1508522 C9.95124809,36.2830042 9.55724427,36.3922078 9.53408015,36.3979052 C9.47620992,36.4094589 9.28493893,36.3576527 9.28493893,36.3346778 C9.28493893,36.3232566 9.4239771,36.1451283 9.59203053,35.9497225 C10.4262863,34.9612985 11.2548779,33.858 11.9443511,32.8121255 C12.1354885,32.5247141 12.2977977,32.2891353 12.2977977,32.2833849 Z M11.2779885,32.3121897 C11.2837595,32.3179135 10.8724427,32.9729763 10.1540878,34.0992762 C9.84694275,34.5762371 9.5050916,35.1163989 9.38339313,35.3060544 C9.26751908,35.4899331 9.09372137,35.777318 8.99526718,35.9381688 L8.82721374,36.2312775 L8.74032824,36.2082762 C8.53169084,36.1507992 7.0658855,35.6393096 6.67767939,35.4841827 C6.19676336,35.2945272 5.69850763,35.0647252 5.32766794,34.8693459 C4.86422519,34.6222134 4.28488168,34.2544031 4.33118321,34.2429819 C4.34275191,34.237258 5.13653053,34.0245481 6.09245802,33.7660209 C8.63019847,33.0821004 10.0380534,32.6856444 10.959355,32.3983389 C11.1274084,32.3466123 11.2722176,32.3063598 11.2779885,32.3121897 Z M18.4913282,33.9900725 L18.4970992,33.9900725 C18.5202901,34.0476025 17.5817557,36.6335105 17.239771,37.449477 C17.1645611,37.6333556 17.1356794,37.6794114 17.095042,37.6735551 C16.9965344,37.6679107 15.6350344,37.4782552 14.806416,37.3575509 C13.3638282,37.1391967 10.9419618,36.7196332 10.3336565,36.5817838 L10.1946183,36.5530851 L11.0577824,36.3575732 C12.911874,35.9438396 13.8041069,35.7197615 14.7079084,35.4439303 C15.8493359,35.0991478 16.9791947,34.6681367 18.1205153,34.1395021 C18.3001107,34.0590237 18.450771,33.9958229 18.4913282,33.9900725 Z" id="Shape" fill="url(#linearGradient-1)"></path>
                        <path d="M14.1865687,0.0109707113 C14.0590992,-0.00617433752 12.0022214,0.729366806 10.6754809,1.26372524 C8.8851374,1.98787169 7.49470229,2.67748954 6.63717557,3.27499582 C6.3185687,3.49920642 5.91871374,3.89566248 5.85507252,4.0507894 C5.8319084,4.10826639 5.82025954,4.17721757 5.82025954,4.24616876 L6.59667176,4.97598605 L8.44485878,5.56212413 L12.8424084,6.34366806 L17.8714008,7.19991353 L17.9235802,6.76892887 C17.9062405,6.76892887 17.8945916,6.76320502 17.8773588,6.76320502 L17.216687,6.65972524 L17.0835267,6.42414644 C16.3998244,5.2288424 15.6466298,3.74623291 15.2063244,2.74633473 C14.8645267,1.97054114 14.540042,1.07417573 14.3603931,0.43053417 C14.2618855,0.0397754533 14.2503435,0.0168005579 14.1867023,0.0110767085 L14.1867023,0.010944212 L14.1865687,0.010944212 L14.1865687,0.0109707113 Z M14.0937519,0.304132497 L14.0997099,0.304132497 C14.1054008,0.309803347 14.1285916,0.47081311 14.1518092,0.660336123 C14.2502099,1.46496095 14.4299656,2.24062204 14.713813,3.07964296 C14.9281412,3.71178382 14.9281412,3.67733473 14.6790534,3.6025802 C14.0880878,3.44172943 11.4403244,2.98774338 9.52256489,2.72341283 C9.21547328,2.68316039 8.95473664,2.64296095 8.95473664,2.6372371 C8.93157252,2.6142622 10.3394275,1.88439191 10.9593817,1.59713947 C11.7531336,1.2350265 13.9316031,0.332831241 14.0937519,0.304132497 L14.0937519,0.304132497 Z M8.50852672,2.87853975 L8.73458397,2.95316179 C9.96279008,3.3669749 13.0508321,3.95313947 14.7543168,4.09104184 C14.9454542,4.10829289 15.1077634,4.12557043 15.1134542,4.12557043 C15.1192252,4.13129428 14.9571031,4.21749651 14.7484656,4.31514644 C13.9258321,4.72315621 13.0219504,5.22311855 12.3961985,5.60815342 C12.2108588,5.72302789 12.0427519,5.81503347 12.0196412,5.81503347 C11.9964504,5.81503347 11.8748321,5.79203208 11.7473626,5.77478103 L11.5156145,5.74025244 L10.9362977,5.17706276 C9.9165687,4.19446862 9.11699237,3.43595258 8.80990076,3.14856764 L8.50852672,2.87853975 L8.50852672,2.87853975 Z M8.27685878,3.05664156 L9.09377481,4.06806695 C9.53985115,4.62547978 9.99177863,5.17136541 10.0903664,5.29199024 C10.1887672,5.41274756 10.2699351,5.51047699 10.2641641,5.51620084 C10.2409733,5.53342538 9.08228626,5.30926778 8.46804962,5.17141841 C7.83652672,5.02771269 7.57581679,4.95876151 7.1876374,4.83813668 L6.86895038,4.7346569 L6.86895038,4.65415202 C6.87472137,4.26911715 7.36725954,3.69450628 8.20154198,3.1084212 L8.27685878,3.05664156 Z M15.2178397,4.43582427 C15.2410573,4.43582427 15.2699389,4.48752441 15.339458,4.64267782 C15.5364466,5.07363598 16.1507099,6.23449093 16.3012099,6.45856904 C16.3476985,6.53335007 16.4286794,6.53907392 15.6118435,6.4068954 C13.6477824,6.09075872 13.0161794,5.98743794 13.0161794,5.97593724 C13.0161794,5.97021339 13.0741298,5.92996095 13.1494466,5.88970851 C13.7578321,5.55647978 14.3719351,5.13119247 14.9165992,4.67720642 C15.0498664,4.56800279 15.1715382,4.46457601 15.1946489,4.44729847 C15.2004198,4.43582427 15.2120687,4.43010042 15.2178397,4.43582427 Z" id="Shape" fill="url(#linearGradient-2)"></path>
                        <path d="M5.89549618,3.97033752 C5.89549618,3.97033752 5.76810687,4.17154672 5.88975191,4.47037936 C5.96514885,4.65420502 6.18527481,4.87828312 6.4343626,5.10819107 C6.4343626,5.10819107 9.01260687,7.60214644 9.32549618,7.95848257 C10.7507176,9.59044212 11.3706985,11.1994798 11.4286489,13.4176569 C11.4634084,14.8427894 11.1910229,16.0955174 10.5131985,17.5494017 C9.30807634,20.1583375 6.76453817,23.0373543 2.84213359,26.2324282 L3.41581298,26.0427727 C3.78659924,25.7668884 4.29067939,25.4739121 5.47258397,24.8302706 C8.20143511,23.3475816 11.2721908,21.9856764 15.0382176,20.5835453 C20.4611069,18.5607211 29.3779313,16.1931144 34.4532252,15.4231771 L34.9805496,15.3426722 L34.8993817,15.2162441 C34.4359656,14.5036513 34.1171985,14.061219 33.7347634,13.5900084 C32.6224313,12.2223264 31.2725534,11.113304 29.6212214,10.1938312 C27.350042,8.93540586 24.4124733,7.95275872 20.6929351,7.22294142 C19.9918931,7.08495955 18.4507176,6.82065551 17.1992672,6.6310265 C14.5456527,6.22312273 12.8306794,5.94148815 10.9419351,5.61968061 C10.2641107,5.50470014 9.25009924,5.33234868 8.57801908,5.18872245 C8.23039695,5.11394142 7.56416794,4.9588145 7.04272137,4.78068619 C6.62558015,4.61970293 6.02296565,4.45879916 5.89549618,3.97033752 L5.89549618,3.97033752 Z M7.39039695,5.40702371 C7.3961145,5.40135286 7.48879771,5.43572245 7.61054962,5.4759749 C7.83070229,5.55059693 8.11457634,5.63682566 8.45070992,5.72883124 C8.70499991,5.79820481 8.95993196,5.86524209 9.21547328,5.92993445 C9.56309542,6.01608368 9.85274046,6.09656206 9.85851145,6.09656206 C9.89914885,6.1368145 10.4843435,7.99279916 10.6813321,8.70539191 C10.756542,8.9755523 10.8145992,9.20535425 10.8088015,9.20535425 C10.8028435,9.2111841 10.7392023,9.11342817 10.6639122,8.98127615 C9.98600763,7.7974728 8.91415267,6.59647141 7.67424427,5.63102232 C7.51209542,5.51620084 7.39039695,5.41274756 7.39039695,5.40702371 L7.39039695,5.40702371 Z M10.2409466,6.18854114 C10.2699351,6.18854114 10.3974046,6.20579219 10.5537557,6.24024128 C11.5387252,6.45859554 13.3058779,6.79190377 14.4356298,6.98155927 C14.6268473,7.01025802 14.7775344,7.04481311 14.7775344,7.05623431 C14.7775344,7.06778801 14.7079351,7.10793445 14.6209962,7.15396374 C14.4298855,7.25161367 13.6592443,7.70554672 13.4043855,7.87797768 C12.7612137,8.30321199 12.1818969,8.7629219 11.7647023,9.17665551 C11.5967023,9.34333612 11.4517863,9.48123849 11.4517863,9.48123849 C11.4517863,9.48123849 11.4171336,9.38358856 11.3880382,9.26283124 C11.1795878,8.46406276 10.7449733,7.28025941 10.3509962,6.44706834 C10.2872481,6.31494282 10.2350687,6.19423849 10.2350687,6.18279079 C10.2350687,6.19426499 10.2350687,6.18854114 10.2409466,6.18854114 L10.2409466,6.18854114 Z M15.2583702,7.13671269 C15.2931298,7.14816039 15.3510802,7.34356625 15.4669275,7.77452441 C15.6813359,8.60782148 15.7798435,9.53874198 15.745084,10.4064616 C15.7334351,10.6478173 15.7218931,10.8718954 15.7102443,10.9007001 L15.6929046,10.9580976 L15.3916374,10.8604477 C14.7716832,10.6650683 13.7636031,10.3719331 12.9003588,10.1306304 C12.4077939,9.99845188 12.008126,9.87777406 12.008126,9.86629986 C12.008126,9.83177127 12.7265878,9.11923152 13.033626,8.84917713 C13.618687,8.33766109 15.2061908,7.11943515 15.2583702,7.13671269 L15.2583702,7.13671269 Z M15.658145,7.19411018 C15.6755649,7.17696513 18.0568206,7.5848689 19.140271,7.79177545 C19.9456718,7.94690237 21.1159809,8.18828452 21.1854733,8.21706276 C21.2202328,8.22851046 21.0985344,8.29746165 20.7103282,8.46983961 C19.1808015,9.15373361 18.045145,9.76851743 16.9154733,10.5156388 C16.6199771,10.7110181 16.3708092,10.8718954 16.3650382,10.8718954 C16.3592672,10.8718954 16.3534695,10.7052943 16.3534695,10.5041381 C16.3534695,9.41234031 16.1332901,8.30898884 15.7276374,7.37806834 C15.6871069,7.28611576 15.6523473,7.19994003 15.658145,7.19411018 L15.658145,7.19411018 Z M21.8169695,8.40094142 C21.8343893,8.41816597 21.7590191,8.88367922 21.6895,9.15945746 C21.4809427,10.0157029 20.9189656,11.2857615 20.2295725,12.4809596 C20.1077939,12.69359 19.9977443,12.8659944 19.9860687,12.8717183 C19.9746069,12.8774421 19.8181489,12.7912134 19.6385,12.6877866 C18.9664466,12.2970279 18.2016832,11.9292706 17.3673206,11.5844351 C17.1356527,11.4867852 16.932813,11.4062803 16.9270153,11.3948856 C16.8863779,11.360357 18.7520382,10.1363543 19.7370076,9.55021618 C20.5191908,9.07903208 21.7937786,8.37791353 21.8169695,8.40094142 L21.8169695,8.40094142 Z M22.2572748,8.46986611 C22.3094542,8.46986611 23.3639427,8.75722455 23.914271,8.91812831 C25.2758779,9.32041423 26.8401641,9.88927476 27.8598931,10.3489847 L28.2827786,10.5386932 L27.9873893,10.6075914 C25.4961107,11.1764519 23.3639427,11.8316471 21.3070916,12.6591144 C21.1390649,12.7280656 20.9884046,12.7855425 20.9769427,12.7855425 C20.9652939,12.7855425 21.0232443,12.6533905 21.0985611,12.4924338 C21.7185153,11.1880056 22.1182901,9.82607392 22.2166908,8.66521897 C22.2225954,8.55601534 22.239855,8.46986611 22.2572748,8.46986611 L22.2572748,8.46986611 Z M11.7589313,10.8604477 C11.776271,10.8431702 12.581645,11.0328522 13.0161794,11.153424 C13.6766641,11.3373821 15.0787214,11.8027894 15.0787214,11.837318 C15.0787214,11.8430418 14.9223435,11.9752204 14.7370038,12.1361771 C13.9780115,12.7625411 13.2479275,13.4233013 12.3730076,14.2623222 C12.112271,14.5095077 11.8921718,14.7106109 11.8806298,14.7106109 C11.8689809,14.7106109 11.8632901,14.6760558 11.8689809,14.630106 C12.0022214,13.6646569 11.9733397,12.4234561 11.7879198,11.1649777 C11.7704733,11.0040209 11.7531336,10.8661715 11.7589313,10.8604477 L11.7589313,10.8604477 Z M28.6827137,10.8777252 C28.6941756,10.8891464 28.3118473,11.4867852 28.0685305,11.8257908 C27.7209618,12.3199763 27.2109504,12.975198 26.0579809,14.4118047 C25.4497557,15.1702678 24.7659733,16.0265662 24.5401031,16.3138717 C24.3082481,16.6011771 24.1171374,16.8424798 24.1112595,16.8424798 C24.1054885,16.8424798 24.0302786,16.739106 23.9491107,16.6127043 C23.3001679,15.6472552 22.5237557,14.8025105 21.6025344,14.0439944 C21.4287366,13.9002887 21.237626,13.7451353 21.1738779,13.699159 C21.1101298,13.6532092 21.0579504,13.6072329 21.0579504,13.6015091 C21.0579504,13.584311 22.042813,13.1647211 22.7903435,12.8659679 C24.099771,12.3372538 25.8840763,11.705166 27.2225725,11.2971297 C27.9236412,11.078802 28.6710649,10.8661715 28.6827137,10.8777252 L28.6827137,10.8777252 Z M29.1287901,10.9925732 C29.1519008,10.9868759 29.2910191,11.0558271 29.4590458,11.153424 C30.8669809,11.9521925 32.2458206,12.9808689 33.3351489,14.0382441 C33.642187,14.3371032 34.4011794,15.1186206 34.3895305,15.1243445 C34.3895305,15.1243445 34.1230229,15.1473194 33.8102137,15.1702678 C31.3710076,15.3542259 28.2482061,15.865583 25.2469427,16.5838731 C25.0441832,16.6297964 24.8646145,16.6700488 24.8529656,16.6700488 C24.8415038,16.6700488 25.067374,16.4459707 25.3513282,16.1759163 C27.1126031,14.4922036 27.9180038,13.4291046 28.8681069,11.5327085 C29.0013206,11.2512064 29.1172481,11.0098508 29.1287901,10.9925732 C29.1230191,10.9925732 29.1230191,10.9925732 29.1287901,10.9925732 L29.1287901,10.9925732 Z M16.2259198,12.3028577 C16.3070878,12.3200028 17.0602824,12.6706681 17.6280573,12.9521702 C18.1495038,13.2106709 18.9317137,13.6245105 18.9722443,13.6589331 C18.9780153,13.6646569 18.6998588,13.8083361 18.3581679,13.9750167 C17.2688397,14.5151785 16.3360763,15.0265621 15.3626489,15.6127266 C15.0845725,15.7794073 14.8528244,15.9173891 14.8470534,15.9173891 C14.8238626,15.9173891 14.8296336,15.8942817 14.9860916,15.6127266 C15.5075649,14.6703849 15.9246527,13.5440586 16.1622786,12.446431 C16.1853626,12.3602552 16.2085802,12.3028577 16.2259198,12.3028577 L16.2259198,12.3028577 Z M15.4726985,12.4407071 C15.4901183,12.4579847 15.2931298,13.1647476 15.1715115,13.5497824 C14.9338855,14.2795997 14.5341374,15.1932692 14.1460115,15.8828605 C14.0531947,16.0436848 13.9141832,16.2793166 13.8388664,16.4114686 L13.6940573,16.6413236 L13.3695992,16.3310962 C12.993042,15.9690363 12.6858969,15.7449317 12.292,15.543749 C12.1354618,15.4633766 12.0138435,15.3943459 12.0138435,15.3829247 C12.0138435,15.3369484 13.004584,14.4462538 13.7635763,13.8026388 C14.3081603,13.337152 15.4553588,12.4234826 15.4726985,12.4407071 L15.4726985,12.4407071 Z M20.0789122,14.3198522 L20.3628397,14.5036778 C21.0115954,14.9232413 21.7763588,15.4806011 22.3616603,15.9690363 C22.6918092,16.2390642 23.3291031,16.8080572 23.4566794,16.9459596 L23.5260916,17.0207406 L23.0569046,17.1528661 C20.4032901,17.8826039 18.3522901,18.5319693 15.9594122,19.4054923 C15.6929046,19.5031423 15.4669275,19.5835941 15.4495076,19.5835941 C15.414855,19.5835941 15.3857863,19.6122929 15.9826298,19.0663543 C17.5122366,17.6700795 18.8679122,16.1299135 19.8760725,14.6300795 L20.0789122,14.3198522 L20.0789122,14.3198522 Z M18.8679656,14.6186583 C18.8795076,14.630106 18.0857824,15.7391548 17.6106374,16.3655453 C17.0428626,17.1126137 16.0347023,18.3653152 15.339458,19.1812552 C15.0498397,19.5203668 14.8007519,19.8019219 14.7891031,19.8076987 C14.7716832,19.8134226 14.7659122,19.7272469 14.7659122,19.5950683 C14.7659122,18.8996736 14.5863435,18.1583821 14.2734275,17.5263208 C14.1401603,17.2619902 14.1169695,17.1987629 14.1460382,17.1700642 C14.2560878,17.0723347 15.9420725,16.1184128 17.0081031,15.5495523 C17.7265382,15.1702943 18.8504389,14.6071576 18.8679656,14.6186583 L18.8679656,14.6186583 Z M11.5444962,16.4000739 C11.561916,16.4000739 11.6951832,16.4689721 11.8458435,16.549477 C12.2166298,16.7505802 12.5468855,16.9746848 12.842355,17.2160934 C12.8538969,17.2275411 12.7033168,17.348272 12.5063282,17.4918452 C11.9558931,17.8826039 11.1216107,18.5090209 10.6350038,18.8940558 C10.1250191,19.2963152 10.1077595,19.3077894 10.1656298,19.2216137 C10.5480649,18.6411994 10.7391756,18.3136416 10.942042,17.8941841 C11.1216107,17.5207029 11.3011794,17.0781911 11.4286489,16.6931562 C11.4749771,16.5265021 11.5329542,16.4000739 11.5444962,16.4000739 Z M13.4970954,17.917106 C13.5259771,17.9114351 13.5608435,17.9630823 13.7171947,18.1929902 C14.0474504,18.6813459 14.3023893,19.3365411 14.3662176,19.8652022 L14.3776794,19.9801827 L13.5840344,20.2847657 C12.1644504,20.8306248 10.8551298,21.3708396 9.96856107,21.7730195 C9.7195,21.888 9.28493893,22.0948271 9.0010916,22.2328354 C8.71716412,22.3764086 8.48541603,22.4856123 8.48541603,22.4798884 C8.48541603,22.4741646 8.66498473,22.3419861 8.8851374,22.1810293 C10.6176107,20.9341046 12.1181489,19.5663696 13.2421298,18.1987406 C13.3638282,18.0550349 13.473958,17.9228563 13.4854466,17.9171325 L13.4970954,17.917106 Z M12.5990649,18.1355132 C12.6222557,18.1584881 11.961771,18.8997531 11.5098435,19.3537127 C10.3916336,20.4858424 9.28499237,21.3708396 7.91181679,22.2328354 C7.73801908,22.3419861 7.5816145,22.439636 7.56419466,22.4511897 C7.52361069,22.4741646 7.57573664,22.4166611 8.17832443,21.7672957 C8.56075954,21.3592859 8.85040458,21.0145035 9.18066031,20.5893222 C9.40081298,20.3077936 9.44139695,20.2675411 9.76011069,20.0433305 C10.611813,19.4341911 12.575874,18.1124854 12.5990649,18.1355132 Z" id="Shape" fill="url(#radialGradient-3)"></path>
                    </g>
                    <path d="M12.2248415,42.1872665 C12.1201413,42.1872665 12.0153951,42.1974268 11.911615,42.1974268 C9.79668046,42.3121396 8.37025547,43.2594801 7.53624215,45.1094934 C6.82293765,46.7826617 6.90081876,48.9697434 7.54424647,50.6531656 C8.29246636,52.2980537 9.50148667,53.1661722 11.5195413,53.4940635 C11.9465304,53.5652323 12.2328458,53.8038349 13.0598208,54.7866194 L14.0773815,56 L15.9228832,56 L14.6957382,54.7408747 C14.0173951,54.0504909 13.4687312,53.4493489 13.4687312,53.3965342 C13.4687312,53.3437663 13.7282275,53.2280234 14.0423281,53.1305878 C15.0778295,52.8116393 15.9377418,51.9974125 16.5392619,50.7495244 C17.0260993,49.7474495 17.0959761,49.437678 17.1657609,48.1909137 C17.3483422,44.4798372 15.4259714,42.1596886 12.2247495,42.1861896 L12.2248415,42.1872665 L12.2248415,42.1872665 Z M13.8428641,51.8919703 C12.9450463,52.3345745 11.6413542,52.4229268 10.7903662,52.1051489 C9.91048901,51.7762275 9.05858097,50.8461641 8.67543166,49.7932409 C8.24950064,48.6418521 8.31031507,46.5177922 8.79715253,45.5612278 C9.58024181,44.0382162 10.6157892,43.3376721 12.1290657,43.3376721 C14.3735873,43.3376721 15.6504604,44.7368875 15.817079,47.3665734 C15.9487823,49.561802 15.2265074,51.2086566 13.8438302,51.8910339 L13.8428641,51.8919703 L13.8428641,51.8919703 Z M45.7232879,45.3571795 C44.949169,45.3571795 44.3566193,45.6760811 43.9575074,46.3044264 L43.6442809,46.801999 L43.6442809,45.5084131 L42.3045693,45.5084131 L42.3045693,53.2657148 L43.6434068,53.2657148 L43.6434068,50.7862325 C43.6434068,48.5189455 43.6711919,48.2539355 43.9824864,47.633503 C44.4114995,46.7826617 45.149599,46.3583648 45.8629955,46.5614299 L46.3417826,46.7035801 L46.3417826,45.3592396 L45.7232879,45.3592396 L45.7232879,45.3571795 L45.7232879,45.3571795 Z M37.8524654,45.2860575 C37.590025,45.2860575 37.3116678,45.3216419 37.0345068,45.3836336 C35.2417691,45.8607453 34.2312468,47.6071425 34.2930732,49.4043411 C34.2930732,50.9091391 34.5803087,51.661421 35.2937052,52.450411 C36.7551836,53.6708149 38.0769084,53.7682505 39.8605377,53.1134511 C40.1648398,52.9814611 40.4960071,52.8291506 40.4960071,52.8291506 L40.4960071,51.6087468 L39.8605377,51.9438018 C38.417046,52.5834311 37.3297006,52.5834311 36.4587478,51.8300254 C35.9032296,51.2543076 35.6587298,50.5638769 35.5460713,49.7760574 L40.9478831,49.7760574 L40.9478831,48.7301107 C40.9478831,46.5979039 39.6869727,45.25155 37.8513614,45.2860575 L37.8524654,45.2860575 Z M35.6677462,48.6875031 C35.6677462,48.6875031 35.8673021,47.3574431 36.6074717,46.8355233 C36.9637099,46.5795966 37.3726203,46.4558005 37.7726063,46.4558005 C38.1736963,46.4558005 38.5736823,46.5877436 38.9038835,46.8447003 C39.5823186,47.3757036 39.6959891,48.6774364 39.6959891,48.6774364 L35.6677922,48.6774364 L35.6677922,48.6875031 L35.6677462,48.6875031 Z M3.36934966,47.2884282 C1.91693362,46.3928255 1.27249388,45.7470157 1.35129502,44.98551 C1.57670403,42.8786804 4.13454423,43.1700978 5.55103283,43.9671879 L5.56110723,42.5498058 C5.56110723,42.5498058 4.77797194,42.2045905 3.6556651,42.1862833 C1.9338623,42.1598759 0.820571818,42.7345169 0.298910975,43.904213 C-0.467295639,45.6302896 0.211139468,46.9319289 2.66322144,48.3839589 C4.03982645,49.1992159 4.64829276,49.9069705 4.64829276,50.6785897 C4.64829276,52.2727232 2.75991731,52.8291506 0.811693464,51.8289954 C0.410741444,51.6259303 0.0715238899,51.4563426 0.0535831731,51.4563426 C-0.0162936188,51.9082174 0.0197258203,52.9895144 0.0197258203,52.9895144 C0.0197258203,52.9895144 0.618301737,53.2454411 1.51602761,53.4219583 C3.74251657,53.8737863 5.76866752,52.8107497 5.96017317,51.0846731 C6.12679183,49.4642259 5.55107883,48.614321 3.36944166,47.2872576 L3.36934966,47.2884282 L3.36934966,47.2884282 Z M57.5803997,45.2678439 C57.3190172,45.2678439 57.0416722,45.3043648 56.7523666,45.3663097 C54.9617911,45.843515 53.9531548,47.589959 54.0219735,49.3871576 C54.0219735,50.8898954 54.3083349,51.6351073 55.0215474,52.4229736 C56.4830718,53.6445012 57.8048426,53.7429201 59.5974883,53.0870906 C59.9007324,52.9551474 60.2309336,52.8049439 60.2309336,52.8049439 L60.2309336,51.5824799 L59.5965222,51.9194546 C58.1500864,52.5571174 57.062649,52.5571174 56.1948243,51.8037585 C55.636132,51.2290708 55.3937483,50.5467402 55.2809978,49.7496501 L60.6738853,49.7496501 L60.6738853,48.7038438 C60.6738853,46.5818441 59.4128829,45.2344134 57.5773636,45.2699977 L57.5803997,45.2678439 L57.5803997,45.2678439 Z M55.3956804,48.6692427 C55.3956804,48.6692427 55.5972144,47.3411492 56.336372,46.8090691 C56.6915522,46.5522529 57.1005085,46.4283162 57.5005405,46.4283162 C57.8995604,46.4283162 58.3016165,46.5603062 58.6319097,46.8181993 C59.3102528,47.3492494 59.4240153,48.6600656 59.4240153,48.6600656 L55.3967844,48.6600656 L55.3956804,48.6692427 L55.3956804,48.6692427 Z M30.8394852,47.3056585 C29.3870692,46.4121628 28.7445615,45.7642929 28.8223966,45.0027403 C29.0478056,42.8948339 31.6056919,43.1873281 33.0221804,43.9844183 L33.0322088,42.5670361 C33.0322088,42.5670361 32.2490736,42.221774 31.1267667,42.2054801 C29.4049639,42.1791196 28.2916734,42.7538073 27.7690466,43.9234566 C27.003898,45.6494864 27.6912114,46.9512193 30.1352431,48.4032026 C31.509962,49.2175699 32.1184283,49.9161007 32.1184283,50.6877199 C32.1184283,52.2818534 30.2310189,52.847411 28.2827491,51.8380787 C27.8837291,51.6350137 27.5446036,51.4674393 27.5246388,51.4674393 C27.454762,51.9192205 27.4907814,53.000658 27.4907814,53.000658 C27.4907814,53.000658 28.0822731,53.2474076 28.9771008,53.4331487 C31.2056599,53.8860068 33.2327309,52.8239066 33.4233165,51.0978299 C33.5889231,49.485436 33.0143141,48.6356248 30.8395312,47.3075314 L30.8395312,47.3056585 L30.8394852,47.3056585 Z M65.4522342,45.3389191 C64.6781153,45.3389191 64.0786653,45.6586635 63.6865457,46.2872429 L63.3732271,46.7827086 L63.3732271,45.4912296 L62.0335156,45.4912296 L62.0335156,53.2464243 L63.3722611,53.2464243 L63.3722611,50.7670357 C63.3722611,48.5007319 63.3991262,48.2346918 63.7115247,47.6153363 C64.1404458,46.765525 64.8785453,46.3401512 65.5918498,46.5441527 L66.0706369,46.6862561 L66.0706369,45.3389191 L65.4522342,45.3389659 L65.4522342,45.3389191 Z M20.1854596,47.2609439 L20.1854596,42.3201929 L18.8347996,42.3201929 L18.8347996,53.2637015 L24.5150145,53.2637015 L24.5150145,51.9712392 L20.1855056,51.9712392 L20.1855056,47.2609439 L20.1854596,47.2609439 Z M51.4213976,48.8011858 L50.3081071,51.7497733 L49.2376443,48.7849387 L48.1502989,45.4993297 L46.7677137,45.4993297 C47.6635995,48.0844414 48.6380564,50.7141273 49.6207476,53.2637015 C50.0467247,53.2738149 50.4736677,53.2637015 50.8995527,53.2637015 L52.4029848,49.4216183 L53.934248,45.500313 L52.6125232,45.500313 C52.6125232,45.500313 52.0288519,47.0578788 51.4204316,48.8022159 L51.4213976,48.8011858 L51.4213976,48.8011858 Z M23.2978519,39.338128 C23.5153486,39.338128 23.6968719,39.2671465 23.8465158,39.114836 C23.9940897,38.964492 24.0719248,38.7878343 24.0719248,38.5665088 C24.0719248,38.3451365 23.9940897,38.1603318 23.8465158,38.0181815 C23.6968719,37.8760781 23.524273,37.8049094 23.3077883,37.8049094 C23.0884055,37.8049094 22.9067903,37.8760781 22.7591244,38.0262817 C22.6095264,38.1766257 22.5416737,38.3614304 22.5416737,38.5746557 C22.5416737,38.7980414 22.6115505,38.9827524 22.7591244,39.122983 C22.898832,39.2650396 23.0804012,39.3361615 23.2978519,39.3361615 L23.2978519,39.338128 L23.2978519,39.338128 Z M22.8190648,38.0791432 C22.948698,37.9472001 23.1063463,37.8861916 23.3078343,37.8861916 C23.4974079,37.8861916 23.6550562,37.9472001 23.7867594,38.0791432 C23.9164386,38.2111332 23.9862694,38.3715438 23.9862694,38.5665088 C23.9862694,38.7614269 23.9164386,38.9300313 23.7867594,39.0619745 C23.6551022,39.1938708 23.4974079,39.2568926 23.3078343,39.2568926 C23.1153166,39.2568926 22.9586804,39.1959778 22.8290472,39.0619745 C22.699368,38.9300313 22.6295372,38.7614269 22.6295372,38.5665088 C22.6295372,38.3715438 22.6893856,38.21118 22.8190648,38.0791432 Z M23.1412156,38.6376307 L23.2289872,38.6376307 C23.2909056,38.6376307 23.3517201,38.6984988 23.4035641,38.8142885 L23.5084023,39.0538275 L23.6729509,39.0538275 L23.5433177,38.7877406 C23.4904616,38.6812216 23.4386175,38.6192767 23.3777111,38.6019059 C23.4545342,38.5836455 23.5153486,38.5572849 23.5592804,38.5044234 C23.6030741,38.4588192 23.6190827,38.3968275 23.6190827,38.3267356 C23.6190827,38.245547 23.5941497,38.184679 23.5413396,38.1399644 C23.4814452,38.0892098 23.3856694,38.0618192 23.2619245,38.0618192 L22.9847174,38.0618192 L22.9847174,39.0538275 L23.124333,39.0538275 L23.124333,38.6375371 L23.1412156,38.6376307 L23.1412156,38.6376307 Z M23.1412156,38.1766257 L23.2629825,38.1766257 C23.350754,38.1766257 23.4126265,38.1948861 23.4465298,38.2212466 C23.4794672,38.247654 23.4884375,38.2822551 23.4884375,38.3451365 C23.4884375,38.4598493 23.4185147,38.5137409 23.2889276,38.5137409 L23.1393296,38.5137409 L23.1393296,38.1766257 L23.1412156,38.1766257 L23.1412156,38.1766257 Z M0.829496175,38.5492316 C0.829496175,38.2040163 0.819559778,37.9472001 0.811555458,37.7958728 L0.819559778,37.7958728 C0.854429171,37.9744502 0.897348886,38.1075639 0.932264281,38.1958694 L2.2290561,41.1444568 L2.44655279,41.1444568 L3.7433446,38.1695088 C3.778352,38.0883671 3.81326739,37.9664437 3.85614111,37.7968561 L3.8660775,37.7968561 C3.84017847,38.0913636 3.83120811,38.3471966 3.83120811,38.551245 L3.83120811,41.1536338 L4.27503384,41.1536338 L4.27503384,37.2851433 L3.7184116,37.2851433 L2.52636597,39.9757908 C2.48243422,40.0823567 2.42157379,40.2418777 2.34378468,40.4530429 L2.32575196,40.4530429 C2.29985292,40.3484436 2.23899249,40.1890162 2.15223303,39.9940512 L0.987006468,37.2759194 L0.395514835,37.2759194 L0.395514835,41.1443632 L0.822457894,41.1443632 L0.822457894,38.5511513 L0.829496175,38.5492316 Z M5.24774271,38.5564422 L5.63089202,38.5564422 L5.63089202,40.9657858 L5.24774271,40.9657858 L5.24774271,38.5564422 L5.24774271,38.5564422 Z M5.43929436,37.673013 C5.51915355,37.673013 5.58696026,37.6455288 5.63880433,37.5918245 C5.69170645,37.5389629 5.72666784,37.469948 5.72666784,37.3887594 C5.72666784,37.3095373 5.70067681,37.2384154 5.63986238,37.1856943 C5.58599422,37.1318495 5.51712947,37.1043652 5.43832832,37.1043652 C5.36058522,37.1043652 5.29075443,37.1318495 5.23877235,37.1856943 C5.18605424,37.2384154 5.15104684,37.3095373 5.15104684,37.3887594 C5.15104684,37.4771117 5.17800392,37.5389629 5.23877235,37.5918245 C5.29875875,37.6455288 5.36053921,37.673013 5.43832832,37.673013 L5.43929436,37.673013 Z M8.36225115,41.0186473 L8.36225115,40.5941631 C8.15271278,40.7535905 7.92725777,40.8328594 7.69384444,40.8328594 C7.41461329,40.8328594 7.18805423,40.7354237 7.02244762,40.5486525 C6.85789904,40.3638478 6.77012754,40.1068443 6.77012754,39.7870531 C6.77012754,39.451998 6.85789904,39.1858643 7.0394223,38.9827992 C7.21399927,38.7878811 7.44051232,38.6903986 7.7178574,38.6903986 C7.94427845,38.6903986 8.16163713,38.7615674 8.36229715,38.9037645 L8.36229715,38.4519364 C8.17976186,38.354454 7.97128153,38.3097394 7.73579812,38.3097394 C7.30080474,38.3097394 6.96172519,38.4519364 6.70834707,38.7261703 C6.45690102,39.0002637 6.32722184,39.3729164 6.32722184,39.8227311 C6.32722184,40.2227277 6.43992634,40.5588596 6.67444371,40.8157695 C6.91880548,41.0797026 7.23115796,41.2137527 7.61416926,41.2137527 C7.91032909,41.2054185 8.15271278,41.1424435 8.36225115,41.0186473 L8.36225115,41.0186473 Z M9.45852095,39.7341916 C9.45852095,39.4163668 9.52835174,39.1595506 9.65803092,38.9827524 C9.77979779,38.8234187 9.92737168,38.7432133 10.1019487,38.7432133 C10.2496146,38.7432133 10.3543147,38.7706039 10.4310918,38.8325489 L10.4310918,38.3715438 C10.3712894,38.3451833 10.284484,38.3360531 10.1717794,38.3360531 C10.0151432,38.3360531 9.87557361,38.3897106 9.75284071,38.4883636 C9.62316153,38.5928225 9.51942738,38.7523435 9.45856695,38.9554086 L9.44863056,38.9554086 L9.44863056,38.3898042 L9.01469522,38.3898042 L9.01469522,41.1515737 L9.44959659,41.1515737 L9.44959659,39.7341916 L9.45852095,39.7341916 L9.45852095,39.7341916 Z M11.9554547,41.2064017 C12.3645031,41.2064017 12.6936922,41.0723516 12.938054,40.8064052 C13.1814037,40.5422848 13.3031246,40.1870028 13.3031246,39.7442114 C13.3031246,39.2925238 13.1914781,38.9472617 12.963999,38.6902582 C12.73859,38.4335356 12.4252715,38.3095053 12.0162231,38.3095053 C11.6071748,38.3095053 11.2779856,38.4334419 11.0336239,38.6730278 C10.7722874,38.9371482 10.6346039,39.3097542 10.6346039,39.7879895 C10.6346039,40.20428 10.7463424,40.5495421 10.9818258,40.8064052 C11.2251755,41.0723516 11.5474184,41.2053717 11.9554547,41.2053717 L11.9554547,41.2064017 L11.9554547,41.2064017 Z M11.33696,38.9563919 C11.5025666,38.7787041 11.7201093,38.690305 11.9893581,38.690305 C12.2687732,38.690305 12.4782196,38.7787041 12.6338438,38.9563919 C12.7904341,39.1422266 12.8683152,39.4072835 12.8683152,39.7615822 C12.8683152,40.0986037 12.7984384,40.3636606 12.6507725,40.5413484 C12.5031986,40.7271831 12.2857019,40.825602 11.9983284,40.825602 C11.7190513,40.825602 11.5025666,40.7270895 11.33696,40.5413484 C11.1724114,40.3545304 11.0935643,40.0986037 11.0935643,39.7615822 C11.0766356,39.4265271 11.1634411,39.1524337 11.33696,38.9563919 Z M15.2076007,40.9657858 C15.3731613,40.8155822 15.4610248,40.6307775 15.4610248,40.3991513 C15.4610248,40.1960862 15.391102,40.0275754 15.2614688,39.8945554 C15.1556646,39.7880364 14.9921741,39.6914903 14.7557246,39.5940078 C14.5461402,39.5047659 14.416507,39.4254502 14.3466303,39.3635053 C14.2768455,39.292477 14.2339258,39.2042184 14.2339258,39.0792516 C14.2339258,38.9645388 14.2778575,38.8761866 14.3636969,38.8051114 C14.4514684,38.73413 14.5632069,38.6996225 14.7128509,38.6996225 C14.9472763,38.6996225 15.1477523,38.7625038 15.3312536,38.8955707 L15.3312536,38.4528261 C15.1557106,38.3635842 14.965171,38.3209297 14.7476743,38.3209297 C14.4683971,38.3209297 14.2329597,38.3991685 14.0593028,38.5503085 C13.8767215,38.7006994 13.790008,38.8956175 13.790008,39.1249963 C13.790008,39.3280614 13.8498104,39.4966658 13.9634809,39.620462 C14.0592568,39.7260914 14.2229773,39.833781 14.4503184,39.9301398 C14.6678611,40.0276691 14.815481,40.1159277 14.8942361,40.186956 C14.9720252,40.2581248 15.0069406,40.3463834 15.0069406,40.4510764 C15.0069406,40.7088759 14.8334217,40.8419896 14.4942042,40.8419896 C14.2328217,40.8419896 13.9984883,40.7546205 13.788858,40.5780096 L13.788858,41.0550745 C13.9784315,41.1709578 14.2059106,41.2236789 14.4572647,41.2236789 C14.7795076,41.2064486 15.0318276,41.1262432 15.2054386,40.9668158 L15.2076007,40.9657858 L15.2076007,40.9657858 Z M17.2785574,38.3095989 C16.8694631,38.3095989 16.5403199,38.4335356 16.2959121,38.6731215 C16.0365538,38.9372419 15.8968922,39.3098478 15.8968922,39.7880832 C15.8968922,40.2043736 16.0096887,40.5496358 16.2440681,40.8064988 C16.4884758,41.0724453 16.8096607,41.2054653 17.218709,41.2054653 C17.6376478,41.2054653 17.9569465,41.0715088 18.2013083,40.8053751 C18.445716,40.541442 18.5673909,40.1860664 18.5673909,39.7433218 C18.5673909,39.2914938 18.4536744,38.9463252 18.2281733,38.6894154 C17.9928739,38.4325055 17.6795094,38.3086157 17.2804895,38.3086157 L17.2785574,38.3095989 L17.2785574,38.3095989 Z M18.1224611,39.761629 C18.1224611,40.0986506 18.0526303,40.3637074 17.9050104,40.5413952 C17.7573445,40.7272299 17.5398478,40.8256488 17.2525204,40.8256488 C16.9731052,40.8256488 16.7567126,40.7271363 16.5910599,40.5413952 C16.4265114,40.3545772 16.3477102,40.0986506 16.3477102,39.761629 C16.3477102,39.4062534 16.4345617,39.13216 16.6091387,38.9472617 C16.7736412,38.7706039 16.9912299,38.6812216 17.2615367,38.6812216 C17.5308315,38.6812216 17.7473621,38.7705103 17.9039064,38.9472617 C18.043614,39.1421798 18.1214491,39.4072366 18.1214491,39.761629 L18.1224611,39.761629 L18.1224611,39.761629 Z M19.2976701,41.1434736 L19.7316054,41.1434736 L19.7316054,38.7523904 L20.3670288,38.7523904 L20.3670288,38.3807209 L19.7315594,38.3807209 L19.7315594,37.9542701 C19.7315594,37.566494 19.8791333,37.371529 20.1844475,37.371529 C20.2872156,37.371529 20.3919618,37.3978896 20.4697969,37.4426042 L20.4697969,37.0436377 C20.3919618,37.0081001 20.2872156,37 20.1564324,37 C19.922053,37 19.7305474,37.0711219 19.5738651,37.2213255 C19.3912838,37.3979832 19.294588,37.6274557 19.294588,37.9382572 L19.294588,38.3911152 L18.8355816,38.3911152 L18.8355816,38.7626911 L19.294588,38.7626911 L19.294588,41.1447846 L19.2976701,41.1434736 L19.2976701,41.1434736 Z M21.0802413,40.3900679 C21.0802413,40.930295 21.3147587,41.2054185 21.7935458,41.2054185 C21.9671567,41.2054185 22.097802,41.1770446 22.2025481,41.1140696 L22.2025481,40.7343468 C22.122781,40.7953085 22.0279712,40.823776 21.923271,40.823776 C21.7756971,40.823776 21.6719169,40.788098 21.6110105,40.7078926 C21.549138,40.628811 21.5142686,40.4946673 21.5142686,40.3098626 L21.5142686,38.7513603 L22.2025021,38.7513603 L22.2025021,38.3796908 L21.5142686,38.3796908 L21.5142686,37.5654639 C21.3646247,37.6182318 21.2180168,37.6629464 21.0792753,37.7075205 L21.0792753,38.379644 L20.6104245,38.379644 L20.6104245,38.7513135 L21.0792753,38.7513135 L21.0792753,40.3890847 L21.0802413,40.3900679 L21.0802413,40.3900679 Z M67.7665867,45.4809757 C67.6189668,45.3389191 67.4443898,45.2677971 67.2279512,45.2677971 C67.0085224,45.2677971 66.8268611,45.3389191 66.6792412,45.4911828 C66.5316213,45.6404499 66.4616985,45.826191 66.4616985,46.03951 C66.4616985,46.2608823 66.5316213,46.445687 66.6781372,46.5877436 C66.8258491,46.7298938 67.0073263,46.8010626 67.2268471,46.8010626 C67.4432858,46.8010626 67.6258671,46.7298938 67.775557,46.5796435 C67.9222109,46.4273329 68,46.2517053 68,46.0314099 C67.9919957,45.8080242 67.9131945,45.6231727 67.7655746,45.4810693 L67.7665867,45.4809757 L67.7665867,45.4809757 Z M67.6968019,46.5268756 C67.5670767,46.6588187 67.4094744,46.7197336 67.2179228,46.7197336 C67.0284412,46.7197336 66.8708389,46.6588187 66.7391356,46.5268756 C66.6095024,46.3928255 66.5395796,46.2252979 66.5395796,46.0293029 C66.5395796,45.8363513 66.599428,45.6760343 66.7311313,45.5419841 C66.8607645,45.4100878 67.0174927,45.3490325 67.2179228,45.3490325 C67.4074963,45.3490325 67.5651906,45.4100878 67.6968019,45.5419841 C67.8264351,45.6760343 67.8962659,45.8363513 67.8962659,46.0293029 C67.8962659,46.234475 67.8364175,46.3928255 67.6968019,46.5268756 L67.6968019,46.5268756 Z M67.3056943,46.0750007 C67.3834834,46.0567403 67.4454018,46.0212028 67.4882756,45.9775651 C67.5322073,45.9318204 67.5482159,45.8698287 67.5482159,45.7989408 C67.5482159,45.7197188 67.523237,45.6567438 67.4704268,45.6131061 C67.4105784,45.5623047 67.3138366,45.5348673 67.1911957,45.5348673 L66.9138506,45.5348673 L66.9138506,46.5257987 L67.0535582,46.5257987 L67.0535582,46.1095082 L67.1402716,46.1095082 C67.200212,46.1095082 67.2600604,46.1703762 67.3138366,46.286166 L67.4175247,46.5247686 L67.5832233,46.5247686 L67.4535902,46.2586817 C67.4086464,46.1429388 67.3567563,46.0900773 67.3039922,46.0728001 L67.3056943,46.0750007 L67.3056943,46.0750007 Z M67.2099184,45.985712 L67.0603205,45.985712 L67.0603205,45.6507038 L67.1830534,45.6507038 C67.2698588,45.6507038 67.3306733,45.6668572 67.3656347,45.6943415 C67.400504,45.720702 67.4085084,45.7552563 67.4085084,45.8182313 C67.4085084,45.9329441 67.3386776,45.9858057 67.2090444,45.9858057 L67.2099184,45.985712 Z M42.9400847,38.266008 L43.0618056,38.266008 L43.0618056,37.2739997 L43.3839105,37.2739997 L43.3839105,37.1501099 L42.6178878,37.1501099 L42.6178878,37.2739997 L42.9401767,37.2739997 L42.9401767,38.266008 L42.9400847,38.266008 L42.9400847,38.266008 Z M43.6782762,37.5207493 C43.6782762,37.4242033 43.6782762,37.345028 43.6712839,37.3004539 C43.6792883,37.353175 43.697229,37.3888062 43.7052333,37.4151667 L44.0793662,38.266008 L44.1392146,38.266008 L44.5142216,37.406973 C44.524296,37.3806124 44.5323003,37.3460581 44.549183,37.3004539 C44.5411787,37.3888062 44.5411787,37.459694 44.5411787,37.5136325 L44.5411787,38.2650248 L44.6709039,38.2650248 L44.6709039,37.1501099 L44.5142216,37.1501099 L44.1751421,37.9197626 C44.1671377,37.9472469 44.1400887,38.0009512 44.123206,38.0619597 L44.1132236,38.0619597 C44.1062313,38.0263285 44.0883366,37.9908378 44.0633576,37.9300166 L43.724186,37.1502036 L43.548643,37.1502036 L43.548643,38.2670849 L43.6712839,38.2670849 L43.6712839,37.5218262 L43.6782762,37.5207493 L43.6782762,37.5207493 Z" id="Shape" fill="#231F1F"></path>
                </g>
            </g>
        </g>
    </g>
</svg>