<?xml version="1.0" encoding="UTF-8"?>
<svg width="141px" height="40px" viewBox="0 0 141 40" version="1.1" xmlns="http://www.w3.org/2000/svg" xmlns:xlink="http://www.w3.org/1999/xlink">
    <!-- Generator: Sketch 53.2 (72643) - https://sketchapp.com -->
    <title>mongodb</title>
    <desc>Created with Sketch.</desc>
    <g id="web" stroke="none" stroke-width="1" fill="none" fill-rule="evenodd">
        <g id="Technologies---Technologies-tab" transform="translate(-389.000000, -2794.000000)">
            <g id="Data-storage" transform="translate(136.000000, 2220.000000)">
                <g id="mongodb" transform="translate(253.000000, 574.000000)">
                    <path d="M131.355756,16.4083917 C131.227904,16.4339181 131.099495,16.7155409 131.099495,16.8689768 C131.073925,17.8933625 131.048354,20.6074853 131.048354,22.4509357 C131.048354,22.5022659 131.125066,22.604649 131.202055,22.604649 C131.586724,22.6301754 132.510041,22.6557018 133.305228,22.6557018 C134.408094,22.6557018 135.049302,22.5022659 135.408679,22.34883 C136.331718,21.88769 136.767806,20.8891081 136.767806,19.7878657 C136.767806,17.3045904 135.023732,16.3570614 132.433052,16.3570614 C132.253503,16.331535 131.740981,16.331535 131.355756,16.4083917 L131.355756,16.4083917 Z M137.97351,27.8536548 C137.97351,25.3187718 136.101028,23.9103801 132.715439,23.9103801 C132.56146,23.9103801 131.484165,23.8848537 131.227626,23.9359065 C131.150636,23.9617104 131.048354,24.0130407 131.048354,24.0898973 C131.048354,25.9075439 131.022506,28.8011838 131.099495,29.9276752 C131.150636,30.4140642 131.510013,31.1054968 131.946101,31.310263 C132.407482,31.5663594 133.459207,31.6174122 134.177404,31.6174122 C136.203588,31.6174122 137.97351,30.4909209 137.97351,27.8536548 L137.97351,27.8536548 Z M126.123812,15.0002775 C126.380072,15.0002775 127.149411,15.0768567 129.124453,15.0768567 C130.996936,15.0768567 132.484471,15.0258039 134.305535,15.0258039 C136.536838,15.0258039 139.614747,15.8193421 139.614747,19.1480408 C139.614747,20.786725 138.460461,22.0927336 136.947355,22.732836 C136.870644,22.7583624 136.870644,22.8094152 136.947355,22.8349416 C139.101669,23.3729383 141,24.7041958 141,27.213275 C141,29.6715788 139.461046,31.2334063 137.229465,32.2064618 C135.870059,32.7952338 134.177404,33 132.4589,33 C131.150636,33 127.636918,32.8465641 125.687724,32.8978944 C125.482604,32.8207602 125.867273,31.8990351 126.046544,31.7455992 C126.508481,31.7197953 126.867301,31.6942689 127.354808,31.5405555 C128.047435,31.3615932 128.124147,31.1565496 128.226706,30.1069149 C128.278125,29.2107162 128.278125,26.0354533 128.278125,23.7824706 C128.278125,20.684342 128.303974,18.5847951 128.278125,17.5606869 C128.252555,16.7671486 127.970446,16.5107747 127.406227,16.3570614 C126.969861,16.2804822 126.251942,16.1778216 125.661875,16.1012424 C125.533467,15.9730555 125.969555,15.1023831 126.123812,15.0002775 Z M111.324057,30.9262571 C111.939972,31.4123686 113.145398,31.6171348 114.222694,31.6171348 C115.60767,31.6171348 116.992645,31.3615932 118.32648,30.1576903 C119.685885,28.9290933 120.634772,27.0343127 120.634772,24.0130407 C120.634772,21.1194007 119.531906,18.7637574 117.274754,17.3814471 C115.992339,16.5873539 114.350825,16.2549558 112.452772,16.2549558 C111.888553,16.2549558 111.349905,16.2804822 111.016655,16.4339181 C110.939388,16.4852483 110.760116,16.7155409 110.760116,16.8434504 C110.708697,17.3556432 110.708697,21.2986404 110.708697,23.6032309 C110.708697,25.9844005 110.708697,29.3130992 110.760116,29.6971052 C110.760116,30.0813885 110.939388,30.6701606 111.324335,30.9262571 L111.324057,30.9262571 Z M105.501767,15 C105.989274,15 107.861479,15.0768567 108.759225,15.0768567 C110.375447,15.0768567 111.529455,15.0002775 114.581515,15.0002775 C117.146346,15.0002775 119.300938,15.6914326 120.839892,16.9971637 C122.712097,18.6103215 123.687111,20.8380553 123.687111,23.5519006 C123.687111,27.4183186 121.917188,29.6460523 120.147265,30.9262571 C118.377899,32.2319882 116.069328,33 112.7863,33 C111.042226,33 108.041306,32.9489472 105.553186,32.9231433 L105.527616,32.9231433 C105.399485,32.6928508 105.732736,31.796652 105.937855,31.7711256 C106.604912,31.6942689 106.784461,31.668465 107.117989,31.540833 C107.656359,31.3357894 107.759197,31.0541665 107.836186,30.1069149 C107.912898,28.3400438 107.887327,26.2149706 107.887327,23.807997 C107.887327,22.0927336 107.912898,18.738231 107.861479,17.6627925 C107.784767,16.7668712 107.400098,16.5363011 106.630482,16.3825878 C106.245813,16.3060086 105.732736,16.203348 105.014816,16.1267688 C104.911978,15.9472516 105.373637,15.1537134 105.501767,15.0002775 L105.501767,15 Z" id="Shape" fill="#8E714E" fill-rule="nonzero"></path>
                    <path d="M74.9667373,31.8822755 C74.3336591,31.8061315 73.8778538,31.7049726 73.3207889,31.4512507 C73.2447756,31.4003964 73.1179953,31.1469495 73.1179953,31.0452408 C73.0675027,30.1573518 73.0675027,27.6206832 73.0675027,25.9213241 C73.0675027,24.5512811 72.8397373,23.3590908 72.2571517,22.5220562 C71.5733065,21.5577482 70.5859569,21 69.3195261,21 C68.2053963,21 66.7112,21.7608906 65.4702899,22.8263574 C65.4450436,22.8516472 65.2425244,23.0294998 65.2677707,22.7502134 C65.2677707,22.4712018 65.3185377,21.9131787 65.343784,21.5324585 C65.3693047,21.1773029 65.1665111,21 65.1665111,21 C64.3561601,21.405735 62.0771334,21.9384684 61.2412616,22.0143376 C60.6337041,22.1416108 60.4816775,22.7249237 61.1150302,22.9277912 L61.1402765,22.9277912 C61.8235728,23.1306587 62.2796526,23.3590908 62.6339239,23.587523 C62.8872101,23.7903905 62.8619638,24.069402 62.8619638,24.2978342 C62.8872101,26.2000608 62.8872101,29.1174496 62.8114712,30.7156498 C62.7862249,31.349817 62.608952,31.5779742 62.1528723,31.679408 L62.2036393,31.6541183 C61.8490935,31.7302623 61.5705611,31.8061315 61.140002,31.8569858 C60.9879755,32.0092739 60.9879755,32.8210188 61.140002,32.9985966 C61.4185345,32.9985966 62.8872101,32.9224526 64.1031483,32.9224526 C65.774343,32.9224526 66.6354611,32.9985966 67.0657457,32.9985966 C67.2430186,32.7957291 67.2937856,32.0345636 67.192526,31.8569858 C66.7112,31.8316961 66.3566542,31.7811166 66.0276292,31.679408 C65.5718239,31.5776993 65.4450436,31.349817 65.4195229,30.8170836 C65.3693047,29.4723303 65.3693047,26.6313604 65.3693047,24.7035692 C65.3693047,24.1708358 65.5210569,23.917114 65.672809,23.7648259 C66.2553947,23.2576571 67.192526,22.9025015 68.0281234,22.9025015 C68.8384745,22.9025015 69.3700187,23.1562233 69.7753314,23.4860892 C70.3323963,23.9424037 70.5096692,24.6021354 70.5856825,25.0840145 C70.7121884,26.174771 70.6616958,28.3309944 70.6616958,30.2082061 C70.6616958,31.2228186 70.5856825,31.4765405 70.2061649,31.6032639 C70.0286176,31.679408 69.5728123,31.7811166 69.0409936,31.8314212 C68.8637208,32.0092739 68.9144878,32.7957291 69.0409936,32.9733069 C69.7753314,32.9733069 70.6364495,32.8971629 71.9026059,32.8971629 C73.4725411,32.8971629 74.4856857,32.9733069 74.8909985,32.9733069 C75.0172299,32.8210188 75.0679969,32.0854179 74.9667373,31.8822755 L74.9667373,31.8822755 Z M81.9813646,22.1924652 C80.6394693,22.1924652 79.8035975,23.2323674 79.8035975,24.8555824 C79.8035975,26.5046369 80.5379353,28.4071384 82.6144428,28.4071384 C82.9689885,28.4071384 83.6275874,28.2548503 83.9310918,27.8996947 C84.4124178,27.4433803 84.7417173,26.5299266 84.7417173,25.5658936 C84.7417173,23.4605246 83.7033263,22.1921903 81.9813646,22.1921903 L81.9813646,22.1924652 Z M81.8040917,33.4043317 C81.2977938,33.4043317 80.9429736,33.5566197 80.7152082,33.6836181 C79.6515709,34.3680898 79.1705193,35.0278216 79.1705193,35.8145517 C79.1705193,36.5498777 79.4490518,37.1331906 80.0568837,37.6406343 C80.7912215,38.2748014 81.8040917,38.5793776 83.0954944,38.5793776 C85.6785742,38.5793776 86.8182248,37.1840449 86.8182248,35.8145517 C86.8182248,34.8502438 86.3368987,34.2160766 85.3495492,33.8611959 C84.6404577,33.5566197 83.349055,33.4043317 81.8040917,33.4043317 L81.8040917,33.4043317 Z M81.9813646,40 C80.4366757,40 79.3222715,39.6701341 78.3601682,38.9345332 C77.4230369,38.224222 77.0179985,37.1587552 77.0179985,36.4231543 C77.0179985,36.2202868 77.0687655,35.6619887 77.5245709,35.1548199 C77.8028289,34.8502438 78.4109352,34.2669309 79.8543645,33.2776082 C79.9048571,33.2523185 79.9301034,33.2270287 79.9301034,33.1758995 C79.9301034,33.1253201 79.8793364,33.0744658 79.8288438,33.0494509 C78.6387007,32.5928616 78.2841549,31.8569858 78.1826209,31.4512507 L78.1826209,31.4003964 C78.1576491,31.2481083 78.1068821,31.0960951 78.3349219,30.9438071 C78.5121948,30.8170836 78.765481,30.6647955 79.043739,30.4874926 C79.4742981,30.2334959 79.9301034,29.9544843 80.2086358,29.7260522 C80.2594028,29.6754727 80.2594028,29.6248933 80.2594028,29.574039 C80.2594028,29.5231847 80.2086358,29.4723303 80.1578688,29.4473155 C78.3856889,28.8637278 77.4993246,27.5445391 77.4993246,25.5658936 C77.4993246,24.2722696 78.0816358,23.105369 79.1197523,22.3697681 C79.8288438,21.811745 81.6015725,21.1267235 82.7664694,21.1267235 L82.8424827,21.1267235 C84.0326258,21.1520132 84.6909503,21.405735 85.6278072,21.7356009 C86.1343795,21.9131787 86.6157056,21.9890479 87.2743045,21.9890479 C88.261654,21.9890479 88.6922131,21.6847466 89.0464844,21.3298659 C89.0720051,21.3804453 89.1227721,21.5074437 89.1480184,21.8370347 C89.1732647,22.1669006 89.0720051,22.6487796 88.8187189,23.0039352 C88.6161998,23.2829468 88.1603944,23.4860892 87.7045891,23.4860892 L87.5778088,23.4860892 C87.1220035,23.4352349 86.9192099,23.3843806 86.9192099,23.3843806 L86.8182248,23.4352349 C86.7929785,23.4860892 86.8182248,23.5366686 86.843471,23.6128127 L86.8689918,23.663667 C86.9194843,23.8918242 87.0207439,24.5765708 87.0207439,24.7544235 C87.0207439,26.8345028 86.1851465,27.7474066 85.2987822,28.4324281 C84.4376641,29.0665953 83.4503146,29.4723303 82.3359103,29.574039 C82.310664,29.574039 82.2096789,29.574039 81.9813646,29.5993287 C81.8548587,29.5993287 81.6775858,29.6248933 81.6520651,29.6248933 L81.6268188,29.6248933 C81.4242997,29.6754727 80.9180018,29.9291946 80.9180018,30.3602193 C80.9180018,30.7406647 81.1457672,31.1975289 82.2346507,31.2736729 C82.4624162,31.2989627 82.6901817,31.2989627 82.9437422,31.3245273 C84.3871715,31.4256861 86.1851465,31.5526845 87.0207439,31.8316961 C88.1856407,32.2627208 88.9199785,33.3028979 88.9199785,34.5459425 C88.9199785,36.4234292 87.5780832,38.1736426 85.3495492,39.2641242 C84.2606656,39.7462782 83.1715077,40 81.9813646,40 L81.9813646,40 Z M96.4156574,22.3191886 C95.8841132,22.3191886 95.4027871,22.4456372 95.0482414,22.6993591 C94.0608919,23.3082365 93.5543195,24.5259914 93.5543195,26.3014945 C93.5543195,29.6248933 95.2255143,31.9586944 97.6060749,31.9586944 C98.3151664,31.9586944 98.8722313,31.755552 99.3532829,31.349817 C100.087621,30.7406647 100.467687,29.5231847 100.467687,27.8235507 C100.467687,24.5259914 98.8214643,22.3189138 96.4159318,22.3189138 L96.4156574,22.3191886 Z M96.8717371,33.1761744 C92.5666956,33.1761744 91.0220067,30.0053386 91.0220067,27.0373703 C91.0220067,24.957291 91.8576041,23.3590908 93.5287988,22.21748 C94.7192164,21.4818791 96.1373993,21.076144 97.4035558,21.076144 C100.695453,21.076144 103,23.4352349 103,26.8345028 C103,29.1427393 102.088389,30.9690968 100.340907,32.0854179 C99.5053095,32.643441 98.0618802,33.1761744 96.8714627,33.1761744 L96.8717371,33.1761744 L96.8717371,33.1761744 Z M51.7450886,22.3189138 C51.2132699,22.3189138 50.7322183,22.4456372 50.3773982,22.6993591 C49.3900486,23.3082365 48.8834763,24.5259914 48.8834763,26.3014945 C48.8834763,29.6248933 50.554671,31.9586944 52.9352317,31.9586944 C53.6443232,31.9586944 54.2013881,31.755552 54.6827141,31.349817 C55.4167775,30.7406647 55.796844,29.5231847 55.796844,27.8235507 C55.796844,24.5259914 54.1761418,22.3189138 51.7450886,22.3189138 Z M52.2008939,33.1761744 C47.8958523,33.1761744 46.3511635,30.0053386 46.3511635,27.0373703 C46.3511635,24.957291 47.1867609,23.3590908 48.8579556,22.21748 C50.0483731,21.4818791 51.4665561,21.076144 52.7327125,21.076144 C56.0248838,21.076144 58.3291568,23.4352349 58.3291568,26.8345028 C58.3291568,29.1427393 57.4175461,30.9690968 55.6700637,32.0854179 C54.8597126,32.643441 53.4162833,33.1761744 52.2008939,33.1761744 Z M23.2560206,32.9224526 C23.2052536,32.8465834 23.1544866,32.6181513 23.1800073,32.3391397 C23.1800073,32.1359973 23.2307743,32.0092739 23.2560206,31.9586944 C23.7878392,31.8822755 24.0663717,31.8061315 24.3701504,31.7302623 C24.8767227,31.6032639 25.0792419,31.3245273 25.1044882,30.6903601 C25.1807759,29.1683039 25.1807759,26.2762048 25.1552552,24.2722696 L25.1552552,24.2214152 C25.1552552,23.993258 25.1552552,23.7139716 24.8767227,23.511104 C24.47141,23.2576571 23.9903584,23.0294998 23.3572802,22.8513723 C23.1295147,22.775778 22.9774881,22.6487796 23.0027344,22.4967664 C23.0027344,22.3444784 23.154761,22.1669006 23.4840605,22.1160462 C24.3196578,22.0399022 26.4971505,21.5074437 27.3582685,21.1267235 C27.4090355,21.1773029 27.4850488,21.3298659 27.4850488,21.5327334 L27.4598025,21.8114701 C27.4342818,22.0907565 27.4090355,22.4206224 27.4090355,22.7502134 C27.4090355,22.8516472 27.5105695,22.9277912 27.6115547,22.9277912 C27.6623217,22.9277912 27.7130887,22.9025015 27.7635813,22.8769369 C29.3842834,21.6086026 30.852959,21.1520132 31.6125431,21.1520132 C32.8537276,21.1520132 33.8161053,21.7356009 34.5504431,22.9530809 C34.6009357,23.0294998 34.6517027,23.0547896 34.7277159,23.0547896 C34.7782085,23.0547896 34.8539474,23.0294998 34.8794681,22.9786455 C36.3736644,21.8370347 37.8678607,21.1520132 38.8552102,21.1520132 C41.2102501,21.1520132 42.6031868,22.9025015 42.6031868,25.8704698 C42.6031868,26.7075044 42.6031868,27.798261 42.5779406,28.7878586 C42.5779406,29.6754727 42.5526943,30.4872177 42.5526943,31.0708054 C42.5526943,31.197254 42.7296927,31.6032639 43.0082252,31.679408 C43.3627709,31.8569858 43.844097,31.9331298 44.4771752,32.0345636 L44.5024215,32.0345636 C44.5531885,32.2121414 44.4519289,32.8715983 44.3506693,32.9985966 C44.1986427,32.9985966 43.9706028,32.9985966 43.7175911,32.9733069 C43.0765484,32.9398022 42.4347504,32.9228452 41.7928358,32.9224526 C40.2229006,32.9224526 39.4125495,32.9477423 38.6271703,32.9985966 C38.5769522,32.7957291 38.5514315,32.1868517 38.6271703,32.0345636 C39.0832501,31.9586944 39.3110155,31.8822755 39.5898224,31.8064063 C40.0963947,31.6541183 40.2229006,31.4256861 40.2484213,30.7662293 C40.2484213,30.2843502 40.3494065,26.174771 40.1973799,25.1854483 C40.0456277,24.1708358 39.2857692,22.9786455 37.6143001,22.9786455 C36.9812219,22.9786455 35.9938724,23.2323674 35.0314947,23.9676934 C34.9810021,24.0185477 34.9299607,24.1452712 34.9299607,24.2214152 L34.9299607,24.2469798 C35.0314947,24.7794384 35.0314947,25.3885907 35.0314947,26.3270591 L35.0314947,27.9758388 C35.0314947,29.1174496 35.005974,30.1829164 35.0314947,30.9943865 C35.0314947,31.5526845 35.3607942,31.679408 35.6393266,31.7811166 C35.7913532,31.8061315 35.8923384,31.8316961 36.0191186,31.8569858 C36.2468841,31.9078401 36.474924,31.9586944 36.8294697,32.0345636 C36.8802367,32.1362722 36.8802367,32.4658632 36.8042234,32.7448748 C36.7787027,32.8971629 36.7279357,32.973032 36.7026894,32.9985966 C35.8418458,32.9733069 34.9554814,32.9477423 33.6640787,32.9477423 C33.2842867,32.9477423 32.6256878,32.9733069 32.0686228,32.9733069 C31.6125431,32.9733069 31.1822585,32.9985966 30.9292467,32.9985966 C30.903726,32.9477423 30.852959,32.7704394 30.852959,32.4911529 C30.852959,32.2629957 30.903726,32.0854179 30.954493,32.0345636 C31.0809989,32.0092739 31.1822585,31.9839841 31.3090388,31.9839841 C31.6125431,31.9331298 31.8661037,31.8822755 32.1191154,31.8316961 C32.5499489,31.7049726 32.701701,31.4765405 32.7269473,30.9185173 C32.8029606,29.650183 32.8789739,26.0227579 32.701701,25.1093042 C32.3979223,23.6381024 31.5623249,22.9025015 30.2198808,22.9025015 C29.4350504,22.9025015 28.4471521,23.2829468 27.6370754,23.8920991 C27.5102951,23.993258 27.4090355,24.246705 27.4090355,24.4751371 L27.4090355,25.9719035 C27.4090355,27.798261 27.4090355,30.0814827 27.4342818,31.0708054 C27.4598025,31.3748318 27.5607877,31.7302623 28.1433733,31.8569858 C28.2701536,31.8822755 28.4726728,31.9331298 28.725959,31.9586944 L29.1814899,32.0345636 C29.2325313,32.1868517 29.2070106,32.7957291 29.105751,32.9985966 C28.8524648,32.9985966 28.5486861,32.9733069 28.1938659,32.9733069 C27.6623217,32.9477423 26.9784765,32.9224526 26.2188924,32.9224526 C25.3325281,32.9224526 24.6994499,32.9477423 24.1928775,32.9733069 C23.8383318,32.9224526 23.5597993,32.9224526 23.2560206,32.9224526 L23.2560206,32.9224526 Z" id="Shape" fill="#442D22" fill-rule="nonzero"></path>
                    <path d="M9.12339323,39 L8.12449026,38.6462472 C8.12449026,38.6462472 8.24648158,33.3697768 6.41872416,32.9911272 C5.20065929,31.5265962 6.61412151,-29.1175207 11,32.7889437 C11,32.7889437 9.48910315,33.5714131 9.22109191,34.9098189 C8.92852398,36.2227807 9.12339323,39 9.12339323,39 L9.12339323,39 Z" id="Path" fill="#FFFFFF"></path>
                    <path d="M9.12339323,39 L8.12449026,38.6462472 C8.12449026,38.6462472 8.24648158,33.3697768 6.41872416,32.9911272 C5.20065929,31.5265962 6.61412151,-29.1175207 11,32.7889437 C11,32.7889437 9.48910315,33.5714131 9.22109191,34.9098189 C8.92852398,36.2227807 9.12339323,39 9.12339323,39 L9.12339323,39 Z" id="Path" fill="#A6A385"></path>
                    <path d="M10.6166628,33.9997238 C10.6166628,33.9997238 19.8289158,27.9845984 17.6730873,15.4701878 C15.5948386,6.37168573 10.6936865,3.38967052 10.1547989,2.24265662 C9.56474753,1.42706979 9,0 9,0 L9.38511833,25.3083247 C9.38511833,25.3340103 8.58957786,33.0565376 10.6169409,34" id="Path" fill="#FFFFFF"></path>
                    <path d="M10.6166628,33.9997238 C10.6166628,33.9997238 19.8289158,27.9845984 17.6730873,15.4701878 C15.5948386,6.37168573 10.6936865,3.38967052 10.1547989,2.24265662 C9.56474753,1.42706979 9,0 9,0 L9.38511833,25.3083247 C9.38511833,25.3340103 8.58957786,33.0565376 10.6169409,34" id="Path" fill="#499D4A"></path>
                    <path d="M7.97468281,34 C7.97468281,34 -0.480376742,28.2116113 0.0214894939,18.0194109 C0.498072111,7.82693789 6.4690841,2.8187885 7.62315895,1.91282726 C8.3759583,1.10749807 8.40097005,0.805329184 8.45126542,0 C8.97814341,1.13258791 8.87782454,16.9372754 8.95285979,18.7993776 C9.17850929,25.971798 8.5515843,32.6413309 7.97468281,34 Z" id="Path" fill="#FFFFFF"></path>
                    <path d="M7.97468281,34 C7.97468281,34 -0.480376742,28.2116113 0.0214894939,18.0194109 C0.498072111,7.82693789 6.4690841,2.8187885 7.62315895,1.91282726 C8.3759583,1.10749807 8.40097005,0.805329184 8.45126542,0 C8.97814341,1.13258791 8.87782454,16.9372754 8.95285979,18.7993776 C9.17850929,25.971798 8.5515843,32.6413309 7.97468281,34 Z" id="Path" fill="#58AA50"></path>
                </g>
            </g>
        </g>
    </g>
</svg>