<?xml version="1.0" encoding="UTF-8"?>
<svg width="87px" height="45px" viewBox="0 0 87 45" version="1.1" xmlns="http://www.w3.org/2000/svg" xmlns:xlink="http://www.w3.org/1999/xlink">
    <!-- Generator: Sketch 53.2 (72643) - https://sketchapp.com -->
    <title>mysql-5</title>
    <desc>Created with Sketch.</desc>
    <g id="web" stroke="none" stroke-width="1" fill="none" fill-rule="evenodd">
        <g id="Technologies---Technologies-tab" transform="translate(-273.000000, -2787.000000)">
            <g id="Data-storage" transform="translate(136.000000, 2220.000000)">
                <g id="mysql-5" transform="translate(137.000000, 567.000000)">
                    <path d="M5.23971041e-15,40.9957504 L2.85137157,40.9957504 L2.85137157,29.6650061 L7.30442739,39.5439633 C7.80882519,40.7314305 8.53297524,41.1717993 9.93653832,41.1717993 C11.340593,41.1717993 12.0204976,40.7314305 12.5470182,39.5439633 L16.9779513,29.6650061 L16.9779513,40.9957504 L19.8514455,40.9957504 L19.8514455,29.6650061 C19.8514455,28.5653169 19.4124326,28.0361839 18.4911447,27.7501661 C16.3196777,27.0903525 14.8718692,27.6623882 14.2140873,29.1363663 L9.84952232,38.9058477 L5.63784986,29.1363663 C5.00169903,27.6628813 3.53176783,27.0908457 1.33866979,27.7501661 C0.439504515,28.0361839 0.000491615789,28.5648237 0.000491615789,29.6650061 L0.000491615789,40.9957504 L0,40.9957504 L5.23971041e-15,40.9957504 Z M22.2200504,31.7770999 L25.0935447,31.7770999 L25.0935447,38.0039053 C25.0719136,38.3555099 25.203175,39.1479766 26.7606138,39.1691813 C27.5722715,39.1913724 32.9461237,39.1691813 32.9898775,39.1691813 L32.9898775,31.7327178 L35.8633718,31.7327178 L35.8633718,41.9198839 C35.8633718,44.4279643 32.7706169,44.977809 31.3228084,45 L22.2854353,45 L22.2854353,43.0861462 L31.3444394,43.0861462 C33.1870154,42.8879063 32.9677548,41.9642659 32.9677548,41.6560571 L32.9677548,40.9074794 L26.8918753,40.9074794 C24.0621348,40.8852883 22.2416815,39.6312481 22.2200504,38.2011589 C22.2200504,38.0694921 22.2854353,31.8204957 22.2200504,31.7770999 Z M83.8558883,24.560081 C82.1018032,24.5161921 80.7410107,24.692241 79.600462,25.1764987 C79.2720627,25.3091518 78.7450506,25.3091518 78.7017884,25.7268365 C78.8772952,25.9018991 78.8984347,26.1884101 79.0523104,26.4310321 C79.3153249,26.8714009 79.7764605,27.4646414 80.1928591,27.7728502 C80.6539947,28.1254412 81.1146387,28.4770459 81.5964221,28.7852547 C82.4518336,29.3129083 83.4168754,29.6211172 84.2501642,30.1492639 C84.7329309,30.4574728 85.2152059,30.8534595 85.6979727,31.1838594 C85.9388644,31.3599083 86.0927401,31.6464193 86.4,31.7558951 L86.4,31.689322 C86.2466159,31.4920683 86.2023705,31.2060505 86.0494779,30.9851263 C85.8297257,30.7656816 85.610465,30.5669486 85.3907128,30.3475038 C84.7550536,29.4894504 83.965027,28.7408727 83.1091239,28.1254412 C82.4070966,27.6411834 80.8717805,26.9813699 80.5866433,26.1672053 L80.5433811,26.1228232 C81.0251646,26.0784412 81.5959305,25.9023923 82.0565745,25.7702323 C82.8028473,25.5729786 83.4822603,25.6163744 84.2496725,25.4186276 C84.6011778,25.3303566 84.9516999,25.2203877 85.3032052,25.1104188 L85.3032052,24.9126719 C84.9084377,24.5166852 84.6233005,23.9885385 84.206902,23.6147428 C83.088476,22.6467203 81.8594366,21.7003958 80.5871349,20.9084223 C79.9072303,20.4685466 79.0296961,20.1820357 78.3065293,19.8087331 C78.0425316,19.6765731 77.6045019,19.6104931 77.4511178,19.3905553 C77.0553671,18.9067907 76.8365981,18.268675 76.5514609,17.6961462 C75.9158017,16.4859949 75.301282,15.1441768 74.7531304,13.8679455 C74.3583629,13.009892 74.1164879,12.1518385 73.6347044,11.359865 C71.3752383,7.6194422 68.9181426,5.35299747 65.145483,3.13093481 C64.3343169,2.66886808 63.3692752,2.47062813 62.3378652,2.22899238 C61.7897136,2.20680134 61.241562,2.1629124 60.6929188,2.14072136 C60.3414135,1.98686349 59.9908915,1.5686857 59.6836316,1.37044576 C58.4334526,0.578472249 55.2089447,-1.13763473 54.2871651,1.12831687 C53.694768,2.55840602 55.1646993,3.96630413 55.6690971,4.69269079 C56.0427251,5.19864647 56.5245085,5.77068213 56.7885062,6.34271778 C56.9413987,6.7165135 56.9851525,7.11299339 57.1390283,7.50898014 C57.4895503,8.47700256 57.8189329,9.55499389 58.2795769,10.4574295 C58.5204686,10.9194962 58.7834831,11.403754 59.0907429,11.8219318 C59.2662498,12.0640606 59.5735096,12.1740296 59.6388945,12.5700163 C59.3316347,13.0103852 59.3104952,13.6701987 59.1349884,14.2205365 C58.3449618,16.706919 58.6522217,19.7870352 59.7706476,21.6131111 C60.1221529,22.1629557 60.9554416,23.373107 62.0743592,22.9110403 C63.0615237,22.5150535 62.8417714,21.2610133 63.1269086,20.1608309 C63.1932767,19.8970041 63.1490313,19.7209552 63.2802927,19.5449063 L63.2802927,19.5887952 C63.5875526,20.2047198 63.8948124,20.7989465 64.1799496,21.4148711 C64.8598542,22.4928625 66.0446483,23.6152359 67.0318128,24.3633205 C67.5578417,24.7593072 67.9747319,25.4418049 68.6325138,25.6834407 L68.6325138,25.6168676 L68.5892516,25.6168676 C68.4574986,25.4196139 68.259869,25.3313429 68.0843622,25.1769919 C67.6895947,24.7810051 67.2510734,24.2967473 66.9438136,23.8568716 C66.0230172,22.6250224 65.2118511,21.2605201 64.4877011,19.852622 C64.1361958,19.1706174 63.8289359,18.4225329 63.544782,17.7405283 C63.4120457,17.4762084 63.4120457,17.0802216 63.1932767,16.9485548 C62.8638941,17.4323194 62.3821106,17.8509904 62.1397441,18.4447239 C61.7228539,19.3905553 61.6795917,20.5568177 61.5262076,21.766969 C61.4377167,21.78916 61.4819621,21.766969 61.4377167,21.8108579 C60.7366726,21.6353021 60.4947976,20.9089155 60.2317832,20.2929909 C59.5740013,18.7307417 59.4638793,16.2226613 60.0341536,14.4182833 C60.1875378,13.9562165 60.8463029,12.5039363 60.5832885,12.0640606 C60.4505522,11.6458829 60.0130142,11.4042471 59.7711392,11.0738472 C59.486002,10.6556694 59.1797254,10.1280158 58.9820959,9.66594909 C58.456067,8.43360675 58.1930525,7.06959758 57.6222866,5.83725524 C57.3582889,5.26521958 56.8981365,4.67099288 56.5250001,4.1433393 C56.10811,3.5491126 55.6484492,3.13093481 55.3190666,2.42723232 C55.2094363,2.18510344 55.0560522,1.78911668 55.231559,1.52528989 C55.2748212,1.34924099 55.363312,1.28316101 55.5378356,1.23927206 C55.8229728,0.997143175 56.6351221,1.30535204 56.9202592,1.43701887 C57.7314253,1.76692564 58.4113299,2.07513451 59.0912346,2.53670811 C59.3984944,2.75664596 59.727877,3.17482375 60.1226445,3.28528581 L60.5837801,3.28528581 C61.2858074,3.43914368 62.0748508,3.32917476 62.7326327,3.52692157 C63.895304,3.90121041 64.9478534,4.45105504 65.8917558,5.04528173 C68.7647584,6.87135764 71.1343465,9.46770914 72.7350475,12.5700163 C72.998062,13.075972 73.1076923,13.5380387 73.3495673,14.0661855 C73.8107029,15.1446699 74.3809772,16.2443592 74.840638,17.3006526 C75.3017736,18.334755 75.7402949,19.3910484 76.3980768,20.2491019 C76.7274594,20.7111687 78.0430232,20.9528044 78.6354202,21.1949333 C79.0744331,21.3926801 79.7538462,21.5692221 80.1495969,21.8108579 C80.8948864,22.2729246 81.6406676,22.8010713 82.3426949,23.307027 C82.693217,23.5703607 83.7905034,24.1202053 83.8558883,24.560081 L83.8558883,24.560081 Z" id="Shape" fill="#00678C" fill-rule="nonzero"></path>
                    <path d="M61.2219389,4.5 C60.839647,4.5 60.5698235,4.55610553 60.3,4.64057903 L60.3,4.69668457 L60.3443822,4.69668457 C60.5244326,5.14678963 60.839647,5.45631567 61.0645839,5.8496848 C61.2446344,6.29978987 61.4024937,6.74989493 61.5825441,7.2 L61.6269263,7.14389447 C61.9421407,6.8627364 62.1,6.41263133 62.1,5.73747373 C61.9648361,5.54078917 61.942645,5.3434742 61.8301765,5.14678963 C61.6950126,4.86563157 61.4024937,4.72505253 61.2219389,4.5 L61.2219389,4.5 Z" id="Path" fill="#00678C"></path>
                    <path d="M38.7,40.3103161 L46.8672113,40.3103161 C47.8228763,40.3103161 48.7356995,40.1120911 49.4737474,39.7577638 C50.7117791,39.1829112 51.2984201,38.409338 51.2984201,37.3924435 L51.2984201,35.2699488 C51.2984201,34.4522705 50.6251217,33.6777062 49.2790118,33.1474542 C48.5838057,32.8823282 47.7147981,32.7272171 46.8676982,32.7272171 L43.43597,32.7272171 C42.2845957,32.7272171 41.7417702,32.3728898 41.5893896,31.5998121 C41.5679686,31.511602 41.5679686,31.4228963 41.5679686,31.3346861 L41.5679686,30.0298698 C41.5679686,29.9629688 41.5679686,29.8752543 41.5893896,29.7870441 C41.7412833,29.1898912 42.0455577,29.0347801 43.0450382,28.9247652 L51.407472,28.9247652 L51.407472,27.0004956 L43.456904,27.0004956 C42.3055298,27.0004956 41.6974678,27.0673965 41.1546423,27.2443124 C39.4818635,27.7745644 38.7433287,28.6150385 38.7433287,30.0957796 L38.7433287,31.7772236 C38.7433287,33.0810488 40.1770696,34.1871445 42.6098041,34.4522705 C42.870263,34.4745708 43.1526296,34.4745708 43.4349963,34.4745708 L46.3677145,34.4745708 C46.4762796,34.4745708 46.5843579,34.4745708 46.6710152,34.4968712 C47.5619306,34.5850813 47.9528623,34.7396968 48.2133212,35.0707327 C48.3871228,35.2476485 48.4309383,35.4027596 48.4309383,35.6019758 L48.4309383,37.2824286 C48.4309383,37.4806536 48.3004654,37.7472663 48.0400065,37.9677917 C47.778574,38.188317 47.3657345,38.3434281 46.822909,38.3657284 C46.7143439,38.3657284 46.6500811,38.3880288 46.5405424,38.3880288 L38.7,38.3880288 L38.7,40.3103161 L38.7,40.3103161 Z M68.9789526,36.9722064 C68.9789526,38.9400855 70.4346013,40.0451901 73.3454118,40.2667066 C73.6277784,40.2890069 73.8882373,40.3103161 74.1706039,40.3103161 L81.5559518,40.3103161 L81.5559518,38.3870376 L74.1058543,38.3870376 C72.4540095,38.3870376 71.8245267,37.9668005 71.8245267,36.9499061 L71.8245267,27 L68.9784658,27 L68.9784658,36.9722064 L68.9789526,36.9722064 L68.9789526,36.9722064 Z M53.1006981,37.059921 L53.1006981,30.2062901 C53.1006981,28.4594319 54.316822,27.3974412 56.6852938,27.0664054 C56.9457527,27.0441051 57.2062115,27.0218048 57.4452495,27.0218048 L62.8316364,27.0218048 C63.114003,27.0218048 63.3535278,27.0441051 63.6358944,27.0664054 C66.0033926,27.3974412 67.1976087,28.4594319 67.1976087,30.2062901 L67.1976087,37.059921 C67.1976087,38.4747522 66.6985987,39.2270163 65.5248298,39.7359591 L68.3051674,42.3 L65.0258198,42.3 L62.7663999,40.222106 L60.4850723,40.3549168 L57.4442758,40.3549168 C56.9452658,40.3549168 56.3800457,40.2890069 55.7934047,40.1343914 C53.9916135,39.624953 53.1006981,38.6521636 53.1006981,37.059921 L53.1006981,37.059921 Z M56.1634024,36.9062966 C56.1634024,36.9945067 56.2072179,37.0822213 56.2291256,37.1937229 C56.3810194,37.9891009 57.1190674,38.4316383 58.2485339,38.4316383 L60.8122281,38.4316383 L58.4666377,36.264543 L61.7459854,36.264543 L63.8092091,38.1665123 C64.2011145,37.9449958 64.4396656,37.6352692 64.526323,37.2373324 C64.5482307,37.1491222 64.5482307,37.0391073 64.5482307,36.9499061 L64.5482307,30.3827104 C64.5482307,30.2945002 64.5482307,30.2067856 64.526323,30.1175844 C64.3744292,29.3663115 63.6363813,28.9465699 62.5283357,28.9465699 L58.2485339,28.9465699 C56.9885945,28.9465699 56.1634024,29.4991222 56.1634024,30.3827104 L56.1634024,36.9062966 Z M82.8597067,40.3326164 L83.2725462,40.3326164 L83.2725462,38.7190646 L83.8153717,38.7190646 L83.8153717,38.3870376 L82.2949734,38.3870376 L82.2949734,38.7190646 L82.8597067,38.7190646 L82.8597067,40.3326164 L82.8597067,40.3326164 Z M86.0090683,40.3326164 L86.4,40.3326164 L86.4,38.3870376 L85.8143327,38.3870376 L85.3362567,39.7141543 L84.815339,38.3870376 L84.2506057,38.3870376 L84.2506057,40.3326164 L84.6196297,40.3326164 L84.6196297,38.8518754 L84.6415375,38.8518754 L85.184363,40.3326164 L85.4667296,40.3326164 L86.0095551,38.8518754 L86.0095551,40.3326164 L86.0090683,40.3326164 L86.0090683,40.3326164 Z" id="Shape" fill="#CE8B2C" fill-rule="nonzero"></path>
                </g>
            </g>
        </g>
    </g>
</svg>