<?xml version="1.0" encoding="UTF-8"?>
<svg width="115px" height="15px" viewBox="0 0 115 15" version="1.1" xmlns="http://www.w3.org/2000/svg" xmlns:xlink="http://www.w3.org/1999/xlink">
    <!-- Generator: Sketch 53.2 (72643) - https://sketchapp.com -->
    <title>oracle-1</title>
    <desc>Created with Sketch.</desc>
    <g id="web" stroke="none" stroke-width="1" fill="none" fill-rule="evenodd">
        <g id="Technologies---Technologies-tab" transform="translate(-560.000000, -2814.000000)" fill="#CF402D" fill-rule="nonzero">
            <g id="Data-storage" transform="translate(136.000000, 2220.000000)">
                <g id="oracle-1" transform="translate(424.000000, 594.000000)">
                    <path d="M82.8778436,0.180106168 L80.5236039,0.180106168 L80.5236039,14.9987361 L91.5842277,14.9987361 L93.0828273,12.57773 L82.8778436,12.57773 L82.8778436,0.180106168 L82.8778436,0.180106168 Z M50.5927959,0.91380182 L41.9589445,14.999368 L44.8135369,14.999368 L47.417953,10.7444388 L52.9839167,10.7444388 L54.4468646,8.32406471 L48.880901,8.32406471 L51.9137518,3.44539939 L59.0139667,15 L61.8679445,15 L53.162175,0.876516684 C52.6267853,-0.0404448938 51.199489,-0.0404448938 50.5927959,0.91380182 L50.5927959,0.91380182 Z M67.3257237,2.59668857 L77.2264389,2.59668857 L78.6863134,0.177578362 L67.253191,0.184529828 C63.2755709,0.184529828 60.6576317,3.49974722 60.6576317,7.58910516 C60.6576317,11.679727 63.2761855,14.9949444 67.253191,14.9949444 L76.9246291,14.9829373 L78.4385957,12.5821537 L67.325109,12.5821537 C64.6432428,12.5821537 63.0751839,10.3469414 63.0751839,7.58910516 C63.0757986,4.83190091 64.6438574,2.59668857 67.3257237,2.59668857 L67.3257237,2.59668857 Z M16.8005431,0.184529828 L6.59617399,0.184529828 C2.61855384,0.184529828 0,3.49974722 0,7.58973711 C0,11.679727 2.61855384,14.9949444 6.59617399,14.9949444 L16.8005431,14.9949444 C20.7781632,14.9949444 23.3967171,11.679727 23.3967171,7.58973711 C23.3967171,3.49974722 20.7781632,0.184529828 16.8005431,0.184529828 Z M16.8005431,12.5821537 L6.59617399,12.5821537 C3.91430771,12.5821537 2.34624882,10.3469414 2.34624882,7.58973711 C2.34624882,4.83253286 3.91430771,2.59668857 6.59617399,2.59668857 L16.8005431,2.59668857 C19.4824093,2.59668857 21.0504682,4.83253286 21.0504682,7.58973711 C21.0504682,10.3469414 19.4824093,12.5821537 16.8005431,12.5821537 Z M99.8130024,2.59668857 L109.713718,2.59668857 L111.174821,0.177578362 L99.7416991,0.184529828 C95.7628496,0.184529828 93.1449104,3.49974722 93.1449104,7.58910516 C93.1449104,11.679727 95.7634643,14.9949444 99.7416991,14.9949444 L109.411908,14.9829373 L110.925874,12.5821537 L99.8123878,12.5821537 C97.5226899,12.5821537 96.0572832,10.9548787 95.6743351,8.76327098 L108.1432,8.76327098 L109.6418,6.34226491 L95.6743351,6.34226491 C96.0824852,4.19678969 97.5558828,2.59668857 99.8130024,2.59668857 L99.8130024,2.59668857 Z M36.8158834,8.97813448 C39.17765,8.97813448 41.09224,7.00976049 41.09224,4.58164813 C41.09224,2.15353577 39.17765,0.18516178 36.8158834,0.18516178 L24.8098756,0.180106168 L24.8098756,14.9987361 L27.4499433,14.9987361 L27.4499433,2.59732053 L36.8158834,2.59732053 C37.8818525,2.59732053 38.7459912,3.48573426 38.7459912,4.58164813 C38.7459912,5.677562 37.8818525,6.56597573 36.8158834,6.56597573 L29.3056743,6.56597573 L37.7778639,14.9823054 L41.1862867,14.9823054 L35.1211996,8.98382204 L36.8158834,8.97813448 L36.8158834,8.97813448 Z M113.699943,0 C112.991827,0 112.39374,0.559908999 112.39374,1.31888271 C112.39374,2.08480789 112.991827,2.64534884 113.699943,2.64534884 C114.401298,2.64534884 115,2.08543984 115,1.31888271 C115,0.559277048 114.400683,0 113.699943,0 Z M113.699943,2.42416582 C113.111691,2.42416582 112.651907,1.95525784 112.651907,1.31825076 C112.651907,0.691986855 113.111691,0.21991911 113.699943,0.21991911 C114.282049,0.21991911 114.740603,0.692618807 114.740603,1.31825076 C114.740603,1.95525784 114.282049,2.42416582 113.699943,2.42416582 Z" id="Shape"></path>
                    <path d="M113.252183,2.12013256 C113.638646,2.08367854 113.934498,1.92709196 113.934498,1.56917978 C113.934498,1.17481359 113.627729,1 113.004367,1 L112,1 L112,3 L112.398472,3 L112.398472,2.13338857 L112.85917,2.13338857 L113.554585,3 L114,3 L113.252183,2.12013256 Z M112.398472,1.87655344 L112.398472,1.25683513 L112.944323,1.25683513 C113.221616,1.25683513 113.517467,1.30240265 113.517467,1.55012428 C113.517467,1.85749793 113.215066,1.87572494 112.875546,1.87572494 L112.398472,1.87572494 L112.398472,1.87655344 Z" id="Shape"></path>
                </g>
            </g>
        </g>
    </g>
</svg>