<?xml version="1.0" encoding="UTF-8"?>
<svg width="66px" height="66px" viewBox="0 0 66 66" version="1.1" xmlns="http://www.w3.org/2000/svg" xmlns:xlink="http://www.w3.org/1999/xlink">
    <!-- Generator: Sketch 52.3 (67297) - http://www.bohemiancoding.com/sketch -->
    <title>Group</title>
    <desc>Created with Sketch.</desc>
    <g id="Symbols" stroke="none" stroke-width="1" fill="none" fill-rule="evenodd">
        <g id="About/misson" transform="translate(0.000000, -2.000000)">
            <g id="achievement" transform="translate(0.000000, 2.000000)">
                <g id="Group">
                    <path d="M65.6974035,63.9388187 L42.7134503,24.3552865 L42.7134503,12.8654971 L58.1520468,12.8654971 C58.8626082,12.8654971 59.4385965,12.2895088 59.4385965,11.5789474 L59.4385965,1.28654971 C59.4385965,0.575988304 58.8626082,0 58.1520468,0 L41.4269006,0 C40.7163392,0 40.1403509,0.575988304 40.1403509,1.28654971 L40.1403509,12.7093099 L37.3825029,16.555193 C36.9683626,17.1325965 37.1008772,17.9364327 37.6782807,18.3504444 C37.9053567,18.5133216 38.1672982,18.5916725 38.426924,18.5916725 C38.8274269,18.5916725 39.222269,18.4051228 39.4735322,18.0547953 L40.1403509,17.1248772 L40.1403509,24.3332865 L29.9775088,40.611614 L21.3704912,33.975462 C21.0864211,33.7563626 20.7234854,33.6660468 20.3698129,33.7258713 C20.0160117,33.7859532 19.7033801,33.9910292 19.5073099,34.2915673 L0.209064327,63.8822105 C-0.0488888889,64.2776959 -0.0694736842,64.7826667 0.155415205,65.1978363 C0.380304094,65.6127485 0.81451462,65.871345 1.28667836,65.871345 L64.5847953,65.871345 C65.0449942,65.871345 65.4701988,65.6254854 65.699848,65.226655 C65.9294971,64.8278246 65.9284678,64.3367485 65.6974035,63.9388187 Z M42.7134503,2.57309942 L56.8654971,2.57309942 L56.8654971,10.2923977 L42.7134503,10.2923977 L42.7134503,2.57309942 Z M3.66177778,63.2982456 L20.9020585,36.8631228 L28.639883,42.8292398 L24.5911111,49.9232749 C24.42,50.2217544 24.3762573,50.5678363 24.4663158,50.8997661 C24.5576608,51.2316959 24.7712281,51.5083041 25.0697076,51.6781287 C25.2639766,51.7887719 25.4839766,51.8479532 25.7065497,51.8479532 C26.1684211,51.8479532 26.5968421,51.5996491 26.8245614,51.1982456 L31.383193,43.2141754 C31.3912982,43.2022105 41.3399298,27.2704795 41.3399298,27.2704795 C41.3687485,27.2724094 41.3975673,27.2748538 41.4269006,27.2748538 C41.4289591,27.2748538 41.4310175,27.2745965 41.433076,27.2745965 L62.3500585,63.2982456 L3.66177778,63.2982456 Z" id="Shape" fill="#3A3A3C" fill-rule="nonzero"></path>
                    <path d="M23.7935789,53.9128655 C23.5993099,53.8022222 23.3793099,53.7430409 23.1567368,53.7430409 C22.696152,53.7430409 22.267731,53.991345 22.0387251,54.391462 C21.6874971,55.0077193 21.9023509,55.7950877 22.5186082,56.1476023 C22.7128772,56.2582456 22.9328772,56.3161404 23.1554503,56.3161404 C23.6160351,56.3161404 24.0444561,56.0678363 24.273462,55.6677193 C24.4432865,55.3692398 24.4883158,55.0218713 24.3969708,54.6912281 C24.3067836,54.3592982 24.0920585,54.0826901 23.7935789,53.9128655 Z" id="Path" fill="#07519D"></path>
                    <path d="M26.7459532,33.0174971 C26.990655,33.3179064 27.3573216,33.4915906 27.7434152,33.4915906 C27.756538,33.4915906 27.7697895,33.491462 27.7830409,33.4909474 C28.1835439,33.4787251 28.5554854,33.2804678 28.7889942,32.9547135 L30.4768187,30.6008421 C30.8908304,30.0234386 30.7584444,29.219731 30.1810409,28.8055906 C29.6036374,28.3914503 28.7999298,28.5239649 28.3857895,29.1013684 L27.6784444,30.0877661 L25.6954854,27.6529708 C25.2467368,27.1019415 24.4364678,27.0190877 23.8854386,27.4678363 C23.334538,27.9165848 23.2515556,28.7269825 23.7003041,29.277883 L26.7459532,33.0174971 Z" id="Path" fill="#07519D"></path>
                    <path d="M31.6805146,26.7146901 C31.9075906,26.8775673 32.1695322,26.9559181 32.4291579,26.9559181 C32.8296608,26.9559181 33.2245029,26.7693684 33.4757661,26.4190409 L36.4747135,22.2368538 C36.8887251,21.6594503 36.7563392,20.8557427 36.1789357,20.4416023 C35.6015322,20.0275906 34.7976959,20.1597193 34.3836842,20.7373801 L31.3847368,24.9194386 C30.9707251,25.4968421 31.1032398,26.3005497 31.6805146,26.7146901 Z" id="Path" fill="#07519D"></path>
                    <path d="M17.8176842,27.658117 C18.0345965,27.7996374 18.2783977,27.8671813 18.5193684,27.8671813 C18.9395556,27.8671813 19.3515088,27.6615906 19.5981404,27.283345 L20.7322339,25.5444444 C21.189731,25.8510292 21.8116491,25.8385497 22.260655,25.472655 C22.8115556,25.0239064 22.8944094,24.2135088 22.4457895,23.6626082 L21.5825146,22.6026199 C21.3231462,22.2840702 20.9277895,22.1085848 20.5169942,22.1303275 C20.1068421,22.1519415 19.7316842,22.3682105 19.5073099,22.7122339 L17.4429123,25.8776608 C17.0547602,26.4729474 17.2225263,27.2699649 17.8176842,27.658117 Z" id="Path" fill="#07519D"></path>
                    <path d="M12.1953333,36.2792865 C12.4123743,36.420807 12.6559181,36.4883509 12.8970175,36.4883509 C13.3172047,36.4883509 13.7291579,36.2826316 13.9757895,35.9045146 L16.7870292,31.5940585 C17.1751813,30.9989006 17.0074152,30.2017544 16.4122573,29.8136023 C15.8168421,29.4253216 15.0199532,29.5932164 14.6318012,30.1883743 L11.8204327,34.4988304 C11.4322807,35.0939883 11.6001754,35.8911345 12.1953333,36.2792865 Z" id="Path" fill="#07519D"></path>
                    <path d="M0.583836257,54.083462 C0.800877193,54.2249825 1.04442105,54.2925263 1.28552047,54.2925263 C1.7057076,54.2925263 2.11766082,54.086807 2.3642924,53.7086901 L4.13651462,50.9912398 C4.52466667,50.3960819 4.35690058,49.5989357 3.76174269,49.2107836 C3.1665848,48.8225029 2.36930994,48.9905263 1.98128655,49.5855556 L0.209064327,52.3030058 C-0.179087719,52.8981637 -0.0113216374,53.6953099 0.583836257,54.083462 Z" id="Path" fill="#07519D"></path>
                    <path d="M5.16729825,47.0555556 C5.38421053,47.197076 5.6280117,47.2646199 5.86898246,47.2646199 C6.28929825,47.2646199 6.70112281,47.0590292 6.94775439,46.6807836 L9.75899415,42.3703275 C10.1471462,41.7751696 9.97938012,40.9780234 9.38422222,40.5898713 C8.78893567,40.2015906 7.99191813,40.3694854 7.60376608,40.9647719 L4.79252632,45.2752281 C4.40437427,45.8702573 4.57214035,46.6674035 5.16729825,47.0555556 Z" id="Path" fill="#07519D"></path>
                </g>
            </g>
        </g>
    </g>
</svg>