<?xml version="1.0" encoding="UTF-8"?>
<svg width="76px" height="80px" viewBox="0 0 76 80" version="1.1" xmlns="http://www.w3.org/2000/svg" xmlns:xlink="http://www.w3.org/1999/xlink">
    <!-- Generator: Sketch 53.1 (72631) - https://sketchapp.com -->
    <title>Group 2</title>
    <desc>Created with Sketch.</desc>
    <g id="Symbols" stroke="none" stroke-width="1" fill="none" fill-rule="evenodd">
        <g id="Services/Service/Icon/Block-chain-technology" transform="translate(-12.000000, -6.000000)">
            <g id="Group-2" transform="translate(12.000000, 6.000000)">
                <path d="M74.390625,40 C74.390625,60.5426331 57.7379456,77.1953125 37.1953125,77.1953125 C16.6526794,77.1953125 0,60.5426331 0,40 C0,19.4573669 16.6526794,2.8046875 37.1953125,2.8046875 C57.7379456,2.8046875 74.390625,19.4573669 74.390625,40 Z" id="Path" fill="#FCBF29"></path>
                <g id="Group">
                    <path d="M72.5510299,1.08269864 L46.0710171,1.08269864 C45.3397625,1.08269864 44.747063,1.67555328 44.747063,2.40665274 L44.747063,28.8868207 C44.747063,29.6180753 45.3399176,30.2107748 46.0710171,30.2107748 L72.5511851,30.2107748 C73.2824397,30.2107748 73.8751391,29.6179201 73.8751391,28.8868207 L73.8751391,2.40680789 C73.8751391,1.67555328 73.2822845,1.08269864 72.5510299,1.08269864 Z" id="Path" fill="#D3E6F8"></path>
                    <path d="M72.5510299,48.7469079 L46.0710171,48.7469079 C45.3397625,48.7469079 44.747063,49.3397625 44.747063,50.0708619 L44.747063,76.5510299 C44.747063,77.2822845 45.3399176,77.874984 46.0710171,77.874984 L72.5511851,77.874984 C73.2824397,77.874984 73.8751391,77.2821294 73.8751391,76.5510299 L73.8751391,50.0710171 C73.8751391,49.3397625 73.2822845,48.7469079 72.5510299,48.7469079 Z" id="Path" fill="#D3E6F8"></path>
                    <path d="M2.40680789,30.2109299 L28.8869758,30.2109299 C29.6182305,30.2109299 30.2109299,29.6180753 30.2109299,28.8869758 L30.2109299,2.40680789 C30.2109299,1.67555328 29.6180753,1.0828538 28.8869758,1.0828538 L2.40680789,1.0828538 C1.67555328,1.0828538 1.0828538,1.67570843 1.0828538,2.40680789 L1.0828538,28.8869758 C1.08269864,29.6180753 1.67555328,30.2109299 2.40680789,30.2109299 Z" id="Path" fill="#D3E6F8"></path>
                    <path d="M2.40680789,77.8751391 L28.8869758,77.8751391 C29.6182305,77.8751391 30.2109299,77.2822845 30.2109299,76.5511851 L30.2109299,50.0710171 C30.2109299,49.3397625 29.6180753,48.747063 28.8869758,48.747063 L2.40680789,48.747063 C1.67555328,48.747063 1.0828538,49.3399176 1.0828538,50.0710171 L1.0828538,76.5511851 C1.08269864,77.2822845 1.67555328,77.8751391 2.40680789,77.8751391 Z" id="Path" fill="#D3E6F8"></path>
                    <path d="M50.0430345,30.2109299 L46.0710171,30.2109299 C45.3406934,30.2087577 44.7492352,29.6172995 44.747063,28.8869758 L44.747063,2.40680789 C44.7492352,1.67648422 45.3406934,1.085026 46.0710171,1.0828538 L50.0430345,1.0828538 C49.3127109,1.085026 48.7212526,1.67648422 48.7190804,2.40680789 L48.7190804,28.8869758 C48.7210975,29.6171444 49.3127109,30.2087577 50.0430345,30.2109299 Z" id="Path" fill="#A4CFF2"></path>
                    <path d="M50.0430345,77.8751391 L46.0710171,77.8751391 C45.3406934,77.8729669 44.7492352,77.2815087 44.747063,76.5511851 L44.747063,50.0710171 C44.7492352,49.3406934 45.3406934,48.7492352 46.0710171,48.747063 L50.0430345,48.747063 C49.3127109,48.7492352 48.7212526,49.3406934 48.7190804,50.0710171 L48.7190804,76.5511851 C48.7210975,77.2813536 49.3127109,77.8729669 50.0430345,77.8751391 Z" id="Path" fill="#A4CFF2"></path>
                    <path d="M6.37882533,30.2109299 L2.40680789,30.2109299 C1.67648422,30.2087577 1.085026,29.6172995 1.0828538,28.8869758 L1.0828538,2.40680789 C1.085026,1.67648422 1.67648422,1.085026 2.40680789,1.0828538 L6.37882533,1.0828538 C5.64850165,1.085026 5.05704343,1.67648422 5.05487124,2.40680789 L5.05487124,28.8869758 C5.05688828,29.6171444 5.64850165,30.2087577 6.37882533,30.2109299 Z" id="Path" fill="#A4CFF2"></path>
                    <path d="M6.37882533,77.8751391 L2.40680789,77.8751391 C1.67648422,77.8729669 1.085026,77.2815087 1.0828538,76.5511851 L1.0828538,50.0710171 C1.085026,49.3406934 1.67648422,48.7492352 2.40680789,48.747063 L6.37882533,48.747063 C5.64850165,48.7492352 5.05704343,49.3406934 5.05487124,50.0710171 L5.05487124,76.5511851 C5.05688828,77.2813536 5.64850165,77.8729669 6.37882533,77.8751391 Z" id="Path" fill="#A4CFF2"></path>
                    <polygon id="Path" fill="#FFFFFF" points="2.66152047 2.66152047 2.66152047 19.9610136 2.66152047 29.2761014 9.88098492e-14 29.2761014 9.88098492e-14 19.9610136 9.88098492e-14 2.66152047"></polygon>
                    <path d="M1.33068226,14.6381287 C1.68296296,14.6328265 2.0202729,14.4949708 2.27555556,14.2521637 C2.79017544,13.7274074 2.79017544,12.8873294 2.27555556,12.3625731 L2.07610136,12.202729 C2.00187135,12.1522027 1.92124756,12.1118129 1.83625731,12.0824951 C1.76077973,12.0442885 1.67984405,12.0174659 1.59641326,12.0032749 C1.50861598,11.9883041 1.4197271,11.9794152 1.33068226,11.9766082 C0.978401559,11.9814425 0.640935673,12.1192982 0.385808967,12.3625731 C-0.116647173,12.8923197 -0.116647173,13.7225731 0.385808967,14.2521637 C0.512904483,14.3723977 0.661832359,14.4672125 0.824483431,14.5316179 C0.984639376,14.599922 1.15664717,14.6361014 1.33068226,14.6381287 Z" id="Path" fill="#428DFF"></path>
                    <path d="M2.66152047,31.9376218 L9.31524366,31.9376218 L9.31524366,35.9298246 C9.31524366,36.6647953 9.91111111,37.2605068 10.6459259,37.2605068 L11.9766082,37.2605068 C12.7115789,37.2605068 13.3072904,36.6646394 13.3072904,35.9298246 C13.3072904,35.1950097 12.7115789,34.5991423 11.9766082,34.5991423 L11.9766082,31.9376218 L19.9610136,31.9376218 L19.9610136,34.5991423 C19.2260429,34.5991423 18.6303314,35.1948538 18.6303314,35.9298246 C18.6303314,36.6647953 19.2261988,37.2605068 19.9610136,37.2605068 L21.2916959,37.2605068 C22.0266667,37.2605068 22.6223782,36.6646394 22.6223782,35.9298246 L22.6223782,31.9376218 L29.2761014,31.9376218 C30.7454191,31.9362183 31.9360624,30.7454191 31.9376218,29.2761014 L31.9376218,2.66152047 C31.9362183,1.19220273 30.7454191,0.00140350877 29.2761014,1.77635684e-14 L2.66152047,1.77635684e-14 C1.19220273,0.00140350877 0.00140350877,1.19220273 4.56523708e-13,2.66152047 L4.56523708e-13,7.98440546 C4.56523708e-13,8.71937622 0.595867446,9.31508772 1.33068226,9.31508772 C2.06549708,9.31508772 2.66136452,8.71922027 2.66136452,7.98440546 L2.66136452,2.66152047 L29.2761014,2.66152047 L29.2761014,29.2762573 L22.6223782,29.2762573 L22.6223782,25.2840546 C22.6223782,24.5490838 22.0265107,23.9533723 21.2916959,23.9533723 L19.9610136,23.9533723 C19.2260429,23.9533723 18.6303314,24.5492398 18.6303314,25.2840546 C18.6303314,26.0190253 19.2261988,26.6147368 19.9610136,26.6147368 L19.9610136,29.2762573 L11.9766082,29.2762573 L11.9766082,26.6147368 C12.7115789,26.6147368 13.3072904,26.0188694 13.3072904,25.2840546 C13.3072904,24.5490838 12.7115789,23.9533723 11.9766082,23.9533723 L10.6459259,23.9533723 C9.91095517,23.9533723 9.31524366,24.5492398 9.31524366,25.2840546 L9.31524366,29.2762573 L2.66152047,29.2762573 L2.66152047,18.6303314 C2.66152047,17.8953606 2.06565302,17.2996491 1.33083821,17.2996491 C0.596023392,17.2996491 4.56523708e-13,17.8953606 4.56523708e-13,18.6303314 L4.56523708e-13,29.2762573 C0.00140350877,30.7454191 1.19220273,31.9362183 2.66152047,31.9376218 Z" id="Path" fill="#003366"></path>
                    <path d="M2.66152047,79.8440546 L29.2762573,79.8440546 C30.745575,79.8426511 31.9362183,78.6518519 31.9377778,77.1825341 L31.9377778,50.5679532 C31.9363743,49.0986355 30.745575,47.9079922 29.2762573,47.9064327 L22.6225341,47.9064327 L22.6225341,43.91423 C22.6225341,43.1792593 22.0266667,42.5835478 21.2918519,42.5835478 L19.9610136,42.5835478 C19.2260429,42.5835478 18.6303314,43.1792593 18.6303314,43.91423 C18.6303314,44.6492008 19.2261988,45.2449123 19.9610136,45.2449123 L19.9610136,47.9064327 L11.9766082,47.9064327 L11.9766082,45.2449123 C12.7115789,45.2449123 13.3072904,44.6490448 13.3072904,43.91423 C13.3072904,43.1794152 12.7115789,42.5835478 11.9766082,42.5835478 L10.6459259,42.5835478 C9.91095517,42.5835478 9.31524366,43.1792593 9.31524366,43.91423 L9.31524366,47.9064327 L2.66152047,47.9064327 C1.19220273,47.9078363 0.00140350877,49.0986355 -2.71782596e-13,50.5679532 L-2.71782596e-13,77.1826901 C0.00140350877,78.6518519 1.19220273,79.8426511 2.66152047,79.8440546 Z M2.66152047,50.5679532 L9.31524366,50.5679532 L9.31524366,54.5601559 C9.31524366,55.2951267 9.91111111,55.8908382 10.6459259,55.8908382 L11.9766082,55.8908382 C12.7115789,55.8908382 13.3072904,55.2949708 13.3072904,54.5601559 C13.3072904,53.8251852 12.7115789,53.2294737 11.9766082,53.2294737 L11.9766082,50.5679532 L19.9610136,50.5679532 L19.9610136,53.2294737 C19.2260429,53.2294737 18.6303314,53.8253411 18.6303314,54.5601559 C18.6303314,55.2951267 19.2261988,55.8908382 19.9610136,55.8908382 L21.2916959,55.8908382 C22.0266667,55.8908382 22.6223782,55.2949708 22.6223782,54.5601559 L22.6223782,50.5679532 L29.2761014,50.5679532 L29.2779727,77.1826901 L2.66152047,77.1826901 L2.66152047,50.5679532 Z" id="Shape" fill="#003366" fill-rule="nonzero"></path>
                    <path d="M17.2994932,58.7412086 L17.2994932,54.56 C17.2994932,53.8250292 16.7036257,53.2293177 15.9688109,53.2293177 C15.2338402,53.2293177 14.6381287,53.8251852 14.6381287,54.56 L14.6381287,58.7412086 C12.042729,59.411306 10.3505653,61.9067446 10.6883431,64.56577 C11.0261209,67.2247953 13.2884211,69.2179337 15.9688109,69.2179337 C18.6492008,69.2179337 20.911501,67.2247953 21.2492788,64.56577 C21.5870565,61.9067446 19.8948928,59.411462 17.2994932,58.7412086 Z M15.9688109,66.5367641 C14.7655361,66.5406628 13.7104094,65.734269 13.3982066,64.5723197 C13.0860039,63.4103704 13.5948538,62.1837037 14.6381287,61.5839376 L14.6381287,62.5445614 C14.6381287,63.2795322 15.2339961,63.8752437 15.9688109,63.8752437 C16.7037817,63.8752437 17.2994932,63.2793762 17.2994932,62.5445614 L17.2994932,61.5839376 C18.3426121,62.1835478 18.8516179,63.4102144 18.5394152,64.5723197 C18.2272125,65.734269 17.1720858,66.5406628 15.9688109,66.5367641 Z" id="Shape" fill="#428DFF" fill-rule="nonzero"></path>
                    <path d="M73.1825341,-3.55271368e-14 L46.5679532,-3.55271368e-14 C45.0986355,0.00140350877 43.9079922,1.19220273 43.9064327,2.66152047 L43.9064327,29.2762573 C43.9078363,30.745575 45.0986355,31.9362183 46.5679532,31.9377778 L53.2216764,31.9377778 L53.2216764,35.9299805 C53.2216764,36.6649513 53.8175439,37.2606628 54.5523587,37.2606628 L55.8830409,37.2606628 C56.6180117,37.2606628 57.2137232,36.6647953 57.2137232,35.9299805 C57.2137232,35.1951657 56.6180117,34.5992982 55.8830409,34.5992982 L55.8830409,31.9376218 L63.8674464,31.9376218 L63.8674464,34.5991423 C63.1324756,34.5991423 62.5367641,35.1948538 62.5367641,35.9298246 C62.5367641,36.6647953 63.1324756,37.2605068 63.8674464,37.2605068 L65.1981287,37.2605068 C65.9330994,37.2605068 66.5288109,36.6646394 66.5288109,35.9298246 L66.5288109,31.9376218 L73.1825341,31.9376218 C74.6518519,31.9362183 75.8424951,30.7454191 75.8440546,29.2761014 L75.8440546,2.66152047 C75.8426511,1.19220273 74.6518519,0.00140350877 73.1825341,-3.55271368e-14 Z M66.5289669,29.2761014 L66.5289669,25.2838986 C66.5289669,24.5489279 65.9330994,23.9532164 65.1982846,23.9532164 L63.8674464,23.9532164 C63.1324756,23.9532164 62.5367641,24.5490838 62.5367641,25.2838986 C62.5367641,26.0188694 63.1324756,26.6145809 63.8674464,26.6145809 L63.8674464,29.2761014 L55.8830409,29.2761014 L55.8830409,26.6145809 C56.6180117,26.6145809 57.2137232,26.0187135 57.2137232,25.2838986 C57.2137232,24.5489279 56.6180117,23.9532164 55.8830409,23.9532164 L54.5523587,23.9532164 C53.8173879,23.9532164 53.2216764,24.5490838 53.2216764,25.2838986 L53.2216764,29.2761014 L46.5679532,29.2762573 L46.5679532,2.66152047 L73.1826901,2.66152047 L73.1845614,29.2762573 L66.5289669,29.2762573 L66.5289669,29.2761014 Z" id="Shape" fill="#003366" fill-rule="nonzero"></path>
                    <path d="M59.8752437,10.6459259 C57.1965692,10.6401559 54.9328655,12.6298635 54.5946199,15.2870175 C54.2563743,17.9441715 55.9497856,20.4374269 58.5444055,21.102846 L58.5444055,25.2840546 C58.5444055,26.0190253 59.1402729,26.6147368 59.8750877,26.6147368 C60.6100585,26.6147368 61.20577,26.0188694 61.20577,25.2840546 L61.20577,21.102846 C63.8003899,20.4375828 65.4938012,17.9443275 65.1555556,15.2870175 C64.8173099,12.6297076 62.5539181,10.6401559 59.8752437,10.6459259 Z M61.2059259,18.260117 L61.2059259,17.2994932 C61.2059259,16.5645224 60.6100585,15.9688109 59.8752437,15.9688109 C59.1402729,15.9688109 58.5445614,16.5646784 58.5445614,17.2994932 L58.5445614,18.260117 C57.5012865,17.6578558 56.9927485,16.4299415 57.3044834,15.2664327 C57.6162183,14.102924 58.6707212,13.2938791 59.8752437,13.2938791 C61.0797661,13.2938791 62.134269,14.102924 62.4460039,15.2664327 C62.7577388,16.4299415 62.2492008,17.6578558 61.2059259,18.260117 Z" id="Shape" fill="#428DFF" fill-rule="nonzero"></path>
                    <path d="M73.1825341,47.9064327 L66.5288109,47.9064327 L66.5288109,43.91423 C66.5288109,43.1792593 65.9329435,42.5835478 65.1981287,42.5835478 L63.8674464,42.5835478 C63.1324756,42.5835478 62.5367641,43.1792593 62.5367641,43.91423 C62.5367641,44.6492008 63.1324756,45.2449123 63.8674464,45.2449123 L63.8674464,47.9064327 L55.8830409,47.9064327 L55.8830409,45.2449123 C56.6180117,45.2449123 57.2137232,44.6490448 57.2137232,43.91423 C57.2137232,43.1794152 56.6180117,42.5835478 55.8830409,42.5835478 L54.5523587,42.5835478 C53.8173879,42.5835478 53.2216764,43.1792593 53.2216764,43.91423 L53.2216764,47.9064327 L46.5679532,47.9064327 C45.0986355,47.9078363 43.9079922,49.0986355 43.9064327,50.5679532 L43.9064327,77.1826901 C43.9078363,78.6520078 45.0986355,79.8426511 46.5679532,79.8442105 L73.1826901,79.8442105 C74.6520078,79.842807 75.8426511,78.6520078 75.8442105,77.1826901 L75.8442105,50.5679532 C75.8426511,49.0986355 74.6518519,47.9078363 73.1825341,47.9064327 Z M46.5679532,77.1826901 L46.5679532,50.5679532 L53.2216764,50.5679532 L53.2216764,54.5601559 C53.2216764,55.2951267 53.8175439,55.8908382 54.5523587,55.8908382 L55.8830409,55.8908382 C56.6180117,55.8908382 57.2137232,55.2949708 57.2137232,54.5601559 C57.2137232,53.8251852 56.6180117,53.2294737 55.8830409,53.2294737 L55.8830409,50.5679532 L63.8674464,50.5679532 L63.8674464,53.2294737 C63.1324756,53.2294737 62.5367641,53.8253411 62.5367641,54.5601559 C62.5367641,55.2951267 63.1324756,55.8908382 63.8674464,55.8908382 L65.1981287,55.8908382 C65.9330994,55.8908382 66.5288109,55.2949708 66.5288109,54.5601559 L66.5288109,50.5679532 L73.1825341,50.5679532 L73.1844055,77.1826901 L46.5679532,77.1826901 L46.5679532,77.1826901 Z" id="Shape" fill="#003366" fill-rule="nonzero"></path>
                    <path d="M61.2059259,58.7412086 L61.2059259,54.56 C61.2059259,53.8250292 60.6100585,53.2293177 59.8752437,53.2293177 C59.1402729,53.2293177 58.5445614,53.8251852 58.5445614,54.56 L58.5445614,58.7412086 C55.9491618,59.411306 54.2569981,61.9067446 54.5947758,64.56577 C54.9325536,67.2247953 57.1948538,69.2179337 59.8752437,69.2179337 C62.5556335,69.2179337 64.8179337,67.2247953 65.1557115,64.56577 C65.4934893,61.9067446 63.8013255,59.411462 61.2059259,58.7412086 Z M59.8752437,66.5367641 C58.6719688,66.5406628 57.6168421,65.734269 57.3046394,64.5723197 C56.9924366,63.4103704 57.5012865,62.1837037 58.5445614,61.5839376 L58.5445614,62.5445614 C58.5445614,63.2795322 59.1404288,63.8752437 59.8752437,63.8752437 C60.6102144,63.8752437 61.2059259,63.2793762 61.2059259,62.5445614 L61.2059259,61.5839376 C62.2490448,62.1835478 62.7580507,63.4102144 62.445848,64.5723197 C62.1336452,65.734269 61.0785185,66.5406628 59.8752437,66.5367641 Z" id="Shape" fill="#428DFF" fill-rule="nonzero"></path>
                    <path d="M15.9688109,26.6147368 C16.7037817,26.6147368 17.2994932,26.0188694 17.2994932,25.2840546 L17.2994932,21.102846 C19.8948928,20.4327485 21.5870565,17.9373099 21.2492788,15.2782846 C20.911501,12.6192593 18.6492008,10.6259649 15.9688109,10.6259649 C13.2884211,10.6259649 11.0261209,12.6191033 10.6883431,15.2781287 C10.3505653,17.937154 12.042729,20.4325926 14.6381287,21.1026901 L14.6381287,25.2838986 C14.6381287,26.0188694 15.2338402,26.6147368 15.9688109,26.6147368 Z M13.3072904,15.9688109 C13.3007407,14.6755556 14.2247173,13.5647563 15.4976998,13.3358285 C16.7705263,13.1069006 18.0237037,13.8261209 18.4681481,15.0407797 C18.9125926,16.2552827 18.4194932,17.6135673 17.2994932,18.2602729 L17.2994932,17.2996491 C17.2994932,16.5646784 16.7036257,15.9689669 15.9688109,15.9689669 C15.2338402,15.9689669 14.6381287,16.5648343 14.6381287,17.2996491 L14.6381287,18.2602729 C13.8173879,17.788538 13.3102534,16.9153996 13.3072904,15.9688109 Z" id="Shape" fill="#428DFF" fill-rule="nonzero"></path>
                    <path d="M14.6381287,35.9298246 L14.6381287,43.91423 C14.6381287,44.6492008 15.2339961,45.2449123 15.9688109,45.2449123 C16.7037817,45.2449123 17.2994932,44.6490448 17.2994932,43.91423 L17.2994932,35.9298246 C17.2994932,35.1948538 16.7036257,34.5991423 15.9688109,34.5991423 C15.2338402,34.5991423 14.6381287,35.1948538 14.6381287,35.9298246 Z" id="Path" fill="#428DFF"></path>
                    <path d="M61.2059259,43.91423 L61.2059259,35.9298246 C61.2059259,35.1948538 60.6100585,34.5991423 59.8752437,34.5991423 C59.1402729,34.5991423 58.5445614,35.1948538 58.5445614,35.9298246 L58.5445614,43.91423 C58.5445614,44.6492008 59.1404288,45.2449123 59.8752437,45.2449123 C60.6102144,45.2449123 61.2059259,44.6492008 61.2059259,43.91423 Z" id="Path" fill="#428DFF"></path>
                </g>
            </g>
        </g>
    </g>
</svg>