<?xml version="1.0" encoding="UTF-8"?>
<svg width="66px" height="70px" viewBox="0 0 66 70" version="1.1" xmlns="http://www.w3.org/2000/svg" xmlns:xlink="http://www.w3.org/1999/xlink">
    <!-- Generator: Sketch 53.2 (72643) - https://sketchapp.com -->
    <title>About-Icon</title>
    <desc>Created with Sketch.</desc>
    <g id="Symbols" stroke="none" stroke-width="1" fill="none" fill-rule="evenodd">
        <g id="About/About-Blocks" transform="translate(-152.000000, -40.000000)">
            <g id="About-Blocks">
                <g id="About/Vision" transform="translate(152.000000, 40.000000)">
                    <g id="About-Icon">
                        <path d="M64.866363,32.2713481 C64.2950184,31.5528346 63.2383752,31.4250929 62.5056775,31.985077 C61.7732551,32.5454662 61.642603,33.5819836 62.2138099,34.3004971 C62.7752419,35.0067225 62.7752419,35.9928724 62.2138099,36.6990978 C58.0995785,41.8729079 52.7762995,45.7606585 46.7833772,48.1111873 C49.9332065,44.8032707 51.8618729,40.367554 51.8618729,35.4997299 C51.8618729,30.6510806 49.9493143,26.2312979 46.8263313,22.930403 C50.2892299,24.2961322 53.544517,26.1730984 56.4587872,28.5167405 C56.8204551,28.8074677 57.1810217,29.1089976 57.5312628,29.4130931 C58.2267887,30.0170982 59.2896272,29.9536324 59.9054403,29.271578 C60.5212533,28.5895236 60.4565468,27.5467946 59.7611586,26.9429246 C59.3793903,26.6111472 58.9857821,26.2823405 58.5914855,25.9654168 C51.4021815,20.1839558 42.3133978,17 32.9999312,17 C20.4657334,17 8.8509185,22.5662175 1.13363705,32.2714831 C-0.377879016,34.1723502 -0.377879016,36.8275147 1.13363705,38.7285169 C8.8509185,48.4337825 20.4657334,54 32.9999312,54 C45.5338536,54 57.1488062,48.4337825 64.866363,38.7285169 C66.377879,36.8272447 66.377879,34.1722152 64.866363,32.2713481 Z M3.78619011,36.6990978 C3.22475805,35.9928724 3.22475805,35.0067225 3.78619011,34.3004971 C7.89945775,29.1276322 13.2216354,25.2404217 19.2134563,22.8896229 C16.0669312,26.1959191 14.1379894,30.6298804 14.1379894,35.4997299 C14.1379894,40.3678241 16.0667935,44.8035408 19.2134563,48.109972 C13.2216354,45.7591732 7.89932008,41.8719627 3.78619011,36.6990978 Z M33.0204445,50.7000504 C33.0136985,50.7000504 33.0069525,50.7001854 33.0000688,50.7001854 C32.9931852,50.7001854 32.9865768,50.7000504 32.9796932,50.7000504 C24.4429798,50.6892477 17.5019008,43.8751852 17.5019008,35.4997299 C17.5019008,27.1242747 24.4428421,20.3102122 32.9796932,20.2994095 C32.9864392,20.2994095 32.9931852,20.2992745 33.0000688,20.2992745 C33.0053004,20.2992745 33.010532,20.2994095 33.0157636,20.2994095 C41.5545421,20.3076465 48.4980992,27.1226542 48.4980992,35.4997299 C48.4980992,43.8751852 41.5571579,50.6892477 33.0204445,50.7000504 Z" id="Shape" fill="#3A3A3C" fill-rule="nonzero"></path>
                        <path d="M33,28 C29.1398727,28 26,31.1398727 26,35 C26,38.8601273 29.1398727,42 33,42 C36.8601273,42 40,38.8601273 40,35 C40,31.1398727 36.8601273,28 33,28 Z M33,38.7006559 C30.9599537,38.7006559 29.2993441,37.0400463 29.2993441,35 C29.2993441,32.9599537 30.9599537,31.2993441 33,31.2993441 C35.0400463,31.2993441 36.7006559,32.9599537 36.7006559,35 C36.7006559,37.0400463 35.0400463,38.7006559 33,38.7006559 Z" id="Shape" fill="#3A3A3C" fill-rule="nonzero"></path>
                        <path d="M33.5,0 C32.6714824,0 32,0.700684727 32,1.5652341 L32,7.4347659 C32,8.29931527 32.6714824,9 33.5,9 C34.3285176,9 35,8.29931527 35,7.4347659 L35,1.5652341 C35,0.700684727 34.3283949,0 33.5,0 Z" id="Path" fill="#07519D"></path>
                        <path d="M33.5,61 C32.6714824,61 32,61.7006847 32,62.5652341 L32,68.4347659 C32,69.2993153 32.6714824,70 33.5,70 C34.3285176,70 35,69.2993153 35,68.4347659 L35,62.5652341 C35,61.7006847 34.3282721,61 33.5,61 Z" id="Path" fill="#07519D"></path>
                        <path d="M57.5454168,10.4544829 C56.939327,9.8485057 55.9568289,9.8485057 55.350358,10.4544829 L52.4545673,13.3503425 C51.8484776,13.9564467 51.8484776,14.9390953 52.4545673,15.5454536 C52.7576758,15.8484422 53.1546639,16 53.5520332,16 C53.9491485,16 54.3462637,15.8484422 54.6494991,15.5454536 L57.5455438,12.649594 C58.1515066,12.0434898 58.1515066,11.0608412 57.5454168,10.4544829 Z" id="Path" fill="#07519D"></path>
                        <path d="M13.5454168,54.4544389 C12.939454,53.8485839 11.9568289,53.8484569 11.350612,54.4544389 L8.45456735,57.3503214 C7.84847755,57.9564305 7.84847755,58.9390868 8.45456735,59.54545 C8.75767577,59.848441 9.15491802,60 9.55203324,60 C9.94914846,60 10.3462637,59.848441 10.6494991,59.54545 L13.5455438,56.6495674 C14.1515066,56.0433313 14.1515066,55.060802 13.5454168,54.4544389 Z" id="Path" fill="#07519D"></path>
                        <path d="M13.5454572,13.3504695 L10.6493665,10.4544829 C10.0432671,9.8485057 9.06062635,9.8485057 8.45452693,10.4544829 C7.84842751,11.0608412 7.84855454,12.0433627 8.45452693,12.649594 L11.3506176,15.5454536 C11.6536038,15.8484422 12.0509794,16 12.4481009,16 C12.8452224,16 13.242598,15.8484422 13.5455842,15.5454536 C14.1515566,14.9390953 14.1514296,13.9565738 13.5454572,13.3504695 Z" id="Path" fill="#07519D"></path>
                        <path d="M57.5453287,57.3503425 L54.6495841,54.4544829 C54.0432499,53.8485057 53.0608944,53.8485057 52.4545601,54.4544829 C51.84848,55.0608412 51.84848,56.0433627 52.4545601,56.649594 L55.3505588,59.5454536 C55.6536624,59.8484422 56.0508984,60 56.4480073,60 C56.8451162,60 57.2422251,59.8484422 57.5454557,59.5454536 C58.1515359,58.9390953 58.1515359,57.9564467 57.5453287,57.3503425 Z" id="Path" fill="#07519D"></path>
                    </g>
                </g>
            </g>
        </g>
    </g>
</svg>