<?xml version="1.0" encoding="UTF-8"?>
<svg width="92px" height="92px" viewBox="0 0 92 92" version="1.1" xmlns="http://www.w3.org/2000/svg" xmlns:xlink="http://www.w3.org/1999/xlink">
    <!-- Generator: Sketch 53.1 (72631) - https://sketchapp.com -->
    <title>server (1)</title>
    <desc>Created with Sketch.</desc>
    <g id="Symbols" stroke="none" stroke-width="1" fill="none" fill-rule="evenodd">
        <g id="Services/Service/Icon/Bot-development-Copy" transform="translate(-4.000000, 0.000000)">
            <g id="server-(1)" transform="translate(4.000000, 0.000000)">
                <polygon id="Path" fill="#A4CFF2" points="63.25 64.6875 67.5625 64.6875 67.5625 70.4375 24.4375 70.4375 24.4375 64.6875"></polygon>
                <polygon id="Path" fill="#A4CFF2" points="24.4375 87.6875 67.5625 87.6875 67.5625 92 24.4375 92"></polygon>
                <path d="M23,64.6875 C22.2068482,64.6875 21.5625,64.0431518 21.5625,63.25 L21.5625,48.875 C21.5625,48.0818482 22.2068482,47.4375 23,47.4375 L69,47.4375 C69.7931518,47.4375 70.4375,48.0818482 70.4375,48.875 L70.4375,63.25 C70.4375,64.0431518 69.7931518,64.6875 69,64.6875 L23,64.6875 Z" id="Path" fill="#D3E6F8"></path>
                <path d="M34.5,58.9375 L28.75,58.9375 C27.9568482,58.9375 27.3125,58.2931518 27.3125,57.5 L27.3125,54.625 C27.3125,53.8318482 27.9568482,53.1875 28.75,53.1875 L34.5,53.1875 C35.2931518,53.1875 35.9375,53.8318482 35.9375,54.625 L35.9375,57.5 C35.9375,58.2931518 35.2931518,58.9375 34.5,58.9375 Z" id="Path" fill="#FCBF29"></path>
                <polygon id="Path" fill="#A4CFF2" points="24.4375 41.6875 67.5625 41.6875 67.5625 47.4375 24.4375 47.4375"></polygon>
                <polygon id="Path" fill="#A4CFF2" points="24.4375 18.6875 67.5625 18.6875 67.5625 24.4375 24.4375 24.4375"></polygon>
                <path d="M69,18.6875 L23,18.6875 C22.2068482,18.6875 21.5625,18.0431518 21.5625,17.25 L21.5625,2.875 C21.5625,2.08184823 22.2068482,1.4375 23,1.4375 L69,1.4375 C69.7931518,1.4375 70.4375,2.08184823 70.4375,2.875 L70.4375,17.25 C70.4375,18.0431518 69.7931518,18.6875 69,18.6875 Z" id="Path" fill="#D3E6F8"></path>
                <path d="M34.5,12.9375 L28.75,12.9375 C27.9568482,12.9375 27.3125,12.2931518 27.3125,11.5 L27.3125,8.625 C27.3125,7.83184823 27.9568482,7.1875 28.75,7.1875 L34.5,7.1875 C35.2931518,7.1875 35.9375,7.83184823 35.9375,8.625 L35.9375,11.5 C35.9375,12.2931518 35.2931518,12.9375 34.5,12.9375 Z" id="Path" fill="#FCBF29"></path>
                <path d="M69,87.6875 L23,87.6875 C22.2068482,87.6875 21.5625,87.0431518 21.5625,86.25 L21.5625,71.875 C21.5625,71.0818482 22.2068482,70.4375 23,70.4375 L69,70.4375 C69.7931518,70.4375 70.4375,71.0818482 70.4375,71.875 L70.4375,86.25 C70.4375,87.0431518 69.7931518,87.6875 69,87.6875 Z" id="Path" fill="#D3E6F8"></path>
                <path d="M34.5,81.9375 L28.75,81.9375 C27.9568482,81.9375 27.3125,81.2931518 27.3125,80.5 L27.3125,77.625 C27.3125,76.8318482 27.9568482,76.1875 28.75,76.1875 L34.5,76.1875 C35.2931518,76.1875 35.9375,76.8318482 35.9375,77.625 L35.9375,80.5 C35.9375,81.2931518 35.2931518,81.9375 34.5,81.9375 Z" id="Path" fill="#EA6148"></path>
                <path d="M69,41.6875 L23,41.6875 C22.2068482,41.6875 21.5625,41.0431518 21.5625,40.25 L21.5625,25.875 C21.5625,25.0818482 22.2068482,24.4375 23,24.4375 L69,24.4375 C69.7931518,24.4375 70.4375,25.0818482 70.4375,25.875 L70.4375,40.25 C70.4375,41.0431518 69.7931518,41.6875 69,41.6875 Z" id="Path" fill="#D3E6F8"></path>
                <path d="M34.5,35.9375 L28.75,35.9375 C27.9568482,35.9375 27.3125,35.2931518 27.3125,34.5 L27.3125,31.625 C27.3125,30.8318482 27.9568482,30.1875 28.75,30.1875 L34.5,30.1875 C35.2931518,30.1875 35.9375,30.8318482 35.9375,31.625 L35.9375,34.5 C35.9375,35.2931518 35.2931518,35.9375 34.5,35.9375 Z" id="Path" fill="#EA6148"></path>
                <path d="M90.5625,46 C90.5625,47.5877076 89.2752076,48.875 87.6875,48.875 C86.0997924,48.875 84.8125,47.5877076 84.8125,46 C84.8125,44.4122924 86.0997924,43.125 87.6875,43.125 C89.2752076,43.125 90.5625,44.4122924 90.5625,46 Z" id="Path" fill="#FCBE56"></path>
                <path d="M87.6875,11.5 C87.6875,13.0877076 86.4002076,14.375 84.8125,14.375 C83.2247924,14.375 81.9375,13.0877076 81.9375,11.5 C81.9375,9.91229239 83.2247924,8.625 84.8125,8.625 C86.4002076,8.625 87.6875,9.91229239 87.6875,11.5 Z" id="Path" fill="#D64A49"></path>
                <path d="M87.6875,80.5 C87.6875,82.0877076 86.4002076,83.375 84.8125,83.375 C83.2247924,83.375 81.9375,82.0877076 81.9375,80.5 C81.9375,78.9122924 83.2247924,77.625 84.8125,77.625 C86.4002076,77.625 87.6875,78.9122924 87.6875,80.5 Z" id="Path" fill="#D64A49"></path>
                <path d="M7.1875,46 C7.1875,47.5877076 5.90020761,48.875 4.3125,48.875 C2.72479239,48.875 1.4375,47.5877076 1.4375,46 C1.4375,44.4122924 2.72479239,43.125 4.3125,43.125 C5.90020761,43.125 7.1875,44.4122924 7.1875,46 Z" id="Path" fill="#FCBE56"></path>
                <path d="M10.0625,11.5 C10.0625,13.0877076 8.77520761,14.375 7.1875,14.375 C5.59979239,14.375 4.3125,13.0877076 4.3125,11.5 C4.3125,9.91229239 5.59979239,8.625 7.1875,8.625 C8.77520761,8.625 10.0625,9.91229239 10.0625,11.5 Z" id="Path" fill="#D64A49"></path>
                <path d="M10.0625,80.5 C10.0625,82.0877076 8.77520761,83.375 7.1875,83.375 C5.59979239,83.375 4.3125,82.0877076 4.3125,80.5 C4.3125,78.9122924 5.59979239,77.625 7.1875,77.625 C8.77520761,77.625 10.0625,78.9122924 10.0625,80.5 Z" id="Path" fill="#D64A49"></path>
                <polygon id="Path" fill="#07519D" points="40.25 51.75 43.125 51.75 43.125 54.625 40.25 54.625"></polygon>
                <polygon id="Path" fill="#07519D" points="40.25 57.5 43.125 57.5 43.125 60.375 40.25 60.375"></polygon>
                <polygon id="Path" fill="#9B9B9B" points="46 51.75 48.875 51.75 48.875 54.625 46 54.625"></polygon>
                <polygon id="Path" fill="#9B9B9B" points="46 57.5 48.875 57.5 48.875 60.375 46 60.375"></polygon>
                <polygon id="Path" fill="#07519D" points="51.75 51.75 54.625 51.75 54.625 54.625 51.75 54.625"></polygon>
                <polygon id="Path" fill="#07519D" points="51.75 57.5 54.625 57.5 54.625 60.375 51.75 60.375"></polygon>
                <polygon id="Path" fill="#9B9B9B" points="57.5 51.75 60.375 51.75 60.375 54.625 57.5 54.625"></polygon>
                <polygon id="Path" fill="#9B9B9B" points="57.5 57.5 60.375 57.5 60.375 60.375 57.5 60.375"></polygon>
                <polygon id="Path" fill="#07519D" points="63.25 51.75 66.125 51.75 66.125 54.625 63.25 54.625"></polygon>
                <polygon id="Path" fill="#07519D" points="63.25 57.5 66.125 57.5 66.125 60.375 63.25 60.375"></polygon>
                <path d="M69,0 L23,0 C21.4143981,0 20.125,1.28939815 20.125,2.875 L20.125,17.25 C20.125,18.8356019 21.4143981,20.125 23,20.125 L23,23 C21.4143981,23 20.125,24.2893981 20.125,25.875 L20.125,40.25 C20.125,41.8356019 21.4143981,43.125 23,43.125 L23,46 C21.4143981,46 20.125,47.2893981 20.125,48.875 L20.125,63.25 C20.125,64.8356019 21.4143981,66.125 23,66.125 L23,69 C21.4143981,69 20.125,70.2893981 20.125,71.875 L20.125,86.25 C20.125,87.8356019 21.4143981,89.125 23,89.125 L23,92 L25.875,92 L25.875,89.125 L66.125,89.125 L66.125,92 L69,92 L69,89.125 C70.5856019,89.125 71.875,87.8356019 71.875,86.25 L71.875,71.875 C71.875,70.2893981 70.5856019,69 69,69 L69,66.125 C70.5856019,66.125 71.875,64.8356019 71.875,63.25 L71.875,48.875 C71.875,47.2893981 70.5856019,46 69,46 L69,43.125 C70.5856019,43.125 71.875,41.8356019 71.875,40.25 L71.875,25.875 C71.875,24.2893981 70.5856019,23 69,23 L69,20.125 C70.5856019,20.125 71.875,18.8356019 71.875,17.25 L71.875,2.875 C71.875,1.28939815 70.5856019,0 69,0 Z M69.0028076,86.25 L23,86.25 L23,71.875 L69,71.875 L69.0028076,86.25 Z M69,63.25 L60.375,63.25 L60.375,66.125 L66.125,66.125 L66.125,69 L25.875,69 L25.875,66.125 L57.5,66.125 L57.5,63.25 L23,63.25 L23,48.875 L69,48.875 L69,63.25 Z M66.125,46 L25.875,46 L25.875,43.125 L66.125,43.125 L66.125,46 Z M69.0028076,40.25 L23,40.25 L23,25.875 L69,25.875 L69.0028076,40.25 Z M66.125,23 L25.875,23 L25.875,20.125 L66.125,20.125 L66.125,23 Z M67.5625,17.25 L23,17.25 L23,2.875 L69,2.875 L69.0028076,17.25 L67.5625,17.25 Z" id="Shape" fill="#003366" fill-rule="nonzero"></path>
                <polygon id="Path" fill="#07519D" points="40.25 5.75 43.125 5.75 43.125 8.625 40.25 8.625"></polygon>
                <polygon id="Path" fill="#07519D" points="40.25 11.5 43.125 11.5 43.125 14.375 40.25 14.375"></polygon>
                <polygon id="Path" fill="#9B9B9B" points="46 5.75 48.875 5.75 48.875 8.625 46 8.625"></polygon>
                <polygon id="Path" fill="#9B9B9B" points="46 11.5 48.875 11.5 48.875 14.375 46 14.375"></polygon>
                <polygon id="Path" fill="#07519D" points="51.75 5.75 54.625 5.75 54.625 8.625 51.75 8.625"></polygon>
                <polygon id="Path" fill="#07519D" points="51.75 11.5 54.625 11.5 54.625 14.375 51.75 14.375"></polygon>
                <polygon id="Path" fill="#9B9B9B" points="57.5 5.75 60.375 5.75 60.375 8.625 57.5 8.625"></polygon>
                <polygon id="Path" fill="#9B9B9B" points="57.5 11.5 60.375 11.5 60.375 14.375 57.5 14.375"></polygon>
                <polygon id="Path" fill="#07519D" points="63.25 5.75 66.125 5.75 66.125 8.625 63.25 8.625"></polygon>
                <polygon id="Path" fill="#07519D" points="63.25 11.5 66.125 11.5 66.125 14.375 63.25 14.375"></polygon>
                <polygon id="Path" fill="#9B9B9B" points="40.25 74.75 43.125 74.75 43.125 77.625 40.25 77.625"></polygon>
                <polygon id="Path" fill="#9B9B9B" points="40.25 80.5 43.125 80.5 43.125 83.375 40.25 83.375"></polygon>
                <polygon id="Path" fill="#9B9B9B" points="51.75 74.75 54.625 74.75 54.625 77.625 51.75 77.625"></polygon>
                <polygon id="Path" fill="#9B9B9B" points="51.75 80.5 54.625 80.5 54.625 83.375 51.75 83.375"></polygon>
                <polygon id="Path" fill="#9B9B9B" points="63.25 74.75 66.125 74.75 66.125 77.625 63.25 77.625"></polygon>
                <polygon id="Path" fill="#9B9B9B" points="63.25 80.5 66.125 80.5 66.125 83.375 63.25 83.375"></polygon>
                <polygon id="Path" fill="#07519D" points="46 74.75 48.875 74.75 48.875 83.375 46 83.375"></polygon>
                <polygon id="Path" fill="#07519D" points="57.5 74.75 60.375 74.75 60.375 83.375 57.5 83.375"></polygon>
                <polygon id="Path" fill="#9B9B9B" points="40.25 28.75 43.125 28.75 43.125 31.625 40.25 31.625"></polygon>
                <polygon id="Path" fill="#9B9B9B" points="40.25 34.5 43.125 34.5 43.125 37.375 40.25 37.375"></polygon>
                <polygon id="Path" fill="#9B9B9B" points="51.75 28.75 54.625 28.75 54.625 31.625 51.75 31.625"></polygon>
                <polygon id="Path" fill="#9B9B9B" points="51.75 34.5 54.625 34.5 54.625 37.375 51.75 37.375"></polygon>
                <polygon id="Path" fill="#9B9B9B" points="63.25 28.75 66.125 28.75 66.125 31.625 63.25 31.625"></polygon>
                <polygon id="Path" fill="#9B9B9B" points="63.25 34.5 66.125 34.5 66.125 37.375 63.25 37.375"></polygon>
                <polygon id="Path" fill="#07519D" points="46 28.75 48.875 28.75 48.875 37.375 46 37.375"></polygon>
                <polygon id="Path" fill="#07519D" points="57.5 28.75 60.375 28.75 60.375 37.375 57.5 37.375"></polygon>
                <path d="M87.6875,41.6875 C85.8162232,41.6875 84.2348327,42.8933717 83.6396179,44.5625 L74.75,44.5625 L74.75,47.4375 L83.6396179,47.4375 C84.2348327,49.1066283 85.8162232,50.3125 87.6875,50.3125 C90.0648499,50.3125 92,48.3773499 92,46 C92,43.6226501 90.0648499,41.6875 87.6875,41.6875 Z M87.6875,47.4375 C86.8943482,47.4375 86.25,46.7931518 86.25,46 C86.25,45.2068482 86.8943482,44.5625 87.6875,44.5625 C88.4806518,44.5625 89.125,45.2068482 89.125,46 C89.125,46.7931518 88.4806518,47.4375 87.6875,47.4375 Z" id="Shape" fill="#EA6148" fill-rule="nonzero"></path>
                <path d="M86.25,31.625 L86.25,15.5478821 C87.9191283,14.9526673 89.125,13.3712768 89.125,11.5 C89.125,9.1226501 87.1898499,7.1875 84.8125,7.1875 C82.4351501,7.1875 80.5,9.1226501 80.5,11.5 C80.5,13.3712768 81.7058717,14.9526673 83.375,15.5478821 L83.375,30.1875 L74.75,30.1875 L74.75,33.0625 L84.8125,33.0625 C85.6077575,33.0625 86.25,32.4202575 86.25,31.625 Z M84.8125,10.0625 C85.6056518,10.0625 86.25,10.7068482 86.25,11.5 C86.25,12.2931518 85.6056518,12.9375 84.8125,12.9375 C84.0193482,12.9375 83.375,12.2931518 83.375,11.5 C83.375,10.7068482 84.0193482,10.0625 84.8125,10.0625 Z" id="Shape" fill="#FCBF29" fill-rule="nonzero"></path>
                <path d="M86.25,76.4521179 L86.25,60.375 C86.25,59.5797425 85.6077575,58.9375 84.8125,58.9375 L74.75,58.9375 L74.75,61.8125 L83.375,61.8125 L83.375,76.4521179 C81.7058717,77.0473327 80.5,78.6287232 80.5,80.5 C80.5,82.8773499 82.4351501,84.8125 84.8125,84.8125 C87.1898499,84.8125 89.125,82.8773499 89.125,80.5 C89.125,78.6287232 87.9191283,77.0473327 86.25,76.4521179 L86.25,76.4521179 Z M84.8125,81.9375 C84.0193482,81.9375 83.375,81.2931518 83.375,80.5 C83.375,79.7068482 84.0193482,79.0625 84.8125,79.0625 C85.6056518,79.0625 86.25,79.7068482 86.25,80.5 C86.25,81.2931518 85.6056518,81.9375 84.8125,81.9375 Z" id="Shape" fill="#FCBF29" fill-rule="nonzero"></path>
                <path d="M4.3125,41.6875 C1.9351501,41.6875 0,43.6226501 0,46 C0,48.3773499 1.9351501,50.3125 4.3125,50.3125 C6.18377677,50.3125 7.76516728,49.1066283 8.36038213,47.4375 L17.25,47.4375 L17.25,44.5625 L8.36038213,44.5625 C7.76516728,42.8933717 6.18377677,41.6875 4.3125,41.6875 Z M4.3125,47.4375 C3.51934823,47.4375 2.875,46.7931518 2.875,46 C2.875,45.2068482 3.51934823,44.5625 4.3125,44.5625 C5.10565177,44.5625 5.75,45.2068482 5.75,46 C5.75,46.7931518 5.10565177,47.4375 4.3125,47.4375 Z" id="Shape" fill="#EA6148" fill-rule="nonzero"></path>
                <path d="M8.625,15.5478821 C10.2941283,14.9526673 11.5,13.3712768 11.5,11.5 C11.5,9.1226501 9.5648499,7.1875 7.1875,7.1875 C4.8101501,7.1875 2.875,9.1226501 2.875,11.5 C2.875,13.3712768 4.08087167,14.9526673 5.75,15.5478821 L5.75,31.625 C5.75,32.4202575 6.39224248,33.0625 7.1875,33.0625 L17.25,33.0625 L17.25,30.1875 L8.625,30.1875 L8.625,15.5478821 Z M7.1875,10.0625 C7.98065177,10.0625 8.625,10.7068482 8.625,11.5 C8.625,12.2931518 7.98065177,12.9375 7.1875,12.9375 C6.39434823,12.9375 5.75,12.2931518 5.75,11.5 C5.75,10.7068482 6.39434823,10.0625 7.1875,10.0625 Z" id="Shape" fill="#FCBF29" fill-rule="nonzero"></path>
                <path d="M5.75,60.375 L5.75,76.4521179 C4.08087167,77.0473327 2.875,78.6287232 2.875,80.5 C2.875,82.8773499 4.8101501,84.8125 7.1875,84.8125 C9.5648499,84.8125 11.5,82.8773499 11.5,80.5 C11.5,78.6287232 10.2941283,77.0473327 8.625,76.4521179 L8.625,61.8125 L17.25,61.8125 L17.25,58.9375 L7.1875,58.9375 C6.39224248,58.9375 5.75,59.5797425 5.75,60.375 Z M7.1875,81.9375 C6.39434823,81.9375 5.75,81.2931518 5.75,80.5 C5.75,79.7068482 6.39434823,79.0625 7.1875,79.0625 C7.98065177,79.0625 8.625,79.7068482 8.625,80.5 C8.625,81.2931518 7.98065177,81.9375 7.1875,81.9375 Z" id="Shape" fill="#FCBF29" fill-rule="nonzero"></path>
            </g>
        </g>
    </g>
</svg>