<?xml version="1.0" encoding="UTF-8"?>
<svg width="98px" height="84px" viewBox="0 0 98 84" version="1.1" xmlns="http://www.w3.org/2000/svg" xmlns:xlink="http://www.w3.org/1999/xlink">
    <!-- Generator: Sketch 53.1 (72631) - https://sketchapp.com -->
    <title>Group 2</title>
    <desc>Created with Sketch.</desc>
    <g id="Symbols" stroke="none" stroke-width="1" fill="none" fill-rule="evenodd">
        <g id="Services/Service/Icon/Mobile-Development" transform="translate(-1.000000, -4.000000)">
            <g id="Group-2" transform="translate(1.000000, 4.000000)">
                <g id="smartphone-(2)" transform="translate(11.000000, 0.000000)">
                    <path d="M74.390625,42 C74.390625,62.5426331 57.7379456,79.1953125 37.1953125,79.1953125 C16.6526794,79.1953125 0,62.5426331 0,42 C0,21.4573669 16.6526794,4.8046875 37.1953125,4.8046875 C57.7379456,4.8046875 74.390625,21.4573669 74.390625,42 Z" id="Path" fill="#FCBF29"></path>
                    <g id="Group" transform="translate(17.000000, 13.104839)" fill="#3877D8">
                        <rect id="Rectangle" x="0.111699387" y="0.130645161" width="41.7767301" height="11.1484415"></rect>
                        <rect id="Rectangle" x="0.111699387" y="47.5112359" width="41.7767301" height="11.1484415"></rect>
                    </g>
                    <g id="Group" transform="translate(17.000000, 13.104839)" fill="#428DFF">
                        <rect id="Rectangle" x="0.111699387" y="0.130645161" width="38.4785706" height="11.1484415"></rect>
                        <rect id="Rectangle" x="0.111699387" y="47.5112359" width="38.4785706" height="11.1484415"></rect>
                    </g>
                    <path d="M58.8883007,71.7645161 L58.8883006,77.3386552 C58.8885583,78.8170685 58.4253988,80.2352218 57.6006012,81.2807097 C56.7758037,82.3261976 55.657135,82.9132843 54.4906687,82.9129577 L21.5092025,82.9129577 C20.342865,82.9132843 19.2240675,82.3261976 18.3992699,81.2807097 C17.5744724,80.2352218 17.1113129,78.8172319 17.1115706,77.3386552 L17.1115704,71.7645161 L58.8883007,71.7645161 Z" id="Path" fill="#A4CFF2"></path>
                    <path d="M55.5901411,71.7645161 L55.5901411,77.3386552 C55.6826442,80.2941754 53.8711043,82.7872117 51.5397178,82.9127944 L21.1619939,82.9127944 C18.8307362,82.7872117 17.0190675,80.2940121 17.1115706,77.3386552 L17.1115706,71.7645161 L55.5901411,71.7645161 Z" id="Path" fill="#D3E6F8"></path>
                    <path d="M58.8883006,7.66134476 L58.8883009,13.2354839 L17.1116991,13.2354839 L17.1116994,7.66134476 C17.1113129,6.18276815 17.5746012,4.76477823 18.3993988,3.71929032 C19.2241963,2.67380242 20.3427362,2.08671573 21.5092025,2.08704234 L54.4907975,2.08704234 C55.657135,2.08655242 56.7759325,2.67380242 57.6007301,3.71929032 C58.4255276,4.76477823 58.8886871,6.18276815 58.8883006,7.66134476 Z" id="Path" fill="#A4CFF2"></path>
                    <g id="Group" transform="translate(17.000000, 2.000000)" fill="#D3E6F8">
                        <path d="M38.5901411,5.66134476 L38.5901411,11.2354839 L0.111699387,11.2354839 L0.111699387,5.66134476 C0.0190674847,2.7058246 1.8307362,0.212625 4.16199387,0.0870423387 L34.5397178,0.0870423387 C36.8711043,0.212625 38.682773,2.7058246 38.5901411,5.66134476 Z" id="Path"></path>
                        <rect id="Rectangle" x="0.111699387" y="22.3839254" width="8.79513497" height="36.2323125"></rect>
                        <rect id="Rectangle" x="8.90670552" y="22.3839254" width="32.9815951" height="36.2323125"></rect>
                    </g>
                    <rect id="Rectangle" fill="#D3E6F8" x="25.9067055" y="24.3839254" width="29.6834356" height="36.2323125"></rect>
                    <path d="M54.4678363,84 C57.4980468,83.9954062 59.9535556,80.8641094 59.9571579,76.9999453 L59.9571579,7.00005469 C59.9535556,3.13589062 57.4980468,0.00459375 54.4678363,0 L21.5321637,0 C18.5019532,0.00459375 16.0464444,3.13589062 16.0428421,7.00005469 L16.0428421,77.0001094 C16.0464444,80.8641094 18.5019532,83.9954062 21.5321637,84 L54.4678363,84 Z M18.2385965,58.8 L18.2385965,25.2 L24.825731,25.2 L24.825731,58.8 L18.2385965,58.8 Z M27.0214854,25.2 L57.7614035,25.2 L57.7614035,58.8 L27.0214854,58.8 L27.0214854,25.2 Z M57.7614035,22.3999453 L18.2385965,22.3999453 L18.2385965,13.9999453 L57.7614035,13.9999453 L57.7614035,22.3999453 Z M18.2385965,61.6000547 L57.7614035,61.6000547 L57.7614035,70.0000547 L18.2385965,70.0000547 L18.2385965,61.6000547 Z M21.5321637,2.80005469 L54.4678363,2.80005469 C56.2859883,2.80251562 57.7594737,4.68152344 57.7614035,7.00005469 L57.7614035,11.2000547 L18.2385965,11.2000547 L18.2385965,7.00005469 C18.2405263,4.68152344 19.7140117,2.80251562 21.5321637,2.80005469 Z M18.2385965,76.9999453 L18.2385965,72.7999453 L57.7614035,72.7999453 L57.7614035,76.9999453 C57.7594737,79.3184766 56.2859883,81.1974844 54.4678363,81.1999453 L21.5321637,81.1999453 C19.7140117,81.1974844 18.2405263,79.3184766 18.2385965,76.9999453 Z" id="Shape" fill="#003366" fill-rule="nonzero"></path>
                    <path d="M35.8042456,78.4000547 L40.1956257,78.4000547 C40.8019766,78.4000547 41.2934386,77.7731719 41.2934386,77.0001094 C41.2934386,76.2268828 40.8019766,75.6001641 40.1956257,75.6001641 L35.8042456,75.6001641 C35.1978947,75.6001641 34.7064327,76.2270469 34.7064327,77.0001094 C34.7064327,77.7731719 35.1980234,78.4000547 35.8042456,78.4000547 Z" id="Path" fill="#A4CFF2"></path>
                    <path d="M36.9021871,8.4 L39.0979415,8.4 C39.7042924,8.4 40.1957544,7.77311719 40.1957544,7.00005469 C40.1957544,6.22699219 39.7042924,5.60010937 39.0979415,5.60010937 L36.9021871,5.60010937 C36.2958363,5.60010937 35.8043743,6.22699219 35.8043743,7.00005469 C35.8043743,7.77311719 36.2958363,8.4 36.9021871,8.4 Z" id="Path" fill="#A4CFF2"></path>
                    <path d="M21.5321637,19.6000547 L23.7279181,19.6000547 C24.334269,19.6000547 24.825731,18.9731719 24.825731,18.2001094 C24.825731,17.4268828 24.334269,16.8001641 23.7279181,16.8001641 L21.5321637,16.8001641 C20.9258129,16.8001641 20.4343509,17.4270469 20.4343509,18.2001094 C20.4343509,18.9731719 20.9258129,19.6000547 21.5321637,19.6000547 Z" id="Path" fill="#07519D"></path>
                    <path d="M52.2720819,19.6000547 L54.4678363,19.6000547 C55.0741871,19.6000547 55.5656491,18.9731719 55.5656491,18.2001094 C55.5656491,17.4268828 55.0741871,16.8001641 54.4678363,16.8001641 L52.2720819,16.8001641 C51.665731,16.8001641 51.174269,17.4270469 51.174269,18.2001094 C51.174269,18.9731719 51.6658596,19.6000547 52.2720819,19.6000547 Z" id="Path" fill="#07519D"></path>
                    <path d="M33.6086199,19.6000547 L42.3915088,19.6000547 C42.9978596,19.6000547 43.4893216,18.9731719 43.4893216,18.2001094 C43.4893216,17.4268828 42.997731,16.8001641 42.3915088,16.8001641 L33.6086199,16.8001641 C33.002269,16.8001641 32.510807,17.4270469 32.510807,18.2001094 C32.5106784,18.9731719 33.002269,19.6000547 33.6086199,19.6000547 Z" id="Path" fill="#07519D"></path>
                    <path d="M39.0099415,65.2675078 C38.9857544,65.1784219 38.9523041,65.0939297 38.9107485,65.016 C38.8706082,64.9425 38.8267368,64.8722813 38.7793918,64.8061641 C38.3392632,64.2880547 37.6607368,64.2880547 37.2204795,64.8061641 C37.1730058,64.8724453 37.1290058,64.9425 37.0886082,65.016 C37.0470526,65.0939297 37.013731,65.1785859 36.9894152,65.2675078 C36.9577661,65.3469141 36.9357661,65.4318984 36.9240585,65.5198359 C36.9117076,65.6125313 36.9043743,65.7062109 36.9020585,65.8002188 C36.9061754,66.1708359 37.0199064,66.5258672 37.2204795,66.7942734 C37.3272632,66.9176484 37.449614,67.0170703 37.582386,67.0882734 C37.8483158,67.2377344 38.1511696,67.2377344 38.4169708,67.0882734 C38.5498713,67.0170703 38.6724795,66.9176484 38.7793918,66.7942734 C38.9797076,66.5257031 39.0934386,66.1708359 39.0978129,65.8002188 C39.0952398,65.7062109 39.0879064,65.6126953 39.0758129,65.52 C39.0637193,65.4320625 39.041462,65.3470781 39.0099415,65.2675078 Z" id="Path" fill="#07519D"></path>
                    <path d="M32.8290994,64.806 C32.7852281,64.8757266 32.7412281,64.9454531 32.6972281,65.0158359 C32.6556725,65.0937656 32.6223509,65.1784219 32.5980351,65.2673438 C32.566386,65.34675 32.544386,65.4317344 32.5326784,65.5196719 C32.5203275,65.6123672 32.5129942,65.7060469 32.5106784,65.8000547 C32.5124795,66.3660703 32.7803392,66.8756484 33.1902339,67.0927031 C33.6002573,67.3097578 34.0722924,67.192125 34.3880117,66.7941094 C34.8125731,66.2420391 34.8125731,65.3582344 34.3880117,64.8061641 C33.947883,64.2878906 33.2693567,64.2877266 32.8290994,64.806 Z" id="Path" fill="#07519D"></path>
                    <path d="M43.4673216,65.5196719 C43.4550994,65.4318984 43.4328421,65.3469141 43.4014503,65.2673437 C43.3772632,65.1782578 43.3438129,65.0937656 43.3022573,65.0158359 C43.2587719,64.9454531 43.2149006,64.8757266 43.1709006,64.806 C42.7307719,64.2878906 42.0522456,64.2878906 41.6119883,64.806 C41.1874269,65.3580703 41.1874269,66.241875 41.6119883,66.7939453 C41.9260351,67.1977031 42.4005146,67.3191094 42.8123392,67.1009062 C43.2242924,66.8828672 43.4917661,66.3686953 43.489193,65.7998906 C43.4867485,65.7060469 43.4794152,65.6123672 43.4673216,65.5196719 Z" id="Path" fill="#07519D"></path>
                    <path d="M20.7526433,31.794 C20.8574971,31.9204922 20.9803626,32.0202422 21.1145497,32.088 C21.3804795,32.2374609 21.6833333,32.2374609 21.9491345,32.088 C22.0834503,32.0200781 22.2063158,31.9203281 22.3115556,31.794 C22.4083041,31.6576641 22.486269,31.5014766 22.5421053,31.3318359 C22.5984561,31.1635078 22.6283041,30.982875 22.6299766,30.7999453 C22.625731,30.4293281 22.512,30.0744609 22.3115556,29.8058906 C22.2047719,29.6821875 22.0822924,29.5824375 21.9491345,29.5112344 C21.6816608,29.3717812 21.3818947,29.3717812 21.1145497,29.5112344 C20.9816491,29.5824375 20.8591696,29.6820234 20.7526433,29.8058906 C20.7087719,29.8756172 20.6647719,29.9453437 20.6207719,30.0157266 C20.5792164,30.0936562 20.5458947,30.1783125 20.5215789,30.2672344 C20.4899298,30.3466406 20.4679298,30.431625 20.4562222,30.5195625 C20.4433567,30.6120937 20.4360234,30.7059375 20.4343509,30.7999453 C20.4358947,30.982875 20.465614,31.1635078 20.5217076,31.3318359 C20.5775439,31.5014766 20.6556374,31.6578281 20.7526433,31.794 Z" id="Path" fill="#E3493B"></path>
                    <path d="M22.5421053,35.8675078 C22.5179181,35.7784219 22.4844678,35.6939297 22.4429123,35.616 C22.4027719,35.5425 22.3589006,35.4722812 22.3115556,35.4061641 C21.8714269,34.8880547 21.1929006,34.8880547 20.7526433,35.4061641 C20.550269,35.6729297 20.4362807,36.0289453 20.4342222,36.4002187 C20.4357661,36.5831484 20.4654854,36.7637812 20.5215789,36.9321094 C20.5774152,37.10175 20.6555088,37.2581016 20.7526433,37.3942734 C20.9631228,37.6498828 21.2415322,37.79475 21.5321637,37.8003281 C21.8231813,37.797375 22.1022339,37.6520156 22.3116842,37.3942734 C22.4084327,37.2579375 22.4863977,37.10175 22.5422339,36.9321094 C22.603731,36.7660781 22.6338363,36.5838047 22.6301053,36.4002187 C22.6281754,36.3062109 22.6208421,36.2125312 22.6081053,36.12 C22.595883,36.0320625 22.5736257,35.9470781 22.5421053,35.8675078 Z" id="Path" fill="#EEBA4C"></path>
                    <path d="M22.3116842,41.0059453 C22.0451111,40.6833984 21.6738129,40.5429609 21.3124211,40.6279453 C21.2435906,40.642875 21.1769474,40.6710937 21.1145497,40.7112891 C21.0471345,40.7395078 20.9840936,40.7823281 20.928,40.8377812 C20.862,40.8937266 20.8074503,40.9498359 20.7526433,41.0059453 C20.6556374,41.1417891 20.5774152,41.2979766 20.5215789,41.4674531 C20.4653567,41.6359453 20.4356374,41.8169062 20.4342222,42 C20.4383392,42.3706172 20.5520702,42.7256484 20.7526433,42.9940547 C20.9620936,43.2517969 21.2411462,43.3971562 21.5321637,43.4001094 C21.675614,43.3978125 21.8172632,43.35975 21.9492632,43.2880547 C22.0848655,43.2234141 22.2082456,43.1231719 22.3116842,42.9940547 C22.512,42.7254844 22.625731,42.3707812 22.6301053,42.0001641 C22.6284327,41.8170703 22.5985848,41.6361094 22.5422339,41.4676172 C22.486269,41.2981406 22.4083041,41.1421172 22.3116842,41.0059453 Z" id="Path" fill="#E3493B"></path>
                    <path d="M22.5421053,47.0675625 C22.5179181,46.9784766 22.4844678,46.8939844 22.4429123,46.8160547 C22.3995556,46.7456719 22.3555556,46.6759453 22.3115556,46.6062187 C21.8714269,46.0881094 21.1929006,46.0881094 20.7526433,46.6062187 C20.550269,46.8729844 20.4362807,47.229 20.4342222,47.6001094 C20.4357661,47.7830391 20.4654854,47.9636719 20.5215789,48.132 C20.5748421,48.3034453 20.653193,48.4602891 20.7526433,48.5941641 C20.8046199,48.6545391 20.8595556,48.7104844 20.917193,48.7616719 C20.9783041,48.8146641 21.0446901,48.8571562 21.1144211,48.8881641 C21.1768187,48.9283594 21.243462,48.9567422 21.3122924,48.9723281 C21.4571579,49.0097344 21.6063977,49.0097344 21.7512632,48.9723281 C21.8200936,48.9567422 21.8867368,48.9283594 21.9491345,48.8881641 C22.0166784,48.8602734 22.0797193,48.8174531 22.1356842,48.7616719 C22.1987251,48.7139297 22.2577778,48.6578203 22.3115556,48.5941641 C22.4106199,48.460125 22.4888421,48.3032812 22.5421053,48.132 C22.6036023,47.9659687 22.6337076,47.7836953 22.6299766,47.6001094 C22.6280468,47.5061016 22.6207135,47.4124219 22.6079766,47.3198906 C22.595883,47.2319531 22.5736257,47.1469687 22.5421053,47.0675625 Z" id="Path" fill="#EEBA4C"></path>
                    <path d="M22.5421053,52.6675078 C22.5179181,52.5784219 22.4844678,52.4939297 22.4429123,52.416 C22.3995556,52.3456172 22.3555556,52.2758906 22.3115556,52.2061641 C21.8714269,51.6880547 21.1929006,51.6880547 20.7526433,52.2061641 C20.7087719,52.2758906 20.6647719,52.3456172 20.6207719,52.416 C20.5792164,52.4939297 20.5458947,52.5785859 20.5215789,52.6675078 C20.4899298,52.7469141 20.4679298,52.8318984 20.4562222,52.9198359 C20.4268889,53.1045703 20.4268889,53.2948828 20.4562222,53.4797812 C20.4679298,53.5675547 20.4900585,53.6525391 20.5215789,53.7321094 C20.5456374,53.8213594 20.5790877,53.9063437 20.6207719,53.9844375 C20.6646433,54.0541641 20.7086433,54.1238906 20.7526433,54.1942734 C20.8594269,54.3176484 20.9817778,54.4170703 21.1145497,54.4882734 C21.3804795,54.6377344 21.6833333,54.6377344 21.9491345,54.4882734 C22.0834503,54.4203516 22.2063158,54.3206016 22.3115556,54.1942734 C22.3554269,54.1238906 22.3994269,54.0541641 22.4429123,53.9844375 C22.4845965,53.9063437 22.5179181,53.8215234 22.5421053,53.7321094 C22.5736257,53.6525391 22.595883,53.5675547 22.6081053,53.4797812 C22.6374386,53.2950469 22.6374386,53.1047344 22.6081053,52.9198359 C22.595883,52.8320625 22.5736257,52.7470781 22.5421053,52.6675078 Z" id="Path" fill="#E3493B"></path>
                    <path d="M30.3150526,32.2000547 L33.6086199,32.2000547 C34.2149708,32.2000547 34.7064327,31.5731719 34.7064327,30.8001094 C34.7064327,30.0268828 34.2148421,29.4001641 33.6086199,29.4001641 L30.3150526,29.4001641 C29.7087018,29.4001641 29.2172398,30.0270469 29.2172398,30.8001094 C29.2171111,31.5731719 29.7087018,32.2000547 30.3150526,32.2000547 Z" id="Path" fill="#D75E72"></path>
                    <path d="M38,32.2000547 L41.2935673,32.2000547 C41.8999181,32.2000547 42.3913801,31.5731719 42.3913801,30.8001094 C42.3913801,30.0268828 41.8997895,29.4001641 41.2935673,29.4001641 L38,29.4001641 C37.3936491,29.4001641 36.9021871,30.0270469 36.9021871,30.8001094 C36.9021871,31.5731719 37.3936491,32.2000547 38,32.2000547 Z" id="Path" fill="#07519D"></path>
                    <path d="M45.6849474,32.2000547 L47.8807018,32.2000547 C48.4870526,32.2000547 48.9785146,31.5731719 48.9785146,30.8001094 C48.9785146,30.0268828 48.4870526,29.4001641 47.8807018,29.4001641 L45.6849474,29.4001641 C45.0785965,29.4001641 44.5871345,30.0270469 44.5871345,30.8001094 C44.5871345,31.5731719 45.0787251,32.2000547 45.6849474,32.2000547 Z" id="Path" fill="#F29C1F"></path>
                    <path d="M52.2720819,32.2000547 L54.4678363,32.2000547 C55.0741871,32.2000547 55.5656491,31.5731719 55.5656491,30.8001094 C55.5656491,30.0268828 55.0741871,29.4001641 54.4678363,29.4001641 L52.2720819,29.4001641 C51.665731,29.4001641 51.174269,30.0270469 51.174269,30.8001094 C51.174269,31.5731719 51.6658596,32.2000547 52.2720819,32.2000547 Z" id="Path" fill="#D75E72"></path>
                    <path d="M30.3150526,37.8 L31.4128655,37.8 C32.0192164,37.8 32.5106784,37.1731172 32.5106784,36.4000547 C32.5106784,35.6268281 32.0190877,35.0001094 31.4128655,35.0001094 L30.3150526,35.0001094 C29.7087018,35.0001094 29.2172398,35.6269922 29.2172398,36.4000547 C29.2171111,37.1731172 29.7087018,37.8 30.3150526,37.8 Z" id="Path" fill="#07519D"></path>
                    <path d="M35.8042456,37.8 L38,37.8 C38.6063509,37.8 39.0978129,37.1731172 39.0978129,36.4000547 C39.0978129,35.6268281 38.6062222,35.0001094 38,35.0001094 L35.8042456,35.0001094 C35.1978947,35.0001094 34.7064327,35.6269922 34.7064327,36.4000547 C34.7064327,37.1731172 35.1980234,37.8 35.8042456,37.8 Z" id="Path" fill="#F29C1F"></path>
                    <path d="M41.2935673,36.4000547 C41.2935673,37.1732812 41.7851579,37.8 42.3913801,37.8 L44.5871345,37.8 C45.1934854,37.8 45.6849474,37.1731172 45.6849474,36.4000547 C45.6849474,35.6268281 45.1934854,35.0001094 44.5871345,35.0001094 L42.3913801,35.0001094 C41.7851579,34.9999453 41.2935673,35.6268281 41.2935673,36.4000547 Z" id="Path" fill="#07519D"></path>
                    <path d="M54.4678363,34.9999453 L48.9785146,34.9999453 C48.3721637,34.9999453 47.8807018,35.6268281 47.8807018,36.3998906 C47.8807018,37.1731172 48.3721637,37.7998359 48.9785146,37.7998359 L54.4678363,37.7998359 C55.0741871,37.7998359 55.5656491,37.1729531 55.5656491,36.3998906 C55.5656491,35.6268281 55.0741871,34.9999453 54.4678363,34.9999453 Z" id="Path" fill="#D75E72"></path>
                    <path d="M30.3150526,43.3999453 L35.8043743,43.3999453 C36.4107251,43.3999453 36.9021871,42.7730625 36.9021871,42 C36.9021871,41.2267734 36.4105965,40.6000547 35.8043743,40.6000547 L30.3150526,40.6000547 C29.7087018,40.6000547 29.2172398,41.2269375 29.2172398,42 C29.2171111,42.7732266 29.7087018,43.3999453 30.3150526,43.3999453 Z" id="Path" fill="#D75E72"></path>
                    <path d="M40.1957544,40.6000547 C39.5894035,40.6000547 39.0979415,41.2269375 39.0979415,42 C39.0979415,42.7732266 39.5894035,43.3999453 40.1957544,43.3999453 L41.2935673,43.3999453 C41.8999181,43.3999453 42.3913801,42.7730625 42.3913801,42 C42.3913801,41.2267734 41.8997895,40.6000547 41.2935673,40.6000547 L40.1957544,40.6000547 Z" id="Path" fill="#07519D"></path>
                    <path d="M44.5871345,42 C44.5871345,42.7732266 45.0787251,43.3999453 45.6849474,43.3999453 L48.9785146,43.3999453 C49.5848655,43.3999453 50.0763275,42.7730625 50.0763275,42 C50.0763275,41.2267734 49.5847368,40.6000547 48.9785146,40.6000547 L45.6849474,40.6000547 C45.0787251,40.6000547 44.5871345,41.2267734 44.5871345,42 Z" id="Path" fill="#F29C1F"></path>
                    <path d="M54.4678363,40.6000547 L53.3700234,40.6000547 C52.7636725,40.6000547 52.2722105,41.2269375 52.2722105,42 C52.2722105,42.7732266 52.7638012,43.3999453 53.3700234,43.3999453 L54.4678363,43.3999453 C55.0741871,43.3999453 55.5656491,42.7730625 55.5656491,42 C55.5656491,41.2267734 55.0741871,40.6000547 54.4678363,40.6000547 Z" id="Path" fill="#07519D"></path>
                    <path d="M30.3150526,49.0000547 L31.4128655,49.0000547 C32.0192164,49.0000547 32.5106784,48.3731719 32.5106784,47.6001094 C32.5106784,46.8268828 32.0190877,46.2001641 31.4128655,46.2001641 L30.3150526,46.2001641 C29.7087018,46.2001641 29.2172398,46.8270469 29.2172398,47.6001094 C29.2171111,48.3731719 29.7087018,49.0000547 30.3150526,49.0000547 Z" id="Path" fill="#D75E72"></path>
                    <path d="M42.3913801,47.5999453 C42.3913801,46.8267187 41.8997895,46.2 41.2935673,46.2 L35.8042456,46.2 C35.1978947,46.2 34.7064327,46.8268828 34.7064327,47.5999453 C34.7064327,48.3731719 35.1980234,48.9998906 35.8042456,48.9998906 L41.2935673,48.9998906 C41.8999181,49.0000547 42.3913801,48.3731719 42.3913801,47.5999453 Z" id="Path" fill="#07519D"></path>
                    <path d="M50.0764561,46.2 L45.685076,46.2 C45.0787251,46.2 44.5872632,46.8268828 44.5872632,47.5999453 C44.5872632,48.3731719 45.0788538,48.9998906 45.685076,48.9998906 L50.0764561,48.9998906 C50.682807,48.9998906 51.174269,48.3730078 51.174269,47.5999453 C51.174269,46.8268828 50.6826784,46.2 50.0764561,46.2 Z" id="Path" fill="#D75E72"></path>
                    <path d="M55.0826784,46.4378906 C55.0214386,46.3847344 54.954924,46.3422422 54.884807,46.3113984 C54.822538,46.2710391 54.7558947,46.2429844 54.6869357,46.2280547 C54.4729825,46.1709609 54.2504094,46.2 54.0500936,46.3113984 C53.6323509,46.5141797 53.3599883,47.0301563 53.3698947,47.5999453 C53.3714386,47.782875 53.4011579,47.9635078 53.4572515,48.1318359 C53.5105146,48.3032813 53.5888655,48.460125 53.6883158,48.594 C53.8987953,48.8496094 54.1772047,48.9944766 54.4678363,49.0000547 C54.5412982,48.9974297 54.6146316,48.9880781 54.6870643,48.972 C54.7558947,48.9564141 54.822538,48.9280312 54.8849357,48.888 C54.954924,48.8573203 55.0215673,48.8146641 55.082807,48.7615078 C55.1403158,48.7099922 55.1952515,48.6540469 55.2473567,48.594 C55.3464211,48.4599609 55.4246433,48.3031172 55.4779064,48.1318359 C55.5341287,47.9635078 55.5639766,47.782875 55.5657778,47.5999453 C55.563462,47.2288359 55.4494737,46.8729844 55.2473567,46.6058906 C55.1920351,46.5499453 55.1373567,46.494 55.0826784,46.4378906 Z" id="Path" fill="#F29C1F"></path>
                    <path d="M34.7064327,51.7999453 L30.3150526,51.7999453 C29.7087018,51.7999453 29.2172398,52.4268281 29.2172398,53.1998906 C29.2172398,53.9729531 29.7088304,54.5998359 30.3150526,54.5998359 L34.7064327,54.5998359 C35.3127836,54.5998359 35.8042456,53.9731172 35.8042456,53.1998906 C35.8042456,52.4266641 35.3127836,51.7999453 34.7064327,51.7999453 Z" id="Path" fill="#07519D"></path>
                    <path d="M43.4893216,51.7999453 L39.0979415,51.7999453 C38.4915906,51.7999453 38.0001287,52.4268281 38.0001287,53.1998906 C38.0001287,53.9729531 38.4917193,54.5998359 39.0979415,54.5998359 L43.4893216,54.5998359 C44.0956725,54.5998359 44.5871345,53.9731172 44.5871345,53.1998906 C44.5871345,52.4266641 44.0956725,51.7999453 43.4893216,51.7999453 Z" id="Path" fill="#D75E72"></path>
                    <path d="M48.8906433,52.6675078 C48.8664561,52.5784219 48.8330058,52.4939297 48.7914503,52.416 C48.7480936,52.3456172 48.7040936,52.2758906 48.6600936,52.2061641 C48.6049006,52.1502188 48.5502222,52.0941094 48.4955439,52.038 C48.4343041,51.9848438 48.3677895,51.9423516 48.2976725,51.9115078 C48.2354035,51.8711484 48.1687602,51.8430938 48.0998012,51.8281641 C47.9553216,51.7858359 47.8051813,51.7858359 47.6608304,51.8281641 C47.592,51.8430938 47.5253567,51.8713125 47.4629591,51.9115078 C47.3930994,51.9423516 47.3268421,51.9850078 47.265731,52.038 C47.210538,52.0939453 47.1558596,52.1500547 47.1011813,52.2061641 C46.8227719,52.5613594 46.7139298,53.0788125 46.8158246,53.5639453 C46.9177193,54.0490781 47.2149123,54.4278984 47.595345,54.558 C47.9757778,54.6879375 48.3816842,54.5493047 48.6600936,54.1941094 C48.7039649,54.1237266 48.7479649,54.054 48.7914503,53.9842734 C48.8331345,53.9061797 48.8664561,53.8213594 48.8906433,53.7319453 C48.9221637,53.652375 48.9444211,53.5673906 48.9566433,53.4796172 C48.9859766,53.2948828 48.9859766,53.1045703 48.9566433,52.9198359 C48.9444211,52.8320625 48.9221637,52.7470781 48.8906433,52.6675078 Z" id="Path" fill="#F29C1F"></path>
                    <path d="M54.4678363,51.7999453 L52.2720819,51.7999453 C51.665731,51.7999453 51.174269,52.4268281 51.174269,53.1998906 C51.174269,53.9729531 51.665731,54.5998359 52.2720819,54.5998359 L54.4678363,54.5998359 C55.0741871,54.5998359 55.5656491,53.9731172 55.5656491,53.1998906 C55.5656491,52.4266641 55.0741871,51.7999453 54.4678363,51.7999453 Z" id="Path" fill="#07519D"></path>
                </g>
                <g id="Group-2-Copy-2" transform="translate(0.000000, 13.000000)">
                    <g id="Group-3">
                        <rect id="Rectangle" fill="#A4CFF2" x="0" y="0" width="38" height="28"></rect>
                        <path d="M12.2645344,16.8 L6.2327354,12.3789957 C5.56617976,11.8912045 5.43208284,10.9672057 5.93106004,10.3158158 C6.01698456,10.2038008 6.11811243,10.1051408 6.2327354,10.0210043 L12.2645344,5.6 L14.0740741,7.95782445 L9.65126729,11.1999165 L14.0740741,14.4420086 L12.2645344,16.8 Z" id="Path" fill="#07519D"></path>
                        <path d="M25.7354656,16.8 L23.9259259,14.4421404 L28.3487327,11.2 L23.9259259,7.95785959 L25.7354656,5.6 L31.7672646,10.0210702 C32.4338202,10.5088687 32.5679172,11.4328812 32.06894,12.0842808 C31.9830154,12.1962975 31.8818876,12.294959 31.7672646,12.3790967 L25.7354656,16.8 Z" id="Path" fill="#07519D"></path>
                        <polygon id="Rectangle" fill="#07519D" transform="translate(18.618951, 11.317367) rotate(111.808857) translate(-18.618951, -11.317367) " points="10.8614466 9.80210473 26.3559981 9.91226955 26.3764563 12.8326293 10.8819048 12.7224644"></polygon>
                        <rect id="Rectangle" fill="#07519D" x="5.62962963" y="21" width="2.81481481" height="2.8"></rect>
                        <rect id="Rectangle" fill="#07519D" x="11.2592593" y="21" width="2.81481481" height="2.8"></rect>
                        <rect id="Rectangle" fill="#07519D" x="18.2962963" y="21" width="2.81481481" height="2.8"></rect>
                        <rect id="Rectangle" fill="#07519D" x="22.5185185" y="21" width="2.81481481" height="2.8"></rect>
                        <rect id="Rectangle" fill="#07519D" x="28.1481481" y="21" width="2.81481481" height="2.8"></rect>
                    </g>
                    <g id="Group-4" transform="translate(60.000000, 33.000000)">
                        <rect id="Rectangle" fill="#A4CFF2" x="0" y="0" width="38" height="28"></rect>
                        <rect id="Rectangle" fill="#07519D" x="15.4814815" y="4.2" width="2.81481481" height="2.8"></rect>
                        <rect id="Rectangle" fill="#07519D" x="22.8882981" y="4.2" width="12.3529128" height="2.8"></rect>
                        <rect id="Rectangle" fill="#07519D" x="16.7118417" y="9.8" width="18.5293692" height="2.8"></rect>
                        <rect id="Rectangle" fill="#07519D" x="2.81481481" y="15.4" width="32.4263961" height="2.8"></rect>
                        <rect id="Rectangle" fill="#07519D" x="2.81481481" y="21" width="26.2499397" height="2.8"></rect>
                        <path d="M11.2592061,12.6 L5.62968277,12.6 C4.85277348,12.6 4.22222222,11.9727674 4.22222222,11.1999471 L4.22222222,5.60005286 C4.22222222,4.82723256 4.85277348,4.2 5.62968277,4.2 L11.2592061,4.2 C12.0361154,4.2 12.6666667,4.82723256 12.6666667,5.60005286 L12.6666667,11.1999471 C12.6666667,11.9727674 12.0361154,12.6 11.2592061,12.6 Z M7.03714332,9.80005286 L9.851905,9.80005286 L9.851905,7.00010573 L7.03714332,7.00010573 L7.03714332,9.80005286 Z" id="Shape" fill="#07519D" fill-rule="nonzero"></path>
                    </g>
                </g>
            </g>
        </g>
    </g>
</svg>