<?xml version="1.0" encoding="UTF-8"?>
<svg width="75px" height="92px" viewBox="0 0 75 92" version="1.1" xmlns="http://www.w3.org/2000/svg" xmlns:xlink="http://www.w3.org/1999/xlink">
    <!-- Generator: Sketch 53.1 (72631) - https://sketchapp.com -->
    <title>robot</title>
    <desc>Created with Sketch.</desc>
    <g id="Symbols" stroke="none" stroke-width="1" fill="none" fill-rule="evenodd">
        <g id="Services/Service/Icon/Bot-development" transform="translate(-12.000000, 0.000000)">
            <g id="robot" transform="translate(12.000000, 0.000000)">
                <path d="M74.390625,46 C74.390625,66.5426331 57.7379456,83.1953125 37.1953125,83.1953125 C16.6526794,83.1953125 0,66.5426331 0,46 C0,25.4573669 16.6526794,8.8046875 37.1953125,8.8046875 C57.7379456,8.8046875 74.390625,25.4573669 74.390625,46 Z" id="Path" fill="#FCBF29"></path>
                <path d="M59.8974915,90.9450378 L16.4931335,90.9464417 L16.4931335,53.1875 C16.4931335,50.8276978 18.4058228,48.9143066 20.7663269,48.9143066 L55.6242981,48.9143066 C57.9848022,48.9143066 59.8974915,50.8276978 59.8974915,53.1875 L59.8974915,90.9450378 Z" id="Path" fill="#D3E6F8"></path>
                <path d="M55.6242981,48.9143066 L51.3096924,48.9143066 C53.6694947,48.9143066 55.5828857,50.8276978 55.5828857,53.1875 L55.5828857,90.9450378 L16.4931335,90.9464417 L16.4931335,90.9471436 L59.8974915,90.9457397 L59.8974915,53.1875 C59.8974915,50.8276978 57.9848022,48.9143066 55.6242981,48.9143066 L55.6242981,48.9143066 Z" id="Path" fill="#A4CFF2"></path>
                <path d="M49.735321,90.6235657 L26.655304,90.6235657 C25.5638428,90.6235657 24.6710205,89.7307435 24.6710205,88.6392822 L24.6710205,62.906067 C24.6710205,61.8146058 25.5638428,60.9217835 26.655304,60.9217835 L49.735321,60.9217835 C50.8267822,60.9217835 51.7196045,61.8146058 51.7196045,62.906067 L51.7196045,88.6399841 C51.7196045,89.7307435 50.8267822,90.6235657 49.735321,90.6235657 L49.735321,90.6235657 Z" id="Path" fill="#EA6148"></path>
                <path d="M55.5786744,42.0707397 L20.8119506,42.0707397 C18.4732057,42.0707397 16.5780639,40.1748962 16.5780639,37.8368529 L16.5780639,12.7114869 C16.5780639,10.3734436 18.4732057,8.47760019 20.8119506,8.47760019 L55.5786744,8.47760019 C57.9174193,8.47760019 59.8125611,10.3734436 59.8125611,12.7114869 L59.8125611,37.8368529 C59.8125611,40.1748962 57.9174193,42.0707397 55.5786744,42.0707397 Z" id="Path" fill="#D3E6F8"></path>
                <path d="M55.5786744,8.47760019 L51.2640686,8.47760019 C53.6021119,8.47760019 55.4972533,10.3734436 55.4972533,12.7114869 L55.4972533,37.8368529 C55.4972533,40.1748962 53.6021119,42.0707397 51.2640686,42.0707397 L55.5786744,42.0707397 C57.9174193,42.0707397 59.8125611,40.1748962 59.8125611,37.8368529 L59.8125611,12.7114869 C59.8125611,10.3734436 57.9174193,8.47760019 55.5786744,8.47760019 L55.5786744,8.47760019 Z" id="Path" fill="#A4CFF2"></path>
                <path d="M49.2931214,35.8378295 L27.0975036,35.8378295 C25.7224732,35.8378295 24.607849,36.9524537 24.607849,38.3274841 L24.607849,41.782959 L51.782776,41.782959 L51.782776,38.3274841 C51.782776,36.9524537 50.6681518,35.8378295 49.2931214,35.8378295 L49.2931214,35.8378295 Z" id="Path" fill="#A4CFF2"></path>
                <path d="M49.2931214,35.8378295 L44.9778138,35.8378295 C46.3535462,35.8378295 47.4681702,36.9524537 47.4681702,38.3274841 L47.4681702,41.782959 L51.782776,41.782959 L51.782776,38.3274841 C51.782776,36.9524537 50.6681518,35.8378295 49.2931214,35.8378295 L49.2931214,35.8378295 Z" id="Path" fill="#7BABF1"></path>
                <path d="M51.782776,42.8365173 L24.607849,42.8365173 C24.0259704,42.8365173 23.5542907,42.3648376 23.5542907,41.782959 L23.5542907,38.3274841 C23.5542907,36.3740846 25.1434021,34.7842712 27.0975036,34.7842712 L49.2931214,34.7842712 C51.2472229,34.7842712 52.8363343,36.3740846 52.8363343,38.3274841 L52.8363343,41.782959 C52.8363343,42.3648376 52.3646546,42.8365173 51.782776,42.8365173 Z M25.6607057,40.7301025 L50.7299193,40.7301025 L50.7299193,38.3281861 C50.7299193,37.535736 50.0855713,36.891388 49.2931214,36.891388 L27.0975036,36.891388 C26.3050537,36.891388 25.6607057,37.535736 25.6607057,38.3281861 L25.6607057,40.7301025 Z" id="Shape" fill="#003366" fill-rule="nonzero"></path>
                <path d="M63.5867005,32.842804 L59.8125611,32.842804 L59.8125611,17.7055358 L63.5867005,17.7055358 C64.7308044,17.7055358 65.658722,18.6334534 65.658722,19.7775573 L65.658722,30.7707825 C65.658722,31.9148864 64.7308044,32.842804 63.5867005,32.842804 L63.5867005,32.842804 Z" id="Path" fill="#7BABF1"></path>
                <path d="M55.0613708,25.2741699 C55.0613708,28.7401732 52.2516479,31.5498962 48.7856445,31.5498962 C45.3203431,31.5498962 42.5106201,28.7401732 42.5106201,25.2741699 C42.5106201,21.8081666 45.3203431,18.9984436 48.7856445,18.9984436 C52.2516479,18.9984436 55.0613708,21.8081666 55.0613708,25.2741699 L55.0613708,25.2741699 Z" id="Path" fill="#EA6148"></path>
                <path d="M12.8039245,32.842804 L16.5780639,32.842804 L16.5780639,17.7055358 L12.8039245,17.7055358 C11.6598206,17.7055358 10.731903,18.6334534 10.731903,19.7775573 L10.731903,30.7707825 C10.731903,31.9148864 11.6598206,32.842804 12.8039245,32.842804 Z" id="Path" fill="#A4CFF2"></path>
                <path d="M33.8800049,25.2741699 C33.8800049,28.7401732 31.0702819,31.5498962 27.6049805,31.5498962 C24.1389771,31.5498962 21.3292542,28.7401732 21.3292542,25.2741699 C21.3292542,21.8081666 24.1389771,18.9984436 27.6049805,18.9984436 C31.0702819,18.9984436 33.8800049,21.8081666 33.8800049,25.2741699 Z" id="Path" fill="#EA6148"></path>
                <path d="M48.7856445,18.9984436 C48.3202819,18.9984436 47.8675537,19.0510865 47.4309693,19.1465455 C50.2456055,19.7663269 52.3520202,22.273529 52.3520202,25.2741699 C52.3520202,28.2748108 50.2456055,30.782013 47.4309693,31.4017943 C47.8675537,31.4972533 48.3202819,31.5498962 48.7856445,31.5498962 C52.2516479,31.5498962 55.0613708,28.7401732 55.0613708,25.2741699 C55.0613708,21.8081666 52.2516479,18.9984436 48.7856445,18.9984436 Z" id="Path" fill="#E8677D"></path>
                <path d="M49.735321,60.9217835 L46.0222474,60.9217835 C47.1137084,60.9217835 48.0058288,61.8146058 48.0058288,62.906067 L48.0058288,88.6399841 C48.0058288,89.7307435 47.1137084,90.6235657 46.0222474,90.6235657 L49.735321,90.6235657 C50.8267822,90.6235657 51.7196045,89.7307435 51.7196045,88.6399841 L51.7196045,62.906067 C51.7196045,61.8146058 50.8267822,60.9217835 49.735321,60.9217835 L49.735321,60.9217835 Z" id="Path" fill="#E8677D"></path>
                <path d="M68.7183228,5.41799931 C68.7183228,7.107483 67.3489075,8.47760019 65.658722,8.47760019 C63.9685364,8.47760019 62.5984192,7.107483 62.5984192,5.41799931 C62.5984192,3.72781377 63.9685364,2.35769658 65.658722,2.35769658 C67.3489075,2.35769658 68.7183228,3.72781377 68.7183228,5.41799931 L68.7183228,5.41799931 Z" id="Path" fill="#EA6148"></path>
                <path d="M13.7922058,5.41799931 C13.7922058,7.107483 12.4220886,8.47760019 10.731903,8.47760019 C9.04171748,8.47760019 7.67230216,7.107483 7.67230216,5.41799931 C7.67230216,3.72781377 9.04171748,2.35769658 10.731903,2.35769658 C12.4220886,2.35769658 13.7922058,3.72781377 13.7922058,5.41799931 Z" id="Path" fill="#EA6148"></path>
                <polygon id="Path" fill="#7BABF1" points="30.864624 41.782959 45.526001 41.782959 45.526001 48.9143066 30.864624 48.9143066"></polygon>
                <polygon id="Path" fill="#7BABF1" points="11.4492493 55.4048157 16.4931335 55.4048157 16.4931335 64.8812256 11.4492493 64.8812256"></polygon>
                <polygon id="Path" fill="#7BABF1" points="59.8974915 55.4048157 64.8185424 55.4048157 64.8185424 64.8812256 59.8974915 64.8812256"></polygon>
                <path d="M41.4816283,1.0535583 L34.9089967,1.0535583 C30.8084717,1.0535583 27.4849548,4.37777705 27.4849548,8.47830205 L48.9056702,8.47830205 C48.9056702,4.37777705 45.5821533,1.0535583 41.4816283,1.0535583 L41.4816283,1.0535583 Z" id="Path" fill="#7BABF1"></path>
                <polygon id="Path" fill="#FFFFFF" points="28.3847962 64.8812256 48.0058288 64.8812256 48.0058288 78.1170349 28.3847962 78.1170349"></polygon>
                <polygon id="Path" fill="#D3E6F8" points="44.5187683 64.8812256 48.0058288 64.8812256 48.0058288 78.1170349 44.5187683 78.1170349"></polygon>
                <path d="M32.2445678,84.2797546 C32.2445678,85.3459473 31.3805237,86.2099915 30.3143311,86.2099915 C29.2488404,86.2099915 28.3847962,85.3459473 28.3847962,84.2797546 C28.3847962,83.214264 29.2488404,82.3502197 30.3143311,82.3502197 C31.3805237,82.3502197 32.2445678,83.214264 32.2445678,84.2797546 L32.2445678,84.2797546 Z" id="Path" fill="#003366"></path>
                <path d="M40.1248474,84.2797546 C40.1248474,85.3459473 39.2608033,86.2099915 38.1953125,86.2099915 C37.1298217,86.2099915 36.2657776,85.3459473 36.2657776,84.2797546 C36.2657776,83.214264 37.1298217,82.3502197 38.1953125,82.3502197 C39.2608033,82.3502197 40.1248474,83.214264 40.1248474,84.2797546 L40.1248474,84.2797546 Z" id="Path" fill="#003366"></path>
                <path d="M48.0058288,84.2797546 C48.0058288,85.3459473 47.1417846,86.2099915 46.0762939,86.2099915 C45.0101013,86.2099915 44.1460572,85.3459473 44.1460572,84.2797546 C44.1460572,83.214264 45.0101013,82.3502197 46.0762939,82.3502197 C47.1417846,82.3502197 48.0058288,83.214264 48.0058288,84.2797546 L48.0058288,84.2797546 Z" id="Path" fill="#003366"></path>
                <path d="M3.1148376,90.9464417 L11.4492493,90.9464417 L11.4492493,52.7944336 C11.4492493,50.4928894 9.5835876,48.626526 7.28204355,48.626526 C4.98049931,48.626526 3.1148376,50.4928894 3.1148376,52.7944336 L3.1148376,90.9464417 Z" id="Path" fill="#D3E6F8"></path>
                <path d="M64.9413757,90.9464417 L73.2757874,90.9464417 L73.2757874,52.7944336 C73.2757874,50.4928894 71.4101257,48.626526 69.1085815,48.626526 C66.8070374,48.626526 64.9413757,50.4928894 64.9413757,52.7944336 L64.9413757,90.9464417 Z" id="Path" fill="#A4CFF2"></path>
                <g id="Group" transform="translate(1.898438, 0.000000)">
                    <path d="M53.6802369,43.1235963 L18.9135131,43.1235963 C15.9978027,43.1235963 13.6260681,40.7518616 13.6260681,37.8368529 L13.6260681,12.7114869 C13.6260681,9.79647823 15.9978027,7.4240417 18.9135131,7.4240417 L53.6802369,7.4240417 C56.5959473,7.4240417 58.9676819,9.79647823 58.9676819,12.7114869 L58.9676819,37.8368529 C58.9676819,40.7518616 56.5959473,43.1235963 53.6802369,43.1235963 L53.6802369,43.1235963 Z M18.9135131,9.53115849 C17.1594544,9.53115849 15.7331849,10.9581299 15.7331849,12.7114869 L15.7331849,37.8368529 C15.7331849,39.59021 17.1594544,41.0171814 18.9135131,41.0171814 L53.6802369,41.0171814 C55.4342956,41.0171814 56.8605651,39.59021 56.8605651,37.8368529 L56.8605651,12.7114869 C56.8605651,10.9581299 55.4342956,9.53115849 53.6802369,9.53115849 L18.9135131,9.53115849 Z" id="Shape" fill="#003366" fill-rule="nonzero"></path>
                    <path d="M14.6796264,33.8963623 L10.905487,33.8963623 C9.18231192,33.8963623 7.77990723,32.4939576 7.77990723,30.7707825 L7.77990723,19.7775573 C7.77990723,18.0543822 9.18231192,16.6519775 10.905487,16.6519775 L14.6796264,16.6519775 C15.2615052,16.6519775 15.7331849,17.1236572 15.7331849,17.7055358 L15.7331849,32.842804 C15.7331849,33.4246826 15.2615052,33.8963623 14.6796264,33.8963623 Z M10.905487,18.7590943 C10.3439636,18.7590943 9.88702402,19.2160339 9.88702402,19.7775573 L9.88702402,30.7707825 C9.88702402,31.332306 10.3439636,31.7892455 10.905487,31.7892455 L13.6260681,31.7892455 L13.6260681,18.7590943 L10.905487,18.7590943 Z" id="Shape" fill="#003366" fill-rule="nonzero"></path>
                    <path d="M61.688263,33.8963623 L57.9141236,33.8963623 C57.3322448,33.8963623 56.8605651,33.4246826 56.8605651,32.842804 L56.8605651,17.7055358 C56.8605651,17.1236572 57.3322448,16.6519775 57.9141236,16.6519775 L61.688263,16.6519775 C63.4114381,16.6519775 64.8138428,18.0543822 64.8138428,19.7775573 L64.8138428,30.7707825 C64.8138428,32.4939576 63.4114381,33.8963623 61.688263,33.8963623 L61.688263,33.8963623 Z M58.9676819,31.7892455 L61.688263,31.7892455 C62.2497864,31.7892455 62.706726,31.332306 62.706726,30.7707825 L62.706726,19.7775573 C62.706726,19.2160339 62.2497864,18.7590943 61.688263,18.7590943 L58.9676819,18.7590943 L58.9676819,31.7892455 Z" id="Shape" fill="#003366" fill-rule="nonzero"></path>
                    <path d="M25.706543,32.6034545 C21.6649779,32.6034545 18.3772584,29.3150329 18.3772584,25.2741699 C18.3772584,21.2326049 21.6649779,17.9448853 25.706543,17.9448853 C29.747406,17.9448853 33.0351257,21.2326049 33.0351257,25.2741699 C33.0351257,29.3150329 29.747406,32.6034545 25.706543,32.6034545 Z M25.706543,20.052002 C22.8266296,20.052002 20.4836731,22.3942565 20.4836731,25.2741699 C20.4836731,28.1540833 22.8266296,30.4963379 25.706543,30.4963379 C28.5857545,30.4963379 30.9287109,28.1533814 30.9287109,25.2741699 C30.9287109,22.3949584 28.5857545,20.052002 25.706543,20.052002 Z" id="Shape" fill="#4C4372" fill-rule="nonzero"></path>
                    <path d="M46.887207,32.6034545 C42.846344,32.6034545 39.5586243,29.3150329 39.5586243,25.2741699 C39.5586243,21.2326049 42.846344,17.9448853 46.887207,17.9448853 C50.9287721,17.9448853 54.2164916,21.2326049 54.2164916,25.2741699 C54.2164916,29.3150329 50.9287721,32.6034545 46.887207,32.6034545 Z M46.887207,20.052002 C44.0079955,20.052002 41.6650391,22.3942565 41.6650391,25.2741699 C41.6650391,28.1540833 44.0079955,30.4963379 46.887207,30.4963379 C49.7671204,30.4963379 52.1100769,28.1533814 52.1100769,25.2741699 C52.1100769,22.3949584 49.7671204,20.052002 46.887207,20.052002 Z" id="Shape" fill="#4C4372" fill-rule="nonzero"></path>
                    <path d="M43.6275635,49.9678649 L28.9661865,49.9678649 C28.3843079,49.9678649 27.9126282,49.4961853 27.9126282,48.9143066 L27.9126282,41.782959 C27.9126282,41.2010804 28.3843079,40.7294007 28.9661865,40.7294007 L43.6275635,40.7294007 C44.2094421,40.7294007 44.6811218,41.2010804 44.6811218,41.782959 L44.6811218,48.9143066 C44.6811218,49.4961853 44.2094421,49.9678649 43.6275635,49.9678649 Z M30.019043,47.8607483 L42.5740052,47.8607483 L42.5740052,42.8365173 L30.019043,42.8365173 L30.019043,47.8607483 Z" id="Shape" fill="#003366" fill-rule="nonzero"></path>
                    <path d="M14.594696,92 C14.3153382,92 14.0472106,91.889099 13.8492737,91.6911621 C13.6520385,91.493927 13.5411377,91.2257995 13.5411377,90.9464417 L13.5411377,53.1875 C13.5411377,50.2507324 15.9304199,47.8607483 18.8678894,47.8607483 L53.7258606,47.8607483 C56.6633301,47.8607483 59.0526123,50.2507324 59.0526123,53.1875 L59.0526123,90.9450378 C59.0526123,91.5269166 58.5809326,91.9985963 57.999054,91.9985963 L14.594696,92 Z M18.8678894,49.9678649 C17.0920716,49.9678649 15.6482545,51.4123841 15.6482545,53.1875 L15.6482545,89.8928834 L56.9454955,89.8914795 L56.9454955,53.1875 C56.9454955,51.4123841 55.5016784,49.9678649 53.7258606,49.9678649 L18.8678894,49.9678649 Z" id="Shape" fill="#003366" fill-rule="nonzero"></path>
                    <path d="M47.8368835,91.6764222 L24.7568665,91.6764222 C23.0821228,91.6764222 21.7190247,90.314026 21.7190247,88.6392822 L21.7190247,62.9053649 C21.7190247,61.2306214 23.0814209,59.8682252 24.7568665,59.8682252 L47.8368835,59.8682252 C49.5116272,59.8682252 50.8747253,61.2306214 50.8747253,62.9053649 L50.8747253,88.6392822 C50.8740234,90.314026 49.5116272,91.6764222 47.8368835,91.6764222 L47.8368835,91.6764222 Z M24.7568665,61.9753418 C24.2437744,61.9753418 23.8261413,62.3922729 23.8261413,62.9053649 L23.8261413,88.6392822 C23.8261413,89.1523743 24.2437744,89.5700072 24.7568665,89.5700072 L47.8368835,89.5700072 C48.3499756,89.5700072 48.7676087,89.1523743 48.7676087,88.6392822 L48.7676087,62.9053649 C48.7676087,62.3922729 48.3499756,61.9753418 47.8368835,61.9753418 L24.7568665,61.9753418 Z" id="Shape" fill="#003366" fill-rule="nonzero"></path>
                    <path d="M46.1073913,79.1705932 L26.4863587,79.1705932 C25.9044799,79.1705932 25.4328002,78.6989135 25.4328002,78.1170349 L25.4328002,64.8812256 C25.4328002,64.299347 25.9044799,63.8276673 26.4863587,63.8276673 L46.1073913,63.8276673 C46.6892701,63.8276673 47.1609498,64.299347 47.1609498,64.8812256 L47.1609498,78.1170349 C47.1609498,78.6989135 46.6892701,79.1705932 46.1073913,79.1705932 Z M27.539917,77.0641784 L45.053833,77.0641784 L45.053833,65.9347839 L27.539917,65.9347839 L27.539917,77.0641784 Z" id="Shape" fill="#003366" fill-rule="nonzero"></path>
                    <path d="M9.55081181,92 L1.2164001,92 C0.634521484,92 0.162841797,91.5283203 0.162841797,90.9464417 L0.162841797,52.7944336 C0.162841797,49.9152221 2.50509639,47.5736693 5.38360605,47.5736693 C8.26211552,47.5736693 10.6043701,49.9152221 10.6043701,52.7944336 L10.6043701,90.9464417 C10.6043701,91.5283203 10.1326904,92 9.55081181,92 L9.55081181,92 Z M2.26995841,89.8928834 L8.49725333,89.8928834 L8.49725333,52.7944336 C8.49725333,51.0775756 7.10046387,49.6800843 5.38360605,49.6800843 C3.66604619,49.6800843 2.26925655,51.0775756 2.26925655,52.7944336 L2.26925655,89.8928834 L2.26995841,89.8928834 Z" id="Shape" fill="#003366" fill-rule="nonzero"></path>
                    <path d="M71.3773499,92 L63.0429382,92 C62.4610596,92 61.9893799,91.5283203 61.9893799,90.9464417 L61.9893799,52.7944336 C61.9893799,49.9152221 64.3309326,47.5736693 67.210144,47.5736693 C70.0886536,47.5736693 72.4309082,49.9152221 72.4309082,52.7944336 L72.4309082,90.9464417 C72.4309082,91.5283203 71.9592285,92 71.3773499,92 L71.3773499,92 Z M64.0964967,89.8928834 L70.3237916,89.8928834 L70.3237916,52.7944336 C70.3237916,51.0775756 68.927002,49.6800843 67.210144,49.6800843 C65.4925843,49.6800843 64.0957946,51.0775756 64.0957946,52.7944336 L64.0957946,89.8928834 L64.0964967,89.8928834 Z" id="Shape" fill="#003366" fill-rule="nonzero"></path>
                    <path d="M14.594696,65.9347839 L9.55081181,65.9347839 C8.96893302,65.9347839 8.49725333,65.4631042 8.49725333,64.8812256 L8.49725333,55.4048157 C8.49725333,54.8229369 8.96893302,54.3512572 9.55081181,54.3512572 L14.594696,54.3512572 C15.1765748,54.3512572 15.6482545,54.8229369 15.6482545,55.4048157 L15.6482545,64.8812256 C15.6482545,65.4631042 15.1765748,65.9347839 14.594696,65.9347839 Z M10.6043701,63.8283691 L13.5411377,63.8283691 L13.5411377,56.4576722 L10.6043701,56.4576722 L10.6043701,63.8283691 Z" id="Shape" fill="#003366" fill-rule="nonzero"></path>
                    <path d="M62.9201049,65.9347839 L57.999054,65.9347839 C57.4171752,65.9347839 56.9454955,65.4631042 56.9454955,64.8812256 L56.9454955,55.4048157 C56.9454955,54.8229369 57.4171752,54.3512572 57.999054,54.3512572 L62.9201049,54.3512572 C63.5019837,54.3512572 63.9736634,54.8229369 63.9736634,55.4048157 L63.9736634,64.8812256 C63.9736634,65.4631042 63.5019837,65.9347839 62.9201049,65.9347839 Z M59.0526123,63.8283691 L61.8665466,63.8283691 L61.8665466,56.4576722 L59.0526123,56.4576722 L59.0526123,63.8283691 Z" id="Shape" fill="#003366" fill-rule="nonzero"></path>
                    <path d="M36.296875,79.1705932 C36.0273437,79.1705932 35.7578125,79.0674134 35.5521546,78.8624573 C35.1408386,78.4504395 35.1408386,77.7836303 35.5521546,77.3723145 L41.6987305,71.2250365 C42.1100463,70.8137207 42.7775573,70.8137207 43.1888733,71.2250365 C43.6001892,71.6370544 43.6001892,72.3038636 43.1888733,72.7151794 L37.0415954,78.8617553 C36.8359375,79.0681152 36.5664062,79.1705932 36.296875,79.1705932 L36.296875,79.1705932 Z" id="Path" fill="#003366"></path>
                    <path d="M63.7602845,9.53115849 C61.4917298,9.53115849 59.6464232,7.68585214 59.6464232,5.41799931 C59.6464232,3.14944463 61.4917298,1.30413809 63.7602845,1.30413809 C66.0281373,1.30413809 67.8734436,3.14944463 67.8734436,5.41799931 C67.8734436,7.68585214 66.0281373,9.53115849 63.7602845,9.53115849 Z M63.7602845,3.41125488 C62.6533814,3.41125488 61.75354,4.31109628 61.75354,5.41799931 C61.75354,6.52420048 62.6533814,7.42474356 63.7602845,7.42474356 C64.8664856,7.42474356 65.7670287,6.52420048 65.7670287,5.41799931 C65.7670287,4.31109628 64.8664856,3.41125488 63.7602845,3.41125488 L63.7602845,3.41125488 Z" id="Shape" fill="#003366" fill-rule="nonzero"></path>
                    <path d="M9.55081181,79.1705932 L1.2164001,79.1705932 C0.634521484,79.1705932 0.162841797,78.6989135 0.162841797,78.1170349 C0.162841797,77.5351563 0.634521484,77.0634766 1.2164001,77.0634766 L9.55081181,77.0634766 C10.1326904,77.0634766 10.6043701,77.5351563 10.6043701,78.1170349 C10.6043701,78.6989135 10.1326904,79.1705932 9.55081181,79.1705932 Z" id="Path" fill="#003366"></path>
                    <path d="M71.3773499,79.1705932 L63.0429382,79.1705932 C62.4610596,79.1705932 61.9893799,78.6989135 61.9893799,78.1170349 C61.9893799,77.5351563 62.4610596,77.0634766 63.0429382,77.0634766 L71.3773499,77.0634766 C71.9592285,77.0634766 72.4309082,77.5351563 72.4309082,78.1170349 C72.4309082,78.6989135 71.9592285,79.1705932 71.3773499,79.1705932 Z" id="Path" fill="#003366"></path>
                    <path d="M47.0072327,9.53115849 L25.5865173,9.53115849 C25.0046387,9.53115849 24.532959,9.0594788 24.532959,8.47760019 C24.532959,3.80291739 28.3358764,0 33.0105592,0 L39.5831908,0 C44.2578736,0 48.060791,3.80291739 48.060791,8.47760019 C48.060791,9.0594788 47.5891113,9.53115849 47.0072327,9.53115849 Z M26.7264099,7.42474356 L45.8666381,7.42474356 C45.3633728,4.4107666 42.7375488,2.10711661 39.5831908,2.10711661 L33.0105592,2.10711661 C29.8562012,2.10711661 27.2303772,4.4107666 26.7264099,7.42474356 L26.7264099,7.42474356 Z" id="Shape" fill="#003366" fill-rule="nonzero"></path>
                    <path d="M63.7602845,23.8198242 C63.1784057,23.8198242 62.706726,23.3481445 62.706726,22.7662659 L62.706726,8.47760019 C62.706726,7.89572139 63.1784057,7.4240417 63.7602845,7.4240417 C64.3421631,7.4240417 64.8138428,7.89572139 64.8138428,8.47760019 L64.8138428,22.7662659 C64.8138428,23.3481445 64.3421631,23.8198242 63.7602845,23.8198242 Z" id="Path" fill="#003366"></path>
                    <path d="M8.83346553,9.53115849 C6.5656127,9.53115849 4.72030635,7.68585214 4.72030635,5.41799931 C4.72030635,3.14944463 6.5656127,1.30413809 8.83346553,1.30413809 C11.1020202,1.30413809 12.9473267,3.14944463 12.9473267,5.41799931 C12.9473267,7.68585214 11.1020202,9.53115849 8.83346553,9.53115849 Z M8.83346553,3.41125488 C7.72726436,3.41125488 6.82672128,4.31109628 6.82672128,5.41799931 C6.82672128,6.52420048 7.72726436,7.42474356 8.83346553,7.42474356 C9.94036856,7.42474356 10.84021,6.52420048 10.84021,5.41799931 C10.84021,4.31109628 9.94036856,3.41125488 8.83346553,3.41125488 Z" id="Shape" fill="#003366" fill-rule="nonzero"></path>
                    <path d="M8.83346553,23.8198242 C8.25158691,23.8198242 7.77990723,23.3481445 7.77990723,22.7662659 L7.77990723,8.47760019 C7.77990723,7.89572139 8.25158691,7.4240417 8.83346553,7.4240417 C9.41534433,7.4240417 9.88702402,7.89572139 9.88702402,8.47760019 L9.88702402,22.7662659 C9.88702402,23.3481445 9.41534433,23.8198242 8.83346553,23.8198242 Z" id="Path" fill="#003366"></path>
                </g>
            </g>
        </g>
    </g>
</svg>