<?xml version="1.0" encoding="UTF-8"?>
<svg width="66px" height="62px" viewBox="0 0 66 62" version="1.1" xmlns="http://www.w3.org/2000/svg" xmlns:xlink="http://www.w3.org/1999/xlink">
    <!-- Generator: Sketch 52.3 (67297) - http://www.bohemiancoding.com/sketch -->
    <title>value</title>
    <desc>Created with Sketch.</desc>
    <g id="Symbols" stroke="none" stroke-width="1" fill="none" fill-rule="evenodd">
        <g id="About/values" transform="translate(0.000000, -4.000000)">
            <g id="value" transform="translate(0.000000, 4.000000)">
                <path d="M58.5561797,31.2738164 L51.3757148,20.1854297 C50.8192266,19.3260117 49.8756328,18.8128359 48.8517305,18.8128359 L17.1708281,18.8128359 C16.1484727,18.8128359 15.2057813,19.3247227 14.6490352,20.1819492 L7.44626953,31.2717539 C6.71021484,32.4048398 6.82391016,33.9009258 7.72277344,34.9097461 L30.7534219,60.7657617 C31.3234453,61.4056523 32.1417422,61.7727773 32.9987109,61.7727773 C32.9988398,61.7727773 32.9987109,61.7727773 32.9988398,61.7727773 C33.8556797,61.7727773 34.6742344,61.4057812 35.2442578,60.7658906 L58.2774844,34.9083281 C59.1750586,33.900668 59.2896563,32.4061289 58.5561797,31.2738164 Z M47.3971523,21.390832 L41.3584102,30.7288008 L35.3160586,21.390832 L47.3971523,21.390832 Z M38.9892422,31.8131602 L27.0081797,31.8131602 L32.9987109,22.5552422 L38.9892422,31.8131602 Z M30.6813633,21.3910898 L24.6556406,30.7034062 L18.6319805,21.3910898 L30.6813633,21.3910898 Z M16.248375,22.4526328 L22.3031016,31.8131602 L10.1687695,31.8131602 L16.248375,22.4526328 Z M10.7132695,34.3912852 L23.6870391,34.3912852 L30.5469141,56.6579062 L10.7132695,34.3912852 Z M32.9987109,55.8597187 L26.3846602,34.3912852 L39.6127617,34.3912852 L32.9987109,55.8597187 Z M35.4503789,56.6586797 L42.3105117,34.3914141 L55.2854414,34.3914141 L35.4503789,56.6586797 Z M43.7275781,31.8131602 L49.7767617,22.4590781 L55.8339375,31.8131602 L43.7275781,31.8131602 Z" id="Shape" fill="#3A3A3C" fill-rule="nonzero"></path>
                <path d="M3.91011328,31.8131602 L1.2890625,31.8131602 C0.577242188,31.8131602 0,32.3902734 0,33.1022227 C0,33.8141719 0.577242188,34.3912852 1.2890625,34.3912852 L3.91011328,34.3912852 C4.62193359,34.3912852 5.19917578,33.8141719 5.19917578,33.1022227 C5.19917578,32.3902734 4.62193359,31.8131602 3.91011328,31.8131602 Z" id="Path" fill="#07519D"></path>
                <path d="M64.7109375,31.8131602 L62.0898867,31.8131602 C61.3780664,31.8131602 60.8008242,32.3902734 60.8008242,33.1022227 C60.8008242,33.8141719 61.3780664,34.3912852 62.0898867,34.3912852 L64.7109375,34.3912852 C65.4227578,34.3912852 66,33.8141719 66,33.1022227 C66,32.3902734 65.4227578,31.8131602 64.7109375,31.8131602 Z" id="Path" fill="#07519D"></path>
                <path d="M56.3508516,9.77444531 C55.8473438,9.27106641 55.0313672,9.27106641 54.5277305,9.77444531 L50.2458516,14.0563242 C49.7424727,14.5597031 49.7424727,15.3759375 50.2458516,15.8793164 C50.4977344,16.1310703 50.8276055,16.2568828 51.1574766,16.2568828 C51.4874766,16.2568828 51.8172188,16.1309414 52.0689727,15.8793164 L56.3508516,11.5974375 C56.8542305,11.0940586 56.8542305,10.2779531 56.3508516,9.77444531 Z" id="Path" fill="#07519D"></path>
                <path d="M15.8098359,14.0333789 L11.5280859,9.75137109 C11.0248359,9.24799219 10.2088594,9.24799219 9.70496484,9.75137109 C9.20158594,10.25475 9.20158594,11.0709844 9.70496484,11.5743633 L13.9868438,15.8562422 C14.2385977,16.1079961 14.5684688,16.2338086 14.8983398,16.2338086 C15.2282109,16.2338086 15.558082,16.1078672 15.8098359,15.8562422 C16.3132148,15.3529922 16.3132148,14.5366289 15.8098359,14.0333789 Z" id="Path" fill="#07519D"></path>
                <path d="M33.0327422,0.102222656 C32.3209219,0.102222656 31.7436797,0.679335937 31.7436797,1.39128516 L31.7436797,9.79184766 C31.7436797,10.5037969 32.320793,11.0809102 33.0327422,11.0809102 C33.7445625,11.0809102 34.3218047,10.5037969 34.3218047,9.79184766 L34.3218047,1.39128516 C34.3218047,0.679464844 33.7445625,0.102222656 33.0327422,0.102222656 Z" id="Path" fill="#07519D"></path>
                <path d="M33.9434648,13.24125 C33.7038281,13.0014844 33.37125,12.8635547 33.0322266,12.8635547 C32.6932031,12.8635547 32.360625,13.0014844 32.1208594,13.24125 C31.8810937,13.4810156 31.7431641,13.8135938 31.7431641,14.1526172 C31.7431641,14.4929297 31.8809648,14.8242188 32.1208594,15.0639844 C32.360625,15.3050391 32.6932031,15.4416797 33.0322266,15.4416797 C33.37125,15.4416797 33.7038281,15.3050391 33.9434648,15.0639844 C34.1845195,14.8242187 34.3212891,14.4916406 34.3212891,14.1526172 C34.3212891,13.8135938 34.1845195,13.4811445 33.9434648,13.24125 Z" id="Path" fill="#07519D"></path>
            </g>
        </g>
    </g>
</svg>