<?xml version="1.0" encoding="UTF-8"?>
<svg width="99px" height="92px" viewBox="0 0 99 92" version="1.1" xmlns="http://www.w3.org/2000/svg" xmlns:xlink="http://www.w3.org/1999/xlink">
    <!-- Generator: Sketch 53.1 (72631) - https://sketchapp.com -->
    <title>Group 3</title>
    <desc>Created with Sketch.</desc>
    <g id="Symbols" stroke="none" stroke-width="1" fill="none" fill-rule="evenodd">
        <g id="Services/Service/Icon/Web-design" transform="translate(-1.000000, 0.000000)">
            <g id="Group-3" transform="translate(1.000000, 0.000000)">
                <g id="coding-(1)-copy">
                    <path d="M64.0535565,90.3447699 L34.4903766,90.3447699 C34.4903766,86.7315565 37.4466946,83.7752385 41.0599079,83.7752385 L57.4838326,83.7752385 C61.0972385,83.7752385 64.0535565,86.7315565 64.0535565,90.3447699" id="Path" fill="#D3E6F8"></path>
                    <path d="M62.4112218,83.7752385 L57.4840251,83.7752385 C61.0972385,83.7752385 64.0535565,86.7315565 64.0535565,90.3447699 L68.9807531,90.3447699 C68.9807531,86.7315565 66.0244351,83.7752385 62.4112218,83.7752385" id="Path" fill="#A4CFF2"></path>
                    <path d="M41.0599079,83.7752385 L36.1327113,83.7752385 C32.5194979,83.7752385 29.5631799,86.7315565 29.5631799,90.3447699 L34.4903766,90.3447699 C34.4903766,86.7315565 37.4466946,83.7752385 41.0599079,83.7752385" id="Path" fill="#FFFFFF"></path>
                    <polygon id="Path" fill="#D3E6F8" points="55.8414979 83.7752385 42.7024351 83.7752385 44.5089456 70.6359833 54.0349874 70.6359833"></polygon>
                    <polygon id="Path" fill="#FFFFFF" points="41.0599079 70.6359833 37.7752385 83.7752385 42.7024351 83.7752385 44.5089456 70.6359833"></polygon>
                    <polygon id="Path" fill="#A4CFF2" points="57.4840251 70.6359833 54.0349874 70.6359833 55.8414979 83.7752385 60.7686946 83.7752385"></polygon>
                    <g id="Group" transform="translate(6.543933, 1.539749)">
                        <path d="M60.7944854,80.5929623 L55.8672887,80.5929623 C59.4805021,80.5929623 62.4368201,85.0274393 62.4368201,90.4473556 L65.721682,90.4473556 C66.7071213,90.4473556 67.3640167,88.9691967 67.199841,87.6552134 C66.2144017,83.5492803 63.7508033,80.5929623 60.7944854,80.5929623" id="Path" fill="#A4CFF2"></path>
                        <polygon id="Path" fill="#A4CFF2" points="55.8672887 69.0962343 52.418251 69.0962343 54.2247615 82.2354895 59.1519582 82.2354895"></polygon>
                        <path d="M85.4304686,55.9569791 L0.0255983264,55.9569791 L0.0255983264,5.86394142 C0.0255983264,2.74325523 2.65356485,0.115481172 5.77405858,0.115481172 L79.6820084,0.115481172 C82.8025021,0.115481172 85.4304686,2.74325523 85.4304686,5.86394142 L85.4304686,55.9569791 Z" id="Path" fill="#D3E6F8"></path>
                    </g>
                    <path d="M12.3179916,1.65523013 L7.39079498,1.65523013 C4.27030126,1.65523013 1.64233473,4.28300418 1.64233473,7.40369038 L1.64233473,57.4969205 L6.56953138,57.4969205 L6.56953138,7.40369038 C6.56953138,4.28300418 9.19749791,1.65523013 12.3179916,1.65523013" id="Path" fill="#FFFFFF"></path>
                    <path d="M91.1531381,1.65523013 L86.2259414,1.65523013 C89.3464351,1.65523013 91.9744017,4.28300418 91.9744017,7.40369038 L91.9744017,57.4969205 L96.9015983,57.4969205 L96.9015983,7.40369038 C96.9015983,4.28300418 94.2736318,1.65523013 91.1531381,1.65523013" id="Path" fill="#A4CFF2"></path>
                    <path d="M86.2259414,70.6359833 L12.3179916,70.6359833 C9.19749791,70.6359833 6.56953138,68.0082092 6.56953138,64.887523 L6.56953138,57.496728 L91.9742092,57.496728 L91.9742092,64.887523 C91.9744017,68.0082092 89.3464351,70.6359833 86.2259414,70.6359833" id="Path" fill="#D3E6F8"></path>
                    <path d="M6.56953138,64.887523 L6.56953138,57.496728 L1.64233473,57.496728 L1.64233473,64.887523 C1.64233473,68.0082092 4.27030126,70.6359833 7.39079498,70.6359833 L12.3179916,70.6359833 C9.19749791,70.6359833 6.56953138,68.0082092 6.56953138,64.887523" id="Path" fill="#FFFFFF"></path>
                    <path d="M91.9744017,57.496728 L91.9744017,64.887523 C91.9744017,68.0082092 89.3464351,70.6359833 86.2259414,70.6359833 L91.1531381,70.6359833 C94.2736318,70.6359833 96.9015983,68.0082092 96.9015983,64.887523 L96.9015983,57.496728 L91.9744017,57.496728 Z" id="Path" fill="#A4CFF2"></path>
                    <path d="M96.9015983,59.1392552 L1.64233473,59.1392552 C0.656895397,59.1392552 0,58.4823598 0,57.4969205 L0,50.9271967 C0,49.9417573 0.656895397,49.2848619 1.64233473,49.2848619 C2.62777406,49.2848619 3.28466946,49.9417573 3.28466946,50.9271967 L3.28466946,55.8543933 L95.2590711,55.8543933 L95.2590711,7.40369038 C95.2590711,5.10426778 93.4523682,3.29775732 91.1531381,3.29775732 L7.39079498,3.29775732 C5.09137238,3.29775732 3.28486192,5.10446025 3.28486192,7.40369038 L3.28486192,37.7881339 C3.28486192,38.7735732 2.62796653,39.4304686 1.6425272,39.4304686 C0.657087866,39.4304686 0,38.7733808 0,37.7879414 L0,7.40369038 C0,3.29775732 3.28486192,0.0128953975 7.39079498,0.0128953975 L91.1531381,0.0128953975 C95.2590711,0.0128953975 98.5439331,3.29775732 98.5439331,7.40369038 L98.5439331,57.4969205 C98.5439331,58.4821674 97.8870377,59.1392552 96.9015983,59.1392552 Z" id="Path" fill="#003366"></path>
                    <path d="M3.28486192,44.3576653 C3.28486192,43.3722259 2.62796653,42.7153305 1.6425272,42.7153305 C0.657087866,42.7153305 0,43.3722259 0,44.3576653 C0,45.3431046 0.656895397,46 1.64233473,46 C2.62777406,46 3.28486192,45.3431046 3.28486192,44.3576653" id="Path" fill="#003366"></path>
                    <polygon id="Path" fill="#A4CFF2" points="16.4239247 31.21841 39.4175732 31.21841 39.4175732 8.22476151 16.4239247 8.22476151"></polygon>
                    <polygon id="Path" fill="#D3E6F8" points="16.4239247 31.21841 34.4903766 31.21841 34.4903766 8.22476151 16.4239247 8.22476151"></polygon>
                    <path d="M68.9807531,91.9871046 L29.5631799,91.9871046 C28.5777406,91.9871046 27.9208452,91.3302092 27.9208452,90.3447699 C27.9208452,85.7461172 31.5340586,82.1327113 36.1329038,82.1327113 L62.4112218,82.1327113 C67.0098745,82.1327113 70.6232803,85.7459247 70.6232803,90.3447699 C70.6230879,91.3302092 69.9661925,91.9871046 68.9807531,91.9871046 Z M31.5340586,88.7024351 L67.1740502,88.7024351 C66.5171548,86.7315565 64.7104519,85.4175732 62.5753975,85.4175732 L36.1327113,85.4175732 C33.9976569,85.4175732 32.190954,86.7315565 31.5340586,88.7024351 Z" id="Shape" fill="#003366" fill-rule="nonzero"></path>
                    <path d="M60.7686946,85.4175732 L37.7752385,85.4175732 C37.2825188,85.4175732 36.7897992,85.2533975 36.4612552,84.7606778 C36.1327113,84.4321339 36.1327113,83.9394142 36.1327113,83.4466946 L39.4175732,70.3074393 C39.581749,69.6505439 40.2388368,68.9934561 41.0599079,68.9934561 L57.4838326,68.9934561 C58.3050962,68.9934561 58.9619916,69.4861757 59.1261674,70.3074393 L62.4110293,83.4466946 C62.575205,83.9394142 62.4110293,84.4321339 62.0824854,84.9248536 C61.7541339,85.2533975 61.2614142,85.4175732 60.7686946,85.4175732 Z M39.9102929,82.1327113 L58.6336402,82.1327113 L56.1700418,72.278318 L42.3738912,72.278318 L39.9102929,82.1327113 Z" id="Shape" fill="#003366" fill-rule="nonzero"></path>
                    <path d="M91.1531381,72.278318 L7.39079498,72.278318 C3.28486192,72.278318 0,68.9934561 0,64.887523 L0,57.496728 C0,56.5112887 0.656895397,55.8543933 1.64233473,55.8543933 L96.9014059,55.8543933 C97.8868452,55.8543933 98.5437406,56.5112887 98.5437406,57.496728 L98.5437406,64.887523 C98.5439331,68.9936485 95.2590711,72.278318 91.1531381,72.278318 Z M3.28486192,59.1392552 L3.28486192,64.8877155 C3.28486192,67.1871381 5.09156485,68.9936485 7.39079498,68.9936485 L91.1531381,68.9936485 C93.4525607,68.9936485 95.2590711,67.1869456 95.2590711,64.8877155 L95.2590711,59.1392552 L3.28486192,59.1392552 Z" id="Shape" fill="#003366" fill-rule="nonzero"></path>
                    <path d="M82.1200084,50.9271967 L57.4840251,50.9271967 C56.4985858,50.9271967 55.8416904,50.2703013 55.8416904,49.2848619 C55.8416904,48.2994226 56.4985858,47.6425272 57.4840251,47.6425272 L82.1200084,47.6425272 C83.1054477,47.6425272 83.7623431,48.2994226 83.7623431,49.2848619 C83.7623431,50.2703013 83.1054477,50.9271967 82.1200084,50.9271967 Z" id="Path" fill="#003366"></path>
                    <path d="M32.8480418,41.0728033 L16.4239247,41.0728033 C15.4384854,41.0728033 14.78159,40.4159079 14.78159,39.4304686 C14.78159,38.4450293 15.4384854,37.7881339 16.4239247,37.7881339 L32.8478494,37.7881339 C33.8332887,37.7881339 34.4901841,38.4450293 34.4901841,39.4304686 C34.4903766,40.4159079 33.8334812,41.0728033 32.8480418,41.0728033 Z" id="Path" fill="#003366"></path>
                    <path d="M73.9079498,41.0728033 L49.2719665,41.0728033 C48.2865272,41.0728033 47.6296318,40.4159079 47.6296318,39.4304686 C47.6296318,38.4450293 48.2865272,37.7881339 49.2719665,37.7881339 L73.9079498,37.7881339 C74.8933891,37.7881339 75.5502845,38.4450293 75.5502845,39.4304686 C75.5502845,40.4159079 74.8933891,41.0728033 73.9079498,41.0728033 Z" id="Path" fill="#003366"></path>
                    <path d="M49.2719665,50.9271967 L24.6359833,50.9271967 C23.6505439,50.9271967 22.9936485,50.2703013 22.9936485,49.2848619 C22.9936485,48.2994226 23.6505439,47.6425272 24.6359833,47.6425272 L49.2719665,47.6425272 C50.2574059,47.6425272 50.9143013,48.2994226 50.9143013,49.2848619 C50.9143013,50.2703013 50.2574059,50.9271967 49.2719665,50.9271967 Z" id="Path" fill="#003366"></path>
                    <path d="M82.1200084,21.3640167 L57.4840251,21.3640167 C56.4985858,21.3640167 55.8416904,20.7071213 55.8416904,19.721682 C55.8416904,18.7362427 56.4985858,18.0793473 57.4840251,18.0793473 L82.1200084,18.0793473 C83.1054477,18.0793473 83.7623431,18.7362427 83.7623431,19.721682 C83.7623431,20.7071213 83.1054477,21.3640167 82.1200084,21.3640167 Z" id="Path" fill="#003366"></path>
                    <path d="M82.1200084,31.21841 L65.6960837,31.21841 C64.7106444,31.21841 64.053749,30.5615146 64.053749,29.5760753 C64.053749,28.590636 64.7106444,27.9337406 65.6960837,27.9337406 L82.1200084,27.9337406 C83.1054477,27.9337406 83.7623431,28.590636 83.7623431,29.5760753 C83.7623431,30.5615146 83.1054477,31.21841 82.1200084,31.21841 Z" id="Path" fill="#003366"></path>
                    <path d="M52.5568285,31.21841 L49.2719665,31.21841 C48.2865272,31.21841 47.6296318,30.5615146 47.6296318,29.5760753 C47.6296318,28.590636 48.2865272,27.9337406 49.2719665,27.9337406 L52.5568285,27.9337406 C53.5422678,27.9337406 54.1991632,28.590636 54.1991632,29.5760753 C54.1991632,30.5615146 53.5422678,31.21841 52.5568285,31.21841 Z" id="Path" fill="#003366"></path>
                    <path d="M73.9079498,11.5096234 L49.2719665,11.5096234 C48.2865272,11.5096234 47.6296318,10.852728 47.6296318,9.8672887 C47.6296318,8.88184937 48.2865272,8.22495397 49.2719665,8.22495397 L73.9079498,8.22495397 C74.8933891,8.22495397 75.5502845,8.88184937 75.5502845,9.8672887 C75.5502845,10.852728 74.8933891,11.5096234 73.9079498,11.5096234 Z" id="Path" fill="#003366"></path>
                    <path d="M41.0599079,32.8607448 L14.78159,32.8607448 L14.78159,6.58242678 L41.0599079,6.58242678 L41.0599079,32.8607448 L41.0599079,32.8607448 Z M18.0664519,29.5760753 L37.7752385,29.5760753 L37.7752385,9.8672887 L18.0664519,9.8672887 L18.0664519,29.5760753 Z" id="Shape" fill="#003366" fill-rule="nonzero"></path>
                </g>
                <g id="Group-2" transform="translate(4.000000, 0.000000)">
                    <path d="M9,3.17238889 L9,92 L0,92 L0,0 L6.00000006,0 C7.65484089,0.00508283916 8.99519336,1.42245589 9,3.17238889 Z" id="Path" fill="#A4CFF2"></path>
                    <g id="Group" transform="translate(4.000000, 5.000000)" fill="#07519D">
                        <path d="M4.94891827,0.159900748 L4.94891827,3.34988318 L1.66691712,3.34988318 C0.760216346,3.34988318 0.0255407692,2.63580598 0.0255407692,1.75525701 C0.0255407692,0.873977757 0.760216346,0.159900748 1.66691712,0.159900748 L4.94891827,0.159900748 Z" id="Path"></path>
                        <path d="M4.94891827,6.53986561 L4.94891827,9.72984822 L1.66691712,9.72984822 C0.760216346,9.72984822 0.0255407692,9.01577103 0.0255407692,8.13522206 C0.0255407692,7.2539428 0.760216346,6.53986561 1.66691712,6.53986561 L4.94891827,6.53986561 Z" id="Path"></path>
                        <path d="M4.94891827,12.9198307 L4.94891827,16.1098131 L1.66691712,16.1098131 C0.760216346,16.1098131 0.0255407692,15.3957361 0.0255407692,14.5151869 C0.0255407692,13.6339077 0.760216346,12.9198307 1.66691712,12.9198307 L4.94891827,12.9198307 Z" id="Path"></path>
                        <path d="M4.94891827,19.3005256 L4.94891827,22.4905082 L1.66691712,22.4905082 C0.760216346,22.4905082 0.0255407692,21.776431 0.0255407692,20.8951518 C0.0255407692,20.0146028 0.760216346,19.3005256 1.66691712,19.3005256 L4.94891827,19.3005256 Z" id="Path"></path>
                        <path d="M4.94891827,25.6804907 L4.94891827,28.8704731 L1.66691712,28.8704731 C0.760216346,28.8704731 0.0255407692,28.1563961 0.0255407692,27.2751168 C0.0255407692,26.3945679 0.760216346,25.6804907 1.66691712,25.6804907 L4.94891827,25.6804907 Z" id="Path"></path>
                        <path d="M4.94891827,32.0604557 L4.94891827,35.2504381 L1.66691712,35.2504381 C0.760216346,35.2504381 0.0255407692,34.5363609 0.0255407692,33.6550819 C0.0255407692,32.7745327 0.760216346,32.0604557 1.66691712,32.0604557 L4.94891827,32.0604557 Z" id="Path"></path>
                        <path d="M4.94891827,38.4404206 L4.94891827,41.630403 L1.66691712,41.630403 C0.760216346,41.630403 0.0255407692,40.916326 0.0255407692,40.0350467 C0.0255407692,39.1544976 0.760216346,38.4404206 1.66691712,38.4404206 L4.94891827,38.4404206 Z" id="Path"></path>
                        <path d="M4.94891827,44.8203854 L4.94891827,48.010368 L1.66691712,48.010368 C0.760216346,48.010368 0.0255407692,47.2962908 0.0255407692,46.4157419 C0.0255407692,45.5344626 0.760216346,44.8203854 1.66691712,44.8203854 L4.94891827,44.8203854 Z" id="Path"></path>
                        <path d="M4.94891827,51.2003505 L4.94891827,54.3903329 L1.66691712,54.3903329 C0.760216346,54.3903329 0.0255407692,53.6762559 0.0255407692,52.7957067 C0.0255407692,51.9144277 0.760216346,51.2003505 1.66691712,51.2003505 L4.94891827,51.2003505 Z" id="Path"></path>
                        <path d="M4.94891827,57.5803155 L4.94891827,60.7702979 L1.66691712,60.7702979 C0.760216346,60.7702979 0.0255407692,60.0562207 0.0255407692,59.1756718 C0.0255407692,58.2943925 0.760216346,57.5803155 1.66691712,57.5803155 L4.94891827,57.5803155 Z" id="Path"></path>
                        <path d="M4.94891827,63.9602804 L4.94891827,67.1509929 L1.66691712,67.1509929 C0.760216346,67.1509929 0.0255407692,66.4361858 0.0255407692,65.5556366 C0.0255407692,64.6750877 0.760216346,63.9602804 1.66691712,63.9602804 L4.94891827,63.9602804 Z" id="Path"></path>
                        <path d="M4.94891827,70.3409755 L4.94891827,73.5309579 L1.66691712,73.5309579 C0.760216346,73.5309579 0.0255407692,72.8168807 0.0255407692,71.9356017 C0.0255407692,71.0550525 0.760216346,70.3409755 1.66691712,70.3409755 L4.94891827,70.3409755 Z" id="Path"></path>
                        <path d="M4.94891827,76.7209404 L4.94891827,79.910923 L1.66691712,79.910923 C0.760216346,79.910923 0.0255407692,79.1968458 0.0255407692,78.3155665 C0.0255407692,77.4350176 0.760216346,76.7209404 1.66691712,76.7209404 L4.94891827,76.7209404 Z" id="Path"></path>
                    </g>
                </g>
                <g id="Group-2" transform="translate(80.000000, 11.000000)">
                    <path d="M13,5.47930669 L13,11 L0,11 L0,5.47930669 C0,2.45308401 2.91062536,0 6.5003718,0 C10.0901184,0 13,2.45308401 13,5.47930669 L13,5.47930669 Z" id="Path" fill="#07519D"></path>
                    <polygon id="Path" fill="#003366" points="1.08242203e-14 11 13 11 13 17 0 17"></polygon>
                    <path d="M13,17 L13,51.7807892 L12.9025576,52 C11.4602621,50.1222946 9.02866618,49.0651217 6.5003718,49.217966 C3.97133362,49.0651217 1.53973785,50.1222946 0.0981861879,52 L0,51.7807892 L0,17 L13,17 Z" id="Path" fill="#428DFF"></path>
                    <path d="M6.50034331,49 C5.67154965,49 5,48.3732203 5,47.6003204 L5,22.3996796 C5,21.6267797 5.67154965,21 6.50034331,21 C7.32845052,21 8,21.6267797 8,22.3996796 L8,47.6003204 C8,48.3732203 7.32845052,49 6.50034331,49 L6.50034331,49 Z" id="Path" fill="#003366"></path>
                    <path d="M13,51.0517896 L8.03380965,63.0058408 C7.77779725,63.6071643 7.17212734,64 6.4999999,64 C5.82787266,64 5.2214476,63.6071643 4.965435,63.0058408 L0,51.0517896 C1.46357607,49.0027537 3.93232241,47.8491194 6.4999999,48.0159099 C9.06692224,47.8491194 11.5356688,49.0027537 13,51.0517896 L13,51.0517896 Z" id="Path" fill="#A4CFF2"></path>
                </g>
            </g>
        </g>
    </g>
</svg>