<?xml version="1.0" encoding="UTF-8"?>
<svg width="68px" height="45px" viewBox="0 0 68 45" version="1.1" xmlns="http://www.w3.org/2000/svg" xmlns:xlink="http://www.w3.org/1999/xlink">
    <!-- Generator: Sketch 53.2 (72643) - https://sketchapp.com -->
    <title>cassandra</title>
    <desc>Created with Sketch.</desc>
    <g id="web" stroke="none" stroke-width="1" fill="none" fill-rule="evenodd">
        <g id="Technologies---Technologies-tab" transform="translate(-864.000000, -2780.000000)">
            <g id="Big-data" transform="translate(735.000000, 2220.000000)">
                <g id="cassandra" transform="translate(129.000000, 560.000000)">
                    <g id="Group" transform="translate(4.000000, 34.000000)" fill="#373535" fill-rule="nonzero">
                        <path d="M4.19276719,3.63 C4.7728985,3.63 5.3002906,3.7675 5.59035626,4.0425 C5.64309547,4.4825 5.24755139,5.1975 5.01022495,5.1975 C4.72015929,5.0875 4.45646324,5.0325 4.11365838,5.0325 C2.74243892,5.0325 2.05682919,6.5175 2.05682919,7.975 C2.05682919,8.8825 2.34689484,9.4325 3.05887418,9.4325 C3.79722312,9.4325 4.53557206,8.91 4.95748574,8.525 C5.06296416,8.6075 5.19481218,8.855 5.19481218,9.13 C5.19481218,9.4325 5.11570337,9.735 4.82563771,10.0375 C4.35098482,10.5325 3.53352707,10.9725 2.34689484,10.9725 C1.00204499,10.9725 0.05273921,10.175 0.05273921,8.305 C0.10547842,5.83 1.63491551,3.63 4.19276719,3.63 Z M8.62286083,9.35 C9.36120977,9.35 10.7060596,8.0025 11.0752341,5.4175 C11.1016037,5.2525 11.1016037,5.225 11.1279733,5.06 C10.9697557,5.005 10.7324292,4.95 10.5214724,4.95 C9.96771069,4.95 9.38757938,5.115 8.88655688,5.8575 C8.35916478,6.6275 8.12183834,7.59 8.12183834,8.36 C8.12183834,8.9925 8.30642557,9.35 8.62286083,9.35 L8.62286083,9.35 Z M6.19685717,8.635 C6.19685717,7.7 6.48692283,6.105 7.62081584,4.9225 C8.59649123,3.8775 9.75675385,3.63 10.8379077,3.63 C11.549887,3.63 12.4991928,3.8775 13.1056937,3.9875 C12.9474761,4.675 12.6046712,7.2875 12.420084,8.8 C12.3409751,9.4325 12.3146055,10.34 12.3409751,10.67 C11.8399526,10.89 10.9170165,10.945 10.6533204,10.945 C10.5214724,10.945 10.4951028,10.3125 10.5214724,9.68 C10.547842,9.4875 10.5742116,9.185 10.5742116,9.0475 C9.99408029,10.065 8.83381767,10.9175 7.62081584,10.9175 C6.75061888,10.945 6.19685717,10.175 6.19685717,8.635 L6.19685717,8.635 Z M16.8501776,3.63 C17.4566785,3.63 18.0631794,3.8775 18.3268755,4.1525 C18.3005059,4.5925 17.9840706,5.335 17.4566785,5.115 C17.2193521,5.0325 17.0083952,4.9775 16.69196,4.9775 C16.2964159,4.9775 15.9272414,5.17 15.9272414,5.555 C15.9272414,5.8575 16.1381983,6.0775 17.1402432,6.82 C17.8522226,7.37 18.1422882,7.865 18.1422882,8.5525 C18.1422882,9.7075 17.1138736,10.945 15.2943709,10.945 C14.556022,10.945 13.8967818,10.6425 13.7121946,10.34 C13.4484985,9.8725 13.6594554,8.9375 13.949521,9.1025 C14.3450651,9.295 14.9779356,9.515 15.5053277,9.515 C16.0063502,9.515 16.3227855,9.2675 16.3227855,8.965 C16.3227855,8.69 16.085459,8.47 15.1888925,7.7825 C14.4241739,7.1775 14.1868475,6.6275 14.1868475,6.0225 C14.1868475,4.7025 15.2680013,3.63 16.8501776,3.63 L16.8501776,3.63 Z M22.0449898,3.63 C22.6514907,3.63 23.2579916,3.8775 23.5216877,4.1525 C23.495318,4.5925 23.1788828,5.335 22.6514907,5.115 C22.4141642,5.0325 22.2032074,4.9775 21.8867721,4.9775 C21.4912281,4.9775 21.1220536,5.17 21.1220536,5.555 C21.1220536,5.8575 21.3330104,6.0775 22.3350554,6.82 C23.0470348,7.37 23.3371004,7.865 23.3371004,8.5525 C23.3371004,9.7075 22.3086858,10.945 20.4891831,10.945 C19.7508341,10.945 19.1179636,10.6425 18.9070068,10.34 C18.6433107,9.8725 18.8542676,8.9375 19.1443332,9.1025 C19.5398773,9.295 20.1727478,9.515 20.7001399,9.515 C21.2011624,9.515 21.5175977,9.2675 21.5175977,8.965 C21.5175977,8.69 21.2802712,8.47 20.3837047,7.7825 C19.6189861,7.1775 19.3816597,6.6275 19.3816597,6.0225 C19.3816597,4.7025 20.4628135,3.63 22.0449898,3.63 L22.0449898,3.63 Z M26.7651491,9.35 C27.503498,9.35 28.8483479,8.0025 29.2175223,5.4175 C29.2438919,5.2525 29.2438919,5.225 29.2702615,5.06 C29.1120439,5.005 28.8747175,4.95 28.6637606,4.95 C28.1099989,4.95 27.5298676,5.115 27.0288451,5.8575 C26.501453,6.6275 26.2641266,7.59 26.2641266,8.36 C26.2904962,8.9925 26.4487138,9.35 26.7651491,9.35 L26.7651491,9.35 Z M24.3391454,8.635 C24.3391454,7.7 24.6292111,6.105 25.7631041,4.9225 C26.7387795,3.8775 27.8990421,3.63 28.9801959,3.63 C29.6921752,3.63 30.641481,3.8775 31.2479819,3.9875 C31.0897643,4.675 30.7469594,7.2875 30.5623722,8.8 C30.4832634,9.4325 30.4568938,10.34 30.4832634,10.67 C29.9822409,10.89 29.0593047,10.945 28.7956087,10.945 C28.6637606,10.945 28.637391,10.3125 28.6637606,9.68 C28.6901302,9.4875 28.7164998,9.185 28.7164998,9.0475 C28.1363685,10.065 26.9761059,10.9175 25.7631041,10.9175 C24.9192767,10.945 24.3391454,10.175 24.3391454,8.635 L24.3391454,8.635 Z M34.649661,5.665 C35.3352707,4.51 36.2318373,3.63 37.4975783,3.63 C38.5787321,3.63 38.921537,4.675 38.7105801,6.1325 C38.6051017,6.82 38.4205145,7.81 38.3150361,8.7175 C38.2095576,9.4875 38.1304488,10.175 38.1568184,10.6425 C37.7612744,10.835 36.6273813,10.9175 36.3636853,10.9175 C36.2582069,10.9175 36.2318373,10.065 36.3900549,9.1575 C36.5219029,8.415 36.7592294,7.04 36.8910774,6.2425 C36.9701862,5.775 36.9438166,5.225 36.5219029,5.225 C35.9681412,5.225 34.649661,6.16 33.9904208,9.955 C33.9376816,10.2575 33.8322032,10.45 33.647616,10.56 C33.4102895,10.6975 32.9356366,10.835 31.9599613,10.835 C32.1445485,9.8725 32.4346141,7.92 32.645571,6.4625 C32.8301582,5.1425 32.909267,4.29 32.8828974,3.96 C33.1465935,3.8775 34.4914433,3.575 34.6232914,3.575 C34.781509,3.575 34.8078786,4.07 34.6760306,5.225 C34.649661,5.335 34.649661,5.5 34.6232914,5.61 L34.649661,5.61 L34.649661,5.665 L34.649661,5.665 Z M42.2968464,9.3225 C42.9560865,9.3225 44.3009364,8.03 44.6701109,5.7475 C44.6964805,5.61 44.7228501,5.39 44.7492197,5.2525 C44.5646324,5.06 44.3009364,4.95 43.8790227,4.95 C42.3495856,4.95 41.6903455,6.8475 41.6903455,8.2225 C41.7167151,8.9375 41.9540415,9.3225 42.2968464,9.3225 Z M41.321171,10.945 C40.3454956,10.945 39.7653643,10.0375 39.7653643,8.525 C39.7653643,5.995 41.2948014,3.6575 43.8526531,3.6575 C44.3009364,3.6575 44.7228501,3.795 44.9601765,3.9325 C45.0920245,3.2175 45.4084598,0.99 45.4348294,0.33 C45.8567431,0.2475 46.7533097,0.11 47.1752233,0.11 C47.333441,0.11 47.3861802,0.275 47.333441,0.6875 C46.9642665,3.0525 46.331396,7.5625 46.1995479,8.5525 C46.1204391,9.405 46.0940695,10.23 46.1204391,10.6975 C45.6457862,10.9175 44.6701109,10.9725 44.4064148,10.9725 C44.3009364,10.9725 44.2481972,10.2575 44.2745668,9.5975 C44.3009364,9.405 44.327306,9.1025 44.327306,9.0475 C43.5098482,10.3125 42.4814336,10.945 41.321171,10.945 L41.321171,10.945 Z M50.1286191,5.885 C50.9197072,4.0425 51.869013,3.63 52.5018835,3.63 C52.6864708,3.63 53.002906,3.7675 53.1347541,3.905 C53.1874933,4.4275 52.7919492,5.445 52.4491443,5.8575 C52.2645571,5.775 52.0536003,5.665 51.7899042,5.665 C51.2888817,5.665 50.2604671,6.49 49.6275966,10.065 C49.5748574,10.3675 49.4957486,10.4775 49.3375309,10.56 C49.0738349,10.725 48.0717899,10.835 47.597137,10.8625 C47.8344635,9.57 48.2036379,6.9575 48.3618556,5.4175 C48.4145948,5.0325 48.4145948,4.29 48.3882252,4.015 C48.6782908,3.8775 49.8121838,3.6025 50.0495103,3.6025 C50.1813583,3.6025 50.2868367,4.455 50.0758799,5.8575 L50.1286191,5.8575 L50.1286191,5.885 L50.1286191,5.885 Z M55.4289097,9.35 C56.1672586,9.35 57.5121085,8.0025 57.881283,5.4175 C57.9076526,5.2525 57.9076526,5.225 57.9340222,5.06 C57.7758045,5.005 57.5384781,4.95 57.3275213,4.95 C56.7737596,4.95 56.1936282,5.115 55.6926057,5.8575 C55.1652136,6.6275 54.9278872,7.59 54.9278872,8.36 C54.9542568,8.9925 55.1124744,9.35 55.4289097,9.35 L55.4289097,9.35 Z M53.002906,8.635 C53.002906,7.7 53.2929717,6.105 54.4268647,4.9225 C55.4025401,3.8775 56.5628027,3.63 57.6439565,3.63 C58.3559359,3.63 59.3052416,3.8775 59.9117425,3.9875 C59.7535249,4.675 59.4107201,7.2875 59.2261328,8.8 C59.147024,9.4325 59.1206544,10.34 59.147024,10.67 C58.6460015,10.89 57.7230653,10.945 57.4593693,10.945 C57.3275213,10.945 57.3011517,10.3125 57.3275213,9.68 C57.3538909,9.4875 57.3802605,9.185 57.3802605,9.0475 C56.8001292,10.065 55.6398665,10.9175 54.4268647,10.9175 C53.5830373,10.945 53.002906,10.175 53.002906,8.635 L53.002906,8.635 Z" id="Shape"></path>
                    </g>
                    <path d="M53.9800254,11.7026188 C54.4870074,17.4086054 45.2812822,22.8540447 33.4072309,23.8441245 C21.5331796,24.8342044 11.5269565,21.0041586 11.0199746,15.298172 C10.5129926,9.59218538 19.7187178,4.14674609 31.5927691,3.15666622 C43.4401372,2.16658636 53.4730435,5.97057743 53.9800254,11.7026188" id="Path" fill="#BBE6FB"></path>
                    <path d="M32.3862988,4.00259234 C27.8572788,3.92141207 22.5823026,5.76149829 18.6393911,7.46628406 C18.2397716,8.65692809 18,9.92875239 18,11.2546969 C18,18.2903207 24.2607041,24 31.9866794,24 C39.7126546,24 46,18.3173808 46,11.2546969 C46,9.03576937 45.3606089,6.92508223 44.2683159,5.1120561 C41.1246432,4.62497445 36.7821123,4.08377262 32.3862988,4.00259234" id="Path" fill="#FFFFFF"></path>
                    <path d="M32.4373184,4.01359091 C29.8956921,3.8505721 25.5154425,5.18189241 21.8652345,6.51321272 C21.2974244,7.81736322 21,9.25736274 21,10.7788717 C21,16.9735866 26.5969856,22 32.4913956,22 C38.358767,22 43.5501739,16.9735866 43.9827912,10.7788717 C44.117984,8.7683063 43.4420196,6.86642015 42.4686308,5.23623201 C38.7102685,4.58415676 34.708559,4.17660972 32.4373184,4.01359091" id="Path" fill="#FFFFFF"></path>
                    <path d="M25.862069,9.716796 C26.185907,9.03388957 26.6446777,8.71870199 27.1034483,8.16712372 C27.0494753,8.03579556 26.9415292,7.58927981 26.9415292,7.45795165 C26.9415292,6.77504522 27.5082459,6.24973258 28.1829085,6.24973258 C28.3448276,6.24973258 28.5067466,6.27599821 28.6416792,6.32852948 C30.7196402,4.77885719 33.4452774,4.12221639 36.197901,4.72632593 C36.4407796,4.77885719 36.6836582,4.85765409 36.9265367,4.91018535 C34.2278861,4.5424665 31.1514243,5.48802925 29.0734633,7.11649844 C29.1274363,7.27409223 29.3163418,7.66807671 29.3163418,7.85193613 C29.3163418,8.53484256 28.8575712,8.69243636 28.1829085,8.69243636 C28.0209895,8.69243636 27.886057,8.66617072 27.7241379,8.61363946 C27.2653673,9.21774899 26.6716642,10.3997024 26.4017991,11.1351401 C27.5622189,12.1332341 28.5877061,12.500953 29.9370315,13 C29.9370315,12.9474687 29.9910045,12.8686718 29.9910045,12.8161406 C29.9910045,10.7936869 31.826087,9.1389521 33.904048,9.1389521 C35.7661169,9.1389521 37.3313343,10.4522337 37.6281859,12.1857654 C38.5727136,11.6079215 39.4632684,11.1614058 40.137931,10.3209055 C39.976012,10.1370461 39.814093,9.58546784 39.814093,9.32281152 C39.814093,8.71870199 40.3268366,8.21965498 40.9475262,8.21965498 C41.0284858,8.21965498 41.1094453,8.21965498 41.2173913,8.24592061 C41.5682159,7.53674855 41.838081,6.80131085 42,6.03960753 C38.7346327,3.67570065 32.4197901,4.01715386 32.4197901,4.01715386 C32.4197901,4.01715386 27.4002999,3.75449754 24,5.38296673 C24.2428786,6.90637338 24.8905547,8.42978004 25.862069,9.716796" id="Path" fill="#373535"></path>
                    <path d="M41.5427936,8.70612245 C41.7885143,8.91836735 41.8977234,9.07755102 42.0069326,9.26326531 C42.3072578,9.79387755 41.7066074,10.2979592 41.0513524,10.2979592 C40.9967478,10.2979592 40.9148409,10.2979592 40.8602363,10.2714286 C40.1503767,11.3591837 38.8944712,12.7387755 37.7750772,13.455102 C39.4951217,13.7204082 41.1059569,14.3836735 42.3618624,15.4183673 C43.2901404,13.8 44,11.4387755 44,9.44897959 C44,7.93673469 43.3174427,6.82244898 42.2799555,6 C42.2526532,6.82244898 41.7885143,7.96326531 41.5427936,8.70612245 M27.6732288,19 C28.2465769,17.4612245 29.6389939,16.2938776 30.9768062,15.2591837 C30.7856902,14.9938776 30.485365,14.3571429 30.3761558,14.0653061 C28.7653205,13.5877551 27.3456013,12.6857143 26.2262072,11.5183673 C26.2262072,11.544898 26.1989049,11.5979592 26.1989049,11.6244898 C25.9804866,12.5265306 25.9531843,13.455102 26.0623935,14.3306122 C26.8268577,14.4632653 27.4275081,15.1265306 27.4275081,15.922449 C27.4275081,16.4 26.9906714,17.0632653 26.6630439,17.3816327 C26.9906714,18.0714286 27.2363921,18.4428571 27.6732288,19" id="Shape" fill="#373535" fill-rule="nonzero"></path>
                    <path d="M27.6343949,20.3762712 C26.9656051,19.6983051 26.510828,18.3694915 26.0828025,17.5288136 C26.0025478,17.5288136 25.922293,17.5559322 25.8420382,17.5559322 C24.9324841,17.5559322 23.9961783,16.7966102 24.2101911,15.9016949 C24.3171975,15.4135593 24.6649682,15.0881356 25.2,14.8169492 C25.066242,13.7864407 25.0394904,12.3491525 25.2802548,11.2915254 C25.333758,10.9932203 25.4942675,10.8576271 25.5745223,10.559322 C24.5847134,9.09491525 23.9426752,7.14237288 23.9426752,5.21694915 L23.9426752,5 C22.2573248,5.86779661 21,7.19661017 21,9.31186441 C21,14.0033898 23.6751592,18.6135593 27.6343949,20.4033898 L27.6343949,20.3762712 M37.3987261,13.8949153 C36.8904459,15.359322 35.4993631,16.4440678 33.8675159,16.4440678 C32.9847134,16.4440678 32.1821656,16.1457627 31.566879,15.6305085 C30.256051,16.6610169 29.0522293,18.4779661 28.4636943,20.0779661 C28.7312102,20.3762712 28.9184713,20.620339 29.2394904,20.8915254 C30.1490446,21.1355932 31.433121,20.8915254 32.4229299,20.8915254 C36.4089172,20.8915254 39.966879,19.1016949 42,15.9288136 C40.6089172,14.9525424 39.0038217,14.0305085 37.3987261,13.8949153" id="Shape" fill="#373535" fill-rule="nonzero"></path>
                    <path d="M25.808096,10.7955929 C26.131934,10.1126865 26.5097451,9.50857693 26.9685157,8.93073303 C26.9145427,8.79940487 26.8875562,8.64181108 26.8875562,8.51048292 C26.8875562,7.82757648 27.4542729,7.30226384 28.1289355,7.30226384 C28.2908546,7.30226384 28.4527736,7.32852948 28.5877061,7.38106074 C30.6656672,5.83138845 33.3913043,5.17474765 36.143928,5.77885719 C36.3868066,5.83138845 36.6296852,5.91018535 36.8725637,5.96271661 C34.173913,5.59499777 31.3673163,6.40923236 29.2893553,8.03770154 C29.3433283,8.19529533 29.3973013,8.35288912 29.3973013,8.51048292 C29.3973013,9.19338935 28.8305847,9.71870199 28.155922,9.71870199 C27.994003,9.71870199 27.8590705,9.69243636 27.6971514,9.63990509 C27.2383808,10.2440146 26.8335832,10.9269211 26.5637181,11.6623588 C27.5622189,12.6867184 28.7766117,13.5272186 30.125937,14 L30.125937,13.8161406 C30.125937,11.7936869 31.826087,10.1389521 33.904048,10.1389521 C35.7661169,10.1389521 37.3313343,11.4522337 37.6281859,13.1857654 C38.5727136,12.6079215 39.3823088,11.8724838 40.083958,11.005718 C39.922039,10.8218585 39.814093,10.5854678 39.814093,10.3228115 C39.814093,9.71870199 40.3268366,9.21965498 40.9475262,9.21965498 C41.0284858,9.21965498 41.1094453,9.21965498 41.2173913,9.24592061 C41.5682159,8.53674855 41.838081,7.80131085 42,7.03960753 C38.7346327,4.67570065 32.4197901,5.01715386 32.4197901,5.01715386 C32.4197901,5.01715386 27.4002999,4.75449754 24,6.38296673 C24.1889055,7.98517028 24.8365817,9.50857693 25.808096,10.7955929" id="Path" fill="#1287B1"></path>
                    <path d="M40.7918636,9.39544513 C41.037212,9.61076605 41.1735168,9.9068323 41.1735168,10.2298137 C41.1735168,10.8488613 40.6555588,11.3602484 40.0285571,11.3602484 C39.9740352,11.3602484 39.8922524,11.3602484 39.8377305,11.3333333 C39.128946,12.436853 38.174813,13.378882 37.0571143,14.0786749 C38.6927709,14.320911 40.2466447,15.0207039 41.527909,16.0703934 C42.4547811,14.4285714 43,12.5175983 43,10.4989648 C43,8.96480331 42.3184764,7.83436853 41.2825605,7 C41.2280387,7.83436853 41.064473,8.64182195 40.7918636,9.39544513 M26.9433041,20 C27.5157839,18.4389234 28.4971779,17.0662526 29.8329642,16.0165631 C29.6421375,15.747412 29.4785719,15.4782609 29.3695281,15.1552795 C27.7611324,14.6708075 26.3435633,13.7556936 25.2258647,12.5714286 C25.2258647,12.5983437 25.1986037,12.6521739 25.1986037,12.679089 C24.9805162,13.5942029 24.9532552,14.5362319 25.062299,15.4244306 C25.8256054,15.5590062 26.4253462,16.2318841 26.4253462,17.0393375 C26.4253462,17.5238095 26.2072586,17.9544513 25.8801273,18.2505176 C26.1527367,18.8695652 26.53439,19.4616977 26.9433041,20" id="Shape" fill="#1287B1" fill-rule="nonzero"></path>
                    <path d="M26.7672634,20.9078498 C26.0959079,20.225256 25.5319693,19.4607509 25.1023018,18.6143345 C25.0217391,18.6143345 24.9411765,18.6416382 24.8606138,18.6416382 C23.9475703,18.6416382 23.2225064,17.9044369 23.2225064,16.9761092 C23.2225064,16.3208191 23.5984655,15.7474403 24.1355499,15.4744027 C24.0012788,14.4368601 24.0549872,13.3993174 24.2966752,12.334471 C24.3503836,12.0341297 24.4578005,11.7337884 24.5383632,11.4334471 C23.544757,9.95904437 22.9539642,8.15699659 22.9539642,6.21843003 L22.9539642,6 C21.2621483,6.87372014 20,8.2116041 20,10.3412969 C20,15.0648464 22.7659847,19.1331058 26.7404092,20.9351536 C26.7672634,20.9351536 26.7672634,20.9351536 26.7672634,20.9078498 M36.4616368,14.9556314 C35.9514066,16.4300341 34.5549872,17.5221843 32.9168798,17.5221843 C32.0306905,17.5221843 31.2250639,17.221843 30.6074169,16.7030717 C29.2915601,17.7406143 28.297954,19.1604096 27.6803069,20.7713311 C27.9488491,21.0716724 28.2442455,21.3447099 28.5396419,21.6177474 C29.4526854,21.8634812 30.4194373,22 31.4130435,22 C35.4143223,22 38.9590793,19.8976109 41,16.7030717 C39.657289,15.7201365 38.07289,15.0921502 36.4616368,14.9556314" id="Shape" fill="#1287B1" fill-rule="nonzero"></path>
                    <polygon id="Path" fill="#FFFFFF" points="37.4625229 13.5966851 41 12.7403315 37.4351005 12.5469613 40.3418647 10.3370166 37.0511883 11.5248619 39.2723949 8.40331492 36.1736746 10.4751381 37.2431444 6.82872928 35.1316271 9.83977901 35.0767824 6.02762431 33.678245 9.42541436 32.5265082 6 32.5813528 10.0331492 30.5795247 6.41436464 31.6764168 10.2541436 28.4131627 7.87845304 30.9634369 11.1104972 26.904936 9.61878453 30.0859232 11.9944751 26 12.1325967 30.1956124 13.2099448 26 14.121547 30.1407678 14.4254144 26.6581353 16.6629834 30.250457 15.3646409 27.7550274 18.5414365 30.9085923 15.9723757 29.7842779 20.2265193 32.2248629 16.7458564 31.8957952 20.8342541 33.2669104 17.1049724 34.4460695 21 34.7202925 17.0773481 36.4753199 20.4198895 35.4332724 16.6077348 38.6142596 19.0939227 36.5575868 15.9171271 40.0676417 17.2983425 37.3802559 14.6464088 40.9725777 14.9226519 37.4625229 13.5966851"></polygon>
                    <path d="M1,21 C11.6361837,10.0884354 20.1239113,6.71428571 27.8424386,5.19047619 C28.8503563,5 29.0625495,2.68707483 29.0625495,2.68707483 C29.0625495,2.68707483 29.1951702,4.37414966 29.9113222,4.59183673 C30.6274743,4.80952381 31.5558195,1.95238095 31.5558195,1.95238095 C31.5558195,1.95238095 30.7070467,4.51020408 31.5558195,4.67346939 C32.4045922,4.80952381 33.9960412,2.17006803 33.9960412,2.17006803 C33.9960412,2.17006803 33.3594616,4.42857143 33.783848,4.59183673 C34.2082344,4.72789116 36.3566904,1.29931973 36.3566904,1.29931973 C36.3566904,1.29931973 35.0835313,3.55782313 36.277118,3.80272109 C37.4972288,4.02040816 39.2743468,2.25170068 39.2743468,2.25170068 C39.2743468,2.25170068 37.8950911,3.85714286 38.5051465,4.10204082 C41.1575614,5.05442177 43.2794933,1.54421769 43.2794933,1.54421769 C43.2794933,1.54421769 42.7755344,3.0952381 41.5023753,4.78231293 C44.2874109,5.5170068 46.3562945,1.21768707 46.3562945,1.21768707 L44.2874109,5.5170068 C45.3483769,6.06122449 49.6187648,1 49.6187648,1 C49.6187648,1 47.4172605,4.94557823 46.1175772,5.76190476 C46.8337292,6.36054422 49.4065717,3.99319728 49.4065717,3.99319728 C49.4065717,3.99319728 47.337688,6.63265306 48.1334125,6.76870748 C49.2739509,7.72108844 53.4912906,1.8707483 53.4912906,1.8707483 C53.4912906,1.8707483 51.8467933,5.32653061 49.4330958,8.02040816 C51.4489311,9.08163265 56.4885194,2.41496599 56.4885194,2.41496599 C56.4885194,2.41496599 56.3558987,4.53741497 52.6955661,7.91156463 C55.4010293,7.55782313 58.9022169,2.27891156 58.9022169,2.27891156 C58.9022169,2.27891156 57.6290578,6.2244898 54.5522565,9.02721088 C57.2046714,8.75510204 61.4750594,2.00680272 61.4750594,2.00680272 C61.4750594,2.00680272 59.8305622,6.68707483 56.4885194,9.40816327 C60.2019002,10.2517007 65.5597783,4.56462585 65.5597783,4.56462585 C65.5597783,4.56462585 63.4643705,8.59183673 60.7058591,10.2517007 C63.7826603,11.4489796 68,6.46938776 68,6.46938776 C68,6.46938776 63.7826603,13.1360544 57.0720507,12.8367347 C54.8705463,12.7278912 48.212985,5.97959184 33.9429929,6.52380952 C15.0577989,7.23129252 11.0791766,15.4489796 1,21" id="Path" fill-opacity="0.35" fill="#373535"></path>
                    <path d="M1,20 C11.6319747,9.05866303 20.1163435,5.67530696 27.8318164,4.1473397 C28.8393352,3.95634379 29.0514444,1.63710778 29.0514444,1.63710778 C29.0514444,1.63710778 29.1840127,3.32878581 29.8998813,3.54706685 C30.6157499,3.76534789 31.5437277,0.900409277 31.5437277,0.900409277 C31.5437277,0.900409277 30.6952909,3.46521146 31.5437277,3.62892224 C32.3921646,3.76534789 33.9829838,1.11869031 33.9829838,1.11869031 C33.9829838,1.11869031 33.3466561,3.38335607 33.7708746,3.54706685 C34.195093,3.6834925 36.3426989,0.245566166 36.3426989,0.245566166 C36.3426989,0.245566166 35.0700435,2.51023192 36.2631579,2.75579809 C37.4827859,2.97407913 39.2592006,1.2005457 39.2592006,1.2005457 C39.2592006,1.2005457 37.8804907,2.81036835 38.4903047,3.05593452 C41.14167,4.01091405 43.2627622,0.491132333 43.2627622,0.491132333 C43.2627622,0.491132333 42.7590028,2.04638472 41.4863474,3.73806276 C44.270281,4.47476126 46.3383459,0.163710778 46.3383459,0.163710778 L44.270281,4.47476126 C45.3308271,5.07503411 49.6260388,0 49.6260388,0 C49.6260388,0 47.4254056,3.95634379 46.1262366,4.77489768 C46.8421053,5.29331514 49.4139296,2.946794 49.4139296,2.946794 C49.4139296,2.946794 47.3458647,5.59345157 48.1412742,5.72987722 C49.2813613,6.68485675 53.4970321,0.818553888 53.4970321,0.818553888 C53.4970321,0.818553888 51.8266719,4.28376535 49.4139296,6.98499318 C51.4289672,8.0218281 56.4930748,1.33697135 56.4930748,1.33697135 C56.4930748,1.33697135 56.3605065,3.46521146 52.7016225,6.84856753 C55.406015,6.49386085 58.9058172,1.2005457 58.9058172,1.2005457 C58.9058172,1.2005457 57.6331619,5.1568895 54.5575782,7.96725784 C57.2089434,7.69440655 61.4776415,0.927694407 61.4776415,0.927694407 C61.4776415,0.927694407 59.833795,5.6207367 56.4930748,8.34924966 C60.2049861,9.19508868 65.560744,3.49249659 65.560744,3.49249659 C65.560744,3.49249659 63.4661654,7.53069577 60.7087455,9.19508868 C63.7843292,10.3956344 68,5.40245566 68,5.40245566 C68,5.40245566 63.7843292,12.0873124 57.0763751,11.787176 C54.875742,11.6780355 48.2208152,4.91132333 33.9564701,5.45702592 C15.0787495,6.19372442 11.075188,14.4065484 1,20" id="Path" fill="#373535"></path>
                    <path d="M0,21.7267304 C5.6306914,24.5079189 10.7833052,21.3069283 17.2639123,23.1173246 C22.2040472,24.4816813 28.2065767,26.1871271 36.3604553,25.0064339 C44.5143339,23.8519782 51.4730185,20.3361361 54.8195616,14.0915806 C55.8553963,11.310392 60.0784148,14.7212837 60.0784148,14.7212837 C60.0784148,14.7212837 56.9974705,13.4618775 57.0771501,14.0391053 C57.1568297,14.6425708 61.6985666,16.7153434 61.6985666,16.7153434 C61.6985666,16.7153434 57.5817875,15.4559373 57.8473862,16.4004919 C58.086425,17.3450465 63,21.1757402 63,21.1757402 C63,21.1757402 57.3958685,17.0301949 56.9443508,17.6074228 C56.4662732,18.1846506 59.3081788,20.4673242 59.3081788,20.4673242 C59.3081788,20.4673242 54.6336425,17.6074228 52.9869309,18.4470268 C51.7917369,19.0504923 57.8473862,22.9598989 57.8473862,22.9598989 C57.8473862,22.9598989 53.9165261,19.9950469 52.9869309,20.7821757 C52.0573356,21.5693046 57.4224283,27.9188106 57.4224283,27.9188106 C57.4224283,27.9188106 51.3136594,21.4118788 50.7027825,21.7267304 C50.0919056,22.0415819 52.376054,25.1638596 52.376054,25.1638596 C52.376054,25.1638596 49.4013491,21.9103937 48.5779933,22.4613839 C47.7546374,23.0386118 52.8806914,31.4608904 52.8806914,31.4608904 C52.8806914,31.4608904 47.3296796,22.8287107 45.0189713,24.2717803 C48.6045531,32.0643558 47.2765599,33.1663362 47.2765599,33.1663362 C47.2765599,33.1663362 46.8250422,25.2163349 42.336425,25.4262359 C40.0788364,25.5311864 43.3988196,31.3559398 43.3988196,31.3559398 C43.3988196,31.3559398 40.3444351,26.0297013 38.2993255,26.1346519 C42.0442664,33.1663362 40.7162732,36 40.7162732,36 C40.7162732,36 41.3271501,29.9915832 36.2542159,26.6594044 C38.193086,28.3648502 35.0324621,36 35.0324621,36 C35.0324621,36 37.794688,24.7440576 32.9873524,26.8955431 C32.2171164,27.2366322 32.9342327,32.5103955 32.9342327,32.5103955 C32.9342327,32.5103955 31.9780776,26.475741 30.517285,26.7905926 C29.6673693,26.974256 25.1521922,35.1603959 25.1521922,35.1603959 C25.1521922,35.1603959 28.8440135,26.3183153 27.7284992,26.685642 C26.9051433,26.9480183 25.3646712,30.5950486 25.3646712,30.5950486 C25.3646712,30.5950486 26.1083474,27.0004936 25.3646712,26.7905926 C24.6209949,26.5806915 20.4245363,30.5950486 20.4245363,30.5950486 C20.4245363,30.5950486 23.5320405,27.0004936 23.0008432,26.2396024 C22.1774874,25.1113844 21.2478921,25.0589091 20.1058179,25.5049488 C18.4591062,26.1346519 16.2546374,29.0995038 16.2546374,29.0995038 C16.2546374,29.0995038 18.4591062,26.0821766 18.0872681,24.9801962 C17.4763912,23.1697999 11.1285835,28.4698008 11.1285835,28.4698008 C11.1285835,28.4698008 14.8735245,24.9801962 14.0236088,24.219305 C13.1736931,23.4846514 8.49915683,23.6945525 7.06492411,23.6945525 C2.78878583,23.7470277 1.30143339,22.7499978 1.76924243e-16,21.7267304" id="Path" fill-opacity="0.35" fill="#373535"></path>
                    <path d="M3.83335859e-16,20.7167865 C5.6306914,23.494806 10.7833052,20.2974628 17.2639123,22.1057963 C22.2040472,23.4685983 28.2065767,25.1721008 36.3604553,23.9927529 C44.5143339,22.8396128 51.4730185,19.3277768 54.8195616,13.0903368 C55.8553963,10.3123173 60.0784148,13.7193223 60.0784148,13.7193223 C60.0784148,13.7193223 56.9974705,12.4613512 57.0771501,13.0379213 C57.1568297,13.6406991 61.6985666,15.7111099 61.6985666,15.7111099 C61.6985666,15.7111099 57.5817875,14.4531388 57.8473862,15.3966171 C58.086425,16.3400954 63,20.1664242 63,20.1664242 C63,20.1664242 57.4489882,15.9993949 56.9974705,16.575965 C56.5459528,17.1525351 59.3612985,19.4326077 59.3612985,19.4326077 C59.3612985,19.4326077 54.6867622,16.575965 53.0400506,17.4146124 C51.8448567,18.0173902 57.9005059,21.9223422 57.9005059,21.9223422 C57.9005059,21.9223422 53.9696459,18.9608685 53.0400506,19.7471005 C52.1104553,20.5333324 57.4755481,26.8756034 57.4755481,26.8756034 C57.4755481,26.8756034 51.393339,20.376086 50.7824621,20.6905788 C50.1715852,21.0050716 52.4557336,24.1237916 52.4557336,24.1237916 C52.4557336,24.1237916 49.4279089,20.9002407 48.6045531,21.450603 C47.7811973,22.0271731 52.8806914,30.4398548 52.8806914,30.4398548 C52.8806914,30.4398548 47.3296796,21.7913035 45.0455312,23.2327287 C48.6576728,31.0426326 47.3031197,32.1433573 47.3031197,32.1433573 C47.3031197,32.1433573 46.851602,24.2024148 42.3629848,24.4120766 C40.1053963,24.5169075 43.4253794,30.3350239 43.4253794,30.3350239 C43.4253794,30.3350239 40.3975548,25.0410622 38.3524452,25.1458931 C42.0973862,32.169565 40.7693929,35 40.7693929,35 C40.7693929,35 41.3802698,28.9984296 36.3073356,25.6700477 C38.2462057,27.3735502 35.0855818,35 35.0855818,35 C35.0855818,35 37.8478078,23.7568833 33.0404722,25.9059173 C32.2702361,26.2466178 32.9873524,31.5143718 32.9873524,31.5143718 C32.9873524,31.5143718 32.0311973,25.4865936 30.5704047,25.8010864 C29.720489,25.9845405 25.205312,34.1613526 25.205312,34.1613526 C25.205312,34.1613526 28.8971332,25.3293472 27.7816189,25.6962554 C26.9582631,25.9583328 25.4177909,29.6012074 25.4177909,29.6012074 C25.4177909,29.6012074 26.1614671,26.0107482 25.4177909,25.8010864 C24.6741147,25.5914245 20.477656,29.6012074 20.477656,29.6012074 C20.477656,29.6012074 23.5851602,26.0107482 23.0539629,25.250724 C22.2306071,24.1237916 21.3010118,24.0713761 20.1589376,24.5169075 C18.512226,25.1458931 16.3077572,28.1073667 16.3077572,28.1073667 C16.3077572,28.1073667 18.512226,25.0934776 18.1403879,23.9927529 C17.529511,22.1844195 11.1817032,27.4783812 11.1817032,27.4783812 C11.1817032,27.4783812 14.9266442,23.9927529 14.0767285,23.2327287 C13.2268128,22.4989123 8.55227656,22.7085741 7.11804384,22.7085741 C2.78878583,22.7347818 1.30143339,21.738888 0,20.7167865" id="Path" fill="#373535"></path>
                </g>
            </g>
        </g>
    </g>
</svg>