<?xml version="1.0" encoding="UTF-8"?>
<svg width="60px" height="45px" viewBox="0 0 60 45" version="1.1" xmlns="http://www.w3.org/2000/svg" xmlns:xlink="http://www.w3.org/1999/xlink">
    <!-- Generator: Sketch 53.2 (72643) - https://sketchapp.com -->
    <title>hadoop</title>
    <desc>Created with Sketch.</desc>
    <g id="web" stroke="none" stroke-width="1" fill="none" fill-rule="evenodd">
        <g id="Technologies---Technologies-tab" transform="translate(-774.000000, -2780.000000)">
            <g id="Big-data" transform="translate(735.000000, 2220.000000)">
                <g id="hadoop" transform="translate(39.000000, 560.000000)">
                    <polyline id="Path" fill="#FFFF00" points="22.0342544 9.88776161 18.0640728 10.5330111 14.442046 12.1222368 11.3657816 14.0586883 8.43819116 17.6335674 6.78451466 19.3865656 5.18492272 19.9765214 4.76207976 18.9418729 5.50170373 17.8737202 5.66793767 16.3672008 6.16312751 16.3873502 6.70444141 16.8814792 6.55834284 15.3468444 5.95826173 14.9438563 5.97699232 14.359055 4.55557507 15.1636254 3.26854976 16.6832653 3 18.0412414 3.55067919 19.1288407 4.06389722 20.9762599 5.10789319 21.4708575 6.20597372 21.4169695 7.24739423 20.8115502 6.55272367 24.3369931 7.24739423 28.2595666 6.48271811 30.07067 3.97797066 32.7713931 4.42329031 34.3847512 5.60987286 36.2541942 7.84700708 37.8293621 9.03358962 37.9921974 10.3529252 38.0367135 9.52971599 41.418299 12.5565785 42.6593617 16.3275135 43.156068 17.6175825 42.312136 17.7168546 40.0277558 19.1560659 37.6442688 19.255338 35.7574879 22.7286908 36.005841 25.9538634 35.7080516 22.7286908 37.6442688 23.2746874 39.9783195 25.3088289 43.156068 27.2935685 44 28.8814538 43.3545162 29.5262542 42.0635485 32.850933 39.5312839 33.4959675 40.0771922 38.7061138 40.276109 39.7480026 39.4321769 39.8470405 37.9420582 39.5000564 37.297043 39.2516421 33.2748939 37.5150827 29.7991217 37.812899 28.2598009 38.8547878 28.8061778 41.7823782 31.5368906 43.2213554 31.6364662 44.8090066 30.9907481 46.397126 29.7991217 47.1908346 27.2171864 51.8552184 27.5149758 54.6835367 26.422925 56.9658585 24.2875567 58.6033799 21.2089152 59 17.5843654 58.6527818 13.3635338 57.7598012 9.59020645 56.8665864 8.39858006 55.6263875 8.00121507 53.4428696 10.3844678 51.45813 11.0796223 49.7213366 8.19966327 47.9847772 6.61090618 47.0419264 6.01509298 43.2707573 2.88678084 40.2441289 1.24811883 37.2172664 1 33.6945117 1.5958132 30.6180131 2.73753467 28.4843654 4.47553793 26.7974421 6.51156493 25.0608828 7.00827117 22.0337861 9.8879959"></polyline>
                    <path d="M10.7648582,19.097973 C7.36689233,23.1855695 8.12173587,28.1426158 9.06353539,33 C8.56104999,31.6904273 8.05844493,30.3809035 7.55572021,29.0714286 L7,25.4693533 C7.05288117,24.2415541 7.10552834,23.0137548 7.15887748,21.7861969 L8.58713693,18.2666506 L10.7299941,14.9925193 L14.0633794,12.1281371 L17.7140517,10.5728764 L22,10 L18.0315727,14.6652992 C14.8451315,15.7309363 12.9664462,16.449083 10.7646242,19.097973" id="Path" fill="#FFFFCC"></path>
                    <path d="M26.1781484,6.70535357 C23.7847107,9.00665302 22.4771516,10.7425571 20.9536022,13.4370633 C19.8641672,15.3645476 18.6419611,17.2212407 17.4960983,19.1218571 C16.916884,20.0839638 16.8621159,20.8904699 16.6888021,22 L15,20.0187798 C15.2683875,19.2262917 15.5363008,18.4338036 15.804214,17.6415491 L18.5385892,12.8076521 L24.3288355,7.18103333 C24.9452731,7.02239553 25.5617108,6.864225 26.1781484,6.70535357 M37.9997629,1 C36.0824047,1.70814605 32.8987414,1.94154688 32.6777722,4.10967469 C32.5205806,5.64979307 32.7956066,6.42359041 33.7375707,8.05295714 C31.4109928,5.68039918 30.835572,6.04743892 26.3391335,6.78478928 L28.2690575,4.09051667 L31.6466616,2.02986071 L35.9894649,1.07896845 L38,1" id="Shape" fill="#FFFFCC" fill-rule="nonzero"></path>
                    <path d="M44.0171468,30.2481246 C44.6476462,30.6418255 44.6340619,30.9270335 44.5286663,31.1968442 C45.0258989,30.9954929 45.5233658,30.7941417 46.0205984,30.5935012 L46.9874265,29.2804544 L47.7048186,27.41002 L46.7878777,26.7128711 L42.7805061,27.2302253 C42.6816686,27.5031154 42.5818942,27.7762424 42.482354,28.0496063 C42.5106936,28.437385 42.5395017,28.8256375 42.5676072,29.2134163 C42.6954871,29.4436673 42.8236012,29.6734446 42.9517153,29.9034587 C43.1505615,30.0038974 43.3491735,30.1048099 43.5482539,30.2052487 C43.7049419,30.2194617 43.8609272,30.2341485 44.0171468,30.2481246 M43.6442809,23.3171421 C41.6354425,23.9034295 41.6511347,24.0649842 41.0581093,26.0806283 C41.8410808,24.8099837 42.4207561,24.1687393 43.6442809,23.3171421 M57,8.23451494 C56.6430605,8.40151801 56.2950211,8.48158472 56.0720511,8.8120376 C55.5914476,9.52316271 55.1797024,10.1212942 54.3850203,10.6204084 C53.9847516,10.8719789 53.5708985,11.034955 53.1465059,11.1687943 C52.7944849,11.2794191 52.582757,11.1804016 52.2831996,11.3985716 C52.4612009,11.4293665 52.638968,11.4611089 52.8167351,11.4926145 L53.9924806,11.4926145 L55.4420201,10.5874815 L56.2945527,9.68187484 L57,8.23451494 M25.0037967,12.742887 C24.2137988,14.930035 23.5231069,16.8047332 22.3262823,18.7846079 C23.8599041,17.1131559 24.7899609,15.692327 25.6684911,13.8027051 C26.0099725,13.0683654 26.0743809,12.2070559 27.0250484,12.5273228 C27.067675,13.260715 27.2208498,13.9931596 27.2634764,14.726078 C27.7771039,11.0027388 29.2254724,9.44522794 32.5922735,8 L29.7360551,8.34513967 L27.0501091,8.94871954 L25.7286836,10.8887977 L25.0037967,12.742887 M31.5263735,12.6566613 C32.2524315,16.1127957 33.297955,19.4301162 33.7520925,22.9412075 C34.0469657,25.2226352 34.0790528,26.3186965 32.9442945,28.2872007 C31.7039064,28.2059495 30.9338166,28.3473692 29.7339472,28.745097 C24.9576569,30.3286651 22.2180763,32.6572327 19,27.9655125 L22.0822332,29.4346657 C22.8146148,29.2889822 23.5469965,29.1437724 24.279144,28.9976151 C25.572464,28.2362707 26.8655498,27.4744524 28.1588699,26.7128711 L31.1853605,26.1088174 L32.1660072,21.9702209 L31.4411203,16.4941786 C31.4130148,15.6319216 31.3844409,14.7696647 31.355867,13.9074077 C31.4130148,13.4904923 31.4699284,13.0735768 31.5263735,12.6568982 M39.7540155,34.042529 C39.3528099,36.8505493 40.6779828,38.3599728 40.1292235,39.1355303 C39.9739408,39.3548847 39.763384,39.7381626 39.5284691,39.843339 C38.6888182,40.218326 37.5343861,39.7729845 37.4521776,39.9925758 L34.6812125,39.9925758 L33.5729201,39.5183345 L35.2779853,37.4917937 C35.8321315,36.270421 36.3865118,35.0485744 36.9404238,33.8267279 L38.0060895,30.119023 L38.5604699,30.119023 L39.7540155,34.042529" id="Shape" fill="#CCCC00" fill-rule="nonzero"></path>
                    <path d="M34.1546693,26.4912285 C34.3819161,27.7809833 34.7765829,28.0874858 35.3753226,29.336022 C34.9768722,31.3729814 34.3367505,33.7950459 33.5663343,35.592363 C33.2414258,36.3503516 32.9794181,36.7682877 32.4062171,37.3539734 C31.4390587,38.343696 30.4617321,39.2054497 29.3652251,40.063369 C28.5754184,40.6799686 28.0244455,40.3708301 27.0504295,40.2311186 C26.6361357,40.9919829 26.5219211,41.4149515 25.7593084,41.8012549 C24.5868949,42.3950884 23.5376817,41.115159 22.6173441,40.3617237 C23.2818221,41.4137533 23.9463002,42.465064 24.6103053,43.5168539 C25.0695282,43.9530029 25.5287511,44.3889122 25.9877375,44.8253008 L27.149983,45 L28.6990917,44.039993 C28.971977,43.5168539 29.2443894,42.9932356 29.5170382,42.4700965 C30.0909486,42.0339475 30.6650955,41.5977986 31.2385329,41.1611703 C31.9417919,40.5508014 32.6448144,39.9399533 33.3478369,39.3293447 L34.6819953,37.4100497 L35.8868051,35.1420752 C36.4037265,33.571939 36.9201749,32.0015631 37.4368598,30.4314269 C37.4796607,29.8351969 37.5224616,29.2392066 37.5657354,28.6427369 C36.9201749,28.3522905 36.2746144,28.0611251 35.6288174,27.770439 C35.1554063,27.3199116 34.6280804,26.9419957 34.1546693,26.4912285 M18.7137129,35.5782241 C20.8859177,35.5782241 23.1801405,35.4560066 25.1700276,34.531227 C25.7328239,33.6757041 26.2887627,32.9764279 26.977597,32.2198772 C26.3507175,33.4200058 26.1539753,34.0981934 25.9877375,35.4473795 L25.342177,36.4071468 C23.7065206,36.450522 22.0711006,36.4941369 20.4354441,36.5379915 C19.9043346,36.4795188 19.3736981,36.4215253 18.842825,36.3635319 C18.7853631,36.3048195 18.7281375,36.2468261 18.6706756,36.1888327 C18.6853367,35.9851367 18.6995248,35.7816804 18.7137129,35.5782241 M18.4126878,34.0517028 L18.2438489,32.5026551 C17.872829,34.7667954 17.9619778,36.2842103 16.9338104,38.3123029 C16.1657589,39.2138372 15.2201191,40.0343723 14.1370908,40.4736366 C14.2286044,41.0296067 14.2560348,41.377088 14.2028292,41.7847195 C14.0119987,43.2513303 11.1176175,42.6033376 9.92675931,42.5448648 L15.6578233,44.0402327 L16.9489444,43.5168539 C17.0927176,42.6737924 17.2362543,41.8300119 17.3795545,40.9869504 L18.5846008,38.7189759 L18.7997877,37.3230596 L18.4124514,34.0519425 M15.1841758,21.2713404 C15.1243491,22.3724967 15.0541178,22.8314117 15.5332041,23.8034007 C16.142112,25.0389963 16.8898271,26.2003028 17.5514675,27.4215199 L17.7666544,24.9788461 C16.9061435,23.7427712 16.0451596,22.5071757 15.1844123,21.2715801 M6.34898251,29.5871672 C6.16240842,29.9888076 5.97654375,30.3909274 5.78996966,30.7928075 C6.30263457,32.5433943 6.75878338,33.6522191 7.73516411,35.1813765 C7.56490639,35.8008518 7.43768604,36.0718872 7.04656622,36.5768135 C6.18723767,36.4430931 5.42415203,36.4042711 4.5532365,36.4071468 C5.51448321,37.1627389 6.47572992,37.9192896 7.43697663,38.675361 C7.91038768,38.5876519 8.3840352,38.5004221 8.85744625,38.4134319 L10.2779159,36.9741404 L8.25492309,33.7897738 C7.61929427,32.3890647 6.98413839,30.9878763 6.34898251,29.5871672 M56.2751671,8.06201833 C56.8606645,10.7309144 57.6159466,13.1941974 57.5457153,15.9280365 C57.4596406,19.2818302 56.8147895,23.5184661 53.7482588,25.5408073 C50.3142551,27.8059061 46.2829307,26.7344655 42.5152692,25.7639142 L47.1207405,27.6832092 C48.5553983,27.7560605 49.9902925,27.8289118 51.4249503,27.9012837 C52.4006216,27.6105976 53.3762929,27.3199116 54.3514913,27.0289858 C55.1119758,26.3891409 55.8724603,25.7497753 56.6329448,25.1096908 L58.3544395,21.4460396 L59,17.2149156 C58.828087,15.8333778 58.6554646,14.4523194 58.4835516,13.0710213 L57.5367295,8.9709815 C57.1162875,8.66783402 56.6958455,8.36468653 56.2751671,8.06201833 M5.02806637,16.0171834 C3.46926235,17.0454885 2.8568075,17.4969745 3.02777463,19.4028496 L3.49361867,21.1150937 L4.15407674,21.5680176 L4.96989498,21.8436062 L6.44593482,21.4891752 C6.69872024,20.6952404 6.95103272,19.9015451 7.2033452,19.1076103 L5.10586468,20.1510128 L4.62039371,20.1510128 C4.43918347,19.8688193 4.25789052,19.5866805 4.07651489,19.3045962 L4.73697296,18.3203854 L5.08647422,16.4504567 C5.23544973,16.4962284 5.38442523,16.5424793 5.53316427,16.5880114 C5.71453603,16.7327553 5.89567133,16.8770199 6.07704309,17.0210449 L5.99924478,16.0370737 L5.63035305,15.4072938 C5.50738914,15.3018512 5.38442523,15.1973672 5.26146132,15.0921642 L5.02806637,16.0171834 M40.0042043,1 C41.3880212,2.30221615 43.0861055,3.43380699 44.1927807,5.02503173 C44.6210262,5.64091238 45.0968019,5.95604198 44.1856866,6.8261831 C45.1483522,6.54747913 45.5063663,6.57767405 46.2772554,6.67233275 C47.6795169,6.84439591 48.9938119,8.86458033 49.077522,10.3120197 C49.0609691,10.4474176 48.6880574,10.7548786 47.6038468,11.0582658 C47.5825646,11.1004428 46.9918649,10.9763081 47.006526,11.0170473 C47.1193217,11.3293012 47.269716,11.3772296 47.4998004,11.5231718 C47.5494589,11.8706531 47.5816187,12.4067329 47.8152502,12.7868055 C48.4974634,12.7743441 49.1643061,12.8498314 49.8323312,12.9837915 C50.0569768,13.3617073 50.0233982,13.7396232 50.0044807,14.1177787 L50.7791533,13.9871737 C50.7077396,13.3909437 50.635853,12.7949534 50.5642029,12.1987234 C50.7935779,11.8061893 51.0229529,11.4134156 51.2528008,11.0213608 L50.2627049,8.75290702 C49.631569,8.1422985 49.0004331,7.53145033 48.3688242,6.9208418 L48.186743,6.91173539 C47.4767519,6.47020781 46.7667929,6.02862697 46.0568663,5.58699287 L42.5831358,2.70697196 L40.0042043,1 M42.3350798,11.7472373 C42.2620109,11.8766441 42.1518163,12.0832158 42.0106443,12.2265219 C42.5869193,12.7788973 42.8713916,13.148905 43.0768832,13.9303785 C42.4251745,14.2579695 41.7739387,14.5860397 41.1224665,14.9133911 L39.4686019,16.5201926 C38.7428784,16.1243035 38.562216,15.8204371 38.2110595,15.0655639 C37.801968,15.1755598 37.4148682,15.281242 37.0771904,15.1554298 C37.2914313,15.1571073 37.4229081,15.1029481 37.6371491,14.9687485 L38.6894364,13.8608822 C39.3089853,13.3854319 39.9285342,12.9095024 40.5480832,12.4342917 L41.7647164,12.0324116 C41.9196037,11.9679478 42.1801926,11.8119407 42.3350798,11.7472373" id="Shape" fill="#CCCC00" fill-rule="nonzero"></path>
                    <path d="M45,13.4841951 C42.9948339,14.6407743 41.0747604,15.8037246 40.0495318,18 C40.0495318,15.2122029 42.6624695,13.9850527 44.9997713,13.48395 M39.6515179,8 C38.1626261,9.08747856 37.1099482,11.2820387 37.242162,13.4207302 C36.7572256,11.5687332 36.929012,9.81891693 38.4179039,8.53981867 C38.6695218,8.40921343 38.9204535,8.27811811 39.1718427,8.14751286 C39.3317344,8.09850527 39.4913975,8.04949767 39.6515179,8" id="Shape" fill="#CCCC00" fill-rule="nonzero"></path>
                    <path d="M59.6801169,13.1514026 C59.3998386,11.3915815 58.9350042,9.68330429 58.2898892,8.45499976 C58.2115063,8.30486051 58.0922693,8.15259331 57.9445294,8.0074193 C57.6241096,7.69295442 57.1497742,7.39504033 56.6597623,7.22740454 C56.140535,7.04960185 55.5930423,7.01342656 55.1583734,7.23946297 C55.0455495,7.29857291 54.940564,7.37423363 54.847217,7.46880953 C54.5657512,7.75253724 54.3282272,8.09773928 54.0904657,8.44317777 C53.8261016,8.82810169 53.5600748,9.21491713 53.2417927,9.48516777 C52.872918,9.79915977 52.4114089,9.98973021 51.9760275,10.1637499 C51.792745,9.72124624 51.5724179,9.29486275 51.3173736,8.88910315 C51.0197561,8.41669652 50.6808094,7.97431773 50.3078968,7.53193895 C50.0351147,7.20610366 49.7258329,6.9123539 49.3860664,6.65640253 C49.0644589,6.41216026 48.7352507,6.20645768 48.3518871,5.96765352 C47.3241209,5.32690178 46.4488452,4.56272849 45.5562302,3.78295017 C45.1505393,3.42876342 44.7408104,3.07126651 44.3401075,2.74237881 C42.2142682,0.997453407 40.2314182,0.15123552 38.1108044,0.0185928168 C36.0046795,-0.113340567 33.7807428,0.462626679 31.1549155,1.5630173 C29.8874877,2.09382456 28.9464178,2.72133567 28.1264851,3.47581493 C27.3433686,4.19695619 26.6785391,5.02733261 25.9476779,5.99697205 C25.52251,6.0269999 25.145797,6.08965644 24.7612458,6.2428694 C24.337503,6.41168738 23.91091,6.68501174 23.3997585,7.13401084 C23.0439907,7.44648276 22.6955291,7.76710195 22.3546531,8.09561133 C22.0423735,8.39719762 21.7356007,8.70438313 21.4344853,9.01701706 C19.0440443,9.39934014 17.0963479,9.82138511 15.351972,10.4938198 C13.5681671,11.1818595 11.9957585,12.1280914 10.3808332,13.5533502 C9.74495459,14.1125333 9.16527477,14.7320112 8.64999615,15.4030184 C8.15879662,16.0435337 7.73837923,16.7169142 7.36950453,17.4269427 C7.04647196,17.7827846 6.72272681,18.1419366 6.37237898,18.456165 C6.03081954,18.7623545 5.66669532,19.0203103 5.25862918,19.1765969 L5.2588667,19.1768334 C5.02158027,19.2678627 4.92348288,19.3210616 4.9127943,19.317515 C4.9009181,19.3108947 4.89426743,19.2754288 4.87764076,19.2101714 C5.46361235,18.6535922 5.55577164,17.8357471 5.6099271,17.023813 C5.68023419,17.1075126 5.74769099,17.2106004 5.81776056,17.3184169 C5.89519336,17.4373461 5.97452636,17.5600583 6.06953594,17.6794604 L6.46738856,18.1790576 L6.60705265,17.5558024 C6.72438948,17.033507 6.81227334,16.3381377 6.67545954,15.7352163 C6.58710063,15.3439085 6.40468224,14.9951599 6.08687519,14.7480803 C6.11727826,14.6691094 6.14601866,14.596286 6.17428401,14.5244083 C6.27404407,14.2702356 6.37689194,14.0094425 6.46406323,13.7630723 L6.63650562,13.2748242 L6.12345388,13.3632527 C5.44081005,13.4814725 3.97386212,14.2839491 2.94063294,15.3510017 C2.55703175,15.7475112 2.22711099,16.185634 2.01072667,16.6452729 C1.78555396,17.1235905 1.68460628,17.6241335 1.7720151,18.1249129 C1.84802276,18.5627993 2.06820746,18.9926468 2.46796027,19.3979046 C2.54088013,19.6903805 2.6080994,19.9440804 2.68006916,20.1729541 C2.76248997,20.4332742 2.85108641,20.6661674 2.96201009,20.895514 C3.26271541,21.5178234 3.74203875,21.8980185 4.2968947,22.0753483 C4.74272715,22.2179215 5.23582688,22.2250147 5.71942564,22.1195626 C5.62123627,22.6930317 5.56203748,23.2724434 5.54223277,23.8538482 C5.51159218,24.6660188 5.5415202,25.5633076 5.63130425,26.6045883 C5.65101874,26.8332256 5.68070924,27.084561 5.71895059,27.3578854 C5.75220395,27.591015 5.79163292,27.8198887 5.83414971,28.0471073 C5.74389061,28.2925317 5.65291893,28.5384291 5.56218479,28.7838536 L5.14010472,29.9275127 L4.21138607,30.8437167 C3.92231943,31.1281537 3.63325278,31.4133001 3.34442365,31.69821 C3.32067126,31.721854 3.22304891,31.8150112 3.13469,31.8998931 C2.54919346,32.4607282 2.43328178,32.5720913 2.59954854,33.5589909 C2.70606108,34.1905698 2.91317519,34.801174 3.21307291,35.367755 C3.50047689,35.9127486 3.88621579,36.4433195 4.3812157,36.9374785 C4.99877797,37.5536405 6.01110505,38.3192325 7.07093692,38.7202343 C7.676623,38.949108 8.30083594,39.0611804 8.88680753,38.9675503 C8.85687951,39.0573974 8.82790159,39.1467716 8.79488576,39.2370916 C8.70214685,39.4931411 8.59913716,39.7453883 8.48610462,39.993226 C7.76711962,41.5620037 8.50510654,42.3812675 9.65377237,42.9026171 C10.2273927,43.1627009 10.909324,43.3395578 11.5428004,43.5041199 C11.6724884,43.5372215 11.8021765,43.5712688 11.965593,43.6152466 C12.7161687,43.8171661 14.013287,44.1881401 15.1980564,44.2626186 C16.4911368,44.3439539 17.6573794,44.0781956 17.9699609,42.922951 C18.0934734,42.4649672 18.1654432,42.114327 18.1946586,41.77078 C18.2214988,41.4520592 18.2112853,41.1300283 18.1737565,40.7313909 C18.5423937,39.9180381 18.6986844,39.6894009 18.9682741,39.2971473 C19.0210044,39.2195951 19.0848984,39.1269107 19.1041378,39.0975922 C19.3932045,38.6712913 19.5285931,38.3686484 19.5777606,38.0279387 C19.6252654,37.699051 19.5848863,37.3713455 19.5252678,36.8705661 C19.5195672,36.8230417 19.5110163,36.7535284 19.4984276,36.6615533 C20.2429838,36.7577855 20.9927207,36.8089505 21.743504,36.8147663 C22.120217,36.8171307 22.4966924,36.806018 22.8731679,36.7863935 C22.7769707,36.8353366 22.6826737,36.8840432 22.5795883,36.9367692 L22.4394491,37.0084105 C21.4408984,37.5195932 21.3993318,38.487814 21.7119133,39.4839347 C21.9936167,40.3821693 22.5736502,41.2993192 22.9375369,41.8570805 C23.702364,43.0305311 24.4322751,44.0238145 25.3172893,44.5636064 C26.2448204,45.1294068 27.3046522,45.1960828 28.6725527,44.4591001 C29.3684978,44.0841066 29.58797,43.7017835 29.8834498,43.1863449 C29.9739464,43.0291124 30.0737065,42.8576936 30.1848677,42.6886392 C30.4722716,42.4990145 31.1879313,41.9114617 31.8902896,41.3333665 C32.1294763,41.1366486 32.3684254,40.9408765 32.638015,40.7221697 C32.8237588,40.8581226 33.0479814,40.952462 33.3189962,41.0167737 C33.6710067,41.1007098 34.0902365,41.1385401 34.5925996,41.174479 C34.9686,41.201906 36.1946987,41.2009602 36.9868411,41.2007238 C37.2314907,41.2007238 37.4345737,41.2007238 37.5564235,41.2014331 C38.3742185,41.2063983 39.0342975,41.1636027 39.5330978,40.8822394 C40.0646764,40.5821974 40.3798707,40.0509173 40.4487526,39.098065 C40.4786807,38.6748379 40.4843812,38.4138084 40.4252378,38.1473408 C40.3701322,37.8976604 40.2625339,37.6713875 40.0777402,37.3403719 C40.0665376,36.9285758 40.0554531,36.5167765 40.0444869,36.1049742 C40.0330857,35.6682699 40.0207345,35.2310928 40.0093333,34.7943886 C39.9953194,34.2794228 39.9383137,33.8609244 39.8333281,33.4492828 C39.7292926,33.0404785 39.5806026,32.6472792 39.3815575,32.1753454 C39.2577664,31.8780434 39.1407166,31.5780041 39.0304971,31.2754557 L38.7435682,31.3799621 L38.7877477,31.3638842 L39.0304971,31.2754557 L39.0304971,31.2742735 C38.8594799,30.8151075 38.6908379,30.3679999 38.4547391,29.8896823 C38.4699406,29.7974708 38.4853797,29.6981661 38.5003437,29.5922411 L38.9563897,30.0296546 L39.6285824,30.6744258 C40.1411591,31.1659841 40.6097939,31.6130917 41.1603744,31.9360684 C41.7297193,32.2706306 42.3698464,32.4647477 43.198805,32.4254987 C44.0667175,32.384831 44.9954361,32.0209503 45.7600257,31.4594058 C46.4996753,30.9158308 47.0932477,30.1828676 47.3409851,29.3716428 L47.5557068,28.6679981 L47.7271991,28.1064536 C48.9442718,28.3116834 50.2506535,28.3778865 51.5123808,28.246426 C52.7299285,28.118985 53.9061472,27.8104311 54.9206119,27.2718213 C56.4117873,26.4797481 57.5298126,25.3131544 58.3333561,23.9278538 L58.3338311,23.9278538 C59.2316717,22.3796463 59.7345099,20.5552772 59.9254791,18.6779455 C60.0786821,17.1722971 59.9950736,15.1254382 59.6801169,13.1514026 L59.6801169,13.1514026 Z M43.9116143,25.8051855 C43.2102061,25.5701644 42.7225694,25.2273267 42.1064323,24.8407477 C42.2741242,25.5933355 42.3503694,26.3891917 42.1270969,27.1403608 C41.7727112,28.3324901 41.2002784,30.2826452 42.8261299,30.6425065 C43.4448798,30.7791687 43.7256331,30.7595442 44.5990086,30.3107815 C43.8921374,30.4701419 43.5356139,30.4313658 43.0496399,30.3415187 C42.6092705,30.2608927 42.3757845,29.9826031 42.2527471,29.6541883 C42.4066626,29.7646057 42.6574879,29.8246614 43.0864561,29.9275127 C44.2916527,30.2169149 45.440081,29.6390561 45.6647786,28.8072611 C45.7954168,28.3211409 45.7733271,28.065786 46.0509926,27.4032818 C46.3003927,27.4801247 46.5581062,27.5498745 46.8227079,27.6137132 L46.3747377,29.0675813 C45.9875737,30.3254408 44.478109,31.3397673 43.1455996,31.3163598 C41.9138004,31.2948438 41.1325841,30.526651 40.2820108,29.7735904 C39.6962768,29.2543687 39.1323949,28.7580816 38.5737386,28.2662869 C37.0405215,27.7846591 35.8115725,27.2219325 34.3885666,26.1733222 C35.4013687,27.3578854 36.0880504,28.0137693 37.5003678,28.6032136 C37.2951471,30.6886122 36.5668987,32.2093927 35.9462486,34.2051807 C35.6650203,35.1074348 33.4472591,38.7237809 32.8325472,39.0763126 C32.3943155,39.327648 29.6490136,41.6291526 29.1328741,41.9329777 C28.7480853,42.4413232 28.4105638,43.1440221 27.8321929,43.4480837 C26.0702403,44.3756368 24.9379636,42.5997378 23.989768,41.1000004 C23.558187,40.4166896 22.359166,38.448565 23.4042714,37.8971875 C24.3923711,37.3763107 24.9458019,37.0041546 25.954091,36.3449605 C26.102306,36.6137925 26.3562191,36.8734034 26.5217733,37.1417625 L26.4120372,36.260788 C26.3455305,35.7287985 26.3483808,35.2968231 26.3906601,34.7615235 C26.4319892,34.2432475 26.4728434,33.7249716 26.5136975,33.2064592 C26.3619197,33.7334834 26.0588391,34.2602712 25.9075364,34.7868225 C25.8469677,34.9977268 25.7968502,35.1679634 25.7678723,35.3259052 C23.5056942,35.7860169 21.2599052,35.8146261 18.997252,35.412915 C18.8528375,34.578992 18.6770698,33.7100759 18.5295674,33.0870571 C18.4849129,33.7845544 18.5136533,35.7134299 18.5100904,36.7934867 C18.5072401,37.6300106 18.4720866,37.9165756 18.0383678,38.6282592 C17.6326769,39.2945465 17.4609471,39.4458679 16.8925523,40.571794 C16.9400571,41.2822955 16.9407697,41.7516284 16.7512256,42.4259546 C16.4360313,43.5469155 13.254873,42.6784723 12.4159384,42.4495986 C11.3824717,42.1682353 9.24618127,41.7497369 9.78346045,40.3783863 C10.2561331,39.1715978 10.5558883,37.899079 10.7869991,36.2104263 C8.89369573,33.4953886 7.1331682,29.775009 6.79517162,26.4785659 C6.53270765,23.9191056 6.69018603,22.3437075 7.24646712,20.7780034 C8.12815603,18.2972775 9.36185543,16.1499316 11.340905,14.4208477 C14.0106742,12.0888424 16.5061008,11.1525409 20.4138449,10.5602593 C19.4742001,11.6076875 18.5445314,12.7146984 17.5312542,13.9018624 C16.5053883,15.1036857 15.8961393,16.3175674 15.2446111,17.6324089 C14.3448704,19.4480298 14.3643474,20.1389067 15.5569551,21.7329836 C16.5847213,23.1066986 17.1395772,23.7249885 17.5884975,25.0691485 C17.2179601,25.8295388 17.0830465,26.4724185 16.958584,27.5106255 C18.2169859,28.880321 19.1523552,29.8185139 20.3741784,30.1074433 C21.5729618,30.391171 22.5736502,30.336317 23.6463083,29.790614 C26.027961,28.5786238 28.2317082,27.0133927 30.9183416,26.9486082 C32.1613045,23.9070471 32.0356543,21.3653198 31.4389941,18.4223541 C31.031403,16.4123797 30.867749,14.5092762 30.7411488,12.4602892 C30.2373605,14.570514 30.1425884,16.4260933 30.5164511,18.5282791 C30.9672716,21.0612582 31.3176194,23.8599956 30.063968,26.0863124 C27.6343355,26.2714447 25.552438,27.7428093 23.3629423,28.8715727 C22.4826785,29.325537 21.5663111,29.3697513 20.5922254,29.1035201 C19.6879717,28.8562041 19.0777727,28.2606124 18.1036869,27.1422523 C18.0882479,26.0193999 18.3428736,25.5013604 18.8609133,24.4841966 C19.6931972,22.8511072 20.6117023,21.331036 21.619754,19.7244279 C20.3855795,21.207378 19.2160116,22.4465588 18.2445386,23.9377843 C17.8730512,22.8846816 17.3419476,22.3498549 16.4623964,21.1638731 C15.6032723,20.0055547 15.5134882,19.4986279 16.1559905,18.1580145 C16.8018182,16.8110172 17.3495484,15.6271633 18.4490468,14.4454374 C20.3485258,12.4033072 22.0888638,10.1306483 24.1662483,8.11949174 C25.2942495,7.02761295 25.7521957,7.06520687 27.2483591,6.83964334 C28.6008204,6.63535939 29.9209786,6.3778765 31.3000426,6.05915571 C29.9663456,6.1828137 28.6770656,6.22821013 27.3785222,6.2601295 L27.3381431,6.2613117 C28.616022,4.63720701 29.3573342,3.73211563 31.4321059,2.83459031 C36.5407711,0.62624299 39.7867734,0.387438836 43.7997406,3.74511981 C44.8398579,4.615691 45.7481495,5.46049024 46.8025183,6.21118647 C46.4201048,6.24381516 46.0906591,6.31214625 45.6548026,6.48238287 C46.1851936,6.38165953 46.7977679,6.48143711 47.3483484,6.58168757 C47.502739,6.68146515 47.66188,6.77887832 47.8241089,6.87416355 C48.5687464,7.31086778 48.9913016,7.55203633 49.4948523,8.25024293 C50.026906,8.98817141 50.4706007,9.72562701 50.8613276,10.5385069 C50.6052768,10.4472411 50.3903176,10.3703982 50.1988733,10.3138891 C49.765272,10.1160115 49.2609908,10.1470691 48.8552003,10.396643 L48.8243222,10.4108294 C48.4124557,10.610621 47.7744664,10.8380761 47.3476358,10.9071165 C47.5654453,10.9818314 48.0471438,11.0099678 48.2742167,10.9203571 C48.3046198,10.9085351 48.3354979,10.8990775 48.3673261,10.8917479 C48.2619853,11.0701333 48.1971291,11.2693015 48.177307,11.4752812 C48.1507132,11.7472341 48.2035822,12.0210458 48.3295598,12.2638078 L48.3307474,12.2664086 C48.3692263,12.3567286 48.4229067,12.439719 48.4818127,12.4997747 C48.2868055,12.5714159 48.0875229,12.6532241 47.8820647,12.741889 C48.8342982,12.5976607 49.6927098,12.5728345 50.621666,12.694601 C50.6829471,12.9861312 50.7447034,13.295158 50.8021842,13.6093864 L50.4568243,13.6363406 C50.4475522,13.6370239 50.4382882,13.637812 50.429034,13.638705 C49.9893772,13.2890106 49.4996028,13.3478841 48.8304978,13.4999148 C46.7953926,13.9616817 47.2735283,15.0982476 46.337684,16.8110172 C47.309632,15.6283455 47.2374247,14.3908198 48.8214719,14.017245 C49.1905841,13.9304716 49.4418845,13.8214729 49.6917597,13.8588304 C49.2421268,14.083921 48.8533001,14.4572594 48.6989096,14.8906535 C48.2642407,16.1128106 48.5340679,17.1425057 48.0564073,18.2840369 C48.6478419,17.2635629 48.683708,16.2676786 49.2129114,15.1937692 C49.4029306,14.8083724 50.1079016,14.1912647 50.5406703,14.1818071 L50.8969562,14.1740046 C51.0014668,14.8530596 51.0648856,15.5276222 51.0245066,16.0870386 C50.9506366,17.1079855 50.6841348,18.6233279 50.5247562,19.2033146 C51.0606102,18.5174029 51.3047848,17.0649535 51.5401711,16.0421151 C51.7852958,14.9776633 51.723302,13.7001793 51.5088179,12.5562838 C51.2142882,10.9870331 52.8380019,11.242388 53.780497,10.5028045 C54.4733543,9.95899305 54.95054,9.0910227 55.585679,8.47580645 C56.2158301,7.86579188 57.2079676,8.762135 57.4557051,9.35819962 C58.5302634,11.9465056 59.0198003,16.0182347 58.7361967,18.6273474 C58.4174396,21.5549444 56.9970463,24.7509006 54.4030473,26.1922374 C51.0962388,28.0293743 47.1972832,26.9069948 43.9116143,25.8051855 L43.9116143,25.8051855 Z M39.2129155,38.8079535 C39.1050797,40.0159242 38.7005764,40.0956044 37.6350439,40.0771621 C37.1509701,40.0686502 35.2232257,40.059902 34.7339264,40.0180521 C34.0427317,39.9587057 33.6546175,39.8972314 33.4434588,39.7402354 C34.5294183,38.9467436 36.3745043,35.6706343 36.7343531,34.5425803 C37.1148665,33.3509239 37.531246,32.3110618 37.8409772,31.2097254 C37.9834916,31.6700737 38.0958404,32.1261659 38.3031988,32.6151234 C38.6492712,33.4322592 38.8186258,33.937058 38.8433283,34.8135402 L38.9217112,37.5876879 C39.2193287,38.1059638 39.2656458,38.2166176 39.2129155,38.807717 L39.2129155,38.8079535 Z M6.53128251,29.657262 C7.22081454,32.0318265 8.395608,34.3652504 9.69795182,36.3269911 L9.69795182,36.3612749 C9.61600606,36.6986744 9.52170905,37.0268528 9.3238516,37.2904831 C8.39275771,38.5303732 6.02511897,36.7104964 5.33962484,36.0144177 C4.5904743,35.2526088 4.08906124,34.351064 3.96958669,33.5050826 C3.88265293,32.8884477 3.96721145,32.8733156 4.39950504,32.4368478 L6.14815637,30.6746623 L6.53128251,29.657262 L6.53128251,29.657262 Z M5.2142122,14.723727 C5.03749438,15.1013213 4.91208173,15.3876498 4.82681063,15.6822538 C4.4555607,16.9585556 4.99474007,18.0977223 3.83063518,19.0229111 C4.37765284,20.1214102 4.3524753,20.5597695 5.62489111,20.0521334 C6.11561559,19.8558884 6.5203564,19.5816182 6.88186786,19.25675 C6.70687054,19.7092743 6.54598975,20.1670833 6.39945671,20.6295192 C6.37427917,20.7075444 6.35028926,20.7862788 6.32724943,20.8643039 C5.41729517,21.248755 4.22041198,21.4929972 3.76246581,20.5410908 C3.54014339,20.078851 3.41449322,19.6253596 3.25226436,19.0413534 C1.75372575,17.4959832 3.99381413,15.4555081 5.2142122,14.723727 Z M5.95077397,16.3608359 C5.76574281,16.1764129 5.61776539,16.0518091 5.37857877,16.0787633 C5.39876831,15.922713 5.42560851,15.7721009 5.46337482,15.6307099 C5.48237674,15.5578865 5.5028038,15.4864817 5.524656,15.4148404 C5.83486228,15.5947711 5.91657052,15.9208215 5.95077397,16.3605994 L5.95077397,16.3608359 Z M50.88508,10.5883957 C50.9416107,10.7070884 50.9971913,10.8279091 51.0518218,10.9501485 C51.0066923,10.9832501 50.9637004,11.0180067 50.9235589,11.0546549 C50.849751,10.8831376 50.7431894,10.7275178 50.6097898,10.5964346 C50.6990988,10.5931245 50.790783,10.5902872 50.8853175,10.5883957 L50.88508,10.5883957 Z M5.36907781,19.461034 L5.36884029,19.461034 L5.35862676,19.4350256 L5.36884029,19.4612704 L5.36907781,19.461034 Z M0.0813196101,19.0893507 C0.319793657,16.40174 0.844721589,15.2412936 2.76296502,13.2185515 C0.356847394,14.9062585 -0.243613155,15.6732691 0.0813196101,19.0891142 L0.0813196101,19.0893507 Z" id="Shape" fill="#000000" fill-rule="nonzero"></path>
                    <path d="M0.0300441711,17 C0.292446365,15.7805213 0.537198187,15.3202372 1.27969049,14.3193399 C0.0749937846,15.1714971 -0.0817415169,15.5214179 0.0298088328,17 M28,0 C26.5717319,0.34872895 26.2994455,0.616175213 25.8711298,2.03421248 C26.5545522,0.995891698 26.9480378,0.658127568 28,0" id="Shape" fill="#000000" fill-rule="nonzero"></path>
                    <path d="M30.5449698,0.000231450572 C27.709358,0.683010638 26.8761306,1.16859394 25.9343032,4.39756087 C27.1314935,2.03259892 28.0379846,1.16188187 30.5449698,0 M36.6520063,11.7708817 C36.9542486,10.4553167 37.4913587,9.1876619 39.5707759,8.20677438 C36.8145528,8.88492456 36.2977021,10.0225041 36.6520063,11.7711132 M54.1900659,11.8618418 C55.8223625,11.2901589 56.6091817,10.0007478 57,8.48382071 C56.3611216,9.75517871 55.3752418,10.8184626 54.0360001,11.4697645 C53.3172619,11.8192549 52.858127,11.6972805 52.0555242,11.6225219 C52.8717903,11.8528152 53.3888766,12.1423599 54.1900659,11.8618418 M43.0704725,13.1510215 C42.86115,12.7197874 42.4878205,12.3865726 42.0308817,12.2231362 C42.4313586,12.0132105 42.8245326,11.7926381 43.1312508,11.5183692 C42.2325336,11.9271109 41.1863467,11.8273557 40.4150753,12.3390929 C39.7359137,12.7899586 38.7983267,14.2184715 38.1080931,14.8241777 C38.6079824,14.6334624 39.0897325,14.3036453 39.5333195,13.956238 C39.5383035,14.6286865 39.9210584,15.2433923 40.5281512,15.5539413 C40.2729624,15.8823192 40.0697977,16.2467326 39.9255513,16.6348155 C41.2398221,15.1044643 43.1453852,13.9486002 44.9371658,13.4544532 C44.4363342,13.4475097 43.8433928,13.5393956 43.2393795,13.7345084 C43.2168359,13.5320719 43.1597342,13.3348148 43.0704725,13.1510215 M41.179515,24.714755 C41.1156743,25.1109984 41.0280405,25.6035252 40.9641998,26 C41.1349914,25.5514488 41.3404125,25.0302221 41.5390019,24.6025014 C41.7496056,24.1497841 41.8680996,24.1071972 42.3149847,23.8683402 C42.6318326,23.6989184 43.2071058,23.4660791 43.5239537,23.2966573 C43.1979184,23.3505853 42.6136933,23.4683936 42.287658,23.5223216 C41.4169742,23.6667468 41.3144993,23.8722749 41.179515,24.714755 M26.3058044,9.41517782 C25.2951893,10.3965282 24.3135498,13.7641341 24,15.1116393 C24.494,13.9923443 25.7302956,10.861281 26.678719,10.0648596 C26.940678,9.84475008 27.1237195,9.70958294 27.3204243,9.61121645 C26.6414983,10.7298171 26.6914401,11.0080207 26.929606,12.5066631 C27.1319646,10.983024 27.6681325,10.3944452 28.5480037,9.25779143 C29.5124462,9.02009169 30.4151682,8.73517604 31.4045816,8.35606 C30.2902218,8.47983743 29.1747289,8.5935616 28.058244,8.69721814 C27.1211282,8.78447501 26.9701249,8.76966217 26.3055688,9.41517782" id="Shape" fill="#000000" fill-rule="nonzero"></path>
                    <path d="M40.0764463,15.6128722 C39.8899416,15.2515294 40.0564026,14.819322 40.4484306,14.6470347 C40.6561665,14.5563514 40.8964785,14.5535032 41.1066787,14.6392329 C41.316879,14.7249627 41.476122,14.8907687 41.5428676,15.0933987 C41.1684927,15.349502 40.8254352,15.6507482 40.5376016,16 C40.3439594,15.9282118 40.1723111,15.797848 40.0762072,15.6128722 M48.8340943,12.4920675 C48.8656508,12.193684 49.1417702,11.973695 49.4657025,12.0025424 C49.7901546,12.0320177 50.0277695,12.2974417 49.9973819,12.5964466 C49.9906735,12.6580378 49.9726462,12.7181303 49.9440705,12.7741554 C49.6476306,12.82106 49.3511907,12.9007757 49.0456663,13.0042741 C48.9180059,12.8838196 48.8161644,12.6640508 48.8340943,12.4920675" id="Shape" fill="#FFFFCC" fill-rule="nonzero"></path>
                </g>
            </g>
        </g>
    </g>
</svg>