<?xml version="1.0" encoding="UTF-8"?>
<svg width="40px" height="45px" viewBox="0 0 40 45" version="1.1" xmlns="http://www.w3.org/2000/svg" xmlns:xlink="http://www.w3.org/1999/xlink">
    <!-- Generator: Sketch 53.2 (72643) - https://sketchapp.com -->
    <title>neo4j</title>
    <desc>Created with Sketch.</desc>
    <g id="web" stroke="none" stroke-width="1" fill="none" fill-rule="evenodd">
        <g id="Technologies---Technologies-tab" transform="translate(-1052.000000, -2780.000000)">
            <g id="Big-data" transform="translate(735.000000, 2220.000000)">
                <g id="neo4j" transform="translate(317.000000, 560.000000)">
                    <path d="M38,20.9999256 C38,31.4942082 29.4940852,40 19,40 C8.50591475,40 0,31.4942082 0,20.9999256 C0,10.5059555 8.50591475,2.00000747 19,2.00000747 C29.4940852,1.9907921 37.9998438,10.5057993 37.9998438,20.9999256" id="Path" fill="#008CC1"></path>
                    <path d="M8.99781742,14.2810707 C8.99781742,15.1240393 8.32562441,15.8093836 7.49898578,15.8093836 C6.672193,15.8093836 6,15.1241965 6,14.2810707 C6,13.4382592 6.67203887,12.7529149 7.49898578,12.7529149 C7.89685226,12.7517418 8.27875486,12.9123667 8.56009012,13.1992062 C8.84142539,13.4860457 8.99896804,13.8754201 8.99781742,14.2810707 M9.25214405,18.4768985 C9.25214405,19.31971 8.57995105,20.0052114 7.75331241,20.0052114 C6.92667378,20.0052114 6.25432664,19.31971 6.25432664,18.4768985 C6.25432664,17.6339298 6.92667378,16.9487428 7.75331241,16.9487428 C8.1511789,16.9475696 8.53308149,17.1081946 8.81441676,17.395034 C9.09575203,17.6818735 9.25329467,18.0712479 9.25214405,18.4768985 M10.1697237,22.9227568 C10.1697237,23.7655683 9.49737658,24.4509125 8.67073795,24.4509125 C7.84409931,24.4509125 7.17175217,23.7655683 7.17175217,22.9227568 C7.17175217,22.0796309 7.84409931,21.3944439 8.67073795,21.3944439 C9.49737658,21.3851719 10.1695696,22.0705161 10.1695696,22.9227568 M12.2228333,26.905328 C12.2228333,27.7481395 11.550332,28.4336409 10.7236934,28.4336409 C9.89705474,28.4336409 9.22486174,27.7481395 9.22486174,26.905328 C9.22486174,26.0623593 9.89705474,25.3771723 10.7236934,25.3771723 C11.550332,25.3677431 12.2226792,26.0532444 12.2226792,26.905328 M28.2746974,32.4718443 C28.2746974,33.3146558 27.6025044,34 26.7757117,34 C25.949073,34 25.27688,33.3146558 25.27688,32.4718443 C25.27688,31.6290327 25.9489189,30.9435314 26.7757117,30.9435314 C27.6025044,30.9435314 28.2746974,31.6290327 28.2746974,32.4718443 M30.9998459,29.1837321 C30.9998459,30.0265436 30.327807,30.7118879 29.5008601,30.7118879 C28.6742215,30.7118879 28.0020284,30.0267008 28.0020284,29.1837321 C28.0020284,28.3409206 28.6742215,27.6554192 29.5008601,27.6554192 C30.327807,27.6554192 31,28.3409206 31,29.1837321 M23.0966071,5.93608943 C23.0966071,6.77890094 22.42426,7.46424516 21.5976214,7.46424516 C20.7709827,7.46424516 20.0987897,6.7790581 20.0987897,5.93608943 C20.0987897,5.09327791 20.7709827,4.40793369 21.5976214,4.40793369 C22.42426,4.40793369 23.0966071,5.09312075 23.0966071,5.93608943 M19.1540819,4.52831289 C19.1540819,5.3711244 18.4817347,6.05646862 17.6550961,6.05646862 C16.8284575,6.05646862 16.1562645,5.37128156 16.1562645,4.52831289 C16.1562645,3.68550137 16.8283033,3 17.6550961,3 C18.4817347,3 19.1540819,3.68550137 19.1540819,4.52831289" id="Shape" fill="#FFFFFF" fill-rule="nonzero"></path>
                    <path d="M29,6 C34.5227518,6 39,10.4772482 39,16 C39,21.5227518 34.5227518,26 29,26 C23.4770939,26 19,21.5227518 19,16 C19,10.4772482 23.4770939,6 29,6" id="Path" fill="#66B245"></path>
                    <path d="M29.5000789,26 C23.7103423,26 19,21.2896223 19,15.5 C19,9.71021993 23.7103423,5 29.5000789,5 C35.2896577,5 40,9.71006219 40,15.5 C40,21.2896223 35.2896577,26 29.5000789,26 Z M29.5000789,5.54766698 C24.0124086,5.54766698 19.5478206,10.0124463 19.5478206,15.5 C19.5478206,20.9877114 24.0124086,25.4521753 29.5000789,25.4521753 C34.9877491,25.4521753 39.4521794,20.9877114 39.4521794,15.5 C39.4521794,10.0122886 34.9877491,5.54782472 29.5000789,5.54782472 L29.5000789,5.54766698 Z" id="Shape" fill="#FFFFFF" fill-rule="nonzero"></path>
                    <path d="M15.5,28 C20.1942858,28 24,31.8054296 24,36.4999199 C24,41.1942499 20.1942858,45 15.5,45 C10.805554,45 7,41.1942499 7,36.4999199 C7,31.8054296 10.805554,28 15.5,28" id="Path" fill="#66B245"></path>
                    <path d="M15.5,45 C10.8129666,45 7,41.1868782 7,36.5 C7,31.8129666 10.8129666,28 15.5001552,28 C20.1870334,28 24,31.8129666 24,36.5001552 C24,41.1868782 20.1870334,45 15.5,45 Z M15.5,28.5389018 C11.1102704,28.5389018 7.53890177,32.1101152 7.53890177,36.5 C7.53890177,40.8897296 11.1102704,44.4610982 15.5,44.4610982 C19.8897296,44.4610982 23.4610982,40.8897296 23.4610982,36.5 C23.4610982,32.1102704 19.8897296,28.5389018 15.5,28.5389018 Z" id="Shape" fill="#FFFFFF" fill-rule="nonzero"></path>
                    <path d="M9.49992223,1 C12.5375479,1 15,3.46257282 15,6.5 C15,9.53758272 12.5375479,12 9.49992223,12 C6.46229657,12 4,9.53758272 4,6.5 C4,3.46241728 6.4624521,1 9.49992223,1" id="Path" fill="#66B245"></path>
                    <path d="M9,11 C5.69157367,11 3,8.53272414 3,5.5 C3,2.46727586 5.69157367,0 9,0 C12.3084263,0 15,2.46727586 15,5.5 C15,8.53272414 12.3084263,11 9,11 Z M9,0.514892986 C6.0014556,0.514892986 3.56170144,2.75118605 3.56170144,5.5 C3.56170144,8.24881395 6.00129387,10.4852553 9,10.4852553 C11.9987061,10.4852553 14.4384603,8.24881395 14.4384603,5.5 C14.4384603,2.7513343 11.9987061,0.514892986 9,0.514892986 Z" id="Shape" fill="#FFFFFF" fill-rule="nonzero"></path>
                </g>
            </g>
        </g>
    </g>
</svg>