<?xml version="1.0" encoding="UTF-8"?>
<svg width="60px" height="45px" viewBox="0 0 60 45" version="1.1" xmlns="http://www.w3.org/2000/svg" xmlns:xlink="http://www.w3.org/1999/xlink">
    <!-- Generator: Sketch 53.2 (72643) - https://sketchapp.com -->
    <title>r-lang</title>
    <desc>Created with Sketch.</desc>
    <defs>
        <linearGradient x1="37.973%" y1="36.0570775%" x2="91.121%" y2="61.122735%" id="linearGradient-1">
            <stop stop-color="#C9CBCE" offset="0%"></stop>
            <stop stop-color="#7B7A81" offset="100%"></stop>
        </linearGradient>
    </defs>
    <g id="web" stroke="none" stroke-width="1" fill="none" fill-rule="evenodd">
        <g id="Technologies---Technologies-tab" transform="translate(-962.000000, -2780.000000)" fill-rule="nonzero">
            <g id="Big-data" transform="translate(735.000000, 2220.000000)">
                <g id="r-lang" transform="translate(227.000000, 560.000000)">
                    <path d="M34.9999219,34.6043838 C22.5,34.6043838 11.8767187,28.4142791 11.8767187,20.9990374 C11.8767187,13.5837958 21.2500781,7.41524165 33.75,7.41524165 C49.5367969,7.41524165 56.8528125,13.4195018 56.8528125,20.8347435 C56.8528125,28.2499851 48.7886719,34.6043838 34.9999219,34.6043838 M30,0 C13.7500781,0 0,8.65103801 0,19.7739005 C0,30.2789806 13.666875,39 29.9170312,39 C46.1669531,39 60,30.896763 60,19.7739005 C60,8.65103801 46.2499219,0 30,0" id="Shape" fill="url(#linearGradient-1)"></path>
                    <path d="M25,12 L25,45 L34.9623303,45 L34.9623303,32.1668356 C37.4529712,32.1668356 38.9364691,31.6224054 40.5659804,34.6111587 C43.0566214,38.8889582 46.1698642,45 46.1698642,45 L58,45 C58,45 50.5283107,32.7779164 49.9057089,32.1668356 C48.7574582,30.9444401 47.4150679,30.9444401 45.5472624,30.3333593 C49.283107,29.7222785 52.7659394,28.1706057 53.9768007,24.8460268 C55.0353406,21.7906229 54.9108202,17.9038403 52.6418862,15.2974509 C50.6768941,13.235024 48.6605052,12 43.6792232,12 L25,12 Z M34.9623303,18.8727296 L41.5,18.8727296 C43.0503136,18.8727296 44.3018251,20.4005485 44.3018251,21.9281336 C44.3018251,23.4559525 43.0566214,24.9837714 41.5,24.9837714 L34.9623303,24.9837714 L34.9623303,18.8727296 Z" id="Shape" fill="#2165B6"></path>
                </g>
            </g>
        </g>
    </g>
</svg>