<?xml version="1.0" encoding="UTF-8"?>
<svg width="106px" height="40px" viewBox="0 0 106 40" version="1.1" xmlns="http://www.w3.org/2000/svg" xmlns:xlink="http://www.w3.org/1999/xlink">
    <!-- Generator: Sketch 53.2 (72643) - https://sketchapp.com -->
    <title>amazon-web-services</title>
    <desc>Created with Sketch.</desc>
    <g id="web" stroke="none" stroke-width="1" fill="none" fill-rule="evenodd">
        <g id="Technologies---Technologies-tab" transform="translate(-774.000000, -2117.000000)" fill-rule="nonzero">
            <g id="Cloud" transform="translate(735.000000, 1552.000000)">
                <g id="amazon-web-services" transform="translate(39.000000, 565.000000)">
                    <path d="M34.5621858,15.1111111 C32.493261,15.1111111 30.1837003,15.8839 29.6997149,18.4276999 C29.6481501,18.6978689 29.8326978,18.8268133 30.010913,18.866286 L32.1314026,19.1127715 C32.3277108,19.1031226 32.4606937,18.8961099 32.4986888,18.7013776 C32.679618,17.8259596 33.4223321,17.4128114 34.2518923,17.4128114 C34.6996919,17.4128114 35.202675,17.5619307 35.4677362,17.9610441 C35.7716972,18.4057705 35.7499857,19.0101423 35.7499857,19.5232881 L35.7499857,19.8250354 C34.4898141,19.965383 32.8306938,20.0504687 31.6510358,20.5653689 C30.2895439,21.1521972 29.3333333,22.3460288 29.3333333,24.1012508 C29.3333333,26.3503207 30.7545318,27.4731014 32.5846302,27.4731014 C34.1297651,27.4731014 34.9837507,27.1213552 36.1751692,25.9108574 C36.5704994,26.4810194 36.6971498,26.7397852 37.4190571,27.3362625 C37.5827874,27.4268224 37.7880344,27.4048672 37.927468,27.2818778 L37.927468,27.3090701 C38.361698,26.9248686 39.1514537,26.2266394 39.5956348,25.8564727 C39.7729453,25.7126164 39.7340456,25.4757799 39.5956348,25.2810476 C39.1984953,24.7354464 38.7760257,24.2951058 38.7760257,23.2802174 L38.7760257,19.9083668 C38.7760257,18.4803302 38.9008668,17.1636945 37.8433359,16.1803842 C37.0083479,15.3847889 35.618812,15.1111111 34.5621858,15.1111111 L34.5621858,15.1111111 Z M63.058527,15.1111111 C60.9886975,15.1111111 58.6809462,15.8839 58.1960561,18.4276999 C58.1444913,18.6978689 58.3281344,18.8268133 58.5072542,18.866286 L60.6277439,19.1127715 C60.824052,19.1031226 60.9579396,18.8961099 60.9950301,18.7013776 C61.1768639,17.8259596 61.9186734,17.4128114 62.7482335,17.4128114 C63.1969378,17.4128114 63.6990162,17.5619307 63.9640774,17.9610441 C64.2671338,18.4057705 64.2182829,19.0101423 64.2182829,19.5232881 L64.2182829,19.8250354 C62.9581113,19.965383 61.3279397,20.0504687 60.147377,20.5653689 C58.7849805,21.1521972 57.8296746,22.3460288 57.8296746,24.1012508 C57.8296746,26.3503207 59.2517777,27.4731014 61.0809714,27.4731014 C62.6242971,27.4731014 63.4782827,27.1213552 64.6715104,25.9108574 C65.065936,26.4810194 65.193491,26.7397852 65.9153983,27.3362625 C66.0782346,27.420471 66.2799706,27.4116993 66.4238092,27.2818778 L66.4238092,27.3090701 C66.8580392,26.9248686 67.6477949,26.2266394 68.091976,25.8564727 C68.2683819,25.7126164 68.2276729,25.4757799 68.091976,25.2810476 C67.6948365,24.7354464 67.2723669,24.2951058 67.2723669,23.2802174 L67.2723669,19.9083668 C67.2723669,18.4803302 67.3673548,17.1636945 66.3116332,16.1803842 C65.4757405,15.3847889 64.1151533,15.1111111 63.058527,15.1111111 L63.058527,15.1111111 Z M47.0291089,15.2207577 C45.6920425,15.2207577 44.7005508,15.8751282 44.1740469,17.2768497 L44.1460029,17.2768497 L44.1460029,15.8242522 C44.1311826,15.6183093 43.9621612,15.4544209 43.7497681,15.4400508 L41.7143151,15.4400508 C41.4814155,15.443348 41.2934368,15.6256179 41.2900363,15.8514446 L41.2900363,26.9529381 C41.3099337,27.1566012 41.4762293,27.3178465 41.6862711,27.3371396 L43.8628488,27.3371396 C44.0961499,27.3347657 44.2846794,27.1519617 44.2871276,26.9257458 L44.2871276,21.0320246 C44.2871276,19.7469671 44.2228978,17.9891137 45.785221,17.9891137 C47.327642,17.9891137 47.1141456,19.7952116 47.1141456,21.0320246 L47.1141456,26.9257458 C47.1141456,27.13539 47.2905515,27.3231049 47.5103805,27.3371396 L49.6869581,27.3371396 C49.9202593,27.3347657 50.1087887,27.1519617 50.111237,26.9257458 L50.111237,21.0320246 C50.111237,20.4013377 50.0850023,19.4829382 50.3093544,18.9215479 C50.5328019,18.3601576 51.0819219,17.9899908 51.610235,17.9899908 C52.2398685,17.9899908 52.7202354,18.2031437 52.8821669,18.9496174 C52.9834873,19.3934666 52.938255,20.5662461 52.938255,21.0329018 L52.938255,26.926623 C52.938255,27.1362672 53.1146609,27.323982 53.3344898,27.3380168 L55.5110675,27.3380168 C55.7443686,27.3356429 55.9328981,27.1528389 55.9353464,26.926623 L55.9353464,19.909244 C55.9353464,18.7171667 56.0592828,17.3636898 55.3699428,16.4277468 C54.7611162,15.5874157 53.7660058,15.2216348 52.8541229,15.2216348 C51.5749538,15.2216348 50.3853447,15.8760054 49.8579362,17.2777269 C49.248205,15.8760054 48.3887915,15.2207577 47.0291089,15.2207577 L47.0291089,15.2207577 Z M84.0354528,15.2207577 C80.8899995,15.2207577 79.1449378,17.9022736 79.1449378,21.3609643 C79.1449378,24.7959713 80.8710019,27.5555556 84.0354528,27.5555556 C87.0795857,27.5555556 89.0110044,24.8591277 89.0110044,21.4697336 C89.0110044,17.9671844 87.2614195,15.2207577 84.0354528,15.2207577 Z M96.4453832,15.2207577 C94.9427666,15.2207577 94.0842578,15.9496879 93.4772405,17.4680733 L93.4491965,17.4680733 L93.4491965,15.7681132 C93.4102967,15.5961874 93.2429372,15.476892 93.0529616,15.4663659 L91.0455527,15.4663659 C90.8307412,15.4616795 90.6472638,15.615687 90.6212738,15.8224979 L90.6212738,26.9239914 C90.6255124,27.1391587 90.7964095,27.316594 91.0175087,27.3353853 L93.1660424,27.3353853 C93.398942,27.332088 93.5869207,27.1498181 93.5903212,26.9239914 L93.5903212,20.9486932 C93.5903212,20.199588 93.6554557,19.5162708 93.9576074,18.8382165 C94.2018617,18.3005099 94.6731822,17.9610441 95.2014953,17.9610441 C96.701398,17.9610441 96.5584639,19.7338095 96.5584639,20.9486932 L96.5584639,26.9792533 C96.5871078,27.1738625 96.7524016,27.322427 96.9546988,27.3353853 L99.1312765,27.3353853 C99.3447729,27.3353853 99.5302252,27.1774943 99.5555553,26.9792533 L99.5555553,19.9890667 C99.5555553,18.9145305 99.5582692,17.4215831 98.9901517,16.5347619 C98.3813251,15.5777668 97.4178774,15.2207577 96.4453832,15.2207577 L96.4453832,15.2207577 Z M70.3237371,15.4128584 C70.1030035,15.4128584 69.9284069,15.5830298 69.9275022,15.8242522 L69.9275022,17.4136886 C69.9284069,17.6514023 70.0975756,17.8233281 70.3237371,17.8250824 L74.0554008,17.8250824 L69.7863775,23.9380967 C69.5258395,24.3319471 69.504128,24.7784278 69.504128,25.0345622 L69.504128,26.652068 C69.504128,26.8853959 69.7655706,27.1388987 70.0125389,27.0082 C72.4451314,25.720511 75.3608046,25.8345434 77.5609031,26.9810077 C77.8277736,27.1222324 78.0982627,26.8573263 78.0982627,26.6248757 L78.0982627,24.9249156 C78.0856788,24.6699211 77.9349743,24.4403871 77.7020278,24.321421 C76.4536167,23.6249462 75.0043742,23.4117933 73.631122,23.4442486 L77.3347417,18.1812144 C77.6776024,17.7084185 77.8693873,17.4233375 77.8721012,17.1943955 L77.8721012,15.8242522 C77.8721012,15.5882929 77.7056464,15.4128584 77.4758664,15.4128584 L70.3237371,15.4128584 L70.3237371,15.4128584 Z M84.0354528,17.4961428 C84.7247928,17.4961428 85.2332037,17.7943814 85.4774581,18.5654159 C85.7597076,19.4539915 85.7886562,20.5636146 85.7886562,21.4986803 C85.7886562,22.9232083 85.7199032,25.2810476 84.0354528,25.2810476 C82.3320048,25.2810476 82.339242,22.3618179 82.339242,21.0048323 C82.339242,19.6513553 82.4324205,17.4961428 84.0354528,17.4961428 L84.0354528,17.4961428 Z M35.721037,21.553065 L35.721037,22.0188435 C35.721037,22.8618062 35.7526996,23.5714386 35.3248022,24.321421 C34.9792275,24.9310558 34.43644,25.3082399 33.8267088,25.3082399 C32.9944347,25.3082399 32.4977842,24.6538693 32.4977842,23.7188036 C32.4986888,21.8749873 34.150572,21.553065 35.721037,21.553065 L35.721037,21.553065 Z M64.2173782,21.553065 L64.2173782,22.0188435 C64.2173782,22.8618062 64.2490408,23.5714386 63.8211434,24.321421 C63.4755687,24.9310558 62.9354952,25.3082399 62.32305,25.3082399 C61.4898713,25.3082399 60.9941254,24.6538693 60.9941254,23.7188036 C60.9950301,21.8749873 62.6451039,21.553065 64.2173782,21.553065 L64.2173782,21.553065 Z" id="Shape" fill="#201C1D"></path>
                    <path d="M77.9867063,27.5555556 L77.9867063,29.2337079 L79.0894835,29.2337079 L79.0894835,27.5555556 L77.9867063,27.5555556 Z M46.0124995,27.8445089 L46.0124995,39.7971769 L47.030239,39.7971769 L47.030239,38.7265676 C47.2473567,39.1507364 47.4943281,39.4683999 47.7937697,39.6814104 C48.0923066,39.8944209 48.4351717,40 48.8115091,40 C49.558756,40 50.2037767,39.609172 50.7619502,38.8136241 C51.3201238,38.0180761 51.6105187,36.865041 51.6105187,35.3980469 C51.6105187,34.4376473 51.4901993,33.6420993 51.2432279,32.9669486 C50.9962565,32.2936502 50.6660565,31.7926124 50.2535328,31.4619831 C49.8410091,31.1313537 49.3723966,30.9414965 48.8685025,30.9414965 C48.5182373,30.9377065 48.1744283,31.0380857 47.8788075,31.2304499 C47.5847939,31.4230855 47.346869,31.7370445 47.1152767,32.1278725 L47.1152767,27.8445089 L46.0124995,27.8445089 Z M56.4730516,30.6525431 C55.7059022,30.6525431 55.0970679,30.8850024 54.663737,31.3471426 C54.2304062,31.8083567 54.0132885,32.40386 54.0132885,33.1419877 C54.0132885,33.5707871 54.1073728,33.932905 54.2674972,34.2709434 C54.4276215,34.6089818 54.6583091,34.8803387 54.9459901,35.0813095 C55.2354804,35.2822803 55.8126518,35.5462281 56.6702669,35.8333292 C57.2637221,36.0287432 57.6183477,36.1954471 57.7730441,36.3251056 C57.9973991,36.5149628 58.1122906,36.7640925 58.1122906,37.1067616 C58.1122906,37.5031464 57.9784013,37.8337757 57.7160507,38.0903145 C57.4546047,38.3487055 57.0909325,38.4663243 56.6132735,38.4663243 C56.1356144,38.4663243 55.7420885,38.3292567 55.4544075,38.0319681 C55.1667265,37.7346795 55.0111254,37.2827268 54.9459901,36.6714792 L53.8432129,36.9030124 C54.0919937,38.7599084 54.9966509,39.6823365 56.5571847,39.6814104 C57.3894694,39.6814104 58.0263481,39.4396897 58.5076258,38.9293907 C58.9889035,38.4190916 59.2422075,37.7300489 59.2422075,36.9030124 C59.2422075,36.4566165 59.1653117,36.069493 59.0160432,35.7453466 C58.8667748,35.4212002 58.6614176,35.1813318 58.393639,34.9933269 C58.1249558,34.8062481 57.5260727,34.5561923 56.6123688,34.2413072 C55.9483504,34.0032911 55.5593478,33.8291781 55.4254585,33.7208206 C55.2001988,33.5374464 55.086212,33.2873905 55.086212,32.9688009 C55.086212,32.6428022 55.1911522,32.3668147 55.4254585,32.1584348 C55.6597647,31.950055 56.020723,31.8398452 56.5001913,31.8398452 C57.3433319,31.8398452 57.8146583,32.3140251 57.913266,33.2577543 L58.9879988,33.0836414 C58.9138169,32.4862858 58.7862603,32.0148843 58.5917589,31.6944424 C58.3972576,31.3740005 58.1095766,31.1035697 57.7431904,30.9127864 C57.3777089,30.7229292 56.9570432,30.6525431 56.4730516,30.6525431 L56.4730516,30.6525431 Z M63.2299368,30.6525431 C62.3460866,30.6525431 61.600649,31.0248485 61.0243824,31.810209 C60.4481157,32.5955694 60.1758138,33.7328603 60.1758138,35.2257862 C60.1758138,36.6640702 60.4535436,37.7911736 61.0243824,38.5543069 C61.5952211,39.3165141 62.3352307,39.6832626 63.2579812,39.6832626 C63.9916582,39.6832626 64.5995879,39.4582124 65.0953401,38.9886631 C65.5919969,38.5191139 65.9520505,37.8282189 66.1411239,36.9048647 L65.0103023,36.7020416 C64.6855303,37.884713 64.0866472,38.4653982 63.2570765,38.4672505 C62.7287567,38.4672505 62.2972351,38.2375696 61.928135,37.7439409 C61.5590348,37.249386 61.350059,36.515889 61.3057308,35.5443758 L66.1682636,35.5443758 L66.1682636,35.1387297 C66.1682636,33.6782185 65.8842012,32.5816775 65.3196951,31.810209 C64.7569983,31.0387405 64.0721727,30.6525431 63.2299368,30.6525431 Z M69.9298286,30.6525431 C69.6656687,30.6525431 69.434981,30.7442303 69.2232912,30.9414965 C69.0116014,31.1387628 68.7709626,31.5481134 68.5167539,32.1565826 L68.5167539,30.8248038 L67.5270589,30.8248038 L67.5270589,39.4785873 L68.6298361,39.4785873 L68.6298361,34.9646168 C68.6298361,34.3348466 68.6877341,33.7291558 68.827956,33.1697717 C68.9075659,32.8493298 69.057739,32.5964956 69.2522403,32.417752 C69.4467416,32.2390084 69.6683826,32.1575087 69.9026889,32.1575087 C70.1623255,32.1575087 70.4201528,32.264014 70.694264,32.4760983 L71.0615548,31.1156095 C70.6761708,30.8007244 70.2989287,30.6525431 69.9298286,30.6525431 L69.9298286,30.6525431 Z M83.4426943,30.6525431 C82.5697,30.6525431 81.8504975,31.028553 81.2941333,31.7814988 C80.7395784,32.5335186 80.4455647,33.6634004 80.4455647,35.1674398 C80.4455647,36.6594395 80.7422923,37.7902475 81.2941333,38.5533808 C81.8450696,39.315588 82.5344184,39.6823365 83.3857009,39.6823365 C84.0886196,39.6823365 84.6929307,39.4146842 85.1950154,38.8719704 C85.6971002,38.3292567 86.0028744,37.5309303 86.1277171,36.4992186 L85.0529843,36.3251056 C84.9733744,37.0632334 84.7852057,37.5939074 84.4875735,37.9458378 C84.1899412,38.2959159 83.8316969,38.4663243 83.4128406,38.4663243 C82.8790928,38.4663243 82.4249549,38.2116378 82.0838991,37.6846684 C81.7428433,37.1576989 81.5754817,36.3149182 81.5754817,35.1378036 C81.5754817,33.9968081 81.7555085,33.1734762 82.1128481,32.648359 C82.4701877,32.1232418 82.9252303,31.8379929 83.469834,31.8379929 C83.8335062,31.8379929 84.1438037,31.9824696 84.4025357,32.2723492 C84.663077,32.5613025 84.8358665,33.0206643 84.9399021,33.6041279 L86.0146349,33.3725947 C85.8852689,32.4612802 85.5993972,31.7731637 85.138022,31.3175064 C84.6766468,30.860923 84.116664,30.6525431 83.4426943,30.6525431 L83.4426943,30.6525431 Z M89.7472509,30.6525431 C88.8634007,30.6525431 88.1179631,31.0248485 87.5416964,31.810209 C86.9654297,32.5955694 86.6931279,33.7328603 86.6931279,35.2257862 C86.6931279,36.6640702 86.9708577,37.7911736 87.5416964,38.5543069 C88.1134398,39.3165141 88.8525448,39.6832626 89.7752952,39.6832626 C90.507163,39.6832626 91.1159973,39.4582124 91.6126542,38.9886631 C92.1084063,38.5191139 92.4684599,37.8282189 92.658438,36.9048647 L91.5276164,36.7020416 C91.2028444,37.884713 90.6301964,38.4653982 89.8033396,38.4672505 C89.2750198,38.4672505 88.8154539,38.2375696 88.4463537,37.7439409 C88.0772535,37.249386 87.8691824,36.515889 87.8239495,35.5443758 L92.6864823,35.5443758 L92.6864823,35.1387297 C92.6864823,33.6782185 92.40242,32.5816775 91.8379138,31.810209 C91.2770263,31.0387405 90.5903914,30.6525431 89.7472509,30.6525431 Z M96.2779717,30.6525431 C95.509013,30.6525431 94.901988,30.8850024 94.4686572,31.3471426 C94.0344217,31.8083567 93.8182086,32.40386 93.8182086,33.1419877 C93.8182086,33.5707871 93.8842486,33.932905 94.0443729,34.2709434 C94.2035926,34.6080557 94.4333755,34.8803387 94.7228659,35.0813095 C95.0105469,35.2822803 95.5904322,35.5462281 96.4471426,35.8333292 C97.0387885,36.0287432 97.4232678,36.1954471 97.5779642,36.3251056 C97.8023192,36.5149628 97.9172107,36.7640925 97.9172107,37.1067616 C97.9172107,37.5031464 97.7833214,37.8337757 97.5209708,38.0903145 C97.2604295,38.3487055 96.8958526,38.4663243 96.4181936,38.4663243 C95.9396299,38.4663243 95.5470086,38.3292567 95.2593276,38.0319681 C94.9716466,37.7346795 94.7861919,37.2827268 94.7219612,36.6714792 L93.619184,36.9030124 C93.8679647,38.7599084 94.7708127,39.6823365 96.3331558,39.6814104 C97.1663452,39.6814104 97.8303636,39.4396897 98.3125459,38.9293907 C98.7947283,38.4190916 99.0471276,37.7300489 99.0471276,36.9030124 C99.0471276,36.4566165 98.9702318,36.069493 98.8209633,35.7453466 C98.6716949,35.4212002 98.439198,35.1813318 98.1705147,34.9933269 C97.9027362,34.8062481 97.3309928,34.5561923 96.4172889,34.2413072 C95.7532705,34.0032911 95.3362235,33.8291781 95.2014296,33.7208206 C94.9761699,33.5374464 94.8621831,33.2873905 94.8621831,32.9688009 C94.8621831,32.6428022 94.9951677,32.3668147 95.2294739,32.1584348 C95.4637802,31.950055 95.8265477,31.8398452 96.3042068,31.8398452 C97.1473474,31.8398452 97.6186738,32.3140251 97.7172815,33.2577543 L98.7920143,33.0836414 C98.7169277,32.4862858 98.5911804,32.0148843 98.3957744,31.6944424 C98.1882415,31.3591973 97.8946937,31.0887968 97.5472059,30.9127864 C97.1844383,30.7229292 96.7610587,30.6525431 96.2779717,30.6525431 L96.2779717,30.6525431 Z M71.0606502,30.8257299 L73.5204133,39.4795134 L74.5661971,39.4795134 L77.0259602,30.8257299 L75.8951387,30.8257299 L74.453115,36.1222826 C74.2785161,36.7622402 74.1247244,37.3151414 74.0288307,37.7717248 C73.9085113,37.1965965 73.7936198,36.592758 73.6325908,36.006516 L72.2195161,30.8257299 L71.0606502,30.8257299 Z M77.9867063,30.8257299 L77.9867063,39.4795134 L79.0894835,39.4795134 L79.0894835,30.8257299 L77.9867063,30.8257299 Z M41.7443265,30.9414965 C40.8695229,30.9414965 40.1656996,31.3434381 39.5957655,32.1278725 C39.0249267,32.9132329 38.7191526,34.0505238 38.7191526,35.5434497 C38.7191526,36.9817337 39.0014056,38.080127 39.5677211,38.8423342 C40.1340365,39.6045414 40.8876161,40 41.8013199,40 C42.526855,40 43.1194056,39.7462397 43.6106345,39.2766904 C44.1009587,38.8071411 44.4402052,38.1162462 44.6283739,37.1928919 L43.5255967,37.018779 C43.2044433,38.2014504 42.6209394,38.7821356 41.8013199,38.7839878 C41.2775233,38.7839878 40.8378599,38.5543069 40.4723784,38.0606782 C40.1068968,37.5661234 39.8943024,36.8326263 39.8499742,35.8611132 L44.6555136,35.8611132 L44.683558,35.4554671 C44.683558,33.9949559 44.3940677,32.8697047 43.8349895,32.0982362 C43.2759113,31.3267677 42.5775158,30.9414965 41.7443265,30.9414965 L41.7443265,30.9414965 Z M29.3333333,31.1443196 L31.3127235,39.7981031 L32.4715894,39.7981031 L33.7724866,33.1410616 L33.9986509,34.617317 L35.0444347,39.7981031 L36.1752563,39.7981031 L38.1826908,31.1443196 L37.136907,31.1443196 L36.0341298,36.1509927 L35.6668389,37.8291451 L35.3275924,36.1509927 L34.3668464,31.1443196 L33.2360248,31.1443196 L32.2182854,36.2093391 L31.8790389,38.0041841 L31.482799,36.1519188 L30.4650596,31.1452457 L29.3333333,31.1452457 L29.3333333,31.1443196 Z M99.6984809,31.2313761 L99.6984809,31.6370222 L100.773214,31.6370222 L100.773214,34.5311867 L101.197498,34.5311867 L101.197498,31.6370222 L102.272231,31.6370222 L102.272231,31.2313761 L99.6984809,31.2313761 Z M102.69561,31.2313761 L102.69561,34.5302606 L103.09185,34.5302606 L103.09185,31.7231525 L104.024552,34.5302606 L104.420792,34.5302606 L105.353494,31.7805727 L105.353494,34.5302606 L105.777778,34.5302606 L105.777778,31.2313761 L105.184323,31.2313761 L104.420792,33.5467077 C104.343896,33.7782408 104.288712,33.9458709 104.250716,34.0671942 L104.080641,33.5754178 L103.31711,31.2313761 L102.69561,31.2313761 L102.69561,31.2313761 Z M63.2009878,31.8389191 C63.7501147,31.8389191 64.2024434,32.1112021 64.5579737,32.6492851 C64.8022311,33.0178859 64.9605462,33.5791223 65.0103023,34.3274375 L61.3636288,34.3274375 C61.3980058,33.5680087 61.6078863,32.9817668 61.957084,32.5325924 C62.3062817,32.0834181 62.7079495,31.8389191 63.2009878,31.8389191 L63.2009878,31.8389191 Z M89.7192065,31.8389191 C90.2665241,31.8389191 90.7206621,32.1112021 91.0761924,32.6492851 C91.3204499,33.0178859 91.4787649,33.5791223 91.528521,34.3274375 L87.8818476,34.3274375 C87.9162245,33.5680087 88.126105,32.9817668 88.4753027,32.5325924 C88.8235958,32.0852704 89.2252636,31.8389191 89.7192065,31.8389191 L89.7192065,31.8389191 Z M41.7443265,32.1575087 C42.2871209,32.1575087 42.7231657,32.4297917 43.073268,32.9678748 C43.3148115,33.3364756 43.4758405,33.897712 43.5255967,34.6460271 L39.9350119,34.6460271 C39.9693889,33.8865984 40.1530343,33.2716463 40.5004227,32.8224719 C40.8450972,32.3742237 41.2549069,32.1575087 41.7443265,32.1575087 Z M48.7554204,32.1575087 C49.2457446,32.1575087 49.6627916,32.4362746 49.9993241,32.9678748 C50.3358566,33.500401 50.4796972,34.3209546 50.4796972,35.4573193 C50.4796972,36.5640479 50.3204775,37.3892321 49.9712798,37.9467639 C49.6220821,38.5042958 49.2059397,38.7858401 48.7554204,38.7858401 C48.4243158,38.7858401 48.1230649,38.6719258 47.8507631,38.4385403 C47.5775566,38.2051549 47.3776274,37.870821 47.2283589,37.4253512 C47.0790905,36.9798814 47.0021946,36.2945433 47.0021946,35.398973 C47.0021946,34.3441079 47.18584,33.5541167 47.539561,32.9965849 C47.893282,32.439053 48.3049011,32.1575087 48.7554204,32.1575087 Z" id="Shape" fill="#000000"></path>
                    <path d="M13.4856878,23.2333333 L9.25117456,25.0555556 L13.1728286,26.7356444 L17.720201,25.0555556 L13.4856878,23.2333333 L13.4856878,23.2333333 Z M7.11936634,25.5111111 L6.97748832,33.7111111 L13.1728286,36.4444444 L13.1728286,27.9310222 L7.11936634,25.5111111 Z M19.8520093,25.5111111 L14.2532843,27.6467556 L14.2532843,35.6754667 L19.8520093,33.3976889 L19.8520093,25.5111111 Z M26.5311899,4.04614613e-16 L22.2675735,1.82222222 L26.2183307,3.50231111 L30.7657032,1.82222222 L26.5311899,0 L26.5311899,4.04614613e-16 Z M20.6196057,2.42082222 L20.6196057,10.6208222 L25.9054715,12.1587778 L26.0764527,4.6986 L20.6196057,2.42082222 Z M32.4427742,2.87637778 L27.4406644,5.01202222 L27.4406644,13.0698889 L32.4427742,10.7921111 L32.4427742,2.87637778 Z M6.50819948,11.5410444 L2.27368624,13.3632667 L6.19534025,15.0433556 L10.7427127,13.3632667 L6.50819948,11.5410444 L6.50819948,11.5410444 Z M0.141878021,13.8188222 L0,22.0188222 L6.19534025,24.7521556 L6.19534025,16.2387333 L0.141878021,13.8188222 Z M12.8745209,13.8188222 L7.27579595,15.9544667 L7.27579595,23.9831778 L12.8745209,21.7054 L12.8745209,13.8188222 L12.8745209,13.8188222 Z M20.1503169,11.2385556 L15.9158036,13.0607778 L19.8374577,14.7408667 L24.3848301,13.0607778 L20.1503169,11.2385556 L20.1503169,11.2385556 Z M13.7839954,13.5163333 L13.6421174,21.7163333 L19.8374577,24.4496667 L19.8374577,15.9371556 L13.7839954,13.5163333 L13.7839954,13.5163333 Z M26.5166384,13.5163333 L20.9179134,15.6519778 L20.9179134,23.6806889 L26.5166384,21.4029111 L26.5166384,13.5163333 Z M39.8559008,4.04614613e-16 L35.6213875,1.82222222 L39.5430415,3.50231111 L44.090414,1.82222222 L39.8559008,4.04614613e-16 Z M33.4895793,2.27777778 L33.3477013,10.4777778 L39.5430415,13.2111111 L39.5430415,4.6986 L33.4895793,2.27777778 Z M46.2222222,2.27777778 L40.6234972,4.41342222 L40.6234972,12.4421333 L46.2222222,10.1643556 L46.2222222,2.27777778 Z" id="Shape" fill="#F7A80D"></path>
                </g>
            </g>
        </g>
    </g>
</svg>